<svg xmlns="http://www.w3.org/2000/svg" xmlns:xlink="http://www.w3.org/1999/xlink" zoomAndPan="magnify" preserveAspectRatio="xMidYMid meet" version="1.0" viewBox="303.19 480.76 323.98 347.45"><defs><clipPath id="2e8a14eeff"><path d="M 303.191406 480.757812 L 627.191406 480.757812 L 627.191406 828.007812 L 303.191406 828.007812 Z M 303.191406 480.757812 " clip-rule="nonzero"/></clipPath></defs><path fill="#5e0813" d="M 556.359375 533.886719 C 556.34375 533.941406 556.324219 534 556.308594 534.0625 C 556.335938 534.039062 556.363281 534.019531 556.390625 534 C 556.390625 534 556.363281 533.890625 556.363281 533.890625 Z M 556.359375 533.886719 " fill-opacity="1" fill-rule="nonzero"/><path fill="#5e0813" d="M 558.96875 530.484375 C 558.929688 530.5 558.902344 530.519531 558.863281 530.53125 L 558.980469 530.617188 C 558.976562 530.574219 558.972656 530.53125 558.96875 530.492188 Z M 558.96875 530.484375 " fill-opacity="1" fill-rule="nonzero"/><g clip-path="url(#2e8a14eeff)"><path fill="#5e0813" d="M 626.59375 566.546875 C 627.53125 564.453125 627.464844 563.9375 625.328125 563.015625 C 623.117188 562.0625 621.347656 560.578125 619.476562 559.175781 C 618.816406 558.683594 618.109375 558.242188 617.410156 557.804688 C 614.339844 555.894531 611.441406 553.789062 609.644531 550.535156 C 607.230469 546.183594 603.335938 544.058594 598.621094 543.222656 C 592.453125 542.128906 586.265625 541.5625 580.019531 542.6875 C 578.253906 543.003906 576.429688 542.964844 574.628906 543.039062 C 574.085938 543.0625 573.523438 542.964844 572.996094 542.816406 C 572.425781 542.65625 572.050781 542.238281 572.160156 541.585938 C 572.230469 541.179688 572.292969 540.730469 572.515625 540.410156 C 575.492188 536.0625 577.714844 531.296875 580.242188 526.695312 C 580.5 526.21875 580.964844 525.859375 581.273438 525.398438 C 582.480469 523.558594 583.574219 521.632812 584.882812 519.867188 C 586.847656 517.199219 588.640625 514.40625 590.992188 512.019531 C 592.738281 510.253906 594.277344 508.269531 595.800781 506.292969 C 596.539062 505.324219 597.652344 504.050781 596.972656 502.929688 C 595.921875 501.191406 596.4375 499.832031 597.125 498.292969 C 597.410156 497.652344 597.433594 496.675781 596.824219 496.382812 C 595.191406 495.601562 595.324219 493.839844 594.503906 492.625 C 593.699219 491.441406 593.257812 490.109375 591.382812 490.792969 C 590.636719 491.066406 590.179688 490.324219 589.609375 489.957031 C 588.128906 488.984375 587.589844 489.003906 586.300781 490.0625 C 585.289062 490.894531 584.359375 491.820312 583.375 492.726562 C 582.417969 491.40625 581.832031 490.101562 580.683594 489.273438 C 579.421875 488.367188 578.007812 487.476562 576.488281 488.351562 C 575.242188 489.066406 575.40625 490.515625 575.660156 491.742188 C 576.226562 494.457031 575.550781 496.964844 574.578125 499.445312 C 572.867188 503.828125 570.398438 507.863281 568.851562 512.332031 C 568.378906 513.703125 567.1875 514.867188 566.199219 516.011719 C 565.035156 517.355469 565.527344 519.171875 564.570312 520.648438 C 563.292969 522.609375 562.210938 524.703125 560.757812 526.566406 C 559.859375 527.710938 558.78125 528.832031 558.980469 530.476562 C 560.738281 529.808594 561.632812 528.175781 562.59375 526.796875 C 563.863281 524.976562 565.433594 523.433594 566.777344 521.691406 C 567.679688 520.53125 568.386719 520.421875 569.605469 521.125 C 571.855469 522.425781 573.820312 524.203125 576.273438 525.191406 C 576.820312 525.40625 577.007812 526.070312 576.703125 526.597656 C 575.015625 529.554688 574.660156 533.113281 572.207031 535.78125 C 570.960938 537.140625 570.460938 539.179688 569.601562 540.902344 C 569 542.101562 568.421875 542.472656 567.328125 542.066406 C 564.105469 540.855469 560.902344 539.59375 557.730469 538.257812 C 556.859375 537.890625 555.953125 537.195312 555.820312 536.214844 C 555.726562 535.53125 556.101562 534.777344 556.320312 534.050781 C 554.929688 535.121094 553.660156 535.472656 552.09375 534.039062 C 548.507812 530.769531 544.097656 529.125 539.414062 528.203125 C 538.027344 527.933594 536.796875 527.980469 536.324219 526.15625 C 536.054688 525.109375 534.671875 524.800781 533.601562 524.464844 C 531.75 523.882812 529.921875 523.242188 528.0625 522.695312 C 523.734375 521.4375 519.90625 522.425781 516.476562 525.292969 C 514.027344 527.332031 513.429688 530.144531 513.066406 533.0625 C 512.84375 534.847656 512.742188 536.648438 512.632812 538.441406 C 512.574219 539.449219 512.238281 540.308594 511.625 541.109375 C 510.625 542.417969 509.964844 544.28125 508.664062 544.980469 C 507.351562 545.675781 505.4375 545.234375 503.785156 545.296875 C 503.507812 545.304688 503.230469 545.339844 502.953125 545.332031 C 501.316406 545.324219 500.632812 544.925781 500.140625 543.460938 C 499.832031 542.550781 499.582031 541.582031 499.558594 540.632812 C 499.496094 538.273438 498.550781 536.347656 496.96875 534.683594 C 495.410156 533.046875 494.355469 531.160156 493.683594 528.980469 C 493.082031 527.003906 492.144531 525.128906 491.421875 523.183594 C 491.027344 522.132812 490.597656 521.089844 489.78125 520.332031 C 488.304688 518.96875 487.613281 517.121094 486.792969 515.410156 C 484.957031 511.546875 483.363281 507.5625 481.636719 503.644531 C 480.855469 501.875 480.347656 499.910156 478.957031 498.515625 C 477.644531 497.195312 477.773438 495.871094 478.34375 494.359375 C 478.878906 492.933594 479.40625 491.5 479.84375 490.039062 C 480.316406 488.449219 480.757812 486.839844 481.082031 485.21875 C 481.285156 484.222656 480.214844 483.308594 479.222656 483.5625 C 477.605469 483.976562 476.019531 484.484375 474.996094 485.980469 C 474.375 486.898438 473.714844 487.789062 473.007812 488.640625 C 472.546875 489.195312 471.945312 488.980469 471.597656 488.527344 C 470.921875 487.648438 470.40625 486.65625 469.738281 485.769531 C 468.308594 483.878906 466.769531 482.089844 464.5625 481.054688 C 463 480.328125 461.792969 480.964844 461.515625 482.625 C 461.386719 483.417969 461.835938 484.289062 461.207031 485.035156 C 460.148438 485.148438 459.066406 484.667969 458.007812 485.371094 C 457.105469 485.964844 456.324219 486.777344 456.65625 487.714844 C 457.339844 489.632812 456.71875 491.425781 456.707031 493.277344 C 456.703125 494.546875 456.675781 495.160156 455.496094 495.871094 C 453.484375 497.089844 453.425781 498.5 454.949219 500.300781 C 455.308594 500.726562 455.714844 501.113281 456.132812 501.472656 C 459.175781 504.144531 461.460938 507.472656 464 510.578125 C 466.835938 514.046875 468.574219 518.117188 470.375 522.191406 C 472.503906 527.007812 474.664062 531.769531 476.0625 536.882812 C 477.597656 542.476562 479.578125 547.953125 481.300781 553.496094 C 481.507812 554.15625 482.113281 554.996094 481.191406 555.675781 C 479.71875 553.839844 479.71875 553.769531 477.558594 553.824219 C 476.546875 553.851562 475.667969 553.53125 474.722656 553.332031 C 473.648438 553.105469 472.527344 552.917969 471.441406 552.96875 C 463.292969 553.378906 455.136719 553.21875 446.984375 553.863281 C 441.484375 554.296875 435.910156 553.863281 430.394531 554.609375 C 429.984375 554.664062 429.5625 554.609375 429.148438 554.625 C 425.542969 554.722656 421.945312 554.832031 418.339844 554.914062 C 416.988281 554.941406 415.597656 555.167969 414.171875 554.40625 C 414.300781 553.878906 414.425781 553.359375 414.554688 552.84375 C 414.953125 551.289062 415.929688 550.519531 417.550781 550.605469 C 419.351562 550.703125 421.148438 550.742188 422.945312 550.910156 C 426.679688 551.257812 430.421875 551.53125 434.164062 551.234375 C 440.664062 550.71875 447.171875 550.402344 453.695312 550.597656 C 454.9375 550.632812 456.207031 550.570312 457.429688 550.363281 C 462.652344 549.492188 467.914062 549.46875 473.183594 549.445312 C 474.71875 549.4375 476.21875 549.289062 477.671875 548.742188 C 478.160156 548.554688 478.210938 548.105469 478.171875 547.71875 C 478.136719 547.332031 478.011719 546.820312 477.742188 546.628906 C 477.308594 546.328125 476.71875 546.105469 476.191406 546.101562 C 469.546875 546.039062 462.898438 546.03125 456.300781 546.90625 C 453.945312 547.214844 451.613281 547.324219 449.25 547.234375 C 445.363281 547.089844 441.464844 547.007812 437.609375 547.492188 C 434.570312 547.871094 431.527344 548.011719 428.484375 548.003906 C 425.160156 547.992188 421.832031 547.867188 418.503906 547.796875 C 416.9375 547.765625 416.519531 547.394531 416.527344 545.863281 C 416.527344 544.894531 416.574219 543.914062 416.703125 542.957031 C 417.429688 537.625 415.785156 532.820312 413.429688 528.179688 C 412.113281 525.582031 410.167969 523.71875 407.230469 523.082031 C 405.476562 522.703125 403.71875 522.328125 401.953125 521.953125 C 399.796875 521.488281 397.835938 521.960938 396.027344 523.175781 C 394.320312 524.320312 392.734375 525.695312 390.902344 526.585938 C 386.488281 528.726562 383.417969 537.363281 385.136719 541.890625 C 386.019531 544.222656 386.832031 546.574219 387.703125 548.90625 C 388.039062 549.800781 388.632812 550.628906 388.261719 551.78125 C 386.261719 551.925781 384.214844 552.019531 382.179688 552.238281 C 378.457031 552.636719 374.753906 553.140625 371.035156 553.546875 C 369.386719 553.726562 367.707031 553.71875 366.054688 553.90625 C 358.859375 554.746094 353.714844 558.390625 350.785156 565.097656 C 349.847656 567.25 349.167969 569.46875 348.421875 571.679688 C 347.53125 574.34375 346.992188 577.019531 346.6875 579.738281 C 346.167969 584.398438 345.871094 589.082031 345.488281 593.753906 C 345.277344 596.359375 344.773438 598.988281 344.953125 601.566406 C 345.203125 605.0625 344.601562 608.476562 344.546875 611.9375 C 344.523438 613.300781 343.738281 613.699219 342.652344 612.917969 C 339.605469 610.734375 336.828125 608.234375 334.121094 605.648438 C 330.214844 601.917969 330.164062 601.90625 331.039062 596.683594 C 331.210938 595.664062 331.226562 594.78125 330.863281 593.871094 C 329.929688 591.539062 328.722656 589.339844 327.148438 587.398438 C 324.496094 584.109375 319.859375 582.71875 316.355469 584.132812 C 314.4375 584.914062 312.542969 585.808594 310.734375 586.824219 C 306.460938 589.234375 304.601562 594.972656 306.535156 599.476562 C 308.964844 605.128906 313.957031 606.9375 319.421875 607.960938 C 320.507812 608.164062 321.621094 607.871094 322.652344 607.378906 C 323.652344 606.902344 324.695312 606.523438 325.714844 606.082031 C 327.289062 605.402344 327.332031 605.355469 328.464844 606.730469 C 330.492188 609.195312 332.515625 611.648438 335.144531 613.527344 C 337.171875 614.976562 339.132812 616.523438 341.09375 618.0625 C 341.726562 618.5625 342.511719 619.007812 342.398438 620.15625 C 341.925781 620.296875 341.410156 620.441406 340.898438 620.601562 C 338 621.519531 335.03125 622.273438 332.214844 623.394531 C 327.335938 625.332031 325.617188 628.085938 325.636719 633.277344 C 325.636719 633.417969 325.652344 633.558594 325.648438 633.691406 C 325.601562 635.597656 326.34375 637.183594 327.558594 638.613281 C 328.054688 639.199219 329.121094 639.25 329.164062 640.496094 C 326.414062 642.441406 323.945312 644.875 322.089844 647.808594 C 319.660156 651.664062 317.300781 655.585938 315.167969 659.609375 C 312.421875 664.773438 311.050781 670.472656 309.1875 675.984375 C 306.121094 685.027344 305.121094 694.351562 304.992188 703.820312 C 304.941406 707.5625 305.070312 711.324219 304.746094 715.039062 C 304.308594 720.019531 304.164062 725.003906 304.035156 729.996094 C 303.941406 733.589844 303.898438 737.203125 305.511719 740.582031 C 305.800781 741.191406 305.828125 741.925781 305.96875 742.605469 C 306.378906 744.640625 306.546875 746.765625 307.238281 748.703125 C 308.121094 751.160156 307.625 752.808594 305.460938 754.273438 C 303.0625 755.898438 302.769531 758.335938 303.625 760.945312 C 304.191406 762.671875 305.03125 764.242188 306.382812 765.53125 C 308.003906 767.074219 309.738281 768.445312 311.777344 769.375 C 314.546875 770.640625 317.339844 771.882812 320.152344 773.058594 C 323.789062 774.578125 323.804688 774.546875 323.25 778.34375 C 323.144531 779.027344 322.96875 779.703125 322.867188 780.390625 C 322.417969 783.421875 322.25 786.484375 322.640625 789.519531 C 323.21875 794.054688 323.941406 798.574219 324.660156 803.089844 C 325.050781 805.554688 325.523438 808.007812 326.023438 810.449219 C 326.625 813.359375 327.988281 815.828125 329.957031 818.113281 C 332.996094 821.632812 336.90625 824.035156 340.425781 826.9375 C 341.308594 827.667969 342.394531 827.976562 343.554688 827.753906 C 344.652344 827.539062 345.734375 827.371094 346.824219 827.820312 C 348.167969 828.378906 349.535156 828.234375 350.917969 827.960938 C 354.449219 827.265625 357.992188 826.609375 361.523438 825.898438 C 362.191406 825.761719 362.851562 825.488281 363.472656 825.183594 C 363.824219 825.011719 364.140625 824.695312 364.375 824.371094 C 364.683594 823.925781 365.003906 823.382812 364.65625 822.851562 C 364.457031 822.546875 364.058594 822.292969 363.699219 822.191406 C 362.605469 821.878906 361.511719 822.03125 360.417969 822.316406 C 357.734375 823.015625 355.039062 823.675781 352.347656 824.335938 C 348.164062 825.355469 344.359375 824.359375 340.980469 821.871094 C 338.867188 820.3125 336.988281 818.4375 334.980469 816.734375 C 331.261719 813.574219 329.820312 809.308594 329.140625 804.691406 C 328.414062 799.761719 327.816406 794.8125 327.023438 789.890625 C 326.601562 787.257812 326.578125 784.644531 326.796875 782.015625 C 326.929688 780.359375 327.164062 778.707031 327.363281 777.058594 C 327.5625 775.40625 327.867188 775.09375 329.453125 775.203125 C 334.710938 775.554688 339.953125 776.03125 345.066406 777.402344 C 348.289062 778.261719 351.566406 778.824219 354.882812 779.179688 C 355.675781 779.261719 356.550781 779.117188 357.175781 779.828125 C 356.34375 782.1875 355.855469 784.585938 355.523438 787.082031 C 355.101562 790.257812 355.257812 793.433594 354.960938 796.601562 C 354.542969 801.0625 354.890625 805.464844 355.96875 809.792969 C 356.4375 811.664062 357.027344 813.53125 358.1875 815.140625 C 358.90625 816.136719 359.839844 816.585938 361.066406 816.289062 C 361.769531 816.117188 362.367188 815.8125 362.570312 815.039062 C 362.738281 814.40625 362.410156 813.820312 361.933594 813.648438 C 360.046875 812.972656 359.664062 811.324219 359.304688 809.730469 C 358.734375 807.167969 358.207031 804.582031 357.878906 801.976562 C 357.636719 800.070312 357.742188 798.117188 357.707031 796.183594 C 357.613281 791.101562 356.984375 785.972656 358.957031 781.054688 C 359.007812 780.9375 358.996094 780.777344 358.984375 780.644531 C 358.863281 779.53125 359.675781 779.195312 360.480469 779.011719 C 361.960938 778.667969 363.457031 778.324219 364.96875 778.179688 C 371.585938 777.535156 371.328125 776.425781 372.867188 783.984375 C 373.0625 784.953125 373.179688 785.886719 372.84375 786.851562 C 372.515625 787.792969 372.570312 788.761719 372.835938 789.71875 C 373.175781 790.964844 373.003906 792.164062 372.671875 793.402344 C 372.425781 794.328125 372.394531 795.324219 372.363281 796.289062 C 372.148438 802.089844 371.191406 807.769531 369.917969 813.425781 C 369.519531 815.179688 368.203125 816.570312 368.195312 818.410156 C 369.535156 818.417969 369.882812 817.238281 370.363281 816.378906 C 372.542969 812.453125 373.472656 808.074219 374.328125 803.761719 C 375.183594 799.453125 375.300781 794.996094 375.761719 790.609375 C 376.15625 786.851562 375.816406 783.148438 375.050781 779.464844 C 374.882812 778.660156 375.308594 778.105469 376.171875 778.140625 C 378.523438 778.230469 380.875 778.382812 383.230469 778.496094 C 388.488281 778.746094 393.746094 779.113281 399.007812 778.421875 C 399.761719 778.324219 400.53125 777.625 401.496094 778.570312 C 399.796875 782.34375 399.015625 786.667969 395.648438 789.699219 C 395.347656 789.976562 395.132812 790.351562 394.90625 790.699219 C 394.261719 791.683594 394.394531 792.402344 395.328125 793.238281 C 396.59375 794.371094 397.3125 794.484375 398.617188 793.476562 C 403.238281 789.878906 407.089844 785.578125 410.03125 780.492188 C 410.265625 780.382812 410.5 780.289062 410.714844 780.15625 C 412.105469 779.269531 412.636719 777.40625 414.394531 776.9375 C 415.46875 778.667969 414.332031 780.34375 414.148438 781.992188 C 413.648438 786.390625 413.007812 790.785156 411.191406 794.910156 C 410.371094 796.765625 410.566406 797.007812 412.328125 798.316406 C 414.148438 799.671875 414.742188 799.621094 415.832031 797.597656 C 416.828125 795.738281 417.996094 794.046875 419.617188 792.699219 C 422.539062 790.269531 424.703125 787.226562 426.683594 784.03125 C 427.34375 782.972656 428.03125 781.929688 428.632812 780.839844 C 429.246094 779.726562 430.113281 779.417969 431.371094 779.4375 C 438.300781 779.535156 445.238281 779.40625 452.160156 779.609375 C 460.078125 779.84375 467.949219 779.125 475.828125 778.679688 C 476.792969 778.625 477.75 778.40625 478.699219 778.226562 C 481.277344 777.722656 483.851562 777.167969 486.4375 776.699219 C 488.089844 776.398438 488.414062 776.589844 489 778.023438 C 489.835938 780.085938 490.3125 782.246094 490.777344 784.417969 C 491.246094 786.585938 491.722656 788.757812 492.40625 790.859375 C 493.066406 792.886719 494.355469 794.519531 496.390625 795.398438 C 498.289062 796.214844 500.105469 795.621094 500.902344 793.722656 C 501.8125 791.5625 502.515625 789.355469 502.253906 786.878906 C 501.90625 783.589844 501.628906 780.269531 502.050781 776.957031 C 502.132812 776.308594 501.871094 775.472656 502.683594 775.167969 C 503.425781 774.894531 503.984375 775.5 504.523438 775.910156 C 505.515625 776.667969 506.511719 777.425781 507.417969 778.28125 C 508.929688 779.707031 510.351562 781.230469 511.847656 782.671875 C 512.542969 783.339844 513.277344 783.980469 514.074219 784.511719 C 514.648438 784.886719 515.351562 785.035156 515.992188 784.488281 C 516.507812 784.046875 516.382812 783.496094 516.289062 782.964844 C 515.84375 780.414062 515.386719 777.871094 514.863281 774.914062 C 515.878906 775.445312 516.441406 775.84375 517.066406 776.039062 C 517.714844 776.242188 518.429688 776.265625 519.117188 776.355469 C 529.167969 777.695312 539.246094 778.40625 549.375 777.265625 C 549.921875 777.207031 550.484375 777.203125 551.035156 777.253906 C 551.253906 777.269531 551.554688 777.457031 551.628906 777.644531 C 551.71875 777.855469 551.652344 778.183594 551.554688 778.414062 C 551.449219 778.65625 551.207031 778.839844 551.042969 779.058594 C 548.34375 782.761719 546.5625 786.6875 547.816406 791.449219 C 548.09375 792.503906 548.027344 793.652344 548.09375 794.761719 C 548.324219 798.375 549.089844 801.878906 549.941406 805.390625 C 551.277344 810.90625 554.824219 814.910156 558.640625 818.773438 C 560.605469 820.757812 563.34375 820.976562 565.746094 821.957031 C 566.898438 822.429688 568.09375 822.808594 569.300781 823.121094 C 570.230469 823.359375 571.203125 823.445312 572.160156 823.5625 C 576.441406 824.074219 580.644531 822.617188 584.9375 823.070312 C 585.714844 823.148438 586.59375 822.8125 587.347656 822.484375 C 591.285156 820.769531 594.460938 818.171875 596.261719 814.183594 C 598.265625 809.742188 599.890625 805.191406 599.851562 800.199219 C 599.835938 798.679688 600.109375 797.164062 600.199219 795.644531 C 600.648438 787.648438 602.066406 779.609375 599.199219 771.75 C 598.921875 770.984375 599.199219 770.375 599.84375 769.980469 C 600.429688 769.621094 601.085938 769.375 601.714844 769.085938 C 605.617188 767.296875 608.726562 764.550781 610.851562 760.863281 C 613.191406 756.800781 615.753906 752.757812 615.144531 747.699219 C 615.078125 747.175781 615.285156 746.609375 615.421875 746.078125 C 616.109375 743.511719 616.148438 740.867188 616.363281 738.242188 C 616.574219 735.621094 616.804688 732.992188 617.019531 730.371094 C 617.3125 726.777344 617.726562 723.1875 617.851562 719.589844 C 617.976562 715.992188 618.097656 712.351562 617.695312 708.789062 C 617.042969 702.875 615.96875 697.007812 615.070312 691.121094 C 614.171875 685.207031 612.136719 679.574219 610.820312 673.761719 C 610.359375 671.726562 609.65625 669.792969 608.648438 667.949219 C 607.054688 665.035156 605.582031 662.046875 604.011719 659.121094 C 600.265625 652.136719 595.871094 645.605469 590.246094 639.960938 C 588.605469 638.308594 588.113281 636.574219 589.398438 634.773438 C 590.625 633.046875 590.351562 631.578125 589.429688 630.183594 C 587.75 627.648438 585.949219 625.164062 583.960938 622.867188 C 582.511719 621.195312 580.613281 619.992188 578.351562 619.460938 C 576.601562 619.046875 574.898438 618.445312 573.152344 617.988281 C 570.476562 617.28125 567.785156 616.628906 565.097656 615.957031 C 563.878906 615.65625 563.28125 614.921875 563.105469 613.640625 C 562.460938 608.972656 561.71875 604.320312 561.023438 599.660156 C 560.984375 599.394531 560.964844 599.109375 561.023438 598.851562 C 561.152344 598.246094 561.566406 597.832031 562.179688 597.890625 C 564.734375 598.144531 566.722656 600.015625 566.605469 602.457031 C 566.480469 605.132812 566.945312 607.703125 567.375 610.292969 C 567.53125 611.253906 567.730469 612.214844 568.421875 612.96875 C 568.789062 613.367188 569.203125 613.859375 569.816406 613.640625 C 570.464844 613.40625 570.359375 612.800781 570.230469 612.261719 C 569.53125 609.292969 568.792969 606.335938 568.140625 603.367188 C 567.59375 600.855469 567.992188 600.152344 570.488281 601.003906 C 572.191406 601.578125 573.980469 601.882812 575.707031 602.398438 C 577.320312 602.882812 578.960938 603.101562 580.632812 603.097656 C 582.609375 603.089844 584.59375 602.796875 586.054688 601.398438 C 586.898438 600.589844 587.597656 600.539062 588.625 600.71875 C 592.464844 601.398438 595.714844 600.242188 598.34375 597.347656 C 598.808594 596.835938 599.246094 596.292969 599.722656 595.789062 C 603.132812 592.222656 607.304688 590.828125 612.171875 591.460938 C 612.996094 591.570312 613.800781 591.804688 614.617188 591.949219 C 616.875 592.339844 619.0625 591.992188 621.148438 591.148438 C 623.152344 590.339844 624.519531 589.019531 625.078125 586.714844 C 625.527344 584.847656 625.460938 583.148438 624.894531 581.417969 C 624.054688 578.855469 624.109375 576.296875 624.40625 573.652344 C 624.691406 571.113281 625.578125 568.828125 626.605469 566.542969 Z M 584.871094 496.554688 C 585.429688 495.351562 585.988281 494.058594 587.265625 493.449219 C 588.121094 493.042969 587.550781 495.117188 586.035156 497.148438 C 585.722656 497.570312 585.347656 497.9375 584.992188 498.328125 C 584.6875 497.753906 584.601562 497.125 584.867188 496.554688 Z M 574.539062 520.429688 C 573.035156 519.75 571.644531 518.8125 570.191406 518 C 569.332031 517.515625 569.035156 516.828125 569.480469 515.941406 C 570.035156 514.839844 570.53125 513.671875 571.265625 512.695312 C 575.171875 507.523438 577.554688 501.679688 579.050781 495.433594 C 579.078125 495.324219 579.238281 495.25 579.488281 495.011719 C 580.429688 496.363281 579.8125 497.921875 580.175781 499.285156 C 580.4375 500.269531 581.453125 500.714844 582.457031 500.371094 C 583.496094 500.019531 583.792969 498.699219 584.914062 498.507812 C 584.722656 499.261719 584.449219 499.988281 584.359375 500.730469 C 584.246094 501.714844 584.957031 502.179688 585.941406 501.832031 C 586.324219 501.699219 586.671875 501.460938 587.019531 501.246094 C 587.4375 500.992188 587.945312 501.074219 587.964844 501.492188 C 588.035156 503.359375 589.324219 503.1875 590.554688 503.175781 C 591.230469 503.171875 591.921875 503.078125 592.488281 503.585938 L 592.386719 503.273438 L 592.539062 503.511719 C 592.5 503.644531 592.433594 503.773438 592.390625 503.902344 C 591.988281 505.085938 594.140625 505.097656 593.550781 506.171875 C 593.101562 506.980469 592.21875 507.546875 591.523438 508.21875 C 590.328125 509.367188 589.183594 510.578125 587.910156 511.628906 C 586.070312 513.144531 584.371094 514.71875 583.617188 517.078125 C 583.453125 517.597656 583.148438 518.109375 582.78125 518.503906 C 581.5625 519.804688 580.46875 521.472656 578.734375 521.914062 C 577.265625 522.292969 575.902344 521.03125 574.539062 520.417969 Z M 317.597656 603.039062 C 316.597656 602.855469 315.835938 602.503906 315.726562 601.25 C 315.640625 600.320312 315.394531 599.300781 314.898438 598.53125 C 313.957031 597.066406 314.195312 595.707031 314.714844 594.214844 C 315.320312 592.488281 316.054688 590.902344 317.679688 589.902344 C 318.394531 589.460938 319.160156 589.226562 320.019531 589.304688 C 322.945312 589.570312 325.832031 592.757812 325.84375 595.75 C 325.851562 600.570312 322.109375 603.882812 317.59375 603.042969 Z M 523.023438 530.261719 C 523.707031 530.277344 523.769531 530.886719 523.949219 531.308594 C 524.097656 531.820312 523.875 532.136719 523.464844 532.238281 C 522.949219 532.363281 522.386719 532.3125 522.085938 531.796875 C 521.824219 531.335938 522.496094 530.253906 523.023438 530.261719 Z M 517.359375 560.585938 C 517.574219 560.121094 518.445312 560.054688 518.726562 560.523438 C 519.789062 562.3125 520.945312 564.058594 521.839844 565.921875 C 523.839844 570.074219 526.695312 573.3125 531.023438 575.113281 C 531.261719 575.210938 531.429688 575.476562 531.828125 575.847656 C 530.746094 579.929688 529.328125 583.652344 527.113281 587.066406 C 526.453125 588.085938 526.183594 589.355469 525.636719 590.457031 C 525.109375 591.515625 524.046875 591.800781 523.25 591.042969 C 521.058594 588.964844 518.511719 587.125 517.902344 583.863281 C 515.382812 579.785156 514.875 574.988281 513.167969 570.617188 C 512.957031 570.066406 512.886719 569.394531 513.308594 569.046875 C 515.769531 567.054688 516.15625 564.085938 517.046875 561.351562 C 517.132812 561.09375 517.238281 560.832031 517.355469 560.582031 Z M 510.320312 566.46875 C 509.8125 566.886719 509.210938 566.789062 508.945312 566.210938 C 507.636719 563.402344 505.71875 560.769531 506.199219 557.292969 C 508.503906 556.167969 510.992188 556.417969 513.429688 556.394531 C 514.433594 556.386719 514.976562 557.019531 514.847656 557.976562 C 514.382812 561.351562 512.996094 564.261719 510.320312 566.46875 Z M 515.863281 540.90625 C 516.882812 541.285156 516.40625 541.949219 516.15625 542.542969 C 516.066406 542.753906 515.90625 542.933594 515.765625 543.125 C 515.75 542.921875 515.730469 542.710938 515.742188 542.507812 C 515.765625 541.972656 515.820312 541.441406 515.855469 540.90625 Z M 513.195312 543.695312 C 513.890625 542.777344 514.792969 542.980469 515.6875 543.300781 C 515.769531 545.046875 515.871094 546.78125 515.875 548.515625 C 515.875 549.132812 516.09375 549.996094 515.28125 550.273438 C 514.289062 550.605469 514.359375 549.640625 514.050781 549.105469 C 513.652344 548.402344 513.097656 547.789062 512.691406 547.085938 C 511.96875 545.84375 512.421875 544.71875 513.191406 543.691406 Z M 506.863281 547.742188 C 508.257812 547.566406 509.246094 547.867188 509.945312 549.164062 C 510.410156 550.023438 511.257812 550.578125 512.152344 550.964844 C 513 551.332031 513.355469 552.046875 513.671875 552.816406 C 514 553.613281 513.25 554.898438 512.375 554.972656 C 511.429688 555.050781 510.527344 554.734375 509.542969 554.808594 C 505.003906 555.144531 504.570312 554.800781 503.007812 550.429688 C 502.78125 549.792969 502.617188 549.132812 502.367188 548.296875 C 504.121094 547.566406 505.515625 547.914062 506.855469 547.742188 Z M 469.394531 491.722656 C 469.394531 491.722656 469.417969 491.746094 469.429688 491.761719 C 469.367188 491.796875 469.296875 491.839844 469.230469 491.875 L 469.394531 491.71875 Z M 462.4375 491.09375 C 462.4375 491.09375 462.433594 491.09375 462.429688 491.101562 C 462.410156 491.066406 462.394531 491.042969 462.371094 491.003906 C 462.394531 491.035156 462.417969 491.0625 462.441406 491.09375 Z M 472.625 514.347656 C 471.015625 514.164062 470.863281 512.0625 469.933594 510.910156 C 467.421875 507.792969 464.886719 504.691406 462.359375 501.59375 C 461.929688 501.070312 461.464844 500.578125 461.054688 500.113281 C 462.90625 496.007812 463.101562 497.636719 462.550781 491.25 C 463.371094 492.382812 464.1875 493.535156 465.066406 494.640625 C 465.484375 495.164062 466.003906 495.660156 466.585938 495.984375 C 467.050781 496.242188 467.621094 496.191406 467.976562 495.558594 C 468.644531 494.359375 468.441406 492.832031 469.441406 491.765625 C 472.117188 494.5 472.332031 494.503906 475.960938 492.105469 C 476.597656 492.703125 476.28125 493.371094 476 493.957031 C 474.703125 496.703125 475.351562 499.347656 476.367188 501.976562 C 477.117188 503.90625 477.902344 505.816406 478.664062 507.742188 C 479.191406 509.074219 478.859375 510.171875 477.710938 511.015625 C 477.265625 511.347656 476.855469 511.738281 476.375 511.988281 C 475.035156 512.6875 474.109375 514.507812 472.625 514.339844 Z M 450.609375 560.617188 C 454.957031 560.097656 459.125 558.441406 463.660156 558.996094 C 466.367188 559.324219 469.160156 558.972656 471.914062 558.898438 C 473.003906 558.863281 473.785156 559.230469 474.160156 560.300781 C 474.476562 561.214844 474.777344 562.128906 475.132812 563.027344 C 475.945312 565.078125 475.496094 566.136719 472.988281 566.347656 C 469.707031 566.621094 466.378906 566.417969 463.070312 566.417969 C 463.070312 566.355469 463.070312 566.292969 463.070312 566.230469 C 458.960938 566.039062 454.84375 565.878906 450.734375 565.648438 C 449.074219 565.554688 448.886719 565.332031 448.542969 563.789062 C 448.082031 561.71875 448.464844 560.878906 450.609375 560.617188 Z M 415.296875 557.324219 C 418.894531 557.3125 422.507812 557.136719 426.089844 557.394531 C 430.648438 557.726562 435.1875 557.992188 439.71875 557.210938 C 440.589844 557.0625 441.355469 557.265625 442.148438 557.484375 C 442.933594 557.699219 443.347656 558.238281 443.175781 559 C 442.613281 561.5 443.003906 563.980469 443.363281 566.433594 C 443.910156 570.207031 445.699219 571.746094 449.5 571.800781 C 452.824219 571.847656 456.152344 571.789062 459.476562 571.746094 C 462.242188 571.714844 464.984375 571.582031 467.761719 571.9375 C 470.378906 572.269531 472.980469 571.421875 475.542969 570.898438 C 477.046875 570.597656 478.144531 569.460938 479.023438 568.117188 C 480.332031 566.113281 481.082031 563.902344 481.785156 561.648438 C 481.992188 560.996094 482.226562 560.347656 482.707031 558.957031 C 484.296875 562.277344 485.664062 564.980469 486.894531 567.738281 C 490.230469 575.207031 493.105469 582.835938 494.671875 590.902344 C 494.699219 591.039062 494.726562 591.171875 494.75 591.3125 C 495.132812 593.589844 494.773438 594.0625 492.5 594.03125 C 488.210938 593.988281 483.925781 593.867188 479.636719 593.832031 C 473.835938 593.792969 468.023438 593.285156 462.234375 593.933594 C 460.507812 594.125 459.71875 593.414062 459.132812 591.980469 C 457.441406 587.851562 455.179688 584.066406 452.359375 580.59375 C 451.464844 579.492188 450.535156 578.480469 449.222656 577.960938 C 443.308594 575.625 437.5 572.976562 431.222656 571.683594 C 429.867188 571.40625 428.457031 571.402344 427.125 571.050781 C 422.605469 569.871094 418.871094 567.214844 415.1875 564.492188 C 414.882812 564.261719 414.480469 563.746094 414.554688 563.492188 C 415.0625 561.777344 414.125 560.25 414.042969 558.625 C 414.007812 557.796875 414.480469 557.316406 415.28125 557.316406 Z M 410.046875 529.417969 C 410.046875 529.417969 410.023438 529.417969 410.007812 529.417969 C 410.007812 529.394531 410.007812 529.371094 409.996094 529.335938 C 410.007812 529.359375 410.027344 529.386719 410.039062 529.410156 Z M 409.925781 529.398438 C 409.789062 529.324219 410 529.109375 409.925781 529.398438 Z M 410.109375 529.519531 C 411.144531 531.207031 412.195312 532.910156 412.363281 534.964844 C 412.382812 535.265625 412.046875 535.828125 411.796875 535.871094 C 411.484375 535.925781 410.886719 535.671875 410.769531 535.394531 C 409.964844 533.511719 409.488281 531.566406 410.105469 529.519531 Z M 401.96875 561.058594 C 402.785156 559.710938 404.382812 559.3125 405.40625 558.203125 C 405.605469 557.992188 406.261719 557.945312 406.542969 558.101562 C 408.222656 559.054688 409.683594 558.066406 411.25 557.554688 C 411.597656 558.707031 411.964844 559.734375 412.207031 560.789062 C 412.550781 562.277344 411.488281 563.660156 410.035156 563.492188 C 407.457031 563.195312 404.894531 562.761719 402.328125 562.355469 C 401.777344 562.269531 401.65625 561.574219 401.96875 561.0625 Z M 401.332031 537.609375 L 401.1875 537.851562 L 401.089844 537.589844 L 401.332031 537.613281 Z M 399.683594 565.710938 C 402.609375 565.074219 405.535156 564.925781 409.15625 565.816406 C 405.496094 566.988281 402.382812 567.285156 399.304688 567.765625 C 398.851562 567.835938 398.507812 567.574219 398.453125 567.128906 C 398.425781 566.90625 398.542969 566.59375 398.703125 566.425781 C 398.984375 566.136719 399.316406 565.789062 399.683594 565.710938 Z M 397.859375 526.933594 C 397.90625 527.027344 397.996094 527.125 397.988281 527.207031 C 397.980469 527.292969 397.867188 527.367188 397.800781 527.445312 C 397.597656 527.238281 397.617188 527.066406 397.859375 526.929688 Z M 397.042969 537.433594 C 397.125 537.527344 397.265625 537.617188 397.261719 537.703125 C 397.257812 537.792969 397.105469 537.867188 397.015625 537.945312 C 396.9375 537.851562 396.792969 537.757812 396.796875 537.675781 C 396.800781 537.589844 396.957031 537.511719 397.042969 537.433594 Z M 395.855469 561.140625 C 395.878906 560.902344 396.039062 560.554688 396.222656 560.484375 C 396.867188 560.226562 398.554688 561.347656 398.761719 562.105469 C 398.800781 562.835938 398.179688 562.917969 397.726562 563.15625 C 397.238281 563.414062 396.742188 563.609375 396.304688 563.054688 C 395.859375 562.488281 395.78125 561.824219 395.855469 561.144531 Z M 399.363281 570.53125 C 403.558594 571.113281 407.628906 569.824219 411.78125 569.765625 C 412.054688 569.765625 412.4375 569.792969 412.585938 569.632812 C 414.355469 567.796875 415.71875 568.996094 417.1875 570.136719 C 421.238281 573.273438 425.832031 575.03125 430.957031 575.445312 C 435.449219 575.808594 439.515625 577.726562 443.660156 579.246094 C 450.378906 581.714844 448.804688 580.890625 452.722656 586.53125 C 455.421875 590.414062 457.410156 594.671875 458.671875 599.265625 C 459.101562 600.84375 459.902344 602.332031 460.582031 603.84375 C 460.828125 604.386719 461.382812 604.679688 461.949219 604.492188 C 462.640625 604.261719 463.105469 603.695312 463.105469 602.9375 C 463.105469 602.394531 462.976562 601.839844 462.820312 601.316406 C 462.539062 600.390625 462.175781 599.488281 461.878906 598.5625 C 461.167969 596.335938 461.25 595.242188 463.953125 595.84375 C 464.617188 595.992188 465.328125 595.902344 466.023438 595.917969 C 466.4375 595.925781 466.851562 595.917969 467.265625 595.917969 C 472.796875 595.941406 478.28125 596.710938 483.789062 596.984375 C 487.109375 597.148438 490.433594 597.195312 493.761719 597.3125 C 495.824219 597.382812 495.953125 597.53125 496.5 599.570312 C 497.035156 601.574219 497.5625 603.585938 498.195312 605.554688 C 498.769531 607.347656 499.753906 608.171875 500.679688 607.761719 C 501.996094 607.167969 501.765625 605.898438 501.636719 604.871094 C 501.386719 602.957031 500.859375 601.074219 500.542969 599.160156 C 499.703125 594.109375 498.921875 589.042969 498.078125 583.988281 C 497.875 582.761719 497.644531 581.519531 497.222656 580.351562 C 495.105469 574.492188 493.265625 568.519531 490.269531 563.007812 C 487.796875 558.46875 486.417969 553.511719 484.832031 548.640625 C 482.984375 542.976562 481.347656 537.25 479.53125 531.578125 C 478.304688 527.746094 476.699219 524.0625 474.816406 520.503906 C 474.363281 519.648438 473.964844 518.769531 473.554688 517.890625 C 473.210938 517.148438 473.410156 516.558594 474.09375 516.132812 C 474.328125 515.984375 474.558594 515.824219 474.8125 515.707031 C 476.683594 514.816406 478.144531 513.195312 480.210938 512.652344 C 481.757812 514.128906 482.128906 516.246094 483.140625 518.023438 C 485.597656 522.363281 487.816406 526.816406 489.292969 531.617188 C 489.914062 533.644531 491.300781 535.265625 492.765625 536.734375 C 494.289062 538.261719 495.082031 540.078125 495.734375 542.082031 C 497.238281 546.675781 498.710938 551.289062 501.421875 555.378906 C 502.101562 556.40625 502.570312 557.585938 503.03125 558.738281 C 504.453125 562.328125 505.667969 566.03125 509.210938 568.242188 C 509.765625 568.589844 509.667969 569.199219 509.679688 569.722656 C 509.746094 571.691406 510.375 573.539062 510.921875 575.394531 C 511.273438 576.585938 511.828125 577.710938 511.792969 579 C 511.769531 579.867188 512.160156 580.609375 512.625 581.3125 C 513.480469 582.59375 514 584 514.328125 585.503906 C 514.8125 587.75 516.070312 589.558594 517.761719 591.074219 C 519.414062 592.554688 521.074219 594.027344 523.035156 595.113281 C 524.035156 595.660156 524.894531 595.445312 525.6875 594.707031 C 526.929688 593.550781 527.808594 592.101562 528.472656 590.597656 C 530.3125 586.421875 532.875 582.558594 533.992188 578.058594 C 534.214844 577.171875 534.753906 576.648438 535.796875 576.804688 C 539.777344 577.40625 543.664062 578.347656 547.398438 579.859375 C 548.039062 580.121094 548.664062 580.4375 549.261719 580.777344 C 550.550781 581.511719 550.800781 582.148438 550.1875 583.503906 C 548.875 586.410156 547.492188 589.28125 546.140625 592.171875 C 543.328125 598.203125 540.617188 604.273438 538.679688 610.652344 C 538.179688 612.289062 538.0625 612.335938 536.328125 612.273438 C 535.632812 612.25 534.929688 612.242188 534.253906 612.121094 C 528.082031 610.996094 521.828125 611.097656 515.605469 610.78125 C 510.753906 610.535156 505.953125 609.992188 501.199219 608.945312 C 499.042969 608.472656 496.820312 608.179688 494.617188 608.042969 C 483.414062 607.339844 472.210938 606.492188 460.96875 606.71875 C 454.308594 606.851562 447.679688 606.589844 441.066406 605.6875 C 439.019531 605.40625 436.882812 605.335938 434.839844 605.601562 C 427.542969 606.566406 420.171875 606.207031 412.863281 606.960938 C 407.886719 607.472656 403.011719 608.484375 398.105469 609.359375 C 391.835938 610.476562 385.574219 611.554688 379.238281 612.273438 C 374.585938 612.804688 369.953125 613.582031 365.414062 614.863281 C 362.355469 615.734375 359.222656 616.328125 356.113281 617.023438 C 355.398438 617.179688 354.769531 616.597656 354.832031 615.824219 C 354.90625 614.859375 354.886719 613.828125 355.234375 612.957031 C 357.195312 608.082031 358.734375 603.023438 361.523438 598.496094 C 364.042969 594.414062 367.066406 590.960938 371.421875 588.679688 C 374.355469 587.144531 377.019531 585.109375 379.851562 583.371094 C 381.742188 582.210938 383.683594 581.132812 385.648438 580.105469 C 388.777344 578.472656 391.558594 576.386719 393.429688 573.386719 C 394.871094 571.082031 396.777344 570.167969 399.359375 570.527344 Z M 556.070312 596.636719 C 553.523438 597.058594 550.957031 597.222656 548.117188 596.972656 C 549.328125 592.964844 551.207031 589.511719 552.691406 586.0625 C 553.730469 585.820312 553.855469 586.480469 554.074219 586.929688 C 555.226562 589.265625 556.421875 591.589844 557.441406 593.992188 C 558.148438 595.648438 557.730469 596.363281 556.066406 596.640625 Z M 557.808594 601.160156 C 558.441406 601.84375 558.457031 602.546875 558.539062 603.226562 C 558.953125 606.648438 559.386719 610.066406 559.761719 613.488281 C 559.847656 614.265625 559.421875 614.785156 558.585938 614.832031 C 558.3125 614.847656 558.03125 614.832031 557.761719 614.789062 C 552.484375 613.84375 547.148438 613.40625 541.617188 612.890625 C 542.640625 609.355469 544.039062 606.222656 545.464844 603.097656 C 545.90625 602.125 546.550781 601.570312 547.664062 601.539062 C 551.089844 601.429688 554.511719 601.285156 557.808594 601.160156 Z M 394.195312 566.292969 C 394.1875 567.3125 393.621094 568.132812 393.074219 568.921875 C 390.832031 572.136719 388.1875 574.894531 384.625 576.707031 C 382.164062 577.957031 379.746094 579.316406 377.398438 580.769531 C 373.769531 583.027344 370.15625 585.289062 366.363281 587.273438 C 364.925781 588.019531 363.773438 589.316406 362.507812 590.378906 C 362.011719 590.796875 361.550781 591.261719 360.863281 591.902344 C 359.949219 584.429688 361.300781 577.800781 364.753906 571.65625 C 367.074219 567.53125 370.414062 564.765625 375.347656 563.808594 C 379.796875 562.941406 384.117188 561.398438 388.457031 560.027344 C 390.339844 559.425781 392.203125 559.179688 394.199219 559.308594 C 394.199219 561.683594 394.207031 563.988281 394.199219 566.292969 Z M 393.101562 529.542969 C 393.171875 529.382812 393.511719 529.34375 393.722656 529.246094 C 393.8125 529.46875 393.902344 529.6875 393.988281 529.910156 C 393.835938 530.066406 393.667969 530.375 393.539062 530.355469 C 393.078125 530.300781 392.917969 529.933594 393.097656 529.542969 Z M 347.121094 614.726562 C 347.703125 611.464844 348.601562 608.21875 348.511719 604.875 C 348.445312 602.511719 348.566406 600.183594 349.046875 597.875 C 349.976562 593.390625 350.195312 588.820312 350.589844 584.277344 C 350.949219 580.132812 351.421875 575.976562 352.613281 572.023438 C 354.144531 566.957031 356.332031 562.097656 361.632812 559.742188 C 364.679688 558.390625 367.886719 557.492188 371.253906 557.347656 C 374.589844 557.203125 377.84375 556.625 381.058594 555.726562 C 382.121094 555.429688 383.207031 555.167969 384.296875 555.035156 C 385.804688 554.851562 387.324219 554.785156 388.839844 554.71875 C 390.15625 554.652344 390.828125 555.484375 391.269531 556.589844 C 391.574219 557.355469 391.292969 557.957031 390.441406 558.078125 C 388.390625 558.367188 386.382812 558.820312 384.359375 559.246094 C 380.039062 560.15625 375.660156 560.777344 371.320312 561.609375 C 368.507812 562.148438 366.210938 563.714844 364.277344 565.757812 C 362.164062 567.984375 360.554688 570.542969 359.398438 573.414062 C 357.5625 577.972656 356.472656 582.625 356.792969 587.578125 C 356.945312 589.933594 356.808594 592.285156 356.296875 594.601562 C 356.234375 594.871094 356.171875 595.140625 356.105469 595.410156 C 355.820312 596.605469 357.222656 597.683594 356.246094 598.976562 C 355.585938 599.851562 355.074219 600.867188 354.671875 601.890625 C 353.515625 604.855469 352.488281 607.867188 351.339844 610.832031 C 350.515625 612.957031 350.527344 614.851562 352.402344 616.460938 C 352.671875 616.691406 352.695312 617.207031 352.875 617.691406 C 352.3125 617.878906 351.804688 618.0625 351.289062 618.214844 C 347.050781 619.40625 346.273438 619.503906 347.121094 614.730469 Z M 397.957031 774.347656 C 390.59375 775.042969 383.277344 774.089844 375.941406 773.8125 C 372.757812 773.691406 369.570312 773.628906 366.386719 773.664062 C 365.015625 773.675781 363.632812 773.941406 362.277344 774.1875 C 358.003906 774.964844 353.765625 775.035156 349.492188 774.058594 C 343.414062 772.671875 337.285156 771.613281 331.050781 771.125 C 324.15625 770.589844 317.953125 767.855469 311.949219 764.609375 C 310.1875 763.65625 308.855469 762.292969 307.871094 760.570312 C 306.621094 758.375 306.734375 757.53125 308.5625 755.875 C 309.074219 755.410156 309.589844 754.933594 310.175781 754.574219 C 311.019531 754.058594 311.855469 753.824219 312.882812 754.394531 C 319.882812 758.261719 327.621094 758.957031 335.375 759.527344 C 340.492188 759.902344 345.621094 760.109375 350.714844 760.636719 C 353.488281 760.925781 356.277344 761.050781 359.007812 760.878906 C 363.464844 760.601562 367.90625 760.773438 372.289062 761.265625 C 380.316406 762.167969 388.34375 761.804688 396.375 761.832031 C 399.816406 761.847656 403.257812 762.109375 406.75 762.257812 C 406.75 762.894531 406.851562 763.332031 406.734375 763.6875 C 405.5625 767.230469 404.347656 770.761719 403.148438 774.289062 C 402.882812 775.0625 402.355469 775.4375 401.578125 775.070312 C 400.421875 774.523438 399.234375 774.226562 397.960938 774.347656 Z M 401.824219 784.882812 C 401.824219 784.882812 401.84375 784.851562 401.851562 784.835938 C 401.914062 784.921875 401.96875 785 402.027344 785.082031 C 401.964844 785.019531 401.894531 784.953125 401.824219 784.882812 Z M 418.316406 785.601562 C 418.378906 785.683594 418.445312 785.761719 418.511719 785.851562 C 418.503906 785.859375 418.5 785.875 418.488281 785.882812 Z M 430.460938 768.902344 C 427.507812 773.085938 424.585938 777.292969 421.644531 781.488281 C 420.621094 782.949219 419.5625 784.386719 418.523438 785.835938 C 417.359375 782.269531 418.136719 778.765625 418.984375 775.289062 C 419.308594 773.960938 419.984375 772.71875 420.457031 771.421875 C 420.75 770.613281 419.902344 769.832031 419.007812 769.964844 C 418.121094 770.101562 417.234375 770.492188 416.992188 771.25 C 416.480469 772.871094 415.140625 773.40625 413.960938 774.324219 C 412.011719 775.835938 410.398438 777.78125 408.640625 779.546875 C 408.644531 779.554688 408.65625 779.5625 408.660156 779.578125 C 406.527344 780.628906 405.421875 782.6875 403.925781 784.363281 C 403.355469 785 402.71875 785.480469 401.847656 784.839844 C 403.933594 781.386719 405.046875 777.542969 406.3125 773.761719 C 408.089844 768.449219 410.441406 763.453125 414.425781 759.410156 C 418.355469 755.421875 422.71875 751.972656 428.191406 750.398438 C 432.820312 749.066406 436.261719 746.269531 439.121094 742.554688 C 442.996094 737.527344 445.382812 731.800781 447.101562 725.753906 C 447.367188 724.824219 447.667969 723.894531 447.789062 722.941406 C 448.082031 720.617188 448.679688 718.785156 451.601562 718.640625 C 452.542969 718.59375 453.457031 717.527344 454.332031 716.863281 C 455.324219 716.109375 456.242188 715.261719 457.214844 714.488281 C 458.117188 713.765625 459.164062 713.394531 460.316406 713.589844 C 460.828125 713.671875 461.640625 713.875 461.730469 714.183594 C 462.007812 715.160156 461.113281 715.1875 460.460938 715.296875 C 458.867188 715.554688 457.671875 716.417969 456.691406 717.667969 C 455.324219 719.402344 454.5 721.261719 455.523438 723.429688 C 456.738281 725.996094 456.535156 728.507812 455.550781 731.070312 C 455.253906 731.835938 455.0625 732.667969 454.964844 733.492188 C 454.238281 739.496094 451.890625 744.980469 449.621094 750.496094 C 448.15625 754.054688 445.863281 756.90625 442.640625 759.066406 C 439.777344 760.992188 436.859375 762.828125 434.222656 765.113281 C 432.855469 766.296875 431.496094 767.4375 430.460938 768.910156 Z M 479.101562 703.503906 C 479.101562 703.503906 479.101562 703.5 479.109375 703.496094 L 478.976562 703.632812 C 478.792969 702.886719 478.964844 702.21875 479.632812 701.839844 C 480.222656 701.503906 480.886719 701.285156 481.542969 701.078125 C 486.304688 699.566406 490.863281 697.527344 495.441406 695.558594 C 496.726562 695.003906 497.917969 694.375 498.761719 693.175781 C 499.730469 691.8125 499.414062 690.839844 497.84375 690.445312 C 496.820312 690.191406 495.953125 690.410156 495.058594 690.875 C 490.648438 693.15625 486.230469 695.414062 481.863281 697.648438 C 480.90625 697.140625 481.296875 696.394531 481.375 695.789062 C 481.585938 694.136719 481.972656 692.511719 482.121094 690.855469 C 482.480469 686.992188 482.710938 683.121094 481.414062 679.125 C 482.601562 678.503906 483.753906 678.335938 485 678.539062 C 488.417969 679.097656 491.835938 679.636719 495.3125 679.078125 C 495.582031 679.035156 495.929688 678.992188 496.132812 679.128906 C 498 680.371094 500.097656 679.859375 502.121094 679.992188 C 510.359375 680.542969 518.042969 678.601562 525.402344 675 C 528.210938 673.621094 529.972656 671.503906 530.960938 668.613281 C 531.25 667.757812 531.570312 666.917969 531.878906 666.066406 C 532.601562 668.921875 533.691406 671.660156 533.914062 674.714844 C 534.261719 679.488281 533.382812 684.085938 532.863281 688.738281 C 532.601562 691.089844 532.402344 693.347656 533.058594 695.71875 C 534.386719 700.5 537.660156 703.746094 541.703125 705.890625 C 546.351562 708.355469 548.449219 712.230469 549.730469 716.890625 C 550.542969 719.824219 551.230469 722.792969 551.910156 725.757812 C 552.507812 728.367188 552.363281 731.023438 551.820312 733.589844 C 551.117188 736.910156 549.03125 739.355469 545.953125 740.691406 C 543.046875 741.949219 539.984375 742.746094 536.757812 742.949219 C 533.011719 743.191406 529.644531 741.972656 526.332031 740.59375 C 524.542969 739.84375 523.21875 738.363281 522.195312 736.652344 C 520.703125 734.148438 518.949219 731.851562 516.941406 729.714844 C 514.4375 727.054688 511.386719 725.707031 507.820312 725.367188 C 504.632812 725.066406 501.511719 725.246094 498.363281 726.0625 C 494.472656 727.070312 490.457031 727.460938 486.421875 727.070312 C 482.175781 726.65625 477.539062 722.722656 476.5625 718.695312 C 476.4375 718.167969 476.414062 717.582031 476.496094 717.050781 C 476.699219 715.683594 476.292969 714.625 475.1875 713.777344 C 474.582031 713.3125 474.453125 712.605469 474.824219 711.914062 C 476.292969 709.191406 477.019531 706.09375 478.992188 703.621094 C 479.023438 703.632812 479.0625 703.644531 479.09375 703.65625 C 479.09375 703.597656 479.101562 703.535156 479.101562 703.476562 C 479.101562 703.476562 479.101562 703.476562 479.097656 703.480469 Z M 490.984375 675.910156 C 492.863281 674.414062 494.683594 674.566406 496.460938 674.582031 C 499.238281 674.605469 501.984375 674.460938 504.738281 674.03125 C 508.402344 673.460938 511.59375 671.972656 514.417969 669.617188 C 515.585938 668.648438 516.800781 667.726562 517.957031 666.734375 C 519.421875 665.484375 520.972656 665.539062 522.582031 666.359375 C 523.074219 666.609375 523.542969 666.902344 524 667.21875 C 525.394531 668.1875 525.40625 669.597656 523.9375 670.558594 C 522.667969 671.390625 521.359375 672.21875 519.949219 672.757812 C 517.628906 673.652344 515.265625 674.65625 512.835938 674.996094 C 508.738281 675.566406 504.660156 676.414062 500.457031 676.179688 C 497.429688 676.011719 494.375 676.476562 490.980469 675.914062 Z M 531.625 666.007812 C 531.695312 665.972656 531.765625 665.941406 531.835938 665.902344 C 531.835938 665.914062 531.839844 665.921875 531.84375 665.929688 C 531.773438 665.953125 531.699219 665.976562 531.628906 666.007812 Z M 475.53125 698.292969 C 474.355469 701.78125 473.230469 705.335938 471.695312 708.710938 C 471.46875 709.214844 471.226562 709.714844 470.921875 710.171875 C 469.75 711.921875 468.691406 712.265625 466.703125 711.472656 C 465.417969 710.96875 464.164062 710.382812 462.910156 709.789062 C 459.484375 708.179688 456.234375 708.410156 453.101562 710.582031 C 452.210938 711.195312 451.417969 712.03125 450.011719 712.207031 C 449.121094 710.441406 449.070312 708.800781 449.15625 707.136719 C 449.527344 700.09375 449.5625 693.03125 450.609375 686.039062 C 450.855469 684.402344 451.179688 682.761719 451.664062 681.183594 C 452.40625 678.761719 453.71875 677.84375 456.300781 677.929688 C 457.949219 677.984375 459.597656 678.292969 461.242188 678.492188 C 464 678.824219 466.714844 678.933594 469.472656 678.230469 C 472.574219 677.445312 475.765625 679.429688 476.164062 682.648438 C 476.8125 687.867188 477.242188 693.230469 475.542969 698.285156 Z M 464.808594 754.332031 C 465.171875 755.089844 464.847656 755.886719 464.148438 755.9375 C 459.90625 756.257812 455.726562 757.414062 451.085938 757.003906 C 452.578125 753.347656 454.078125 749.960938 455.351562 746.492188 C 456.570312 743.171875 457.554688 739.769531 458.648438 736.394531 C 459.699219 736.832031 459.546875 737.808594 459.753906 738.546875 C 461.257812 743.867188 462.410156 749.292969 464.808594 754.328125 Z M 482.375 771.734375 C 482.167969 773.152344 480.648438 772.8125 479.625 772.945312 C 471.128906 774.074219 462.640625 775.332031 454.039062 775.335938 C 451.6875 775.335938 449.339844 775.335938 446.984375 775.335938 C 446.984375 775.40625 446.984375 775.476562 446.984375 775.550781 C 443.808594 775.765625 440.632812 775.996094 437.457031 776.183594 C 436.078125 776.261719 434.691406 776.273438 433.304688 776.253906 C 432.210938 776.238281 431.941406 775.640625 432.527344 774.605469 C 433.898438 772.183594 435.507812 769.941406 437.621094 768.097656 C 438.242188 767.554688 438.875 767.007812 439.550781 766.523438 C 441.457031 765.148438 443.269531 763.574219 445.347656 762.515625 C 447.324219 761.511719 449.683594 762.078125 451.863281 761.828125 C 456.398438 761.308594 460.953125 760.972656 465.492188 760.464844 C 467.6875 760.21875 469.429688 760.5 470.988281 762.410156 C 473.277344 765.214844 476.554688 766.925781 479.414062 769.09375 C 479.746094 769.34375 480.140625 769.496094 480.480469 769.734375 C 481.265625 770.273438 482.519531 770.753906 482.371094 771.738281 Z M 512.859375 778.316406 C 512.703125 778.441406 512.277344 778.4375 512.113281 778.308594 C 511.472656 777.789062 510.875 777.210938 510.285156 776.632812 C 507.609375 774.003906 504.707031 771.660156 501.445312 769.78125 C 500.734375 769.371094 499.976562 769.003906 499.191406 768.777344 C 498.679688 768.628906 498.039062 768.730469 497.707031 769.269531 C 496.992188 770.449219 496.234375 771.621094 496.722656 773.132812 C 497.632812 775.96875 497.269531 778.84375 496.992188 781.957031 C 495.773438 781.332031 495.726562 780.652344 495.605469 779.964844 C 495.039062 776.703125 493.410156 774.0625 490.957031 771.851562 C 487.453125 768.691406 483.910156 765.59375 479.847656 763.167969 C 475.132812 760.351562 472.066406 756.183594 469.894531 751.257812 C 468.496094 748.082031 467.460938 744.777344 466.660156 741.410156 C 465.28125 735.621094 463.902344 729.832031 461.910156 724.214844 C 461.3125 722.523438 461.382812 720.992188 462.238281 719.433594 C 462.632812 718.71875 462.878906 717.917969 463.21875 717.171875 C 464.148438 715.113281 466.339844 714.660156 467.867188 716.359375 C 468.953125 717.574219 470.097656 718.820312 470.398438 720.570312 C 470.832031 723.0625 471.941406 725.292969 473.230469 727.445312 C 474.941406 730.3125 476.046875 733.445312 477.3125 736.515625 C 478.261719 738.816406 479.207031 741.121094 480.246094 743.386719 C 482.53125 748.351562 486.222656 751.636719 491.691406 752.683594 C 498.835938 754.050781 503.792969 758.546875 507.808594 764.199219 C 510.636719 768.183594 512.164062 772.796875 513.105469 777.582031 C 513.152344 777.820312 513.035156 778.191406 512.863281 778.332031 Z M 597.402344 787.671875 C 596.703125 792.054688 596.253906 796.4375 596.074219 800.882812 C 595.875 805.664062 594.117188 810.089844 591.726562 814.1875 C 589.996094 817.148438 587.421875 819.214844 583.867188 819.785156 C 583.066406 819.917969 582.121094 820.050781 581.558594 820.550781 C 579.667969 822.21875 577.507812 822.058594 575.335938 821.679688 C 569.671875 820.683594 564.550781 818.257812 559.53125 815.578125 C 558.757812 815.167969 558.253906 814.570312 557.753906 813.894531 C 555.488281 810.855469 553.867188 807.535156 553.019531 803.820312 C 551.78125 798.386719 551.558594 792.84375 551.183594 787.320312 C 551.066406 785.617188 551.636719 784.078125 552.480469 782.589844 C 553.351562 781.050781 554.457031 779.507812 553.304688 777.253906 C 555.429688 777.253906 557.179688 777.230469 558.929688 777.261719 C 559.910156 777.28125 560.398438 777.859375 560.488281 778.828125 C 560.605469 780.199219 560.5625 781.613281 561.300781 782.867188 L 561.414062 782.75 C 561.316406 783.007812 561.117188 783.273438 561.132812 783.527344 C 561.714844 791.53125 562 799.539062 561.464844 807.5625 C 561.445312 807.835938 561.4375 808.128906 561.515625 808.386719 C 561.625 808.753906 561.640625 809.195312 562.199219 809.285156 C 562.769531 809.382812 563.324219 809.398438 563.742188 808.984375 C 564.371094 808.367188 564.472656 807.515625 564.542969 806.6875 C 564.929688 802.121094 564.914062 797.554688 564.347656 793.003906 C 563.765625 788.355469 563.121094 783.714844 562.523438 779.070312 C 562.355469 777.765625 562.734375 777.226562 564.015625 777.160156 C 567.335938 776.988281 570.632812 776.628906 573.941406 776.261719 C 580.160156 775.570312 586.203125 774.132812 592.195312 772.414062 C 593.125 772.148438 594.050781 771.855469 594.992188 771.644531 C 596.472656 771.316406 596.945312 771.625 597.21875 773.226562 C 598.042969 778.03125 598.183594 782.855469 597.414062 787.679688 Z M 610.023438 751.421875 C 608.816406 755.007812 607.015625 758.253906 604.539062 761.125 C 603.796875 761.988281 602.902344 762.585938 601.941406 763.164062 C 599.667969 764.527344 597.269531 765.613281 594.746094 766.351562 C 585.691406 769.007812 576.503906 771.082031 567.078125 771.828125 C 563.636719 772.097656 560.152344 771.867188 556.6875 771.867188 C 552.113281 771.941406 547.5625 772.242188 542.996094 772.574219 C 535.386719 773.128906 527.765625 772.808594 520.175781 771.953125 C 518.945312 771.8125 517.6875 771.695312 516.460938 771.773438 C 513.925781 771.941406 513.890625 772.011719 513.042969 769.632812 C 512.109375 767.011719 510.992188 764.492188 509.550781 762.113281 C 508.59375 760.535156 508.914062 760.09375 510.925781 759.964844 C 517.015625 759.574219 523.09375 759.097656 529.183594 758.824219 C 532.660156 758.667969 536.074219 758.113281 539.496094 757.601562 C 541.976562 757.230469 544.453125 756.941406 546.945312 757.0625 C 554.757812 757.4375 562.402344 756.203125 570.042969 754.839844 C 579.988281 753.066406 589.96875 751.460938 599.90625 749.644531 C 602.964844 749.085938 605.9375 749.394531 608.945312 749.738281 C 610.050781 749.863281 610.386719 750.371094 610.027344 751.421875 Z M 584.589844 644.324219 C 585.496094 646.347656 586.417969 648.359375 587.210938 650.429688 C 589.457031 656.28125 590.449219 662.433594 591.335938 668.601562 C 592.109375 673.945312 592.796875 679.304688 593.695312 684.625 C 594.738281 690.835938 594.761719 697.039062 593.972656 703.261719 C 592.867188 711.945312 592.847656 720.695312 592.191406 729.402344 C 591.890625 733.40625 591.5 737.410156 591.109375 741.40625 C 591.039062 742.117188 591.027344 742.757812 591.402344 743.402344 C 591.769531 744.035156 592.582031 744.269531 593.121094 743.808594 C 593.972656 743.089844 594.773438 742.339844 594.90625 741.121094 C 595.042969 739.886719 595.3125 738.664062 595.394531 737.421875 C 596.027344 728.152344 596.601562 718.882812 597.253906 709.617188 C 597.476562 706.4375 597.777344 703.257812 598.25 700.105469 C 599.105469 694.410156 598.6875 688.761719 597.785156 683.132812 C 596.886719 677.519531 595.886719 671.925781 594.984375 666.316406 C 594.097656 660.824219 592.6875 655.484375 590.667969 650.292969 C 590.382812 649.566406 589.917969 648.800781 590.277344 647.941406 C 590.898438 647.992188 591.1875 648.457031 591.507812 648.882812 C 594.511719 652.882812 597.042969 657.152344 599.398438 661.574219 C 603.46875 669.207031 606.648438 677.066406 608.472656 685.5625 C 609.546875 690.558594 610.671875 695.519531 611.402344 700.589844 C 612.089844 705.382812 612.59375 710.179688 612.867188 715.015625 C 613.003906 717.519531 612.824219 719.980469 612.601562 722.472656 C 612.074219 728.265625 611.800781 734.078125 611.476562 739.890625 C 611.394531 741.28125 611.355469 742.652344 610.964844 744 C 610.441406 745.796875 609.699219 746.511719 607.953125 745.824219 C 602.59375 743.703125 597.261719 745.074219 591.9375 745.65625 C 586.570312 746.242188 581.226562 747.078125 575.882812 747.882812 C 571.914062 748.484375 567.964844 749.199219 564.007812 749.867188 C 558.53125 750.792969 553.019531 751.351562 547.453125 751.257812 C 542.5625 751.179688 537.824219 752.363281 533.027344 753.066406 C 528.777344 753.691406 524.519531 754.207031 520.238281 754.550781 C 515.550781 754.933594 510.867188 755.457031 506.203125 756.09375 C 504.957031 756.265625 504.050781 756.105469 503.199219 755.269531 C 499.925781 752.058594 495.9375 750.265625 491.5 749.320312 C 487.710938 748.515625 485.042969 746.265625 483.390625 742.785156 C 482.101562 740.074219 480.480469 737.5 479.734375 734.652344 C 480.417969 733.96875 480.96875 734.359375 481.453125 734.5 C 485.835938 735.75 490.230469 735.527344 494.640625 734.6875 C 496.820312 734.269531 498.976562 733.742188 501.164062 733.378906 C 506.683594 732.464844 511.289062 733.988281 514.695312 738.601562 C 515.1875 739.273438 515.777344 739.878906 516.207031 740.582031 C 520.023438 746.851562 526.039062 748.804688 532.875 748.859375 C 537.957031 748.902344 542.753906 747.433594 547.175781 744.96875 C 552.546875 741.96875 555.527344 737.492188 555.519531 731.140625 C 555.519531 724.582031 554.410156 718.210938 552.757812 711.90625 C 551.847656 708.4375 549.789062 705.664062 547.3125 703.195312 C 545.941406 701.828125 544.496094 700.5 542.914062 699.394531 C 539.566406 697.058594 538.40625 693.855469 538.941406 689.992188 C 539.511719 685.851562 539.800781 681.714844 539.59375 677.546875 C 539.375 673.199219 538.375 669.054688 536.222656 665.234375 C 536.089844 664.992188 535.914062 664.773438 535.792969 664.523438 C 534.246094 661.308594 531.5 660.003906 528.132812 659.746094 C 526.0625 659.589844 523.984375 659.542969 521.910156 659.445312 C 519.75 659.34375 517.832031 659.886719 516.15625 661.335938 C 514.480469 662.789062 512.621094 664.035156 510.972656 665.511719 C 509.679688 666.671875 508.207031 667.433594 506.585938 667.765625 C 504.289062 668.222656 501.898438 668.867188 499.625 668.636719 C 495.582031 668.234375 491.9375 669.355469 488.304688 670.671875 C 485.707031 671.609375 483.144531 672.660156 480.386719 672.976562 C 479.0625 673.125 478.207031 674.535156 477.011719 674.386719 C 475.695312 674.222656 474.5 673.265625 473.179688 672.957031 C 470.707031 672.382812 468.191406 672.492188 465.828125 673.507812 C 463.824219 674.367188 461.878906 674.371094 459.777344 673.871094 C 457.367188 673.292969 454.925781 672.640625 452.394531 673.394531 C 451.058594 673.789062 449.625 674.023438 448.65625 675.082031 C 447.695312 676.128906 446.566406 676.292969 445.269531 676.269531 C 442.046875 676.210938 438.984375 675.671875 436.003906 674.300781 C 429.222656 671.1875 422.433594 668.089844 415.117188 666.339844 C 413.132812 665.867188 411.277344 664.863281 409.386719 664.09375 C 405.640625 662.574219 401.796875 661.648438 397.863281 660.878906 C 394.527344 660.226562 391.25 660.429688 387.949219 660.910156 C 387.398438 660.988281 386.867188 661.222656 386.320312 661.238281 C 381.828125 661.394531 378.84375 663.972656 376.667969 667.535156 C 373.679688 672.4375 372.367188 677.722656 373.886719 683.457031 C 374.953125 687.476562 375.867188 691.539062 377.113281 695.496094 C 379.1875 702.070312 378.410156 708.296875 375.664062 714.511719 C 373.929688 718.429688 372.691406 722.523438 372.507812 726.90625 C 372.363281 730.289062 374.109375 732.367188 376.589844 734.109375 C 377.371094 734.660156 378.304688 735.015625 379.199219 735.382812 C 384.492188 737.546875 389.792969 739.304688 395.652344 737.441406 C 398.46875 736.542969 401.117188 737.363281 403.3125 739.445312 C 404.515625 740.585938 405.761719 741.695312 407.015625 742.792969 C 407.636719 743.339844 408.261719 743.929688 408.984375 744.316406 C 413.082031 746.496094 415.9375 747.214844 420.414062 743.457031 C 423.53125 740.84375 425.777344 737.472656 427.875 734.035156 C 429.898438 730.710938 432.078125 727.53125 434.695312 724.632812 C 437.234375 721.820312 440.296875 719.691406 443.398438 717.589844 C 443.882812 717.257812 444.410156 717.203125 444.929688 717.574219 C 445.566406 718.035156 445.839844 718.664062 445.554688 719.378906 C 444.21875 722.722656 442.902344 726.074219 441.457031 729.371094 C 440.457031 731.648438 439.460938 733.980469 438.097656 736.050781 C 434.90625 740.890625 430.886719 744.730469 425.09375 746.488281 C 421.1875 747.675781 418.175781 750.476562 415.03125 752.964844 C 414.492188 753.394531 413.953125 753.878906 413.574219 754.445312 C 411.460938 757.605469 408.25 758.082031 404.835938 758.082031 C 404.285156 758.082031 403.722656 758.105469 403.175781 758.019531 C 397.652344 757.167969 392.097656 757.679688 386.558594 757.765625 C 381.265625 757.84375 376.023438 757.421875 370.796875 756.816406 C 366.363281 756.304688 361.945312 756.175781 357.503906 756.28125 C 353.058594 756.386719 348.652344 756.300781 344.226562 755.695312 C 341.214844 755.285156 338.132812 755.375 335.082031 755.304688 C 327.527344 755.125 320.195312 754 313.292969 750.660156 C 312.1875 750.125 311.429688 749.628906 311.078125 748.472656 C 310.878906 747.8125 310.394531 747.195312 310.355469 746.539062 C 310.117188 743.058594 308.71875 739.820312 308.265625 736.394531 C 308.027344 734.613281 307.886719 732.796875 307.941406 731.007812 C 308.117188 725.605469 308.414062 720.203125 308.65625 714.796875 C 308.78125 712.027344 309.011719 709.261719 308.988281 706.488281 C 308.941406 700.789062 309.597656 695.144531 310.136719 689.484375 C 310.53125 685.316406 311.832031 681.355469 313.070312 677.378906 C 315.042969 671.027344 316.707031 664.578125 319.792969 658.621094 C 323.1875 652.066406 326.941406 645.8125 332.664062 640.921875 C 334.394531 639.445312 336.304688 638.476562 338.34375 637.695312 C 340.277344 636.953125 342.28125 636.386719 344.285156 635.835938 C 350.433594 634.148438 356.554688 632.390625 362.578125 630.292969 C 371.644531 627.136719 381.035156 625.386719 390.5 623.96875 C 394.742188 623.332031 398.949219 622.476562 403.1875 621.808594 C 407.441406 621.132812 411.734375 620.976562 416.039062 621.183594 C 418.253906 621.296875 420.480469 621.328125 422.695312 621.253906 C 431.160156 620.980469 439.605469 621.324219 448.054688 621.839844 C 454.011719 622.203125 459.976562 622.1875 465.9375 622.003906 C 474.558594 621.730469 483.113281 622.492188 491.667969 623.445312 C 501.3125 624.519531 510.941406 625.796875 520.675781 625.898438 C 525.136719 625.945312 529.523438 626.601562 533.742188 628.105469 C 536.769531 629.183594 539.898438 629.804688 543.054688 630.183594 C 551.328125 631.164062 559.441406 633.023438 567.648438 634.363281 C 571.917969 635.058594 576.023438 636.203125 580.035156 637.800781 C 581.472656 638.371094 582.765625 639.128906 584.039062 639.964844 C 584.886719 640.519531 585.101562 641.175781 584.410156 642.027344 C 583.75 642.835938 584.257812 643.554688 584.597656 644.316406 Z M 410.386719 693.34375 C 410.804688 694.792969 412.292969 695.882812 413.554688 695.296875 C 419.234375 692.660156 425.242188 693.742188 431.132812 693.546875 C 434.394531 693.441406 437.40625 694.585938 440.414062 695.621094 C 441.828125 696.109375 441.976562 696.578125 441.855469 698.125 C 441.457031 703.226562 441.140625 708.324219 441.929688 713.46875 C 440.972656 714.167969 440.132812 714.902344 439.183594 715.445312 C 434.125 718.355469 430.425781 722.585938 427.265625 727.390625 C 424.902344 730.976562 422.722656 734.695312 419.703125 737.8125 C 418.4375 739.117188 417.109375 740.25 415.164062 740.511719 C 413.554688 740.738281 412.121094 740.585938 410.867188 739.527344 C 409.707031 738.542969 408.53125 737.566406 407.46875 736.476562 C 404.03125 732.933594 399.886719 731.523438 395.011719 732.121094 C 394.050781 732.234375 393.078125 732.316406 392.113281 732.445312 C 387.953125 732.992188 384.144531 731.863281 380.535156 729.933594 C 378.34375 728.761719 377.769531 727.582031 378.238281 725.148438 C 378.527344 723.660156 378.996094 722.195312 379.480469 720.753906 C 380.140625 718.785156 380.777344 716.792969 381.632812 714.90625 C 384.914062 707.6875 384.75 700.386719 382.3125 693.011719 C 381.355469 690.117188 380.363281 687.234375 379.308594 684.375 C 378.230469 681.453125 377.933594 678.445312 378.109375 675.371094 C 378.183594 674.121094 378.402344 672.898438 378.929688 671.738281 C 379.324219 670.871094 380.097656 670.613281 380.945312 671.203125 C 387.023438 675.421875 393.871094 677.277344 401.144531 678.011719 C 411.914062 679.101562 422.710938 679.578125 433.527344 679.738281 C 433.808594 679.738281 434.089844 679.683594 434.359375 679.726562 C 437.742188 680.308594 441.117188 680.90625 444.730469 681.535156 C 443.105469 684.976562 443.542969 688.757812 441.894531 692.125 C 441.242188 691.9375 440.703125 691.828125 440.199219 691.632812 C 432.757812 688.730469 425.117188 688.296875 417.304688 689.75 C 415.6875 690.050781 414.019531 690.066406 412.394531 690.3125 C 410.84375 690.546875 409.972656 691.945312 410.371094 693.339844 Z M 386.507812 667.460938 C 386.527344 667.15625 386.953125 666.746094 387.292969 666.601562 C 390.046875 665.425781 392.90625 665.210938 395.847656 665.714844 C 398.996094 666.246094 402.109375 666.953125 405.0625 668.160156 C 410.324219 670.308594 415.714844 672.074219 421.148438 673.710938 C 422.054688 673.984375 423.027344 674.132812 424.003906 675.464844 C 419.480469 675.054688 415.492188 674.707031 411.496094 674.335938 C 409.019531 674.105469 406.542969 673.785156 404.0625 673.628906 C 401.429688 673.460938 398.957031 672.8125 396.441406 672.019531 C 393.257812 671.019531 390.203125 669.78125 387.210938 668.363281 C 386.882812 668.210938 386.488281 667.75 386.507812 667.453125 Z M 568.921875 622.472656 C 571.75 623.09375 574.535156 623.914062 577.328125 624.667969 C 578.417969 624.960938 579.414062 625.507812 580.15625 626.351562 C 581.882812 628.308594 583.335938 630.457031 584.726562 632.808594 C 583.125 633.273438 581.980469 632.714844 580.835938 632.3125 C 576.414062 630.746094 571.941406 629.550781 567.222656 629.15625 C 564.628906 628.941406 562.074219 628.160156 559.539062 627.484375 C 556.441406 626.664062 553.285156 626.25 550.132812 625.824219 C 544.90625 625.128906 539.734375 624.230469 534.726562 622.519531 C 530.996094 621.246094 527.058594 621.148438 523.21875 621.074219 C 516 620.9375 508.855469 620.222656 501.699219 619.445312 C 494.816406 618.703125 487.925781 618.03125 481.027344 617.371094 C 479.652344 617.242188 478.257812 617.277344 476.871094 617.277344 C 469.542969 617.289062 462.214844 617.375 454.886719 617.300781 C 449.769531 617.246094 444.65625 617.277344 439.53125 617.027344 C 435.40625 616.824219 431.222656 617.15625 427.066406 617.058594 C 423.054688 616.96875 419.042969 616.730469 415.035156 616.808594 C 411.859375 616.871094 408.683594 617.21875 405.53125 617.613281 C 402.242188 618.027344 399.007812 618.695312 395.761719 619.449219 C 392.300781 620.253906 388.664062 620.585938 385.109375 621.125 C 378.386719 622.152344 371.855469 623.898438 365.425781 626.109375 C 360.058594 627.949219 354.613281 629.5625 349.179688 631.207031 C 344.144531 632.726562 339.042969 634.042969 334.3125 636.414062 C 333.945312 636.597656 333.535156 636.71875 333.128906 636.816406 C 330.785156 637.394531 328.980469 636.003906 328.925781 633.589844 C 328.867188 631.011719 329.726562 628.949219 332.273438 627.933594 C 334.839844 626.902344 337.390625 625.859375 340.117188 625.277344 C 346.085938 624.007812 352.101562 622.882812 357.957031 621.210938 C 363.160156 619.730469 368.46875 618.875 373.707031 617.621094 C 376.027344 617.070312 378.378906 617.074219 380.703125 616.726562 C 390.132812 615.316406 399.570312 613.941406 408.980469 612.378906 C 414.160156 611.515625 419.457031 611.316406 424.707031 610.9375 C 427.328125 610.746094 429.933594 610.390625 432.5625 610.210938 C 435.765625 609.988281 438.925781 610.210938 442.050781 610.585938 C 449.074219 611.425781 456.085938 612.125 463.164062 611.976562 C 470.519531 611.820312 477.847656 612.363281 485.179688 612.808594 C 491.964844 613.226562 498.71875 613.710938 505.378906 615.195312 C 510.261719 616.285156 515.277344 616.589844 520.265625 616.652344 C 526.25 616.726562 532.152344 617.492188 538.0625 618.277344 C 539.707031 618.496094 541.363281 618.695312 543.023438 618.800781 C 551.753906 619.328125 560.390625 620.578125 568.925781 622.464844 Z M 621.945312 564.695312 C 620.339844 566.824219 619.445312 569.265625 618.617188 571.75 C 617.289062 575.75 616.589844 579.777344 617.914062 583.941406 C 618.273438 585.058594 617.703125 585.855469 616.492188 585.933594 C 614.980469 586.03125 613.457031 585.957031 611.933594 585.957031 C 605.039062 585.332031 599.152344 587.472656 594.4375 592.609375 C 593.96875 593.121094 593.597656 593.734375 593.0625 594.164062 C 591.730469 595.226562 590.269531 595.953125 588.460938 595.53125 C 587.667969 595.34375 586.824219 595.179688 586.019531 595.226562 C 585.0625 595.285156 584.136719 595.472656 584.058594 596.847656 C 583.957031 598.605469 582.699219 599.046875 581.148438 599.050781 C 576.191406 599.074219 571.574219 597.71875 567.125 595.667969 C 566.625 595.441406 566.207031 594.957031 565.695312 594.84375 C 562.183594 594.054688 560.441406 591.550781 559.140625 588.472656 C 558.117188 586.054688 556.929688 583.695312 555.757812 581.34375 C 554.195312 578.203125 551.671875 576.117188 548.394531 574.988281 C 545.382812 573.953125 542.414062 572.84375 539.296875 572.089844 C 536.769531 571.476562 534.355469 570.324219 531.957031 569.265625 C 529.726562 568.285156 528.191406 566.441406 526.886719 564.464844 C 525.589844 562.5 524.421875 560.445312 523.269531 558.394531 C 521.035156 554.429688 520.261719 550.039062 520.117188 545.59375 C 520.019531 542.539062 521.199219 539.628906 522.335938 536.792969 C 522.605469 536.113281 523.238281 535.757812 523.925781 535.558594 C 526.308594 534.855469 528.699219 534.160156 531.089844 533.484375 C 531.621094 533.335938 532.132812 533.398438 532.695312 533.59375 C 535.378906 534.515625 536.609375 534.183594 538.429688 531.984375 C 539.117188 531.15625 539.878906 531.25 540.65625 531.566406 C 544.015625 532.941406 547.085938 534.777344 549.773438 537.261719 C 554.558594 541.6875 560.34375 544.296875 566.476562 546.230469 C 571.5 547.8125 576.644531 547.683594 581.714844 546.796875 C 586.984375 545.882812 592.214844 546.132812 597.457031 546.574219 C 600.714844 546.847656 603.5 548.140625 605.777344 550.722656 C 609.917969 555.40625 614.675781 559.371094 620.414062 562.027344 C 620.789062 562.199219 621.160156 562.390625 621.507812 562.613281 C 622.394531 563.175781 622.601562 563.816406 621.945312 564.6875 Z M 621.945312 564.695312 " fill-opacity="1" fill-rule="nonzero"/></g><path fill="#5e0813" d="M 368.078125 818.621094 C 368.105469 818.578125 368.136719 818.535156 368.160156 818.488281 C 368.160156 818.488281 368.113281 818.4375 368.089844 818.414062 L 368.152344 818.484375 C 368.152344 818.457031 368.152344 818.429688 368.152344 818.402344 C 368.125 818.402344 368.101562 818.402344 368.074219 818.402344 C 368.074219 818.472656 368.074219 818.546875 368.074219 818.613281 Z M 368.078125 818.621094 " fill-opacity="1" fill-rule="nonzero"/><path fill="#5e0813" d="M 366.777344 821.765625 C 366.996094 821.785156 367.300781 821.636719 367.445312 821.464844 C 368.136719 820.628906 368.089844 819.613281 368.078125 818.621094 C 367.542969 819.46875 367 820.3125 366.480469 821.167969 C 366.3125 821.441406 366.441406 821.738281 366.777344 821.765625 Z M 366.777344 821.765625 " fill-opacity="1" fill-rule="nonzero"/><path fill="#5e0813" d="M 557.410156 532.773438 C 557.578125 532.378906 557.742188 531.984375 557.910156 531.589844 C 557.46875 531.863281 557.433594 532.3125 557.410156 532.773438 Z M 557.410156 532.773438 " fill-opacity="1" fill-rule="nonzero"/><path fill="#5e0813" d="M 557.386719 533.121094 C 557.386719 533.121094 557.320312 533.113281 557.289062 533.109375 L 557.386719 533.121094 C 557.398438 533.011719 557.40625 532.890625 557.410156 532.773438 C 557.363281 532.886719 557.316406 532.992188 557.269531 533.105469 C 556.96875 533.363281 556.660156 533.625 556.359375 533.886719 L 556.386719 533.996094 C 556.761719 533.757812 557.332031 533.730469 557.386719 533.121094 Z M 557.386719 533.121094 " fill-opacity="1" fill-rule="nonzero"/><path fill="#5e0813" d="M 558.316406 531.0625 C 558.214844 531.160156 558.113281 531.257812 558.007812 531.359375 C 557.976562 531.4375 557.945312 531.511719 557.910156 531.59375 C 557.96875 531.558594 558.023438 531.523438 558.089844 531.496094 C 558.15625 531.347656 558.226562 531.199219 558.3125 531.066406 Z M 558.316406 531.0625 " fill-opacity="1" fill-rule="nonzero"/><path fill="#5e0813" d="M 558.316406 531.0625 C 558.4375 530.941406 558.5625 530.824219 558.683594 530.703125 C 558.523438 530.789062 558.410156 530.914062 558.316406 531.0625 Z M 558.316406 531.0625 " fill-opacity="1" fill-rule="nonzero"/><path fill="#5e0813" d="M 558.863281 530.527344 C 558.804688 530.589844 558.742188 530.644531 558.683594 530.703125 C 558.765625 530.65625 558.863281 530.625 558.980469 530.613281 C 558.980469 530.613281 558.863281 530.527344 558.863281 530.527344 Z M 558.863281 530.527344 " fill-opacity="1" fill-rule="nonzero"/><path fill="#5e0813" d="M 577.554688 677.914062 C 575.910156 676.90625 574.1875 676.636719 572.390625 677.246094 C 571.34375 677.601562 570.355469 678.125 569.207031 678.066406 C 566.019531 677.90625 563.371094 679.644531 560.5 680.570312 C 559.914062 680.761719 559.367188 681.386719 559.023438 681.945312 C 557.105469 685.058594 555.746094 688.359375 555.882812 692.109375 C 555.929688 698.671875 559.132812 703.3125 564.917969 705.722656 C 568.675781 707.285156 576.03125 705.703125 578.347656 701.917969 C 580.3125 698.703125 581.492188 695.152344 583.355469 691.921875 C 583.742188 691.246094 583.835938 690.292969 583.773438 689.488281 C 583.394531 684.742188 581.886719 680.570312 577.558594 677.910156 Z M 578.292969 692.777344 C 577.40625 694.472656 576.808594 696.339844 575.667969 697.921875 C 573.328125 701.167969 569.605469 702.21875 566.570312 701.324219 C 563.242188 700.335938 560.667969 696.976562 560.441406 693.289062 C 560.398438 692.597656 560.4375 691.90625 560.4375 691.214844 C 560.394531 691.214844 560.351562 691.214844 560.3125 691.214844 C 560.3125 690.660156 560.292969 690.105469 560.3125 689.554688 C 560.460938 685.992188 562.246094 683.5 565.617188 682.421875 C 568.136719 681.617188 570.753906 681.46875 573.402344 681.695312 C 575.03125 681.835938 576.285156 682.574219 577.203125 683.910156 C 579.105469 686.671875 580.035156 689.457031 578.296875 692.78125 Z M 578.292969 692.777344 " fill-opacity="1" fill-rule="nonzero"/><path fill="#5e0813" d="M 329.210938 649 C 328.441406 649.113281 327.90625 649.558594 327.601562 650.171875 C 326.917969 651.53125 326.253906 652.90625 325.71875 654.328125 C 323.511719 660.210938 322.273438 666.367188 321.84375 672.570312 C 320.941406 685.570312 320.207031 698.597656 321.492188 711.628906 C 321.667969 713.417969 321.542969 715.28125 322.003906 716.992188 C 322.667969 719.453125 322.613281 721.925781 322.632812 724.414062 C 322.867188 727.589844 323.058594 730.769531 323.355469 733.941406 C 323.519531 735.664062 324.300781 736.191406 326.210938 736.132812 C 327.125 736.105469 327.511719 735.503906 327.414062 733.914062 C 327.101562 728.796875 327.003906 723.648438 326.335938 718.574219 C 325.496094 712.230469 325.113281 705.855469 325 699.5 C 324.835938 690.078125 324.984375 680.644531 325.621094 671.226562 C 326.070312 664.542969 327.40625 658.058594 329.777344 651.789062 C 330.019531 651.148438 330.199219 650.480469 330.371094 649.808594 C 330.488281 649.359375 329.75 648.921875 329.210938 649 Z M 329.210938 649 " fill-opacity="1" fill-rule="nonzero"/><path fill="#5e0813" d="M 580.917969 721.109375 C 580.605469 719.140625 579.394531 717.960938 577.9375 716.8125 C 576.640625 715.789062 575.433594 715.28125 573.832031 716.152344 C 573.480469 716.34375 572.785156 715.9375 572.261719 715.785156 C 571.160156 715.464844 570.09375 715.589844 568.988281 715.871094 C 565.035156 716.890625 562.5625 719.503906 560.949219 723.101562 C 560.035156 725.132812 560.195312 727.171875 560.929688 729.171875 C 562.394531 733.179688 566.957031 736.328125 571.695312 736.378906 C 571.796875 736.371094 572.351562 736.347656 572.902344 736.289062 C 578.589844 735.75 582.789062 730.664062 582.058594 725.050781 C 581.882812 723.710938 581.144531 722.449219 580.929688 721.105469 Z M 577.144531 728.335938 C 576.480469 730.753906 573.859375 732.289062 570.945312 732.246094 C 566.398438 732.179688 563.375 726.882812 565.6875 722.953125 C 567.378906 720.070312 569.984375 718.765625 573.296875 718.851562 C 574.46875 718.886719 575.394531 719.402344 576.066406 720.40625 C 577.714844 722.878906 577.902344 725.585938 577.144531 728.335938 Z M 577.144531 728.335938 " fill-opacity="1" fill-rule="nonzero"/><path fill="#5e0813" d="M 326.160156 743.726562 C 325.945312 743.753906 325.707031 744.386719 325.671875 744.761719 C 325.546875 746 325.722656 747.214844 326.308594 748.328125 C 326.414062 748.539062 326.703125 748.734375 326.9375 748.773438 C 327.078125 748.792969 327.339844 748.535156 327.425781 748.347656 C 327.53125 748.109375 327.507812 747.8125 327.585938 747.167969 C 327.5 746.589844 327.363281 745.652344 327.199219 744.71875 C 327.101562 744.132812 326.765625 743.644531 326.160156 743.726562 Z M 326.160156 743.726562 " fill-opacity="1" fill-rule="nonzero"/><path fill="#5e0813" d="M 446.1875 600.910156 C 446.8125 597.640625 447.414062 594.550781 448 591.453125 C 448.074219 591.046875 448.125 590.632812 448.117188 590.226562 C 448.101562 589.632812 447.851562 589.09375 447.195312 589.113281 C 446.867188 589.121094 446.351562 589.445312 446.273438 589.722656 C 445.515625 592.359375 444.726562 594.996094 444.171875 597.679688 C 443.863281 599.167969 444.753906 600.226562 446.1875 600.910156 Z M 446.1875 600.910156 " fill-opacity="1" fill-rule="nonzero"/><path fill="#5e0813" d="M 374.488281 604.789062 C 372.117188 602.121094 370.148438 599.097656 367.1875 596.921875 C 368.558594 599.535156 369.886719 602.085938 371.105469 604.699219 C 371.523438 605.59375 372.171875 606.324219 373.070312 606.785156 C 373.566406 607.039062 374.101562 607.230469 374.550781 606.695312 C 374.953125 606.222656 374.910156 605.6875 374.695312 605.148438 C 374.644531 605.019531 374.578125 604.890625 374.492188 604.789062 Z M 374.488281 604.789062 " fill-opacity="1" fill-rule="nonzero"/><path fill="#5e0813" d="M 448.671875 587.484375 C 448.585938 587.257812 448.558594 586.9375 448.390625 586.832031 C 448.273438 586.753906 447.972656 586.964844 447.746094 587.046875 C 447.839844 587.265625 447.875 587.554688 448.035156 587.691406 C 448.277344 587.898438 448.535156 587.777344 448.671875 587.480469 Z M 448.671875 587.484375 " fill-opacity="1" fill-rule="nonzero"/><path fill="#5e0813" d="M 479.085938 704.335938 C 479.222656 705.902344 479.480469 706.21875 480.722656 705.855469 C 483.328125 705.089844 485.929688 705.355469 488.546875 705.671875 C 493.691406 706.292969 498.605469 707.578125 502.953125 710.546875 C 503.066406 710.628906 503.195312 710.683594 503.320312 710.734375 C 503.996094 711.007812 504.414062 710.59375 504.605469 710.082031 C 504.957031 709.128906 504.984375 708.113281 504.117188 707.410156 C 503.253906 706.722656 502.347656 705.996094 501.339844 705.621094 C 494.746094 703.140625 487.992188 701.988281 480.980469 703.53125 C 480.34375 703.671875 479.738281 703.929688 479.09375 703.679688 C 479.078125 703.898438 479.0625 704.117188 479.078125 704.332031 Z M 479.085938 704.335938 " fill-opacity="1" fill-rule="nonzero"/><path fill="#5e0813" d="M 417.527344 704.285156 C 417.898438 704.441406 418.363281 704.316406 418.5 703.84375 C 418.992188 702.136719 420.171875 701.167969 421.726562 700.378906 C 423.167969 699.640625 424.4375 698.554688 425.765625 697.597656 C 425.96875 697.453125 426.101562 697.195312 426.21875 696.960938 C 426.269531 696.859375 426.246094 696.671875 426.191406 696.5625 C 426.132812 696.453125 425.992188 696.394531 425.886719 696.316406 C 425.757812 696.300781 425.609375 696.242188 425.496094 696.28125 C 422.539062 697.390625 419.832031 698.9375 417.394531 700.9375 C 416.570312 701.609375 416.261719 702.488281 416.691406 703.488281 C 416.828125 703.820312 417.191406 704.140625 417.527344 704.28125 Z M 417.527344 704.285156 " fill-opacity="1" fill-rule="nonzero"/><path fill="#5e0813" d="M 429.574219 695.742188 C 429.339844 695.632812 429.105469 695.4375 428.867188 695.4375 C 428.671875 695.4375 428.472656 695.660156 428.277344 695.78125 C 428.511719 695.882812 428.742188 695.984375 428.976562 696.085938 C 429.175781 695.96875 429.375 695.859375 429.574219 695.742188 Z M 429.574219 695.742188 " fill-opacity="1" fill-rule="nonzero"/></svg>