<svg xmlns="http://www.w3.org/2000/svg" xmlns:xlink="http://www.w3.org/1999/xlink" zoomAndPan="magnify" preserveAspectRatio="xMidYMid meet" version="1.0" viewBox="165.08 621.86 485.4 394.2"><defs><clipPath id="35e7201920"><path d="M 1 0.121094 L 398 0.121094 L 398 342 L 1 342 Z M 1 0.121094 " clip-rule="nonzero"/></clipPath><clipPath id="033a89eb39"><path d="M 477 374 L 487 374 L 487 395.640625 L 477 395.640625 Z M 477 374 " clip-rule="nonzero"/></clipPath><clipPath id="63a854492c"><path d="M 194.0625 48.976562 L 287.738281 48.976562 L 287.738281 133.714844 L 194.0625 133.714844 Z M 194.0625 48.976562 " clip-rule="nonzero"/></clipPath><clipPath id="4c7a5fed4f"><path d="M 286.363281 66.882812 C 283.414062 56.871094 273.898438 48.976562 262.644531 48.976562 C 253.195312 48.976562 244.984375 54.308594 240.835938 62.140625 C 236.683594 54.308594 228.476562 48.976562 219.027344 48.976562 C 207.253906 48.976562 196.957031 56.871094 194.9375 68.328125 C 189.808594 97.378906 222.304688 120.117188 240.90625 133.714844 C 258.109375 121.140625 294.792969 95.507812 286.363281 66.882812 Z M 286.363281 66.882812 " clip-rule="nonzero"/></clipPath><clipPath id="39ba2a94ac"><path d="M 0.320312 0.976562 L 93.738281 0.976562 L 93.738281 85.714844 L 0.320312 85.714844 Z M 0.320312 0.976562 " clip-rule="nonzero"/></clipPath><clipPath id="c8b1080d20"><path d="M 92.363281 18.882812 C 89.414062 8.871094 79.898438 0.976562 68.644531 0.976562 C 59.195312 0.976562 50.984375 6.308594 46.835938 14.140625 C 42.683594 6.308594 34.476562 0.976562 25.027344 0.976562 C 13.253906 0.976562 2.957031 8.871094 0.9375 20.328125 C -4.191406 49.378906 28.304688 72.117188 46.90625 85.714844 C 64.109375 73.140625 100.792969 47.507812 92.363281 18.882812 Z M 92.363281 18.882812 " clip-rule="nonzero"/></clipPath><clipPath id="062db45a4c"><rect x="0" width="94" y="0" height="86"/></clipPath><clipPath id="596b2bb84a"><rect x="0" width="488" y="0" height="396"/></clipPath></defs><g transform="matrix(1, 0, 0, 1, 164, 621)"><g clip-path="url(#596b2bb84a)"><g clip-path="url(#35e7201920)"><path fill="#5e0813" d="M 107.925781 183.878906 C 106.066406 183.582031 106.164062 184.679688 106.152344 185.714844 C 106.03125 197.855469 98.765625 202.507812 88.867188 195.65625 C 81.183594 190.335938 73.664062 184.320312 71.476562 173.761719 C 68.851562 161.113281 60.621094 151.199219 52.898438 141.234375 C 50.089844 137.613281 46.65625 134.472656 43.898438 130.816406 C 39.546875 125.039062 34.484375 120.933594 26.789062 121.035156 C 24.742188 121.0625 22.429688 120.066406 22.089844 117.902344 C 21.242188 112.464844 16.917969 109.542969 14.003906 105.574219 C 6.382812 95.199219 5.539062 97.65625 12.511719 86.371094 C 14.316406 83.445312 14.632812 80.472656 14.046875 77.304688 C 11.679688 64.480469 9.617188 51.644531 9.835938 38.527344 C 9.929688 32.800781 8.074219 27.511719 4.570312 22.898438 C -2.074219 14.144531 1.3125 8.382812 10.113281 1.828125 C 12.980469 -0.304688 15.847656 1.480469 18.324219 3.433594 C 29.816406 12.507812 42.09375 20.445312 54.433594 28.292969 C 59.054688 31.230469 64.316406 31.996094 69.558594 32.765625 C 75.546875 33.644531 80.585938 35.867188 84.875 40.515625 C 98.773438 55.59375 105.863281 73.363281 105.023438 93.664062 C 104.457031 107.367188 108.726562 118.492188 117.457031 128.625 C 123.722656 135.898438 129.496094 143.613281 135.25 151.308594 C 140.054688 157.722656 145.835938 162.976562 152.53125 167.277344 C 157.375 170.390625 162.070312 173.699219 166.011719 177.917969 C 174.605469 187.121094 185.707031 191.4375 197.519531 194.539062 C 204.902344 196.480469 212.28125 198.058594 219.992188 197.515625 C 222.617188 197.328125 225.261719 198.054688 227.285156 199.703125 C 233.875 205.085938 241.796875 205.378906 249.664062 205.808594 C 259.242188 206.324219 268.871094 205.082031 278.4375 206.660156 C 284.738281 207.699219 290.578125 209.75 296.085938 213.050781 C 306.355469 219.210938 315.089844 227.371094 324.476562 234.667969 C 329.152344 238.300781 330.109375 244.519531 332.179688 249.765625 C 333.28125 252.554688 325.628906 256.882812 321.914062 255.71875 C 320.582031 255.300781 319.335938 254.605469 318 254.015625 C 317.214844 258.996094 317.214844 258.996094 312.597656 264.078125 C 318.816406 263.855469 324.09375 265.730469 329.46875 267.960938 C 330.21875 265.585938 328.789062 264.234375 328.398438 262.675781 C 327.878906 260.605469 326.617188 258.085938 329.105469 256.960938 C 331.734375 255.773438 334.941406 256.484375 336.128906 259.378906 C 339.683594 268.039062 346.632812 274.382812 351.210938 282.324219 C 354.527344 288.070312 358.632812 293.226562 363.515625 297.746094 C 366.0625 300.097656 368.136719 302.796875 369.804688 305.871094 C 372.382812 310.632812 375.96875 314.390625 380.914062 316.894531 C 384.355469 318.640625 387.476562 321.019531 390.878906 322.851562 C 394.695312 324.902344 395.054688 329.164062 397.242188 332.246094 C 398.082031 333.429688 396.789062 334.332031 395.554688 334.570312 C 393.851562 334.902344 392.085938 334.996094 390.445312 334.378906 C 388.074219 333.480469 386.164062 334.109375 384.71875 336 C 383.070312 338.152344 381.324219 337.96875 379.070312 336.976562 C 375.53125 335.414062 371.789062 334.324219 367.921875 333.902344 C 361.96875 333.25 356.453125 333.832031 351.160156 337.472656 C 344.683594 341.925781 337.511719 343.070312 329.988281 339.261719 C 326.558594 337.527344 322.757812 336.535156 319.148438 335.136719 C 313.445312 332.925781 309.925781 327.925781 305.6875 323.984375 C 301.128906 319.742188 296.230469 317.117188 290.128906 316.683594 C 284.746094 316.300781 281.269531 313.828125 280.203125 308.339844 C 279.988281 307.226562 279.546875 306.128906 279.042969 305.109375 C 277.84375 302.667969 276.265625 302.128906 273.921875 303.945312 C 268.617188 308.058594 268.074219 308.367188 261.984375 303.988281 C 250.050781 295.414062 236.988281 288.847656 224.222656 281.730469 C 214.390625 276.25 203.441406 273.523438 193.140625 269.195312 C 189.839844 267.804688 186.597656 266.273438 183.363281 264.730469 C 181.917969 264.039062 180.488281 263.082031 180.519531 261.261719 C 180.578125 257.878906 178.320312 256.546875 175.734375 255.378906 C 170.640625 253.074219 165.269531 251.398438 160.414062 248.554688 C 156.46875 246.246094 154.320312 242.09375 154.859375 237.792969 C 155.183594 235.230469 158.585938 235.710938 159.15625 233.445312 C 158.828125 232.296875 157.894531 232.128906 157.09375 232.414062 C 152.136719 234.191406 149.558594 231.152344 147.335938 227.59375 C 144.136719 222.460938 141.746094 216.945312 139.917969 211.179688 C 136.417969 200.148438 129.855469 192.066406 118.441406 188.410156 C 114.914062 187.277344 111.605469 185.457031 107.925781 183.878906 M 101.445312 175.253906 C 102.1875 172.636719 100.597656 172.570312 98.878906 173.109375 C 97.367188 173.585938 95.21875 173.84375 96.308594 176.464844 C 96.882812 177.851562 98.496094 178.835938 97.964844 180.679688 C 95.929688 182.894531 92.433594 181.839844 90.339844 183.972656 C 93.089844 187.625 94.585938 187.269531 103.023438 180.964844 C 102.113281 179.40625 101.097656 177.820312 101.445312 175.253906 Z M 101.445312 175.253906 " fill-opacity="1" fill-rule="nonzero"/></g><g clip-path="url(#033a89eb39)"><path fill="#5e0813" d="M 477.917969 377.003906 C 480.203125 373.339844 482.71875 374.277344 484.671875 376.582031 C 487.695312 380.15625 486.6875 391.539062 483.339844 395.0625 C 481.734375 393.109375 477.628906 379.972656 477.917969 377.003906 Z M 477.917969 377.003906 " fill-opacity="1" fill-rule="nonzero"/></g><g clip-path="url(#63a854492c)"><g clip-path="url(#4c7a5fed4f)"><g transform="matrix(1, 0, 0, 1, 194, 48)"><g clip-path="url(#062db45a4c)"><g clip-path="url(#39ba2a94ac)"><g clip-path="url(#c8b1080d20)"><path fill="#5e0813" d="M 0.394531 0.976562 L 93.738281 0.976562 L 93.738281 85.714844 L 0.394531 85.714844 Z M 0.394531 0.976562 " fill-opacity="1" fill-rule="nonzero"/></g></g></g></g></g></g></g></g></svg>