<svg version="1.1" id="Layer_1" xmlns="http://www.w3.org/2000/svg" xmlns:xlink="http://www.w3.org/1999/xlink" x="0px" y="0px"
	 width="100%" viewBox="0 0 608 480" enable-background="new 0 0 608 480" xml:space="preserve">
<path fill="#000000" opacity="1.000000" stroke="none" 
	d="
M149.476990,229.172638 
	C147.314865,228.828949 147.429672,230.103409 147.417358,231.303024 
	C147.272720,245.400497 138.835678,250.803360 127.343475,242.848404 
	C118.419205,236.670959 109.687569,229.684601 107.146202,217.424118 
	C104.101410,202.734955 94.541328,191.223251 85.573326,179.651367 
	C82.313576,175.445145 78.323662,171.799255 75.124237,167.553101 
	C70.070595,160.846130 64.190643,156.074615 55.255188,156.194229 
	C52.877666,156.226074 50.192219,155.071472 49.799198,152.557907 
	C48.811779,146.242844 43.789871,142.847305 40.407574,138.242020 
	C31.558809,126.193687 30.578630,129.044769 38.675713,115.938255 
	C40.772572,112.544136 41.136818,109.093124 40.457489,105.411064 
	C37.710270,90.520653 35.313286,75.615753 35.566071,60.380344 
	C35.676380,53.731831 33.520039,47.588215 29.454668,42.233692 
	C21.736372,32.067879 25.669184,25.375088 35.889126,17.765663 
	C39.218418,15.286785 42.548302,17.359783 45.422417,19.628511 
	C58.771099,30.165495 73.026817,39.384201 87.357513,48.495747 
	C92.724487,51.908108 98.831360,52.798775 104.922066,53.692528 
	C111.876266,54.713001 117.726883,57.290451 122.706871,62.692566 
	C138.846024,80.199776 147.081604,100.836189 146.106659,124.408798 
	C145.448547,140.320114 150.402954,153.240295 160.543762,165.009659 
	C167.820953,173.455536 174.521591,182.414703 181.207535,191.348373 
	C186.782837,198.797974 193.499878,204.898422 201.274841,209.894348 
	C206.897858,213.507492 212.352539,217.351669 216.925735,222.248413 
	C226.908005,232.936890 239.800858,237.949905 253.517654,241.553360 
	C262.089783,243.805283 270.658722,245.636658 279.613586,245.006271 
	C282.661438,244.791718 285.734100,245.634033 288.079926,247.549637 
	C295.735504,253.801132 304.932770,254.141129 314.068939,254.636169 
	C325.194153,255.239029 336.373962,253.794189 347.482452,255.625504 
	C354.800934,256.832001 361.580658,259.213776 367.975006,263.047729 
	C379.904877,270.200684 390.045197,279.677887 400.945312,288.150909 
	C406.374603,292.371246 407.486633,299.590240 409.891357,305.682281 
	C411.170410,308.922546 402.283051,313.949982 397.970367,312.598602 
	C396.422028,312.113464 394.975067,311.304810 393.424591,310.618439 
	C392.514526,316.402466 392.514526,316.402466 387.152924,322.302582 
	C394.372253,322.045868 400.499725,324.222900 406.741425,326.814362 
	C407.614288,324.054535 405.952271,322.483429 405.498962,320.674988 
	C404.896301,318.270599 403.432281,315.344299 406.320709,314.040619 
	C409.375244,312.661896 413.096710,313.486206 414.476654,316.847107 
	C418.605225,326.902222 426.676331,334.270996 431.992920,343.491150 
	C435.841095,350.164734 440.608215,356.153259 446.282104,361.399750 
	C449.238525,364.133453 451.646210,367.267761 453.581451,370.837341 
	C456.577484,376.363647 460.739746,380.730896 466.482666,383.638641 
	C470.482666,385.663879 474.103210,388.428070 478.058197,390.555511 
	C482.487518,392.938110 482.903625,397.886932 485.444519,401.462280 
	C486.422943,402.839020 484.917175,403.887299 483.484344,404.164459 
	C481.506714,404.547028 479.457458,404.657623 477.554443,403.939606 
	C474.798218,402.899597 472.581940,403.629974 470.900757,405.824005 
	C468.986298,408.322449 466.961639,408.111816 464.345398,406.957245 
	C460.233093,405.142426 455.886810,403.877533 451.398834,403.386749 
	C444.485748,402.630737 438.080261,403.305603 431.931152,407.533661 
	C424.411987,412.703766 416.084625,414.034851 407.346375,409.611938 
	C403.363708,407.596100 398.948730,406.444946 394.760651,404.821960 
	C388.137146,402.255188 384.046997,396.449677 379.126312,391.871155 
	C373.832336,386.945312 368.145447,383.895966 361.060852,383.391632 
	C354.809753,382.946655 350.771576,380.075775 349.533508,373.702606 
	C349.282593,372.411011 348.769684,371.137329 348.185303,369.950043 
	C346.791840,367.118652 344.962524,366.488739 342.239258,368.600830 
	C336.080048,373.377594 335.450348,373.732941 328.376373,368.649261 
	C314.520477,358.691681 299.347687,351.066010 284.526184,342.804321 
	C273.107574,336.439392 260.392181,333.273682 248.431732,328.245392 
	C244.597992,326.633667 240.831879,324.854736 237.078766,323.060394 
	C235.397186,322.256439 233.738754,321.149017 233.775925,319.034454 
	C233.845016,315.104584 231.219009,313.556885 228.217743,312.200653 
	C222.302826,309.527679 216.067490,307.580048 210.429153,304.278564 
	C205.846558,301.595245 203.348724,296.776703 203.977203,291.781464 
	C204.351913,288.803101 208.303146,289.361847 208.967407,286.733002 
	C208.585938,285.397736 207.503189,285.202484 206.572922,285.535919 
	C200.815384,287.599731 197.822266,284.070221 195.242050,279.934784 
	C191.524231,273.976074 188.750839,267.570312 186.625946,260.873627 
	C182.562408,248.067398 174.943207,238.678391 161.687698,234.432251 
	C157.590225,233.119675 153.749420,231.005814 149.476990,229.172638 
M141.948898,219.156067 
	C142.809402,216.119141 140.964539,216.041168 138.971344,216.666962 
	C137.214249,217.218613 134.719360,217.520859 135.983124,220.561737 
	C136.653061,222.173752 138.526459,223.317017 137.908768,225.459045 
	C135.544296,228.026779 131.484680,226.804016 129.053772,229.281662 
	C132.247620,233.522797 133.982254,233.109421 143.780975,225.790070 
	C142.726166,223.979034 141.545166,222.136337 141.948898,219.156067 
z"/>
<path fill="#000000" opacity="1.000000" stroke="none" 
	d="
M579.129395,453.439392 
	C581.784973,449.185181 584.703857,450.271515 586.972778,452.951508 
	C590.484863,457.100189 589.312500,470.318481 585.428589,474.409363 
	C583.562256,472.143127 578.793152,456.886322 579.129395,453.439392 
z"/>
</svg>