<svg xmlns="http://www.w3.org/2000/svg" xmlns:xlink="http://www.w3.org/1999/xlink" width="1080" zoomAndPan="magnify" viewBox="0 0 810 1439.999935" height="1920" preserveAspectRatio="xMidYMid meet" version="1.0"><defs><clipPath id="235ebd529f"><path d="M 211 621 L 599.546875 621 L 599.546875 1048 L 211 1048 Z M 211 621 " clip-rule="nonzero"/></clipPath><clipPath id="f785a9ea6f"><path d="M 261 1054 L 295 1054 L 295 1110.871094 L 261 1110.871094 Z M 261 1054 " clip-rule="nonzero"/></clipPath></defs><g clip-path="url(#235ebd529f)"><path fill="#000000" d="M 598.761719 988.4375 C 598.003906 984.59375 596.425781 980.953125 594.847656 977.382812 C 591.566406 971.191406 587.023438 965.773438 583.398438 959.78125 C 577.894531 951.421875 574.519531 941.839844 568.613281 933.714844 C 566.550781 930.582031 563.671875 928.128906 561.289062 925.257812 C 557.824219 921.261719 556 913.410156 553.546875 906.496094 C 549.609375 895.015625 543.800781 884.339844 538.679688 873.367188 C 535.800781 867.488281 532.113281 862.042969 529.148438 856.195312 C 525.746094 849.910156 522.191406 843.71875 518.667969 837.503906 C 516.417969 832.960938 513.628906 828.761719 510.75 824.613281 C 507.488281 819.261719 503.875 814.128906 500.945312 808.589844 C 499.179688 804.9375 497.875 801.035156 495.765625 796.421875 C 492.269531 787.917969 487.65625 779.945312 482.722656 772.191406 C 482.996094 771.65625 482.996094 771.015625 482.6875 770.46875 C 482.734375 770.566406 482.867188 770.898438 482.855469 770.859375 C 482.722656 770.46875 482.546875 770.113281 482.320312 769.769531 C 481.953125 768.226562 481.679688 768.359375 481.21875 766.792969 C 480.046875 763.484375 478.894531 760.140625 478.386719 756.640625 C 478.136719 753.105469 478.253906 746.003906 479.015625 741.957031 C 479.273438 738.566406 481.183594 735.304688 484.726562 731.875 C 485.09375 731.507812 485.25 731.082031 485.25 730.679688 C 485.34375 730.621094 485.4375 730.546875 485.523438 730.488281 C 486.886719 729.625 488.164062 728.613281 489.503906 727.726562 C 494.652344 724.15625 499.972656 720.859375 505.699219 718.296875 C 508.210938 717.097656 510.75 715.949219 513.226562 714.691406 C 514.542969 714.097656 515.929688 713.421875 516.722656 712.152344 C 517.316406 711.132812 517.292969 709.792969 516.761719 708.75 C 515.917969 707.621094 514.554688 707.03125 513.382812 706.28125 C 510.808594 704.800781 508.164062 703.4375 505.484375 702.144531 C 503.234375 700.957031 500.992188 699.722656 498.847656 698.347656 C 497.046875 697.246094 495.3125 695.738281 493.144531 695.5 C 490.511719 695.265625 488.140625 696.484375 485.722656 697.351562 C 485.949219 697.066406 486.089844 696.699219 486.101562 696.261719 C 486.089844 695.121094 485.011719 694.492188 484.300781 693.757812 C 476.691406 687.304688 470.644531 682.324219 462.785156 676.882812 C 458.859375 674.117188 456.714844 672.03125 452.445312 669.089844 C 450.394531 667.738281 448.296875 666.433594 446.058594 665.386719 C 446.375 665.140625 446.636719 664.832031 446.757812 664.402344 C 446.945312 663.800781 446.746094 663.230469 446.375 662.804688 C 446.757812 662.519531 447.015625 662.054688 447.027344 661.414062 C 447.089844 657.109375 452.683594 649.710938 455.195312 643.351562 C 457.128906 638.867188 458.648438 633.652344 456.5 628.964844 C 454.558594 624.851562 450.015625 622.453125 445.75 621.421875 C 438.28125 619.679688 430.726562 625.324219 427.539062 631.742188 C 427.183594 633.601562 429.933594 634.527344 430.824219 632.878906 C 434.664062 627.078125 440.023438 623.046875 446.472656 625.300781 C 448.085938 625.789062 450.3125 627.152344 451.355469 628.003906 C 452.648438 629.285156 452.601562 629.097656 453.300781 630.519531 C 455.566406 636.757812 451.460938 642.914062 447.941406 649.957031 C 445.972656 653.503906 443.722656 657.074219 443.472656 661.226562 C 443.414062 661.792969 443.578125 662.234375 443.863281 662.554688 C 436.429688 667.097656 429.554688 672.574219 422.703125 677.960938 C 417.78125 682.074219 413.90625 687.199219 409.734375 692.027344 C 405.976562 697.03125 400.140625 700.53125 397.058594 705.984375 C 394.476562 705.121094 391.84375 704.457031 389.105469 704.289062 C 388.167969 704.324219 387.078125 704.066406 386.355469 704.8125 C 386.105469 705.050781 385.964844 705.34375 385.894531 705.652344 C 382.667969 707.3125 379.789062 709.53125 377.035156 711.867188 C 374.226562 714.324219 371.726562 717.476562 371.621094 721.367188 C 370.90625 726.660156 377.417969 727.925781 381.257812 729.171875 C 389.128906 731.011719 394.699219 732.800781 401.1875 737.023438 C 402.796875 737.820312 404.328125 738.753906 405.890625 739.632812 C 405.914062 739.691406 405.941406 739.765625 405.976562 739.824219 C 406 739.90625 406.035156 739.988281 406.046875 740.085938 C 406.378906 742.492188 406.070312 746.691406 405.050781 750.402344 C 404.207031 754.007812 401.863281 761.015625 402.109375 762.960938 C 402.097656 763.035156 402.074219 763.09375 402.050781 763.164062 C 401.789062 763.757812 401.613281 764.386719 401.589844 765.050781 C 401.589844 765.0625 401.589844 765.0625 401.589844 765.074219 C 401.492188 765.273438 401.148438 766.34375 401.007812 766.640625 C 400.558594 767.648438 400.828125 767.101562 400.179688 768.5 C 399.859375 769.09375 399.492188 769.734375 399.714844 770.421875 C 399.761719 770.625 399.847656 770.789062 399.953125 770.945312 C 396.726562 775.285156 393.398438 779.578125 390.707031 784.273438 C 388.632812 788 387.195312 792.03125 385.371094 795.875 C 382.464844 802.339844 381.292969 809.382812 378.980469 816.0625 C 373.421875 832.664062 367.886719 848 360.773438 863.015625 C 354.902344 874.757812 348.171875 886.035156 340.914062 896.972656 C 339.054688 900.160156 337.25 903.398438 335.4375 906.636719 C 336.480469 901.882812 337.40625 897.113281 337.976562 892.273438 C 338.816406 885.132812 340.617188 875.5625 341.175781 866.929688 C 341.828125 858.378906 341.460938 849.671875 340.347656 841.179688 C 340.761719 841.15625 341.175781 841.003906 341.496094 840.730469 C 342.527344 840.480469 344.992188 840.136719 344.078125 840.265625 C 347.199219 839.851562 349.308594 839.589844 353.160156 839.164062 C 356.410156 838.988281 359.691406 838.050781 362.324219 836.082031 C 363.09375 835.34375 363.203125 834.242188 363.238281 833.222656 C 363.296875 831.148438 363.273438 829.070312 363.273438 826.996094 L 363.273438 820.875 C 363.273438 820.367188 363.035156 819.832031 362.632812 819.511719 C 362.667969 818.433594 362.667969 817.339844 362.835938 816.296875 C 363.144531 811.484375 363.699219 806.691406 364.101562 801.886719 C 364.421875 794.488281 365.230469 791.511719 365.871094 784.5 C 366.105469 775.808594 365.453125 767.078125 364.066406 758.503906 C 363.214844 751.589844 361.816406 741.140625 359.492188 732.875 C 358.566406 728.746094 357.832031 724.570312 356.585938 720.527344 C 355.664062 717.609375 354.382812 714.808594 353.375 711.917969 C 351.632812 707.160156 349.390625 702.488281 346.132812 698.574219 C 344.648438 696.710938 343.011719 694.992188 341.222656 693.4375 C 341.339844 692.878906 341.222656 692.289062 340.761719 691.847656 C 340.476562 691.585938 340.132812 691.410156 339.753906 691.351562 C 339.695312 691.328125 339.5625 691.292969 339.410156 691.230469 C 339.398438 691.21875 339.386719 691.21875 339.375 691.207031 C 338.070312 690.578125 336.625 690.320312 335.1875 690.175781 C 332.152344 689.667969 325.089844 688.183594 319.777344 687.472656 C 319.765625 687.058594 319.671875 686.605469 319.433594 686.144531 C 318.566406 684.269531 317.132812 682.75 315.675781 681.316406 C 314.894531 680.664062 314.15625 679.621094 313.054688 679.597656 C 312.699219 679.585938 312.367188 679.703125 312.09375 679.894531 C 311.917969 679.726562 311.714844 679.609375 311.503906 679.515625 C 311.148438 679.132812 310.753906 678.765625 310.4375 678.398438 C 306.796875 674.949219 303.84375 670.832031 300.179688 667.394531 C 300.109375 667.332031 300.039062 667.261719 299.96875 667.203125 C 299.992188 667.15625 300.039062 667.109375 300.0625 667.050781 C 300.5 666.160156 300.039062 665.292969 299.316406 664.867188 C 299.683594 664.167969 299.671875 663.136719 299.671875 662.101562 C 299.742188 658.449219 300.65625 656.753906 302.695312 652.757812 C 304.09375 649.933594 306.15625 647.382812 307.046875 644.335938 C 307.496094 642.167969 307.140625 639.9375 306.628906 637.8125 C 304.769531 631.03125 298.878906 623.640625 291.183594 624.398438 C 286.476562 625.148438 281.960938 627.472656 278.628906 630.886719 C 277.953125 631.847656 276.671875 632.59375 276.613281 633.863281 C 276.566406 635.394531 278.59375 636.234375 279.648438 635.121094 C 282.269531 631.789062 285.207031 629.914062 288.113281 628.90625 C 291.515625 627.695312 291.988281 627.589844 294.75 628.289062 C 299.03125 629.714844 303.324219 636.210938 303.628906 641.039062 C 304.367188 644.800781 300.597656 648.179688 298.390625 653.457031 C 296.851562 656.257812 296.175781 659.339844 296.066406 662.496094 C 295.5 663.253906 295.5 664.488281 296.328125 665.222656 C 295.734375 665.519531 295.355469 666.148438 295.332031 666.800781 C 293.152344 668.875 291.160156 671.152344 289.121094 673.359375 C 287.140625 675.515625 284.746094 678.199219 283.359375 679.988281 C 282.96875 679.796875 282.539062 679.691406 282.089844 679.847656 C 281.296875 680.035156 280.855469 680.757812 280.820312 681.496094 C 276.992188 682.714844 267.554688 685.632812 268.054688 689.382812 C 262.386719 689.371094 256.875 691.183594 251.550781 693.046875 C 249.914062 693.617188 248.257812 694.160156 246.632812 694.753906 C 246.207031 694.871094 245.835938 695.167969 245.601562 695.550781 C 245.515625 695.609375 245.433594 695.679688 245.363281 695.761719 C 236.472656 702.796875 233.957031 714.394531 230.261719 724.535156 C 228.636719 730.027344 226.324219 735.28125 224.796875 740.796875 C 221.960938 751.578125 219.648438 765.191406 218.535156 774.585938 C 216.933594 783.824219 216.425781 789.636719 215.15625 797.628906 C 214.671875 800.9375 214.019531 804.222656 213.675781 807.546875 C 213.414062 810.605469 213.34375 813.6875 212.90625 816.726562 C 212.632812 818.800781 211.910156 823.234375 211.398438 827.363281 C 211.257812 828.808594 211.183594 830.257812 211.148438 831.714844 C 211.042969 832.59375 211.234375 833.636719 212.109375 834.015625 C 211.992188 834.136719 211.875 834.253906 211.789062 834.410156 C 210.710938 836.601562 213.484375 837.433594 215.132812 838.132812 C 215.277344 838.203125 215.667969 838.382812 215.867188 838.453125 C 218.003906 839.332031 220.207031 840.054688 222.425781 840.71875 C 224.285156 841.132812 226.359375 842.117188 228.222656 841.277344 C 230.332031 839.425781 231.410156 836.578125 232.914062 834.230469 C 235.773438 829.214844 238.417969 824.066406 240.765625 818.800781 C 242.742188 813.488281 244.523438 808.089844 246.3125 802.695312 C 247.914062 797.914062 250.09375 794.082031 252.039062 788.570312 C 253.886719 782.613281 255.726562 776.660156 257.632812 770.71875 C 258.167969 769.035156 258.628906 767.339844 259.054688 765.632812 C 258.984375 767.945312 258.808594 770.246094 258.6875 772.558594 C 258.476562 773.96875 258.605469 774.871094 259.03125 775.425781 C 258.757812 775.640625 258.546875 775.914062 258.453125 776.316406 C 255.453125 788.746094 252.785156 802.765625 251.304688 813.925781 C 250.496094 818.667969 249.277344 823.332031 248.601562 828.085938 C 247.722656 834.65625 247.378906 841.289062 246.90625 847.894531 C 246.324219 861.210938 246.703125 874.53125 248.21875 887.78125 C 249.570312 909.566406 252.324219 927.570312 256.648438 949.617188 C 257.550781 953.886719 258.203125 958.21875 259.03125 962.5 C 259.269531 963.292969 259.328125 964.421875 259.53125 965.40625 C 260.347656 974.703125 261.652344 982.648438 263.632812 992.398438 C 264.886719 998.433594 265.980469 1004.613281 268.113281 1010.402344 C 268.492188 1011.980469 268.964844 1013.546875 269.558594 1015.050781 C 268.882812 1015.976562 269.273438 1017.53125 270.507812 1017.828125 C 270.601562 1017.839844 270.699219 1017.863281 270.804688 1017.875 C 271.042969 1018.277344 271.363281 1018.597656 271.859375 1018.726562 C 272.488281 1018.917969 273.082031 1018.703125 273.496094 1018.300781 C 275.332031 1018.574219 277.183594 1018.761719 279.03125 1018.777344 C 279.316406 1020.210938 279.671875 1021.644531 280.121094 1023.070312 C 281.355469 1028.820312 284.425781 1030.601562 290.058594 1031.109375 C 297.882812 1032.09375 309.558594 1030.125 315.414062 1028.832031 C 315.460938 1028.832031 315.496094 1028.832031 315.535156 1028.832031 C 315.816406 1029.105469 315.6875 1028.890625 316.183594 1029.914062 C 316.503906 1030.625 318.199219 1036.199219 319.03125 1038.582031 C 320.855469 1044.558594 326.203125 1044.878906 331.515625 1043.789062 C 342.941406 1041.453125 353.929688 1037.761719 364.507812 1037.691406 C 368.941406 1037.65625 373.398438 1037.382812 377.820312 1037.789062 C 378.339844 1037.8125 384.53125 1039.328125 386.78125 1040.125 C 395.792969 1043.148438 404.578125 1048.484375 415.410156 1047.953125 C 419.882812 1047.738281 424.292969 1046.71875 428.570312 1045.425781 C 432.851562 1043.8125 437.152344 1042.222656 441.625 1041.226562 C 446.695312 1039.921875 452.328125 1038.761719 456.214844 1038.367188 C 462.570312 1037.988281 471.261719 1037.835938 475.917969 1038.453125 C 485.652344 1039.683594 494.34375 1045.78125 504.371094 1045.140625 C 513.179688 1044.359375 519.769531 1037.714844 526.328125 1032.4375 C 530.417969 1028.59375 534.792969 1024.835938 538.109375 1020.292969 C 538.253906 1020.007812 538.289062 1019.6875 538.242188 1019.390625 C 538.371094 1019.332031 538.515625 1019.285156 538.609375 1019.226562 C 545.28125 1016.972656 550.109375 1016.914062 557.199219 1016.402344 C 567.226562 1016.09375 577.433594 1015.632812 586.835938 1011.753906 C 594.421875 1009.226562 597.242188 1004.699219 598.570312 997.035156 C 599.058594 994.210938 599.175781 991.296875 598.761719 988.4375 Z M 400.792969 706.6875 C 400.878906 706.578125 400.949219 706.472656 401.03125 706.378906 C 401.066406 706.328125 401.113281 706.269531 401.1875 706.1875 C 403.949219 702.664062 407.550781 699.949219 410.515625 696.617188 C 414.960938 691.636719 418.898438 686.191406 423.875 681.707031 C 429.117188 677.175781 435.851562 672.230469 442.558594 667.617188 C 442.628906 667.675781 442.691406 667.75 442.785156 667.796875 C 449.71875 670.738281 453.65625 674.484375 459.285156 678.695312 C 468.144531 684.992188 474.082031 689.476562 482.796875 697.210938 C 483.128906 697.695312 483.625 697.933594 484.125 697.980469 C 481.113281 699.25 478.339844 700.980469 475.480469 702.558594 C 474.175781 703.269531 471.652344 704.050781 469.175781 705.0625 C 465.582031 706.414062 461.894531 707.539062 458.421875 709.210938 C 453.441406 711.632812 446.886719 715.273438 443.117188 716.589844 C 440.53125 717.476562 439.074219 717.21875 435.707031 717.253906 C 432.945312 717.277344 428.535156 717.132812 427.347656 716.875 C 424.765625 716.46875 422.335938 715.414062 419.855469 714.609375 C 415.101562 712.984375 410.359375 711.300781 405.726562 709.320312 C 403.972656 708.644531 402.207031 707.90625 400.4375 707.207031 C 400.546875 707.03125 400.664062 706.851562 400.792969 706.6875 Z M 359.679688 833.636719 C 359.574219 833.695312 359.46875 833.757812 359.386719 833.78125 C 356.65625 835.320312 355.222656 835.394531 351.84375 835.738281 C 347.578125 836.234375 345.050781 836.496094 341.554688 837.089844 C 341.328125 836.4375 341.105469 835.773438 340.902344 835.085938 C 346.308594 833.898438 351.867188 833.449219 357.109375 831.574219 C 357.773438 831.324219 358.695312 831.382812 359.765625 831.277344 C 359.742188 832.046875 359.730469 832.84375 359.679688 833.636719 Z M 326.832031 692.324219 C 326.832031 692.289062 326.820312 692.265625 326.820312 692.226562 C 330.507812 692.890625 334.015625 693.554688 336.230469 693.886719 C 336.574219 693.984375 336.917969 694.089844 337.261719 694.171875 C 337.324219 694.503906 337.476562 694.824219 337.75 695.085938 C 344.578125 700.648438 347.992188 706.992188 350.601562 714.539062 C 353.742188 721.535156 355.046875 729.066406 356.730469 736.503906 C 358.816406 744.035156 359.445312 750.199219 360.355469 757.152344 C 361.839844 766.023438 363.023438 779.03125 362.125 787.277344 C 361.019531 793.703125 360.75 800.902344 359.988281 808.53125 C 359.609375 811.875 359.433594 815.230469 359.148438 818.585938 C 359.230469 820.046875 358.484375 821.824219 359.503906 823.035156 C 359.585938 823.117188 359.667969 823.175781 359.765625 823.246094 L 359.765625 825.808594 C 359.753906 826.414062 359.753906 827.03125 359.765625 827.648438 C 358.4375 827.835938 357.121094 827.753906 355.082031 828.464844 C 350.171875 830.136719 344.992188 830.519531 339.953125 831.632812 C 338.070312 823.949219 337.027344 814.707031 335.605469 806.703125 C 333.871094 794.203125 331.097656 779.648438 329.972656 769.78125 C 327.96875 757.164062 328.976562 744.355469 327.519531 731.6875 C 327.222656 729.96875 327.210938 727.476562 326.675781 725.816406 C 327.566406 715.238281 328.0625 704.632812 328.335938 694.03125 C 328.335938 693.011719 327.625 692.429688 326.832031 692.324219 Z M 324.625 771.511719 C 324.625 771.417969 324.625 771.324219 324.625 771.21875 C 324.648438 771.144531 324.648438 771.050781 324.625 770.945312 C 324.695312 766.34375 324.625 761.753906 324.472656 757.164062 C 324.601562 754.96875 324.769531 752.773438 324.933594 750.582031 C 325.066406 754.753906 325.230469 758.941406 325.585938 762.996094 C 326.226562 769.175781 327.054688 775.117188 327.980469 781.0625 C 326.832031 779.03125 325.667969 777.003906 324.578125 774.941406 C 324.292969 774.515625 324.082031 773.992188 323.84375 773.496094 C 324.496094 773.078125 324.804688 772.238281 324.625 771.511719 Z M 322.054688 691.398438 C 322.03125 691.515625 322.007812 691.648438 322.007812 691.777344 C 322.007812 694.433594 322.007812 697.089844 322.007812 699.734375 C 322.007812 701.027344 321.996094 702.332031 321.980469 703.625 C 321.519531 708.003906 320.75 712.199219 320.300781 716.800781 C 320.226562 717.515625 320.179688 718.226562 320.121094 718.9375 C 319.789062 720.550781 319.539062 722.175781 319.46875 723.835938 C 319.265625 726.421875 319.292969 729.007812 319.410156 731.59375 C 319.28125 735.875 319.230469 740.167969 319.21875 744.460938 C 318.960938 747.578125 318.722656 750.699219 318.542969 753.816406 C 318.285156 757.839844 317.785156 761.847656 317.558594 765.878906 C 317.085938 765.9375 316.601562 765.988281 316.113281 766.046875 C 315.914062 765.558594 315.496094 765.15625 314.964844 765.015625 C 314.039062 764.824219 313.113281 765.261719 312.191406 765.359375 C 309.441406 765.953125 305.300781 765.890625 301.257812 765.878906 C 299.933594 765.878906 298.605469 765.878906 297.277344 765.878906 C 298.1875 754.800781 298.308594 743.890625 298.273438 732.835938 C 298.390625 732.886719 298.507812 732.945312 298.628906 732.980469 C 298.902344 734.226562 299.683594 735.339844 301.011719 735.828125 C 301.578125 736.050781 302.386719 736.085938 303.25 735.992188 C 303.773438 737.757812 305.375 739.171875 307.09375 739.765625 C 307.921875 739.953125 308.789062 739.90625 309.605469 739.679688 C 309.796875 739.777344 309.996094 739.847656 310.222656 739.90625 C 315.460938 741.339844 319.363281 735.851562 314.953125 731.972656 C 314.941406 731.960938 314.929688 731.949219 314.917969 731.9375 C 316.269531 729.421875 316.410156 726.421875 313.980469 725.082031 C 314.0625 724.867188 314.132812 724.691406 314.144531 724.59375 C 314.597656 722.980469 313.789062 721.132812 312.144531 720.632812 C 309.464844 719.851562 306.914062 721.6875 305.007812 723.386719 C 304.269531 724.179688 303.027344 724.785156 303.027344 725.992188 C 302.980469 727.523438 305.019531 728.367188 306.0625 727.25 C 308.027344 725.28125 309.640625 724.203125 310.589844 724.023438 C 310.128906 724.960938 309.464844 725.921875 310.066406 726.941406 C 310.496094 727.75 311.394531 727.902344 312.191406 728.140625 C 312.214844 728.152344 312.238281 728.175781 312.273438 728.1875 C 312.296875 728.210938 312.320312 728.234375 312.34375 728.257812 C 312.34375 728.269531 312.355469 728.28125 312.355469 728.296875 C 312.355469 728.804688 312.425781 728.542969 312.105469 729.5625 C 311.894531 729.957031 311.277344 731.117188 311.160156 731.4375 C 310.898438 732.195312 311.050781 733.097656 311.621094 733.679688 C 312.058594 734.175781 312.59375 734.605469 313.03125 735.101562 C 313.066406 735.160156 313.113281 735.222656 313.148438 735.28125 C 313.1875 735.339844 313.222656 735.410156 313.246094 735.46875 C 313.269531 735.542969 313.292969 735.625 313.304688 735.695312 C 313.304688 735.730469 313.304688 735.765625 313.304688 735.800781 C 313.292969 735.839844 313.28125 735.875 313.28125 735.910156 C 313.246094 735.980469 313.210938 736.039062 313.164062 736.097656 C 312.890625 736.300781 312.832031 736.40625 312.59375 736.464844 C 312.488281 735.210938 311.359375 734.152344 309.785156 734.546875 C 308.738281 734.867188 308.148438 735.519531 307.910156 736.253906 C 307.863281 736.230469 307.804688 736.207031 307.757812 736.183594 C 306.832031 735.507812 306.558594 735.136719 306.640625 734.699219 C 307.613281 733.929688 307.980469 732.871094 306.84375 731.640625 C 305.871094 730.964844 304.921875 731.285156 304.210938 732.019531 C 303.382812 732.433594 303.417969 732.457031 302.21875 732.445312 C 302.171875 732.363281 302.125 732.292969 302.089844 732.207031 C 302.789062 731.722656 303.382812 731.058594 303.726562 730.277344 C 304.566406 728.199219 302.386719 727.003906 300.796875 727.867188 C 301.035156 727.535156 301.320312 727.167969 301.699219 726.789062 C 302.265625 726.160156 303.121094 725.589844 303.085938 724.640625 C 303.109375 723.691406 302.253906 722.851562 301.308594 722.863281 C 300.214844 722.863281 299.613281 723.882812 298.914062 724.570312 C 298.6875 724.820312 298.472656 725.082031 298.25 725.355469 C 298.25 722.152344 298.25 718.960938 298.25 715.757812 C 298.710938 716.054688 299.183594 716.316406 299.695312 716.519531 C 301.449219 716.8125 303.558594 716.554688 304.675781 715.035156 C 307.519531 712.285156 309.476562 700.210938 302.730469 702.402344 C 300.597656 703.03125 298.78125 704.386719 296.96875 705.640625 C 296.28125 706.09375 295.605469 706.554688 294.929688 707.019531 C 293.460938 705.796875 291.929688 704.644531 290.351562 703.578125 C 290.78125 703.1875 291.195312 702.761719 291.574219 702.429688 C 293.828125 700.421875 296.042969 698.40625 298.117188 696.238281 C 298.199219 696.203125 298.285156 696.175781 298.355469 696.140625 C 298.4375 696.09375 298.53125 696.058594 298.617188 696.011719 C 300.167969 696.984375 301.722656 697.957031 303.324219 698.847656 C 306 700.1875 309.273438 701.40625 309.6875 698.835938 C 310.269531 697.851562 313.089844 695.230469 314.941406 693.460938 C 315.6875 692.546875 316.910156 691.671875 317.941406 690.722656 C 319.230469 690.933594 320.617188 691.160156 322.054688 691.398438 Z M 293.71875 765.890625 C 292.855469 765.890625 291.988281 765.890625 291.136719 765.890625 C 291.765625 753.535156 292.5 741.175781 293.363281 728.828125 C 293.648438 723.691406 294.027344 719.765625 294.703125 715.523438 C 294.644531 732.328125 295.09375 749.144531 293.71875 765.890625 Z M 316.148438 687.472656 C 315.816406 687.816406 315.460938 688.125 315.105469 688.457031 C 313.101562 690.28125 311.171875 692.179688 309.214844 694.066406 C 308.46875 694.871094 307.589844 695.65625 306.949219 696.570312 C 305.457031 696.09375 304.34375 695.394531 302.328125 694.148438 C 301.589844 693.804688 300.902344 693.199219 300.15625 692.773438 C 300.878906 692.015625 301.542969 691.125 302.304688 690.507812 C 305.386719 687.328125 307.210938 686.285156 310.683594 683.652344 C 311.039062 683.308594 311.480469 682.988281 311.859375 682.632812 C 312.214844 682.988281 312.640625 683.273438 312.972656 683.628906 C 314.714844 685.398438 315.308594 685.871094 316.148438 687.472656 Z M 292.59375 674.828125 C 294.195312 673.074219 295.792969 671.320312 297.476562 669.65625 C 300.382812 672.574219 303.074219 675.671875 305.824219 678.730469 C 306.570312 679.574219 307.363281 680.355469 308.183594 681.125 C 306.984375 682.074219 305.835938 682.761719 304.035156 684.1875 C 301.6875 686.011719 299.613281 688.171875 297.5625 690.320312 C 297.539062 690.34375 297.5 690.378906 297.476562 690.402344 C 294.453125 688.066406 291.929688 686.179688 288.363281 683.429688 C 287.699219 682.941406 287.035156 682.457031 286.371094 681.96875 C 288.003906 679.824219 290.246094 677.367188 292.59375 674.828125 Z M 276.71875 686.617188 C 278.652344 685.871094 280.632812 685.253906 282.601562 684.636719 C 282.882812 684.554688 283.132812 684.386719 283.335938 684.1875 C 287.234375 686.902344 291.277344 690.210938 293.636719 691.917969 C 294.230469 692.382812 294.8125 692.855469 295.4375 693.273438 C 295.488281 693.308594 295.5 693.320312 295.511719 693.332031 C 295.59375 693.414062 295.6875 693.496094 295.78125 693.566406 C 294.171875 695.15625 292.605469 696.792969 290.886719 698.277344 C 289.867188 699.15625 288.894531 700.089844 287.898438 700.992188 C 285.636719 699.214844 281.332031 695.144531 278.203125 692.773438 C 276.613281 691.671875 273.601562 689.9375 272.179688 688.992188 C 273.542969 688.078125 275.902344 686.878906 276.71875 686.617188 Z M 287.78125 706.175781 C 287.78125 706.175781 287.78125 706.1875 287.78125 706.175781 C 287.332031 705.902344 286.785156 705.808594 286.273438 705.925781 C 286.296875 705.6875 286.324219 705.453125 286.347656 705.25 C 286.808594 705.535156 287.28125 705.855469 287.78125 706.175781 Z M 266.976562 751.875 C 268.101562 738.175781 268.621094 724.441406 269.59375 710.730469 C 269.9375 705.109375 270.414062 698.953125 270.921875 694.730469 C 270.804688 693.117188 268.660156 692.773438 267.78125 693.875 C 267.734375 693.816406 267.6875 693.746094 267.640625 693.6875 C 267.589844 693.425781 267.507812 693.164062 267.332031 692.953125 C 268.328125 692.941406 269.382812 692.964844 270.554688 693.046875 C 270.933594 693.046875 271.242188 692.941406 271.503906 692.785156 C 272.972656 693.710938 274.480469 694.578125 275.9375 695.523438 C 277.796875 696.804688 280.574219 699.449219 283.382812 701.847656 C 283.300781 702.046875 283.214844 702.285156 283.15625 702.558594 C 282.625 706.234375 282.257812 709.960938 282.28125 713.683594 C 282.539062 719.625 286.855469 717.050781 289.972656 714.882812 C 290.449219 714.5625 290.921875 714.21875 291.394531 713.886719 C 289.820312 723.691406 289.523438 733.65625 288.835938 743.558594 C 288.539062 750.984375 287.746094 758.46875 287.566406 765.890625 C 282.660156 765.890625 277.75 765.890625 272.832031 765.890625 C 271.363281 765.890625 269.890625 765.902344 268.433594 765.914062 C 268.527344 764.671875 268.585938 763.425781 268.609375 762.167969 C 268.648438 760.375 268.621094 758.574219 268.609375 756.785156 C 268.660156 755.8125 268.550781 754.589844 267.484375 754.210938 C 267.210938 754.066406 266.902344 754.042969 266.609375 754.078125 C 267.011719 753.4375 266.902344 752.621094 266.976562 751.875 Z M 287.542969 769.449219 C 287.542969 769.472656 287.542969 769.496094 287.542969 769.519531 C 284.164062 769.582031 280.511719 769.617188 277.039062 769.699219 C 277.085938 769.617188 277.121094 769.53125 277.148438 769.4375 C 280.609375 769.4375 284.070312 769.449219 287.542969 769.449219 Z M 226.429688 838.050781 C 226.183594 837.988281 225.828125 837.847656 225.054688 837.71875 C 221.476562 836.769531 218.308594 835.664062 215.949219 834.621094 C 216.933594 835.121094 214.648438 834.027344 214.253906 833.757812 C 214.21875 833.730469 214.183594 833.71875 214.148438 833.707031 C 214.421875 833.449219 214.625 833.117188 214.695312 832.746094 C 217.953125 833.351562 220.515625 834.609375 222.769531 835.476562 C 224.238281 836.019531 225.765625 836.507812 227.34375 836.648438 C 227.035156 837.113281 226.738281 837.585938 226.429688 838.050781 Z M 255.617188 764.8125 C 253.542969 772.34375 250.933594 779.710938 248.753906 787.214844 C 247.164062 791.746094 245.789062 794.273438 243.859375 799.042969 C 242.613281 802.207031 241.734375 805.492188 240.574219 808.683594 C 238.996094 812.824219 238.035156 816.652344 236.507812 819.628906 C 234.113281 824.515625 231.683594 829.402344 228.910156 834.089844 C 228.765625 833.792969 228.566406 833.519531 228.222656 833.328125 C 227.855469 833.105469 227.4375 833.09375 227.023438 833.054688 C 226.144531 832.808594 225.257812 832.59375 224.402344 832.308594 C 222.730469 831.691406 219.886719 830.328125 216.957031 829.582031 C 216.28125 829.484375 215.558594 829.238281 214.847656 829.140625 C 214.871094 828.773438 214.882812 828.40625 214.917969 828.039062 C 215.214844 824.980469 215.890625 821.207031 216.175781 818.847656 C 216.839844 815.347656 217.148438 807.839844 217.421875 806.121094 C 219.367188 794.640625 220.027344 787.679688 221.785156 776.78125 C 223.859375 762.679688 225.753906 747.378906 231.242188 732.847656 C 234.644531 723.753906 236.886719 714.230469 240.976562 706.710938 C 242.625 703.957031 243.476562 702.453125 245.269531 700.671875 C 246.085938 699.699219 247.308594 699.058594 248.054688 698.050781 C 248.730469 697.839844 249.40625 697.480469 250.082031 697.328125 C 252.605469 696.449219 255.144531 695.632812 257.667969 694.777344 C 259.199219 694.304688 260.515625 693.949219 261.769531 693.664062 C 261.757812 694.007812 261.746094 694.363281 261.699219 694.683594 C 261.558594 696.378906 261.332031 698.0625 261.308594 699.757812 C 261.214844 703.496094 260.609375 707.183594 260.429688 710.90625 C 260.230469 717.253906 259.945312 723.609375 259.753906 729.980469 C 259.671875 731.332031 259.601562 732.683594 259.578125 734.046875 C 259.589844 734.628906 259.566406 736.441406 259.566406 738.863281 C 259.542969 740.6875 259.542969 742.527344 259.554688 744.355469 C 259.484375 744.484375 259.421875 744.625 259.375 744.78125 C 258.226562 751.457031 257.265625 758.207031 255.617188 764.8125 Z M 279.292969 1003.25 C 278.367188 1007.234375 278.128906 1011.242188 278.523438 1015.21875 C 276.246094 1015.15625 274.988281 1014.957031 273.246094 1014.695312 C 272.902344 1013.878906 272.582031 1013.011719 272.285156 1012.074219 C 272.355469 1011.351562 271.953125 1010.605469 271.742188 1009.902344 C 271.644531 1009.644531 271.5625 1009.371094 271.46875 1009.109375 C 271.410156 1008.871094 271.347656 1008.648438 271.300781 1008.398438 C 270.828125 1006.738281 270.933594 1004.828125 270.164062 1003.308594 C 270 1003.074219 269.796875 1002.90625 269.582031 1002.800781 C 267.285156 994.070312 265.71875 984.132812 264.542969 977.5625 C 263.929688 973.515625 263.597656 970.113281 263.167969 966.128906 C 263.277344 965.558594 263.15625 964.894531 262.992188 964.277344 C 262.980469 964.21875 262.96875 964.160156 262.957031 964.113281 C 262.875 963.363281 262.789062 962.59375 262.707031 961.785156 C 262.636719 961.597656 262.542969 961.441406 262.433594 961.3125 C 262.363281 960.957031 262.304688 960.601562 262.234375 960.257812 C 261.425781 955.902344 260.714844 951.527344 259.789062 947.199219 C 255.605469 925.386719 253.117188 909.140625 251.800781 887.851562 C 251.007812 879.226562 250.035156 870.605469 250.257812 861.949219 C 250.285156 848.804688 250.769531 834.742188 253.105469 823.210938 C 255.546875 812.371094 256.019531 803.679688 258.4375 792.957031 C 259.457031 787.464844 261.058594 782.035156 261.925781 776.554688 C 261.914062 776.472656 261.878906 776.410156 261.867188 776.339844 C 262.28125 776.351562 262.730469 776.339844 263.207031 776.328125 C 266.621094 776.164062 270.035156 776.019531 273.460938 775.984375 C 285.265625 776.019531 297.050781 775.878906 308.847656 775.5 C 312.722656 775.511719 316.683594 775.628906 320.453125 774.691406 C 321.664062 777.039062 322.929688 779.351562 324.246094 781.640625 C 324.851562 782.519531 325.136719 783.847656 326.273438 784.167969 C 327.152344 784.441406 327.980469 783.917969 328.335938 783.171875 C 329.59375 791.140625 330.96875 799.160156 332.1875 807.769531 C 333.433594 814.863281 334.289062 822.015625 335.78125 829.058594 C 336.078125 831.40625 337.617188 837.171875 338.023438 837.609375 C 338.175781 837.917969 338.269531 838.261719 338.355469 838.605469 C 337.523438 838.726562 336.765625 839.34375 336.800781 840.328125 C 338.863281 855.09375 337.914062 870.710938 335.617188 883.984375 C 334.191406 894.621094 332.722656 904.289062 329.832031 915.414062 C 329.78125 915.863281 329.675781 916.351562 329.546875 916.835938 C 328.679688 918.234375 327.804688 919.636719 326.890625 921.011719 C 324.507812 924.808594 321.78125 928.351562 319.171875 931.980469 C 316.648438 935.882812 314.359375 939.929688 311.714844 943.757812 C 307.414062 949.476562 302.8125 955.785156 298.699219 962.59375 C 298.664062 962.273438 298.617188 961.953125 298.617188 961.644531 C 297.300781 949.238281 296.28125 936.785156 295.734375 924.320312 C 295.59375 919.992188 295.535156 913.300781 296.148438 910.679688 C 296.53125 909.292969 295.332031 908.390625 294.230469 908.464844 C 294.429688 906.03125 294.632812 903.589844 294.773438 901.144531 C 294.964844 895.203125 294.785156 889.261719 294.917969 883.320312 C 295.355469 872.953125 295.867188 862.601562 295.925781 852.222656 C 296.445312 842.449219 296.078125 832.664062 296.363281 822.890625 C 296.421875 819.84375 296.53125 816.796875 296.648438 813.746094 C 296.648438 813.273438 296.457031 812.824219 296.125 812.492188 C 295.082031 811.386719 293.042969 812.207031 293.089844 813.746094 C 292.546875 829.59375 292.6875 845.4375 292.214844 861.285156 C 292.238281 867.722656 291.679688 874.164062 291.433594 880.59375 C 291.183594 887.460938 291.433594 894.339844 291.21875 901.203125 C 290.769531 908.453125 289.9375 915.675781 289.628906 922.921875 C 289.320312 938.246094 289.570312 953.566406 289.5 968.890625 L 289.5 973.007812 C 289.5 973.480469 289.6875 973.933594 290.019531 974.265625 C 290.4375 974.691406 290.992188 974.820312 291.527344 974.738281 C 285.941406 983.539062 281.023438 992.847656 279.292969 1003.25 Z M 292.972656 938.386719 C 293.601562 947.007812 294.300781 955.644531 295.332031 964.195312 C 295.59375 964.964844 296.375 965.308594 297.109375 965.25 C 296.1875 966.851562 295.296875 968.476562 294.441406 970.136719 C 293.96875 970.859375 293.507812 971.582031 293.03125 972.308594 C 293.164062 961.003906 292.925781 949.691406 292.972656 938.386719 Z M 594.101562 1000.390625 C 592.785156 1006.121094 587.746094 1007.984375 580.648438 1010.128906 C 571.328125 1013.046875 562.425781 1012.3125 552.050781 1013.199219 C 546.550781 1013.746094 540.886719 1014.234375 535.8125 1016.59375 C 534.140625 1017.589844 530.0625 1018.40625 531.316406 1021.003906 C 531.519531 1021.359375 531.851562 1021.609375 532.230469 1021.753906 C 528.269531 1025.972656 524.003906 1029.925781 519.464844 1033.515625 C 515.988281 1036.589844 511.636719 1039.589844 507.679688 1040.882812 C 502.9375 1042.363281 499.035156 1041.523438 493.417969 1039.957031 C 489.578125 1038.722656 485.902344 1036.980469 481.964844 1036.066406 C 476.359375 1034.550781 470.5625 1034.382812 464.789062 1034.527344 C 457.617188 1034.382812 450.503906 1035.367188 443.554688 1037.109375 C 438.328125 1038.285156 433.195312 1039.816406 428.214844 1041.808594 C 423.601562 1043.277344 419.015625 1044.285156 415.386719 1044.40625 C 405.429688 1044.9375 397.546875 1040.027344 387.800781 1036.71875 C 384.527344 1035.746094 381.246094 1034.691406 377.84375 1034.242188 C 373.597656 1033.847656 369.320312 1034.109375 365.0625 1034.132812 C 353.574219 1034.21875 342.550781 1037.835938 331.429688 1040.21875 C 324.898438 1041.367188 323.167969 1041.34375 321.367188 1034.230469 C 320.132812 1031.132812 319.671875 1025.015625 315.214844 1025.332031 C 307.472656 1026.875 301.78125 1027.8125 293.625 1027.859375 C 288.90625 1027.574219 285.765625 1027.21875 284.675781 1025.273438 C 282.835938 1020.792969 281.238281 1014.246094 282.078125 1008.148438 C 282.445312 1003.996094 285.078125 994.09375 286.9375 990.285156 C 289.867188 983.753906 293.851562 977.796875 297.644531 971.761719 C 302.777344 961.738281 308.777344 953.640625 314.929688 945.347656 C 317.511719 941.578125 319.765625 937.617188 322.242188 933.785156 C 325.253906 929.707031 328.195312 925.578125 330.945312 921.320312 C 331.84375 921.203125 332.675781 920.40625 332.652344 919.257812 C 332.722656 918.902344 332.804688 918.542969 332.890625 918.1875 C 333.246094 917.597656 333.625 917.015625 333.980469 916.421875 C 338 909.683594 341.578125 902.675781 345.761719 896.035156 C 354.476562 883.105469 362.148438 869.40625 368.300781 855.082031 C 375.839844 837.585938 381.945312 819.523438 387.160156 801.210938 C 388.9375 796.410156 390.894531 792.1875 393.480469 786.753906 C 395.386719 783.253906 397.757812 780.027344 400.09375 776.804688 C 401.078125 775.191406 402.691406 773.875 403.308594 772.105469 C 403.402344 771.679688 403.273438 771.242188 403.035156 770.875 C 404.03125 768.738281 404.527344 768.109375 405.203125 765.382812 C 405.214844 765.273438 405.226562 765.15625 405.226562 765.050781 C 405.226562 765.027344 405.238281 765.015625 405.238281 764.992188 C 405.277344 764.480469 405.582031 764.632812 405.691406 763.332031 C 405.75 761.300781 406.34375 759.523438 407.136719 756.664062 C 408.867188 751.171875 410.859375 742.183594 409.222656 738.210938 C 408.972656 737.179688 408.039062 736.785156 407.195312 736.324219 C 406.140625 735.683594 405.074219 735.054688 403.972656 734.496094 C 401.492188 733.230469 399.21875 731.605469 396.691406 730.417969 C 393.066406 728.722656 389.222656 727.511719 385.335938 726.597656 C 382.003906 725.734375 378.339844 724.785156 376.457031 723.667969 C 376.171875 723.503906 375.910156 723.300781 375.648438 723.101562 C 375.566406 723.027344 375.472656 722.933594 375.402344 722.851562 C 375.351562 722.78125 375.304688 722.707031 375.269531 722.625 C 375.257812 722.589844 375.246094 722.542969 375.246094 722.507812 C 375.28125 720.765625 375.257812 720.726562 376.003906 718.640625 C 376.679688 717.132812 381.304688 712.675781 384.457031 710.730469 C 385.75 709.722656 387.457031 709.234375 388.644531 708.132812 C 388.703125 708.0625 388.75 707.992188 388.796875 707.90625 C 394.308594 708.109375 400.378906 711.097656 406.390625 713.457031 C 410.457031 715.152344 414.617188 716.601562 418.777344 718.035156 C 421.683594 718.996094 424.527344 720.207031 427.597656 720.515625 C 432.433594 720.90625 437.605469 721.167969 442.40625 720.527344 C 447.738281 719.042969 452.578125 716.136719 457.507812 713.671875 C 464.039062 710.054688 471.640625 708.738281 479.050781 704.730469 C 483.210938 702.191406 485.675781 701.125 489.882812 699.6875 C 491.640625 699.023438 491.152344 699.144531 492.800781 699.105469 C 492.957031 699.117188 493.027344 699.117188 493.0625 699.117188 C 493.074219 699.117188 493.085938 699.117188 493.097656 699.128906 C 493.203125 699.15625 493.300781 699.191406 493.394531 699.226562 C 493.628906 699.332031 493.972656 699.5 494.128906 699.582031 C 496.808594 701.242188 499.429688 702.972656 502.203125 704.457031 C 505.878906 706.378906 509.648438 708.121094 513.167969 710.316406 C 513.25 710.363281 513.382812 710.445312 513.511719 710.539062 C 512.457031 711.3125 509.078125 712.816406 507.109375 713.765625 C 500.472656 716.707031 494.105469 720.195312 488.164062 724.394531 C 486.660156 725.402344 485.238281 726.515625 483.707031 727.488281 C 482.734375 727.925781 481.964844 728.734375 482.011719 729.648438 C 479.855469 731.949219 477.601562 734.296875 476.546875 737.332031 C 475.304688 741.03125 475.480469 742.585938 474.921875 746.179688 C 474.769531 750.367188 474.472656 754.625 475.148438 758.765625 C 476.027344 762.761719 477.246094 766.699219 478.894531 770.445312 C 478.988281 770.683594 478.609375 769.722656 478.835938 770.351562 C 478.917969 770.730469 479.011719 771.109375 479.191406 771.453125 C 478.882812 772 478.835938 772.6875 479.179688 773.246094 C 483.566406 780.289062 488.035156 787.359375 491.261719 795.03125 C 494.449219 801.542969 495.894531 807.25 499.832031 813.949219 C 503.886719 820.601562 508.152344 827.136719 512.480469 833.613281 C 517.257812 842.449219 522.402344 851.082031 527.109375 859.96875 C 530.972656 866.894531 535.171875 873.628906 538.3125 880.9375 C 544.488281 893.007812 549.066406 903.292969 552.953125 916.019531 C 554.257812 919.648438 555.441406 923.441406 557.777344 926.5625 C 561.050781 930.796875 564.308594 933.191406 566.609375 937.152344 C 572.359375 945.503906 575.75 955.214844 581.558594 963.542969 C 584.949219 968.855469 590.902344 976.578125 592.523438 980.882812 C 595.75 988.117188 596.402344 993.347656 594.101562 1000.390625 Z M 594.101562 1000.390625 " fill-opacity="1" fill-rule="nonzero"/></g><path fill="#000000" d="M 392.828125 627.957031 C 389.128906 622.15625 382.300781 623.949219 377.796875 627.71875 C 377.605469 627.875 377.453125 628.050781 377.273438 628.21875 C 376.742188 627.863281 376.183594 627.53125 375.601562 627.246094 C 371.050781 624.765625 364.800781 625.882812 361.425781 629.832031 C 358.28125 633.164062 357.972656 638.265625 360.582031 642.011719 C 363.035156 645.664062 366.722656 648.238281 369.628906 651.511719 C 370.574219 652.507812 371.511719 653.503906 372.449219 654.511719 C 372.496094 654.558594 372.554688 654.59375 372.601562 654.644531 C 372.414062 655.6875 373.265625 656.730469 374.347656 656.71875 C 376.335938 656.316406 377.761719 654.476562 379.445312 653.421875 C 383.484375 650.433594 387.980469 647.753906 390.730469 643.410156 C 393.703125 639 395.472656 632.9375 392.828125 627.957031 Z M 386.199219 643.519531 C 383.320312 646.578125 381.445312 647.515625 377.960938 650.125 C 377 650.8125 376.078125 651.535156 375.128906 652.246094 C 375.070312 652.164062 375.035156 652.082031 374.949219 652.023438 C 372.378906 649.257812 369.78125 646.519531 366.996094 643.957031 C 364.019531 641.253906 362.515625 639.023438 362.335938 636.734375 C 362.21875 630.957031 369.886719 626.734375 376.113281 631.742188 C 377 632.617188 378.496094 632.652344 379.183594 631.515625 C 379.207031 631.480469 379.21875 631.445312 379.230469 631.410156 C 379.242188 631.398438 379.253906 631.375 379.277344 631.324219 C 379.3125 631.265625 379.347656 631.207031 379.394531 631.148438 C 383.285156 627.304688 388.121094 626.511719 389.921875 630.070312 C 391.679688 633.578125 389.625 639.804688 386.199219 643.519531 Z M 386.199219 643.519531 " fill-opacity="1" fill-rule="nonzero"/><g clip-path="url(#f785a9ea6f)"><path fill="#000000" d="M 294.265625 1083.578125 C 293.863281 1075.347656 292.546875 1067.070312 290.390625 1059.125 C 290.007812 1058.164062 289.558594 1057.167969 288.742188 1056.503906 C 287.792969 1055.71875 286.582031 1055.351562 285.433594 1054.984375 C 280.808594 1053.808594 275.867188 1053.90625 271.242188 1055.03125 C 269.914062 1055.363281 268.636719 1055.839844 267.355469 1056.324219 C 266.914062 1056.441406 266.523438 1056.75 266.289062 1057.144531 C 266.265625 1057.179688 266.265625 1057.214844 266.238281 1057.25 C 266.109375 1057.285156 265.980469 1057.34375 265.859375 1057.414062 C 265.089844 1057.855469 264.984375 1058.707031 264.816406 1059.503906 C 262.847656 1065.695312 261.84375 1070.296875 261.570312 1076.058594 C 261.546875 1081.3125 261.367188 1086.617188 262.1875 1091.824219 C 263.429688 1098.332031 268.160156 1107.855469 274.679688 1110.265625 C 277.480469 1110.917969 279.910156 1108.839844 282.101562 1107.394531 C 284.378906 1105.828125 286.820312 1104.464844 288.777344 1102.484375 C 291.148438 1100.019531 292.890625 1096.921875 293.777344 1093.613281 C 294.515625 1090.316406 294.347656 1086.914062 294.265625 1083.578125 Z M 283.3125 1058.117188 C 283.191406 1058.449219 283.0625 1058.78125 283.015625 1059.136719 C 282.96875 1059.335938 282.894531 1059.527344 282.824219 1059.730469 C 282.730469 1059.941406 282.578125 1060.296875 282.492188 1060.523438 C 281.117188 1063.179688 278.902344 1066.878906 277.847656 1068.066406 C 277.738281 1068.171875 277.609375 1068.28125 277.492188 1068.386719 C 277.492188 1068.386719 277.480469 1068.386719 277.480469 1068.398438 C 275.914062 1068.363281 276.140625 1068.457031 275.25 1067.886719 C 275.097656 1067.769531 274.882812 1067.605469 274.691406 1067.449219 C 274.5625 1067.332031 274.457031 1067.210938 274.40625 1067.152344 C 274.253906 1066.953125 274.125 1066.738281 274.003906 1066.511719 C 273.507812 1065.800781 272.808594 1062.667969 272.394531 1060.476562 C 272.191406 1059.882812 272.132812 1059.195312 272.023438 1058.53125 C 276.078125 1057.488281 279.992188 1057.511719 283.3125 1058.117188 Z M 290.734375 1089.378906 C 290.625 1093.636719 289.097656 1097.113281 285.789062 1100.433594 C 284.222656 1101.84375 278.261719 1105.78125 276.636719 1106.625 C 275.414062 1107.597656 272.664062 1105.105469 270.898438 1102.769531 C 267.367188 1097.777344 265.601562 1093.222656 265.292969 1088.21875 C 264.902344 1080.78125 264.9375 1072.90625 266.109375 1068.078125 C 266.558594 1065.242188 267.875 1062.550781 268.351562 1059.730469 C 268.433594 1059.691406 268.515625 1059.667969 268.597656 1059.632812 C 269.347656 1063.109375 269.582031 1066.902344 271.90625 1069.703125 C 273.292969 1070.839844 273.117188 1071.042969 275.121094 1071.742188 C 276.421875 1071.96875 277.859375 1072.195312 279.078125 1071.554688 C 281.175781 1070.285156 282.21875 1067.886719 283.5 1065.882812 C 284.984375 1063.429688 285.847656 1061.992188 286.40625 1060.085938 C 286.453125 1059.894531 286.523438 1059.679688 286.582031 1059.46875 C 286.640625 1059.550781 286.691406 1059.632812 286.761719 1059.742188 C 287.257812 1060.5 288.183594 1064.996094 288.609375 1067.425781 C 290.105469 1074.730469 290.96875 1081.171875 290.734375 1089.378906 Z M 290.734375 1089.378906 " fill-opacity="1" fill-rule="nonzero"/></g><path fill="#000000" d="M 288.136719 1093.671875 C 286.960938 1092.34375 285.207031 1091.5625 283.621094 1090.824219 C 280.195312 1089.4375 276.234375 1089.925781 272.914062 1091.40625 C 271.644531 1092.082031 269.832031 1092.664062 269.261719 1094.074219 C 268.800781 1095.546875 270.566406 1096.910156 271.871094 1096.082031 C 275.582031 1093.625 278.628906 1092.878906 282.433594 1094.160156 C 282.636719 1094.265625 283.027344 1094.40625 284.105469 1095.046875 C 285.078125 1095.5 285.894531 1096.636719 287.082031 1096.28125 C 288.171875 1096.007812 288.71875 1094.644531 288.136719 1093.671875 Z M 288.136719 1093.671875 " fill-opacity="1" fill-rule="nonzero"/><path fill="#000000" d="M 278.902344 1072.988281 C 278.261719 1073.628906 277.632812 1074.28125 276.992188 1074.933594 C 276.945312 1074.898438 276.898438 1074.863281 276.863281 1074.828125 C 276.128906 1074.375 275.511719 1073.570312 274.621094 1073.449219 C 272.773438 1073.082031 271.835938 1075.847656 273.484375 1076.734375 C 274.421875 1077.304688 275.261719 1078.113281 276.164062 1078.777344 C 275.722656 1079.820312 276.246094 1081.300781 277.75 1081.3125 C 279.101562 1081.3125 279.660156 1080.117188 279.445312 1079.121094 C 279.875 1078.597656 280.039062 1077.839844 279.71875 1077.199219 C 280.441406 1076.464844 281.308594 1075.8125 281.792969 1074.921875 C 282.625 1073.238281 280.195312 1071.613281 278.902344 1072.988281 Z M 278.902344 1072.988281 " fill-opacity="1" fill-rule="nonzero"/><path fill="#000000" d="M 280.917969 1084.957031 C 280.820312 1084.882812 280.632812 1084.753906 280.429688 1084.597656 C 280.5625 1084.433594 280.703125 1084.265625 280.820312 1084.089844 C 281.664062 1082.382812 279.222656 1080.769531 277.941406 1082.144531 C 277.859375 1082.226562 277.785156 1082.308594 277.703125 1082.40625 C 276.851562 1081.683594 276.019531 1080.945312 275.167969 1080.222656 C 273.519531 1078.585938 271.019531 1081.089844 272.652344 1082.738281 C 273.542969 1083.484375 274.40625 1084.253906 275.285156 1085.003906 C 275.082031 1085.214844 274.894531 1085.429688 274.691406 1085.632812 C 273.863281 1086.414062 274.0625 1087.859375 275.046875 1088.429688 C 275.722656 1088.832031 276.660156 1088.714844 277.207031 1088.15625 C 277.464844 1087.847656 277.75 1087.539062 278.035156 1087.246094 C 278.59375 1087.601562 279.078125 1088.203125 279.777344 1088.253906 C 280.644531 1088.429688 281.496094 1087.800781 281.734375 1086.984375 C 281.960938 1086.210938 281.605469 1085.347656 280.917969 1084.957031 Z M 280.917969 1084.957031 " fill-opacity="1" fill-rule="nonzero"/><path fill="#000000" d="M 316.910156 1060.558594 C 316.945312 1060.582031 316.945312 1060.59375 316.980469 1060.605469 C 316.980469 1060.605469 316.96875 1060.59375 316.96875 1060.59375 C 316.945312 1060.582031 316.921875 1060.570312 316.910156 1060.558594 Z M 316.910156 1060.558594 " fill-opacity="1" fill-rule="nonzero"/><path fill="#000000" d="M 322.433594 1061.339844 C 321.292969 1059.753906 320.238281 1057.890625 318.519531 1056.882812 C 318.261719 1056.75 317.988281 1056.714844 317.714844 1056.738281 C 317.476562 1056.597656 317.203125 1056.429688 316.898438 1056.253906 C 315.367188 1055.578125 312.285156 1053.976562 308.457031 1054.378906 C 306.085938 1054.582031 303.796875 1055.28125 301.589844 1056.160156 C 300.808594 1056.539062 299.789062 1056.644531 299.328125 1057.453125 C 299.113281 1057.796875 299.054688 1058.175781 299.101562 1058.542969 C 297.476562 1065.078125 296.269531 1071.742188 296.246094 1078.503906 C 295.996094 1083.425781 296.433594 1088.394531 298.105469 1093.054688 C 299.601562 1096.945312 300.714844 1101.203125 303.476562 1104.417969 C 304.804688 1106.019531 306.675781 1107.050781 308.550781 1107.867188 C 312.414062 1109.316406 315.699219 1106.492188 317.679688 1103.398438 C 320.726562 1098.429688 322.585938 1092.820312 324.472656 1087.328125 C 325.445312 1084.171875 325.480469 1080.839844 325.90625 1077.578125 C 326.605469 1071.992188 325.777344 1066.003906 322.433594 1061.339844 Z M 315.402344 1059.445312 C 314.820312 1059.195312 315.058594 1059.300781 315.449219 1059.527344 C 315.570312 1059.597656 315.710938 1059.632812 315.828125 1059.714844 C 316.03125 1059.882812 316.246094 1060.023438 316.46875 1060.167969 C 316.636719 1060.320312 316.8125 1060.476562 316.957031 1060.59375 C 316.980469 1060.617188 317.003906 1060.628906 317.027344 1060.652344 C 317.015625 1060.640625 316.992188 1060.628906 316.992188 1060.628906 C 316.980469 1060.617188 316.980469 1060.617188 316.96875 1060.605469 C 317.132812 1060.738281 317.214844 1060.808594 317.097656 1060.699219 C 317.121094 1060.714844 317.15625 1060.75 317.179688 1060.773438 C 317.191406 1060.796875 317.214844 1060.808594 317.226562 1060.832031 C 317.300781 1060.925781 317.335938 1060.972656 317.347656 1060.960938 C 317.382812 1060.996094 317.417969 1061.019531 317.453125 1061.058594 C 317.453125 1061.082031 317.441406 1061.105469 317.441406 1061.140625 C 317.40625 1061.316406 317.511719 1061.625 317.597656 1061.851562 C 317.65625 1062.03125 317.703125 1062.207031 317.726562 1062.386719 C 317.738281 1062.503906 317.726562 1062.65625 317.714844 1062.789062 C 317.597656 1063.320312 316.933594 1066.382812 316.636719 1067.070312 C 316.625 1067.117188 316.601562 1067.152344 316.589844 1067.199219 C 316.195312 1068.078125 315.78125 1068.957031 315.214844 1069.738281 C 315.140625 1069.820312 315.023438 1069.953125 314.90625 1070.046875 C 314.796875 1070.152344 314.691406 1070.25 314.621094 1070.308594 C 314.511719 1070.378906 314.394531 1070.4375 314.3125 1070.484375 C 314.289062 1070.484375 314.277344 1070.496094 314.253906 1070.496094 C 312.167969 1070.496094 312.167969 1070.507812 311.125 1069.941406 C 309.097656 1068.613281 307.1875 1065.125 307.234375 1061.769531 C 307.28125 1060.203125 307.210938 1061.058594 307.390625 1059.800781 C 307.519531 1059.335938 307.449219 1058.839844 307.210938 1058.425781 C 307.164062 1058.328125 307.082031 1058.257812 307.019531 1058.175781 C 310.246094 1057.535156 312.570312 1058.09375 315.402344 1059.445312 Z M 321.816406 1082.785156 C 321.472656 1086.210938 318.675781 1093.304688 317.167969 1096.78125 C 316.269531 1098.761719 315.308594 1100.742188 314.003906 1102.496094 C 313.824219 1102.699219 313.433594 1103.160156 313.269531 1103.304688 C 313.148438 1103.46875 312.769531 1103.777344 312.523438 1103.980469 C 312.308594 1104.132812 312.09375 1104.277344 311.871094 1104.417969 C 311.75 1104.488281 311.621094 1104.546875 311.492188 1104.609375 C 311.394531 1104.644531 311.300781 1104.667969 311.207031 1104.691406 C 311.160156 1104.691406 311.109375 1104.703125 311.0625 1104.691406 C 309.582031 1104.535156 310.234375 1104.796875 308.703125 1103.957031 C 307.1875 1103.089844 307.542969 1103.421875 306.59375 1102.519531 C 304.660156 1100.550781 304.234375 1098.949219 303.085938 1096.234375 C 301.710938 1092.769531 300.476562 1089.214844 299.96875 1085.511719 C 299.671875 1083.425781 299.765625 1076.984375 300.074219 1073.203125 C 300.214844 1069.179688 301.542969 1064.542969 302.445312 1059.597656 C 302.980469 1059.382812 303.476562 1059.207031 303.949219 1059.027344 C 303.15625 1063.511719 304.4375 1068.457031 307.734375 1071.660156 C 308.847656 1072.738281 310.175781 1073.699219 311.761719 1073.867188 C 313.234375 1074.066406 314.84375 1074.269531 316.195312 1073.488281 C 318.898438 1071.789062 320.050781 1068.515625 320.75 1065.550781 C 320.761719 1065.503906 320.773438 1065.457031 320.785156 1065.410156 C 321.234375 1066.261719 321.355469 1066.667969 321.804688 1067.960938 C 323.203125 1072.171875 322.363281 1077.363281 321.816406 1082.785156 Z M 321.816406 1082.785156 " fill-opacity="1" fill-rule="nonzero"/><path fill="#000000" d="M 313.042969 1089.960938 C 309.640625 1089.605469 305.929688 1090.71875 303.324219 1092.925781 C 302.078125 1094.359375 304.023438 1096.554688 305.621094 1095.535156 C 308.691406 1093.460938 311.382812 1093.125 313.875 1093.648438 C 315.25 1093.816406 317.003906 1095.167969 318.070312 1093.695312 C 319.847656 1090.71875 314.976562 1090.234375 313.042969 1089.960938 Z M 313.042969 1089.960938 " fill-opacity="1" fill-rule="nonzero"/><path fill="#000000" d="M 314.894531 1074.636719 C 314.109375 1075.027344 313.328125 1075.417969 312.535156 1075.800781 C 311.609375 1075.039062 310.742188 1074.1875 309.734375 1073.582031 C 308.027344 1072.75 306.417969 1075.183594 307.792969 1076.464844 C 308.3125 1076.832031 308.871094 1077.316406 309.453125 1077.828125 C 309.214844 1078.398438 309.273438 1079.0625 309.84375 1079.6875 C 310.53125 1080.378906 311.324219 1080.246094 312.09375 1079.925781 C 312.488281 1080.175781 312.878906 1080.390625 313.257812 1080.53125 C 314.417969 1080.78125 315.460938 1079.570312 315.226562 1078.457031 C 315.949219 1078.136719 316.648438 1077.804688 317.179688 1077.257812 C 318.425781 1075.824219 316.480469 1073.628906 314.894531 1074.636719 Z M 314.894531 1074.636719 " fill-opacity="1" fill-rule="nonzero"/><path fill="#000000" d="M 312.960938 1081.859375 C 312.179688 1082.285156 311.417969 1082.75 310.648438 1083.199219 C 310.042969 1082.679688 309.429688 1082.167969 308.765625 1081.777344 C 307.058594 1080.933594 305.445312 1083.378906 306.820312 1084.660156 C 307.019531 1084.824219 307.234375 1084.992188 307.4375 1085.15625 C 307.210938 1085.371094 307.03125 1085.621094 306.949219 1085.953125 C 306.617188 1087.054688 307.53125 1088.21875 308.667969 1088.203125 C 309.296875 1088.132812 309.855469 1087.847656 310.386719 1087.503906 C 310.507812 1087.589844 310.613281 1087.683594 310.71875 1087.765625 C 311.691406 1088.371094 313.042969 1087.800781 313.328125 1086.699219 C 313.433594 1086.355469 313.410156 1086.035156 313.316406 1085.738281 C 314.015625 1085.371094 314.714844 1085.015625 315.25 1084.457031 C 316.503906 1083.046875 314.5625 1080.851562 312.960938 1081.859375 Z M 312.960938 1081.859375 " fill-opacity="1" fill-rule="nonzero"/><path fill="#000000" d="M 453.550781 1085.535156 C 453.144531 1080.980469 452.625 1076.390625 452.03125 1071.863281 C 452.019531 1071.101562 451.949219 1070.355469 451.710938 1069.621094 C 451.449219 1068.980469 451.09375 1068.433594 450.679688 1067.949219 C 450.46875 1067.414062 450.003906 1067 449.449219 1066.84375 C 446.898438 1065.078125 443.117188 1064.910156 440.175781 1065.421875 C 436.90625 1066.347656 435.199219 1069.65625 433.464844 1072.300781 C 433.015625 1073.082031 432.554688 1073.878906 432.101562 1074.683594 C 431.523438 1075.382812 430.953125 1076.09375 430.382812 1076.820312 C 429.246094 1078.253906 428.132812 1079.738281 427.148438 1081.289062 C 427.136719 1081.183594 427.136719 1081.066406 427.136719 1080.957031 C 427.324219 1080.683594 427.445312 1080.351562 427.421875 1079.960938 C 427.410156 1079.214844 427.398438 1078.46875 427.398438 1077.71875 C 427.445312 1077.589844 427.492188 1077.460938 427.539062 1077.328125 C 428.085938 1075.039062 428.773438 1072.5625 428.640625 1070.164062 C 429.269531 1069.300781 429.851562 1068.246094 429.757812 1067.152344 C 429.683594 1065.929688 428.132812 1065.207031 427.113281 1065.847656 C 427.101562 1065.847656 427.101562 1065.859375 427.089844 1065.871094 C 424.671875 1062.882812 420.261719 1061.757812 416.585938 1062.695312 C 415.089844 1063.121094 413.765625 1063.984375 412.648438 1065.066406 C 412.316406 1065.125 411.996094 1065.277344 411.75 1065.550781 C 408.320312 1069.429688 405.511719 1073.820312 403.058594 1078.347656 C 400.972656 1082.308594 399.085938 1086.460938 398.457031 1090.933594 C 398.054688 1094.074219 397.558594 1097.503906 399.0625 1100.433594 C 402.003906 1105.246094 407.835938 1105.070312 411.617188 1101.324219 C 415.28125 1098.167969 417.878906 1094.085938 420.425781 1090.042969 C 421.882812 1087.96875 423.355469 1085.867188 424.632812 1083.664062 C 424.964844 1083.816406 425.347656 1083.851562 425.714844 1083.792969 C 425.144531 1084.917969 424.648438 1086.09375 424.277344 1087.328125 C 423.414062 1090.433594 422.808594 1093.777344 423.234375 1096.992188 C 423.886719 1100.621094 427.21875 1103.375 430.90625 1103.316406 C 436.242188 1102.507812 442.050781 1096.792969 446.117188 1090.824219 C 446.269531 1092.082031 446.496094 1093.339844 446.980469 1094.515625 C 447.457031 1095.664062 448.070312 1096.863281 449.175781 1097.515625 C 450.40625 1098.203125 452.03125 1097.679688 452.777344 1096.53125 C 454.378906 1093.328125 453.527344 1089.082031 453.550781 1085.535156 Z M 407.265625 1080.886719 C 407.339844 1080.566406 407.46875 1079.914062 407.5625 1079.699219 C 407.894531 1078.492188 409.53125 1075.371094 410.882812 1073.117188 C 411.960938 1071.066406 414.6875 1068.183594 415.269531 1067.472656 C 418.777344 1064.332031 423.757812 1066.621094 424.765625 1068.753906 C 424.339844 1069.039062 424.03125 1069.511719 424.03125 1070.1875 C 424.03125 1070.273438 424.019531 1070.34375 424.019531 1070.425781 C 421.992188 1073.070312 419.5 1076.59375 416.300781 1079.996094 C 413.480469 1082.914062 409.292969 1083.367188 407.363281 1081.433594 C 407.339844 1081.386719 407.304688 1081.339844 407.277344 1081.300781 C 407.277344 1081.289062 407.277344 1081.277344 407.265625 1081.277344 C 407.253906 1081.136719 407.253906 1081.003906 407.265625 1080.886719 Z M 417.9375 1087.457031 C 414.710938 1092.226562 413.148438 1095.402344 408.84375 1099.070312 C 406.519531 1100.882812 404.503906 1101.429688 402.371094 1099.082031 C 401.957031 1098.726562 401.292969 1096.472656 401.71875 1093.328125 C 401.957031 1090.113281 402.976562 1086.816406 404.46875 1083.484375 C 405.226562 1084.550781 406.507812 1085.347656 408.261719 1085.84375 C 411.023438 1086.617188 413.917969 1085.878906 416.324219 1084.433594 C 418.613281 1083.199219 421.125 1079.84375 421.753906 1079.011719 C 422.535156 1078.089844 423.152344 1077.328125 423.699219 1076.652344 C 423.6875 1076.949219 423.675781 1077.246094 423.664062 1077.542969 C 422.464844 1080.921875 420.378906 1083.863281 417.9375 1087.457031 Z M 433.253906 1081.644531 C 433.300781 1081.125 433.300781 1081.125 433.667969 1079.773438 C 433.847656 1079.109375 434.425781 1077.898438 435.148438 1076.558594 C 436.464844 1075.050781 437.890625 1073.535156 439.5 1071.835938 C 440.449219 1070.675781 441.953125 1069.84375 442.972656 1068.765625 C 443.128906 1068.765625 443.28125 1068.765625 443.449219 1068.765625 C 444.8125 1068.859375 445.714844 1068.957031 446.460938 1069.242188 C 446.234375 1069.632812 446.007812 1070.011719 445.773438 1070.320312 C 444.5625 1072.003906 443.519531 1073.34375 442.050781 1075.242188 C 438.03125 1080.328125 434.710938 1083.496094 433.195312 1082.382812 C 433.207031 1082.132812 433.21875 1081.8125 433.253906 1081.644531 Z M 447.515625 1080.328125 C 445.25 1087.753906 437.828125 1096.863281 431.699219 1099.601562 C 429.734375 1100.410156 427.503906 1098.59375 427.054688 1097.445312 C 425.855469 1094.480469 427.335938 1088.820312 428.570312 1086.011719 C 428.996094 1085.191406 429.4375 1084.433594 429.875 1083.710938 C 430.457031 1085.121094 431.914062 1085.976562 433.785156 1086.164062 C 435.542969 1086.285156 437.152344 1085.347656 438.457031 1084.265625 C 441.113281 1082.179688 443.175781 1079.453125 445.285156 1076.84375 C 446.363281 1075.417969 447.230469 1074.386719 448.453125 1072.644531 C 448.476562 1075.632812 448.378906 1077.589844 447.515625 1080.328125 Z M 450.109375 1092.769531 C 449.816406 1091.871094 449.660156 1090.910156 449.542969 1089.804688 C 449.421875 1089.117188 449.566406 1088.371094 449.28125 1087.730469 C 449.152344 1087.351562 448.878906 1087.066406 448.535156 1086.886719 C 449.03125 1085.964844 449.484375 1085.0625 449.863281 1084.195312 C 450.148438 1087.503906 450.300781 1090.578125 450.109375 1092.769531 Z M 450.109375 1092.769531 " fill-opacity="1" fill-rule="nonzero"/></svg>