<svg xmlns="http://www.w3.org/2000/svg" xmlns:xlink="http://www.w3.org/1999/xlink" width="1080" zoomAndPan="magnify" viewBox="0 0 810 1439.999935" height="1920" preserveAspectRatio="xMidYMid meet" version="1.0"><defs><clipPath id="d265e71489"><path d="M 236.796875 474.1875 L 573.546875 474.1875 L 573.546875 878.4375 L 236.796875 878.4375 Z M 236.796875 474.1875 " clip-rule="nonzero"/></clipPath></defs><g clip-path="url(#d265e71489)"><path fill="#000000" d="M 480.191406 526.257812 L 536.703125 559.367188 C 539.5625 562.117188 561.613281 576.277344 562.136719 577.753906 C 562.503906 578.796875 562.230469 580.09375 562.273438 581.203125 C 560.578125 581.335938 559.179688 581.316406 557.53125 580.757812 C 551.929688 578.875 540.976562 569.398438 535.105469 565.738281 C 523.6875 558.613281 511.667969 552.328125 500.492188 544.78125 C 496.894531 548.238281 492.140625 550.300781 487.636719 552.414062 C 480.128906 555.941406 471.03125 560.136719 463.417969 563.253906 C 453.316406 567.390625 442.011719 569.996094 431.566406 573.242188 C 431.054688 575.105469 432.058594 574.585938 432.585938 575.058594 C 438.003906 579.890625 440.480469 580.078125 447.910156 580.398438 C 462.417969 581.019531 474.742188 575.296875 490.132812 576.433594 C 505.050781 577.535156 518.589844 581.949219 525.285156 596.277344 C 529.082031 595.199219 548.945312 585.414062 551.058594 588.425781 C 551.453125 588.992188 551.09375 590.820312 550.714844 591.558594 C 549.621094 593.683594 530.8125 602.816406 527.195312 604.320312 C 529.398438 612.113281 531.011719 621.320312 530.421875 629.417969 C 529.535156 641.523438 522.960938 653.277344 524.019531 665.628906 L 566.699219 648.160156 C 567.242188 647.011719 567.144531 645.742188 567.105469 644.515625 C 566.621094 628.679688 563.6875 611.796875 563.078125 595.933594 C 562.941406 592.40625 561.363281 577.230469 567.039062 582.609375 C 568.601562 594.160156 570.789062 605.84375 571.828125 617.457031 C 572.585938 625.980469 573.214844 635.964844 573.472656 644.496094 C 573.621094 649.402344 573.515625 651.085938 568.859375 653.234375 C 572.421875 672.386719 570.71875 692.046875 571.003906 711.464844 C 571.253906 728.332031 572.515625 745.449219 571.867188 762.4375 C 569.347656 775.402344 571.683594 790.914062 569.25 803.667969 C 568.546875 807.351562 565.175781 807.316406 564.625 803.0625 C 562.839844 789.234375 565.421875 770.96875 565.496094 756.867188 C 565.664062 726.800781 564.214844 696.578125 564.960938 666.691406 C 565.050781 663.03125 565.921875 659.085938 565.457031 655.285156 L 527.222656 673.246094 C 530.574219 679.980469 536.765625 684.308594 540.253906 691.222656 C 555.695312 721.824219 528.28125 739.816406 538.9375 769.800781 C 540.351562 773.785156 546.128906 778.507812 541.964844 780.9375 C 533.953125 776.332031 531.035156 763.097656 530.40625 754.425781 C 529.15625 737.128906 538.59375 722.878906 534.941406 706.089844 C 532.078125 692.914062 523.164062 687.757812 515.503906 677.683594 L 486.785156 687.753906 L 485.132812 689.730469 C 486.773438 707.929688 490.257812 725.929688 492.132812 744.085938 C 494.816406 770.105469 496.339844 798.417969 495.363281 824.5625 C 495.292969 826.359375 494.546875 827.925781 494.535156 829.695312 C 502.660156 827.210938 510.296875 823.296875 518.226562 820.328125 C 529.167969 816.234375 548.371094 808.148438 559.042969 806.160156 C 560.429688 805.902344 561.734375 805.378906 563.109375 806.160156 C 564.296875 806.988281 564.011719 808.714844 563.476562 809.800781 C 562.730469 811.328125 547.121094 817.183594 544.136719 818.355469 C 526.871094 825.117188 509.269531 830.902344 492.144531 838.078125 C 464.652344 849.59375 437.164062 863.554688 409.234375 873.898438 C 407.441406 874.558594 396.988281 878.378906 396.261719 878.191406 C 395.105469 877.894531 394.398438 876.125 393.253906 875.554688 C 361.476562 859.808594 327.6875 847.820312 297.894531 828.289062 C 293.800781 825.601562 290.0625 822.210938 285.96875 819.496094 C 271.21875 809.703125 255.667969 800.558594 242.261719 789.058594 C 243.6875 762.730469 241.390625 736.09375 243.511719 709.867188 C 241.746094 691.367188 245.738281 668.851562 243.527344 650.847656 C 243.085938 647.273438 240.082031 647.90625 239.066406 645.675781 C 238.882812 645.273438 237.125 638.042969 237.0625 637.394531 C 235.65625 622.894531 239.824219 597.773438 241.023438 582.273438 C 241.1875 580.167969 239.863281 577.96875 241.332031 575.871094 C 243.980469 573.035156 247.882812 572.015625 250.914062 569.925781 C 258.609375 564.621094 256.132812 561.941406 259.023438 554.132812 C 269.933594 524.691406 302.519531 515.976562 330.535156 525.308594 C 348.511719 518.453125 365.507812 509.253906 383.542969 502.558594 C 390.9375 499.8125 406.535156 493.808594 413.691406 492.871094 C 422.871094 491.671875 426.804688 498.707031 434.230469 502.230469 C 446.003906 487.5625 459.132812 479.230469 477.777344 475.667969 C 498.230469 471.753906 530.9375 476.066406 522.816406 504.746094 C 517.0625 525.0625 497.152344 523.539062 480.183594 526.257812 Z M 418.023438 562.078125 C 428.738281 561.210938 440.160156 550.984375 443.6875 541.144531 C 446.761719 532.589844 443.609375 528.230469 452.847656 522.421875 C 467.632812 513.128906 483.707031 514.847656 499.492188 510.894531 C 509.796875 508.316406 516.925781 493.96875 506.496094 489.203125 C 495.089844 483.992188 476.265625 487.601562 465.058594 492.410156 C 440.675781 502.871094 426.660156 538.855469 418.023438 562.078125 Z M 410.046875 562.882812 C 413.484375 543.796875 419.734375 524.292969 430.671875 508.179688 C 430.96875 506.238281 420.082031 498.742188 417.773438 497.75 L 358.253906 519.886719 C 358.035156 520.992188 358.097656 520.90625 358.765625 521.539062 C 362.101562 524.714844 368.003906 528.125 371.8125 531.414062 C 376.71875 535.648438 381.648438 541.339844 386.570312 545.339844 C 394.113281 551.472656 402.777344 556.335938 410.046875 562.882812 Z M 372.59375 542.964844 L 352.105469 523.164062 C 347.96875 523.851562 344.347656 525.972656 340.71875 527.851562 Z M 495.324219 540.589844 C 488.875 538.296875 478.527344 528.609375 472.3125 527.476562 C 469.988281 527.054688 457.214844 530.921875 454.679688 532.214844 C 449.542969 534.824219 450.019531 541.214844 447.65625 545.902344 L 437.957031 563.679688 Z M 310.425781 535.015625 C 298.023438 533.554688 285.121094 539.839844 277.347656 549.332031 C 276.765625 550.042969 273.925781 553.484375 274.570312 554.117188 Z M 380.964844 567.664062 C 384.242188 567.046875 389.035156 568.113281 392.519531 567.664062 L 377.394531 558.488281 C 359.824219 549.6875 341.960938 541.089844 322.632812 536.820312 C 304.742188 543.757812 287.820312 552.769531 270.785156 561.492188 C 267.148438 573.023438 271.003906 590.9375 285.996094 590.460938 C 301.226562 589.972656 309.042969 563.019531 327.5 565.347656 C 341.804688 567.152344 346.078125 581.230469 362.238281 576.828125 C 368.535156 575.113281 376.710938 568.46875 380.964844 567.664062 Z M 256.230469 572.445312 L 248.28125 576.820312 C 249.78125 577.921875 257.265625 583 258.625 581.988281 L 256.222656 572.445312 Z M 392.515625 579.621094 C 385.230469 578.796875 381.609375 584.253906 376.023438 587.421875 C 365.167969 593.570312 353.054688 595.785156 341.757812 589.320312 C 335.082031 585.496094 326.972656 572.207031 319.179688 579.195312 L 299.28125 599.117188 C 304.011719 602.992188 309.375 601.539062 315.421875 603.695312 C 319.113281 605.011719 327.8125 610.871094 330.535156 610.542969 C 334.515625 610.0625 344.460938 603.738281 348.941406 601.769531 C 353.753906 599.652344 359.152344 598.460938 363.855469 595.964844 L 392.519531 579.625 Z M 316.003906 673.589844 L 320.398438 616.242188 L 309.144531 609.171875 C 303.585938 609.246094 296.675781 602.753906 292.300781 602.039062 C 290.011719 601.667969 285.546875 602.992188 282.144531 602.695312 C 277.195312 602.257812 271.972656 599.890625 268.183594 596.742188 C 265.800781 594.761719 263.632812 590.945312 261.804688 589.578125 C 259.875 588.144531 256.621094 587.855469 254.347656 586.675781 C 253.179688 586.070312 247.082031 581.539062 246.679688 582 C 247.308594 588.777344 247.617188 595.515625 247.515625 602.347656 C 247.476562 604.621094 246.722656 606.527344 246.644531 608.648438 C 246.246094 619.96875 247.152344 632.882812 242.695312 643.320312 C 269.054688 648.238281 292.429688 661.65625 316.007812 673.59375 Z M 466.636719 617.851562 C 453.433594 611.363281 441.121094 603.023438 429.601562 593.929688 C 427.867188 592.558594 419.875 584.6875 419.058594 584.472656 C 417.273438 584.007812 415.066406 587.410156 411.972656 587.527344 C 409.800781 587.609375 407.316406 585.613281 405.800781 586.0625 C 402.15625 587.140625 391.578125 612.742188 391.015625 617.527344 C 389.65625 629.105469 393.855469 639.242188 395.308594 650.503906 L 399.320312 652.785156 C 401.214844 650.039062 404.164062 647.925781 407.128906 646.375 C 424.898438 637.070312 444.097656 629.714844 462.144531 620.910156 C 463.671875 620.164062 465.890625 619.492188 466.640625 617.851562 Z M 512.070312 601.109375 C 510.21875 589.320312 488.496094 587.851562 478.960938 588.335938 C 472.472656 588.667969 465.480469 591.164062 459.058594 591.546875 C 450.363281 592.0625 440.671875 590.027344 432.375 587.574219 C 432.449219 589.679688 435.367188 591.0625 436.902344 592.203125 C 448.132812 600.578125 460.542969 607.285156 472 615.328125 C 485.433594 610.789062 497.9375 603.5625 512.070312 601.109375 Z M 378.167969 640.933594 C 375.203125 628.949219 376.890625 617.257812 382.019531 606.15625 L 390.917969 589.964844 C 374.179688 600.890625 356.242188 607.890625 337.53125 614.660156 L 339.167969 616.597656 C 350.621094 622.371094 361.667969 632.851562 372.644531 638.898438 C 373.574219 639.417969 377.695312 641.429688 378.167969 640.933594 Z M 512.867188 670.386719 C 507.542969 649.554688 522.359375 630.332031 515.246094 609.078125 C 510.792969 610.195312 478.269531 622.582031 477.972656 624.582031 C 484.046875 642.402344 482.171875 661.492188 484.171875 679.96875 L 512.863281 670.390625 Z M 326.375 620.234375 L 325.699219 677.847656 C 326.523438 680.242188 347.535156 688.472656 351.394531 689.421875 C 360.324219 675.761719 379.882812 669.226562 378.84375 650.230469 L 326.375 620.238281 Z M 473.808594 626.605469 L 406.15625 655 C 407.847656 668.167969 409.441406 681.433594 409.292969 694.730469 C 404.238281 751.972656 402.410156 809.34375 400.535156 866.777344 C 400.488281 868.308594 399.910156 869.636719 399.699219 871.109375 L 488.832031 831.5625 C 488.984375 807.113281 487.714844 782.683594 484.964844 758.425781 C 482.441406 736.195312 477.496094 714.277344 476.199219 691.914062 L 410.855469 711.820312 C 410.265625 708.136719 413.019531 706.652344 415.878906 705.296875 C 424.304688 701.324219 436.589844 696.726562 445.507812 693.488281 C 455.289062 689.933594 465.601562 687.683594 475.292969 683.835938 L 473.808594 626.601562 Z M 312.023438 829.695312 C 311.445312 817.082031 310.90625 804.492188 311.199219 791.835938 C 311.972656 758.46875 314.207031 724.941406 315.183594 691.480469 C 315.285156 688 316.828125 684.214844 315.90625 680.472656 C 294.339844 669.84375 272.339844 658.40625 249.070312 651.300781 C 250.109375 656.75 251.1875 662.859375 251.488281 668.386719 C 253.242188 700.195312 250.1875 732.324219 249.03125 763.960938 C 248.730469 772.285156 249.917969 780.882812 248.28125 789.035156 C 261.894531 796.429688 275.183594 804.792969 288.046875 813.441406 C 290.25 814.925781 310.996094 830.855469 312.019531 829.691406 Z M 400.457031 659.289062 L 394.121094 657.664062 C 392.355469 668.351562 386.082031 676.601562 378.183594 683.558594 C 375.554688 685.875 366.492188 691.417969 365.425781 693.917969 C 364.882812 695.191406 365.871094 694.988281 366.425781 695.273438 C 375.566406 699.910156 387.976562 702.289062 397.234375 707.507812 L 398.535156 710.234375 L 395.699219 711.515625 L 361.839844 699.050781 C 359.265625 699.28125 355.832031 709.191406 355.421875 711.785156 C 351.890625 734.207031 368.9375 754.300781 371 775.152344 C 372.320312 788.53125 364.082031 790.8125 361.796875 802.582031 C 360.925781 807.089844 360.433594 809.304688 362.921875 813.257812 C 361.4375 817.261719 356.800781 814.277344 356.023438 811.617188 C 354.878906 807.6875 356.519531 798.714844 357.890625 794.691406 C 361.027344 785.503906 366.382812 785.816406 363.074219 774.308594 C 357.550781 755.089844 341.71875 731.507812 343.125 712.234375 C 343.621094 705.40625 346.558594 699.867188 347.847656 693.550781 L 324.785156 684.75 L 324.816406 731.371094 C 320.960938 763.882812 322.152344 797.671875 319.167969 830.058594 C 319.050781 831.3125 318.292969 832.269531 317.710938 833.300781 L 393.710938 870.332031 C 394.164062 825.019531 394.210938 779.726562 397.3125 734.53125 C 398.652344 715.003906 400.6875 698.601562 400.464844 678.808594 C 400.390625 672.308594 400.617188 665.785156 400.464844 659.292969 Z M 400.457031 659.289062 " fill-opacity="1" fill-rule="nonzero"/></g><path fill="#000000" d="M 514.460938 816.15625 C 513.804688 813.082031 517.734375 812.015625 520.050781 810.996094 C 529.769531 806.714844 541.152344 804.132812 551.109375 800.21875 C 551.28125 798.738281 549.433594 799.558594 548.5625 799.65625 C 542.558594 800.332031 534.683594 803.4375 529.214844 803.441406 C 525.355469 803.441406 527.335938 801.554688 529.601562 800.625 C 533.578125 798.996094 560.503906 793.660156 561.472656 798.246094 C 561.03125 800.867188 557.460938 801.511719 555.296875 802.410156 C 542.113281 807.902344 527.929688 811.4375 514.460938 816.152344 Z M 514.460938 816.15625 " fill-opacity="1" fill-rule="nonzero"/><path fill="#000000" d="M 411.511719 852.65625 C 410.746094 853.101562 409.410156 852.683594 408.464844 852.800781 C 409.503906 843.414062 412.597656 834.082031 413.234375 824.511719 C 413.5625 819.601562 411.949219 805.832031 413.160156 802.929688 C 414.316406 800.179688 416.207031 802.101562 416.476562 804.566406 C 417.746094 816.289062 417.609375 829.328125 415.261719 840.878906 C 414.898438 842.667969 412.425781 852.121094 411.511719 852.65625 Z M 411.511719 852.65625 " fill-opacity="1" fill-rule="nonzero"/></svg>