<svg xmlns="http://www.w3.org/2000/svg" xmlns:xlink="http://www.w3.org/1999/xlink" zoomAndPan="magnify" preserveAspectRatio="xMidYMid meet" version="1.0" viewBox="217.62 495.22 374.7 449.57"><defs><clipPath id="908b050b9f"><path d="M 217.640625 495 L 592.636719 495 L 592.636719 944.941406 L 217.640625 944.941406 Z M 217.640625 495 " clip-rule="nonzero"/></clipPath></defs><g clip-path="url(#908b050b9f)"><path fill="#5e0813" d="M 488.480469 552.921875 L 551.359375 589.785156 C 554.542969 592.847656 579.082031 608.613281 579.660156 610.257812 C 580.070312 611.417969 579.765625 612.867188 579.8125 614.097656 C 577.925781 614.246094 576.371094 614.222656 574.535156 613.605469 C 568.304688 611.507812 556.117188 600.957031 549.585938 596.878906 C 536.878906 588.945312 523.503906 581.949219 511.066406 573.546875 C 507.066406 577.394531 501.773438 579.691406 496.765625 582.042969 C 488.40625 585.972656 478.28125 590.644531 469.8125 594.113281 C 458.574219 598.71875 445.996094 601.621094 434.367188 605.238281 C 433.800781 607.308594 434.917969 606.730469 435.507812 607.257812 C 441.535156 612.636719 444.289062 612.847656 452.558594 613.203125 C 468.703125 613.894531 482.414062 607.519531 499.539062 608.789062 C 516.140625 610.015625 531.207031 614.929688 538.65625 630.886719 C 542.882812 629.683594 564.984375 618.789062 567.335938 622.140625 C 567.773438 622.769531 567.375 624.808594 566.953125 625.628906 C 565.734375 627.996094 544.804688 638.164062 540.78125 639.839844 C 543.234375 648.519531 545.027344 658.769531 544.371094 667.785156 C 543.386719 681.265625 536.070312 694.351562 537.25 708.105469 L 584.742188 688.65625 C 585.34375 687.375 585.234375 685.960938 585.191406 684.597656 C 584.652344 666.964844 581.386719 648.164062 580.707031 630.503906 C 580.554688 626.574219 578.804688 609.675781 585.121094 615.667969 C 586.855469 628.523438 589.292969 641.535156 590.445312 654.464844 C 591.292969 663.957031 591.988281 675.074219 592.277344 684.574219 C 592.441406 690.035156 592.324219 691.910156 587.140625 694.300781 C 591.109375 715.628906 589.210938 737.519531 589.53125 759.140625 C 589.808594 777.921875 591.210938 796.980469 590.492188 815.898438 C 587.6875 830.332031 590.285156 847.605469 587.578125 861.804688 C 586.796875 865.910156 583.042969 865.867188 582.429688 861.128906 C 580.445312 845.734375 583.316406 825.398438 583.402344 809.695312 C 583.585938 776.21875 581.976562 742.5625 582.804688 709.285156 C 582.90625 705.214844 583.875 700.820312 583.355469 696.585938 L 540.8125 716.585938 C 544.539062 724.085938 551.433594 728.90625 555.3125 736.601562 C 572.496094 770.675781 541.992188 790.707031 553.847656 824.09375 C 555.421875 828.53125 561.847656 833.792969 557.214844 836.496094 C 548.300781 831.367188 545.054688 816.632812 544.355469 806.980469 C 542.960938 787.71875 553.464844 771.847656 549.402344 753.15625 C 546.214844 738.484375 536.296875 732.746094 527.773438 721.527344 L 495.816406 732.742188 L 493.976562 734.9375 C 495.800781 755.207031 499.679688 775.246094 501.765625 795.464844 C 504.753906 824.433594 506.449219 855.960938 505.359375 885.070312 C 505.285156 887.070312 504.453125 888.8125 504.4375 890.789062 C 513.480469 888.019531 521.976562 883.664062 530.800781 880.359375 C 542.976562 875.800781 564.34375 866.792969 576.222656 864.582031 C 577.765625 864.292969 579.214844 863.710938 580.746094 864.582031 C 582.066406 865.503906 581.746094 867.421875 581.152344 868.632812 C 580.324219 870.335938 562.957031 876.855469 559.632812 878.160156 C 540.421875 885.691406 520.835938 892.132812 501.777344 900.121094 C 471.1875 912.941406 440.601562 928.488281 409.519531 940.003906 C 407.523438 940.738281 395.894531 944.992188 395.085938 944.785156 C 393.800781 944.453125 393.011719 942.484375 391.738281 941.851562 C 356.375 924.316406 318.777344 910.96875 285.628906 889.21875 C 281.074219 886.230469 276.910156 882.453125 272.355469 879.429688 C 255.941406 868.523438 238.636719 858.34375 223.722656 845.539062 C 225.308594 816.222656 222.75 786.5625 225.109375 757.363281 C 223.144531 736.765625 227.59375 711.691406 225.128906 691.644531 C 224.636719 687.667969 221.296875 688.371094 220.164062 685.886719 C 219.964844 685.441406 218.007812 677.390625 217.933594 676.664062 C 216.371094 660.519531 221.011719 632.550781 222.34375 615.289062 C 222.527344 612.949219 221.050781 610.496094 222.6875 608.164062 C 225.632812 605.003906 229.976562 603.871094 233.351562 601.542969 C 241.910156 595.632812 239.15625 592.652344 242.375 583.960938 C 254.511719 551.175781 290.773438 541.472656 321.949219 551.863281 C 341.949219 544.230469 360.863281 533.988281 380.933594 526.53125 C 389.160156 523.472656 406.515625 516.789062 414.480469 515.746094 C 424.695312 514.410156 429.074219 522.242188 437.335938 526.167969 C 450.4375 509.832031 465.042969 500.558594 485.789062 496.589844 C 508.550781 492.234375 544.945312 497.035156 535.910156 528.96875 C 529.507812 551.589844 507.351562 549.894531 488.46875 552.921875 Z M 419.300781 592.808594 C 431.222656 591.839844 443.929688 580.453125 447.859375 569.496094 C 451.277344 559.96875 447.769531 555.113281 458.050781 548.648438 C 474.5 538.300781 492.390625 540.214844 509.957031 535.816406 C 521.417969 532.941406 529.355469 516.96875 517.746094 511.664062 C 505.054688 505.859375 484.109375 509.878906 471.636719 515.234375 C 444.507812 526.882812 428.910156 566.949219 419.300781 592.808594 Z M 410.425781 593.703125 C 414.25 572.449219 421.207031 550.730469 433.375 532.789062 C 433.703125 530.632812 421.589844 522.28125 419.019531 521.175781 L 352.792969 545.828125 C 352.546875 547.058594 352.617188 546.960938 353.359375 547.664062 C 357.074219 551.203125 363.640625 554.996094 367.882812 558.660156 C 373.339844 563.378906 378.824219 569.710938 384.300781 574.167969 C 392.691406 580.996094 402.335938 586.410156 410.425781 593.703125 Z M 368.75 571.523438 L 345.953125 549.476562 C 341.347656 550.242188 337.320312 552.601562 333.277344 554.695312 Z M 505.316406 568.878906 C 498.140625 566.328125 486.625 555.539062 479.710938 554.277344 C 477.121094 553.804688 462.910156 558.113281 460.089844 559.550781 C 454.375 562.460938 454.90625 569.574219 452.273438 574.792969 L 441.480469 594.585938 Z M 299.574219 562.671875 C 285.769531 561.042969 271.410156 568.042969 262.761719 578.613281 C 262.113281 579.40625 258.953125 583.234375 259.671875 583.941406 Z M 378.0625 599.023438 C 381.710938 598.335938 387.042969 599.523438 390.921875 599.023438 L 374.089844 588.804688 C 354.539062 579.007812 334.664062 569.433594 313.15625 564.679688 C 293.246094 572.40625 274.414062 582.441406 255.460938 592.148438 C 251.414062 604.988281 255.703125 624.9375 272.386719 624.40625 C 289.335938 623.863281 298.03125 593.855469 318.570312 596.445312 C 334.488281 598.453125 339.242188 614.128906 357.226562 609.230469 C 364.230469 607.320312 373.332031 599.917969 378.0625 599.023438 Z M 239.261719 604.347656 L 230.421875 609.21875 C 232.089844 610.449219 240.417969 616.097656 241.929688 614.976562 L 239.257812 604.347656 Z M 390.917969 612.335938 C 382.8125 611.417969 378.777344 617.496094 372.566406 621.023438 C 360.484375 627.867188 347.007812 630.335938 334.4375 623.140625 C 327.007812 618.882812 317.984375 604.082031 309.3125 611.863281 L 287.167969 634.046875 C 292.433594 638.363281 298.398438 636.742188 305.128906 639.144531 C 309.238281 640.609375 318.917969 647.132812 321.949219 646.769531 C 326.375 646.234375 337.445312 639.195312 342.429688 637 C 347.785156 634.644531 353.792969 633.316406 359.023438 630.535156 L 390.921875 612.339844 Z M 305.777344 716.96875 L 310.667969 653.113281 L 298.144531 645.242188 C 291.960938 645.324219 284.269531 638.097656 279.402344 637.300781 C 276.855469 636.886719 271.886719 638.363281 268.101562 638.027344 C 262.597656 637.542969 256.78125 634.910156 252.566406 631.402344 C 249.914062 629.195312 247.503906 624.945312 245.46875 623.425781 C 243.324219 621.828125 239.699219 621.507812 237.167969 620.195312 C 235.867188 619.519531 229.085938 614.472656 228.640625 614.988281 C 229.335938 622.53125 229.683594 630.035156 229.566406 637.644531 C 229.523438 640.171875 228.683594 642.296875 228.597656 644.660156 C 228.152344 657.261719 229.164062 671.644531 224.203125 683.265625 C 253.535156 688.742188 279.542969 703.679688 305.78125 716.972656 Z M 473.394531 654.90625 C 458.703125 647.679688 445 638.398438 432.183594 628.269531 C 430.253906 626.746094 421.363281 617.976562 420.453125 617.738281 C 418.46875 617.222656 416.007812 621.011719 412.570312 621.144531 C 410.148438 621.234375 407.386719 619.011719 405.699219 619.511719 C 401.644531 620.710938 389.875 649.21875 389.25 654.546875 C 387.734375 667.4375 392.40625 678.722656 394.023438 691.261719 L 398.488281 693.804688 C 400.597656 690.746094 403.878906 688.394531 407.179688 686.664062 C 426.949219 676.304688 448.3125 668.113281 468.398438 658.3125 C 470.097656 657.480469 472.5625 656.730469 473.402344 654.90625 Z M 523.949219 636.261719 C 521.890625 623.140625 497.71875 621.503906 487.109375 622.042969 C 479.886719 622.410156 472.109375 625.191406 464.960938 625.617188 C 455.289062 626.191406 444.503906 623.925781 435.273438 621.191406 C 435.351562 623.539062 438.597656 625.078125 440.308594 626.347656 C 452.804688 635.671875 466.613281 643.140625 479.363281 652.097656 C 494.308594 647.042969 508.222656 638.996094 523.949219 636.261719 Z M 374.953125 680.609375 C 371.652344 667.265625 373.527344 654.246094 379.238281 641.882812 L 389.136719 623.855469 C 370.511719 636.019531 350.554688 643.816406 329.730469 651.355469 L 331.554688 653.507812 C 344.296875 659.9375 356.59375 671.609375 368.804688 678.34375 C 369.839844 678.917969 374.425781 681.160156 374.953125 680.609375 Z M 524.835938 713.398438 C 518.914062 690.207031 535.402344 668.800781 527.484375 645.136719 C 522.53125 646.382812 486.339844 660.175781 486.011719 662.402344 C 492.769531 682.246094 490.683594 703.5 492.90625 724.074219 L 524.832031 713.40625 Z M 317.316406 657.558594 L 316.566406 721.707031 C 317.484375 724.375 340.867188 733.539062 345.160156 734.597656 C 355.09375 719.386719 376.859375 712.109375 375.703125 690.957031 L 317.316406 657.5625 Z M 481.375 664.652344 L 406.09375 696.269531 C 407.980469 710.933594 409.75 725.699219 409.582031 740.507812 C 403.960938 804.246094 401.925781 868.125 399.839844 932.078125 C 399.789062 933.78125 399.144531 935.257812 398.910156 936.902344 L 498.089844 892.863281 C 498.261719 865.644531 496.851562 838.441406 493.789062 811.429688 C 490.984375 786.675781 485.480469 762.273438 484.039062 737.371094 L 411.324219 759.535156 C 410.667969 755.433594 413.734375 753.78125 416.917969 752.273438 C 426.289062 747.851562 439.960938 742.730469 449.882812 739.125 C 460.765625 735.167969 472.246094 732.660156 483.027344 728.375 L 481.375 664.648438 Z M 301.347656 890.789062 C 300.707031 876.742188 300.105469 862.726562 300.433594 848.632812 C 301.289062 811.480469 303.777344 774.144531 304.863281 736.890625 C 304.976562 733.015625 306.695312 728.796875 305.667969 724.628906 C 281.671875 712.796875 257.191406 700.0625 231.296875 692.148438 C 232.453125 698.21875 233.652344 705.019531 233.988281 711.175781 C 235.941406 746.59375 232.542969 782.367188 231.257812 817.59375 C 230.917969 826.863281 232.242188 836.433594 230.421875 845.511719 C 245.566406 853.746094 260.355469 863.058594 274.667969 872.6875 C 277.121094 874.34375 300.207031 892.078125 301.34375 890.785156 Z M 399.75 701.046875 L 392.703125 699.234375 C 390.738281 711.132812 383.753906 720.324219 374.964844 728.070312 C 372.042969 730.644531 361.960938 736.816406 360.773438 739.601562 C 360.167969 741.023438 361.269531 740.796875 361.882812 741.113281 C 372.058594 746.277344 385.863281 748.925781 396.167969 754.734375 L 397.617188 757.773438 L 394.460938 759.199219 L 356.78125 745.320312 C 353.917969 745.574219 350.097656 756.609375 349.640625 759.5 C 345.714844 784.464844 364.679688 806.839844 366.972656 830.054688 C 368.441406 844.949219 359.277344 847.488281 356.738281 860.59375 C 355.765625 865.617188 355.21875 868.078125 357.984375 872.484375 C 356.335938 876.941406 351.175781 873.617188 350.3125 870.65625 C 349.035156 866.28125 350.859375 856.292969 352.390625 851.808594 C 355.878906 841.582031 361.839844 841.929688 358.15625 829.117188 C 352.011719 807.714844 334.394531 781.457031 335.957031 760 C 336.511719 752.394531 339.777344 746.226562 341.210938 739.195312 L 315.550781 729.394531 L 315.582031 781.308594 C 311.292969 817.507812 312.621094 855.128906 309.296875 891.191406 C 309.167969 892.585938 308.328125 893.652344 307.679688 894.800781 L 392.25 936.03125 C 392.75 885.582031 392.800781 835.148438 396.253906 784.824219 C 397.746094 763.082031 400.007812 744.816406 399.761719 722.777344 C 399.679688 715.539062 399.929688 708.28125 399.761719 701.050781 Z M 399.75 701.046875 " fill-opacity="1" fill-rule="nonzero"/></g><path fill="#5e0813" d="M 526.613281 875.710938 C 525.878906 872.289062 530.253906 871.101562 532.828125 869.964844 C 543.644531 865.199219 556.3125 862.324219 567.394531 857.964844 C 567.582031 856.316406 565.527344 857.230469 564.554688 857.339844 C 557.875 858.089844 549.113281 861.546875 543.03125 861.550781 C 538.730469 861.550781 540.941406 859.453125 543.457031 858.417969 C 547.886719 856.601562 577.84375 850.664062 578.925781 855.769531 C 578.433594 858.6875 574.460938 859.402344 572.050781 860.40625 C 557.378906 866.519531 541.601562 870.457031 526.613281 875.703125 Z M 526.613281 875.710938 " fill-opacity="1" fill-rule="nonzero"/><path fill="#5e0813" d="M 412.054688 916.351562 C 411.203125 916.851562 409.714844 916.382812 408.660156 916.511719 C 409.820312 906.058594 413.261719 895.671875 413.972656 885.015625 C 414.335938 879.546875 412.542969 864.214844 413.890625 860.984375 C 415.175781 857.917969 417.28125 860.058594 417.578125 862.804688 C 418.992188 875.859375 418.839844 890.378906 416.226562 903.238281 C 415.824219 905.234375 413.074219 915.757812 412.054688 916.351562 Z M 412.054688 916.351562 " fill-opacity="1" fill-rule="nonzero"/></svg>