<?xml version="1.0" standalone="no"?>
<!DOCTYPE svg PUBLIC "-//W3C//DTD SVG 1.1//EN" "http://www.w3.org/Graphics/SVG/1.1/DTD/svg11.dtd">
<svg xmlns="http://www.w3.org/2000/svg" xmlns:xlink="http://www.w3.org/1999/xlink" version="1.1" id="Layer_1" x="0px" y="0px" width="1024" viewBox="0 0 1024 1024" enable-background="new 0 0 1024 1024" xml:space="preserve" height="1024">
<path fill="#000000" opacity="1.000000" stroke="none" d=" M430.956207,630.952942   C423.572815,641.415649 416.930054,652.409668 408.377563,662.031189   C390.529480,682.110352 369.563293,697.350586 342.456116,701.525269   C319.620789,705.042114 297.814301,702.144897 279.875305,685.604126   C269.917206,676.422119 266.031281,664.038208 264.025726,651.304199   C260.862488,631.220032 261.825134,611.138916 267.028015,591.386169   C272.457245,570.773926 282.156158,552.293884 295.468323,535.726746   C324.753601,499.280609 362.252960,474.012878 404.791321,455.600677   C427.912109,445.593170 451.530914,437.021210 475.937653,430.757629   C480.507080,429.584930 481.850525,426.467773 483.095673,422.761993   C489.089966,404.922241 495.387329,387.200226 502.628418,369.812714   C509.490967,353.334015 517.147034,337.273132 526.292603,321.934357   C526.868347,320.968628 527.332336,319.936157 528.202637,318.247101   C521.091858,318.436218 514.848206,320.011047 508.588837,321.238464   C478.791992,327.081207 449.399841,334.260651 422.115082,348.183289   C391.384735,363.864105 367.770691,386.277161 354.905853,418.950378   C352.516724,425.018097 350.852173,431.277405 349.161774,437.543823   C348.945190,438.346680 348.820740,439.173981 348.619171,439.981354   C347.978546,442.547668 346.477020,444.344025 343.691498,443.845306   C340.435944,443.262482 340.876587,440.723999 341.350830,438.314575   C343.389954,427.955017 346.991333,418.143738 351.526581,408.632202   C368.690155,372.635803 397.942963,350.163025 433.824249,335.214172   C464.172638,322.570374 496.114807,315.983521 528.450439,311.097839   C532.249695,310.523773 534.886353,308.999969 537.149048,306.062897   C545.334961,295.437439 554.662048,285.977844 566.008118,278.675598   C577.235107,271.450043 589.537537,267.703400 602.894958,268.044495   C608.763794,268.194397 614.681458,269.194733 618.620361,274.292267   C622.406250,279.191895 621.841797,285.970245 617.406494,291.940094   C611.943298,299.293518 604.043762,302.815582 595.594910,305.162415   C582.911560,308.685425 570.028992,311.501465 556.967346,313.043701   C550.722229,313.781097 547.398865,316.671753 544.638977,322.062225   C532.908569,344.973511 523.990479,368.968781 516.162415,393.417480   C513.593445,401.440918 510.994965,409.454895 508.090759,418.463348   C514.327393,416.623810 519.548340,415.131073 524.740601,413.544617   C556.181091,403.937988 588.141113,396.750397 620.842285,393.112366   C644.600769,390.469177 668.320984,391.167358 690.988464,399.056091   C738.919128,415.736938 760.272644,464.225983 741.465271,511.510284   C731.519653,536.514832 713.487671,554.611389 691.980042,569.573059   C670.658203,584.405396 647.126221,594.256775 621.386169,598.527039   C621.126221,598.570190 620.913391,598.897644 620.378540,599.341125   C650.902893,606.608826 665.437683,629.456055 676.000793,655.982483   C681.234863,669.126465 685.476135,682.676636 692.260193,695.168762   C695.510742,701.154236 699.802002,706.122375 706.370544,708.722656   C717.207947,713.013000 726.272522,709.130066 734.542542,702.408325   C740.146973,697.853210 743.269165,691.578613 745.313660,684.744873   C745.695190,683.469543 746.037720,682.175415 746.528076,680.941589   C747.353088,678.865723 748.800781,677.518494 751.159912,678.257751   C753.378296,678.953064 753.493347,680.905212 753.163330,682.800964   C752.233276,688.144226 749.992371,693.011719 746.998352,697.440918   C736.349426,713.194519 721.120056,720.106934 702.473328,718.907166   C691.018127,718.170044 683.540771,710.722839 677.861084,701.308289   C671.347534,690.511658 667.833374,678.480469 663.619568,666.738220   C659.225708,654.494324 654.610107,642.351257 647.257507,631.487976   C639.661133,620.264587 629.800842,611.876953 616.780701,607.566528   C609.687561,605.218323 609.053406,605.540771 608.303345,612.843689   C606.532532,630.084473 603.974731,647.213562 600.136353,664.097900   C594.038452,690.921448 585.331421,716.856140 568.163147,738.832214   C545.994080,767.209534 516.954468,782.276855 480.394135,781.096619   C453.135315,780.216614 430.169373,762.805786 419.738190,735.576355   C406.483307,700.975769 410.897003,667.971069 428.527313,636.115906   C429.331726,634.662476 430.093018,633.185181 431.232452,631.187256   C432.042877,630.169250 432.543610,629.719421 432.940704,629.191650   C452.601410,603.059448 478.171936,589.230408 511.478149,590.633972   C530.395447,591.431213 548.252441,603.247437 554.502258,621.153015   C567.033997,657.056030 558.290588,689.624390 537.728088,719.971191   C533.004089,726.942932 526.455566,732.178528 518.969421,736.134033   C516.796814,737.281982 514.667969,737.398315 513.370972,734.979004   C512.146851,732.695618 514.218567,731.771790 515.627991,730.672302   C518.907837,728.113647 522.664001,725.983765 525.399048,722.936890   C550.602783,694.858948 558.588318,662.322998 548.329834,626.083801   C544.219604,611.563782 533.492188,601.529663 518.403564,598.770508   C489.013489,593.396118 463.632965,603.309570 446.414001,630.250854   C430.808380,654.667786 426.444153,681.482178 429.461456,709.752014   C431.184357,725.894592 436.275269,741.043945 446.477722,753.956543   C456.616821,766.788879 469.636780,774.355591 486.490540,773.925415   C516.288574,773.164795 538.499207,759.249207 554.054932,734.329407   C567.179382,713.304382 573.238525,689.659668 577.382019,665.642456   C583.696167,629.043518 585.873779,591.953613 588.870361,554.975525   C590.523926,534.570496 591.970459,514.146423 594.842285,493.857025   C597.080811,478.042725 599.219238,462.222473 603.032776,446.676422   C604.959290,438.822754 610.463135,435.591492 617.785095,434.620911   C623.749329,433.830353 625.762024,436.107849 624.573364,442.061768   C620.295044,463.490967 617.947876,485.195099 616.448792,506.937225   C614.571289,534.168091 613.090698,561.428955 610.818054,588.632812   C610.515442,592.254822 611.770081,593.060425 614.993896,592.666748   C627.830933,591.098999 640.245850,587.722290 651.873779,582.256714   C681.693970,568.240051 705.847107,547.553650 723.022644,519.218872   C731.328918,505.515808 737.284729,490.742218 737.686890,474.568298   C738.451599,443.803406 719.204041,412.721954 680.782593,403.224030   C657.676941,397.512268 634.402405,398.527069 611.255127,401.585571   C576.846191,406.132111 543.327087,414.826874 510.314819,425.526764   C506.400421,426.795502 504.766602,429.047577 503.683563,432.662109   C495.559265,459.776550 487.136078,486.802490 479.154602,513.958435   C470.359497,543.882690 460.596436,573.425415 446.541565,601.364319   C441.532806,611.320984 436.161835,621.095337 430.956207,630.952942  M282.606537,673.844727   C295.634857,695.355896 327.899261,700.273621 348.809753,692.365479   C370.267426,684.250427 385.570648,668.686523 398.154694,650.206848   C420.713898,617.078796 434.820282,580.088623 446.585876,542.114685   C457.125916,508.096344 465.809845,473.517517 477.347504,439.795410   C477.852051,438.320709 478.973938,436.834625 478.155518,435.081024   C476.676544,434.576935 475.541168,435.463684 474.335388,435.875702   C431.803436,450.409546 392.486145,471.029388 356.034180,497.365326   C331.678406,514.962036 310.783966,535.542480 295.920746,561.857056   C281.234344,587.858704 271.951752,615.305481 274.189270,645.668152   C274.903839,655.365112 277.219818,664.714233 282.606537,673.844727  M606.970337,292.489838   C607.842957,291.717468 608.801758,291.022095 609.572510,290.158783   C612.174744,287.244171 614.773254,284.053619 613.154724,279.922943   C611.594666,275.941437 607.556152,275.654114 603.896851,275.164917   C603.239868,275.077087 602.565857,275.119781 601.900024,275.094238   C587.812378,274.553741 577.053894,281.485596 567.467712,290.732758   C562.869446,295.168396 558.683350,300.040833 554.734497,306.935913   C561.837830,305.724579 567.658691,304.851624 573.429443,303.722504   C584.855103,301.487030 596.426208,299.638031 606.970337,292.489838  z"/>
</svg>