<svg xmlns="http://www.w3.org/2000/svg" xmlns:xlink="http://www.w3.org/1999/xlink" width="1080" zoomAndPan="magnify" viewBox="0 0 810 1439.999935" height="1920" preserveAspectRatio="xMidYMid meet" version="1.0"><defs><clipPath id="c1a3dec239"><path d="M 185 526.621094 L 625.199219 526.621094 L 625.199219 732 L 185 732 Z M 185 526.621094 " clip-rule="nonzero"/></clipPath></defs><g clip-path="url(#c1a3dec239)"><path fill="#000000" d="M 625.035156 623.851562 C 625.035156 629.863281 625.039062 634.507812 625.03125 639.152344 C 625.027344 642.738281 623.875 645.832031 621.425781 648.546875 C 619.234375 650.980469 617.375 653.703125 615.222656 656.191406 C 608.890625 663.5 601.21875 669.085938 592.808594 673.707031 C 580.277344 680.582031 566.835938 685.050781 552.980469 688.304688 C 540.886719 691.148438 528.707031 693.601562 516.40625 695.375 C 511.496094 696.085938 506.546875 696.582031 501.601562 697.003906 C 488.820312 698.089844 476.019531 698.722656 463.1875 698.585938 C 454.84375 698.496094 446.542969 697.863281 438.234375 697.226562 C 431.921875 696.742188 425.585938 696.410156 419.367188 695.199219 C 415.203125 694.386719 411.089844 693.300781 406.984375 692.222656 C 405.695312 691.886719 404.730469 692.0625 403.644531 692.835938 C 391.230469 701.695312 377.699219 708.386719 363.332031 713.449219 C 358.949219 714.996094 354.628906 716.714844 350.253906 718.285156 C 333.96875 724.128906 317.160156 727.828125 300.039062 730.089844 C 292.738281 731.050781 285.375 731.835938 277.996094 731.542969 C 267.277344 731.117188 256.535156 730.933594 245.941406 728.851562 C 232.457031 726.199219 219.738281 721.523438 207.65625 715.011719 C 203.800781 712.9375 201.148438 709.910156 199.488281 705.925781 C 196.515625 698.800781 194.726562 691.316406 192.902344 683.855469 C 190.5625 674.292969 188.203125 664.734375 186.132812 655.109375 C 185.074219 650.183594 184.992188 645.101562 185.425781 640.0625 C 185.707031 636.792969 186.1875 633.546875 186.921875 630.339844 C 188.964844 621.40625 193.027344 613.367188 197.699219 605.566406 C 204.207031 594.695312 212.988281 585.855469 222.527344 577.710938 C 232.300781 569.363281 242.875 562.132812 254.101562 555.871094 C 259.921875 552.621094 266.0625 550.050781 272.226562 547.566406 C 278.617188 544.992188 285.144531 542.761719 291.574219 540.285156 C 298.246094 537.714844 305.058594 535.667969 312.066406 534.238281 C 321.167969 532.378906 330.125 529.816406 339.351562 528.554688 C 343.878906 527.9375 348.40625 527.34375 352.984375 527.320312 C 357.628906 527.300781 362.261719 527.117188 366.914062 527.210938 C 378.621094 527.445312 390.039062 529.203125 401.195312 532.714844 C 403.488281 533.4375 405.792969 534.132812 408.054688 534.941406 C 409.164062 535.339844 410.1875 535.351562 411.328125 535.089844 C 417.5 533.679688 423.660156 532.210938 429.867188 530.996094 C 436.949219 529.609375 444.132812 528.9375 451.316406 528.304688 C 456.742188 527.824219 462.175781 527.441406 467.609375 527.0625 C 469.6875 526.917969 471.773438 526.84375 473.855469 526.835938 C 479.867188 526.8125 485.878906 526.835938 491.890625 526.847656 C 512.675781 526.878906 533.148438 529.410156 553.175781 534.980469 C 567.179688 538.875 580.695312 544.070312 593.417969 551.242188 C 601.640625 555.875 607.976562 562.441406 613.503906 569.882812 C 616.367188 573.742188 618.914062 577.808594 620.796875 582.277344 C 623.097656 587.734375 624.3125 593.417969 624.457031 599.304688 C 624.667969 607.941406 625.273438 616.574219 625.035156 623.855469 Z M 278.703125 729.457031 C 280.546875 729.457031 282.394531 729.550781 284.230469 729.441406 C 293.515625 728.875 302.742188 727.851562 311.898438 726.183594 C 324.914062 723.808594 337.789062 720.910156 350.371094 716.730469 C 359.445312 713.714844 368.136719 709.816406 376.824219 705.914062 C 392.757812 698.75 407.003906 689.0625 419.617188 676.976562 C 424.367188 672.425781 428.726562 667.515625 433.027344 662.554688 C 439.695312 654.859375 446.191406 647.050781 450.914062 637.9375 C 454.347656 631.3125 457.453125 624.558594 459.769531 617.460938 C 460.730469 614.519531 461.121094 611.523438 459.894531 608.539062 C 455.664062 598.242188 452.203125 587.664062 448.253906 577.261719 C 445.433594 569.828125 442.242188 562.605469 438.269531 555.722656 C 436.851562 553.257812 435.015625 551.171875 432.65625 549.558594 C 428.820312 546.929688 424.960938 544.34375 420.800781 542.246094 C 403.28125 533.402344 384.761719 528.636719 365.074219 528.539062 C 360.980469 528.519531 356.902344 528.757812 352.824219 528.953125 C 347.378906 529.210938 341.964844 529.832031 336.597656 530.78125 C 328.308594 532.242188 320.175781 534.445312 311.921875 536.054688 C 304.183594 537.5625 296.699219 539.863281 289.378906 542.769531 C 285.136719 544.449219 280.851562 546.03125 276.574219 547.628906 C 268.835938 550.523438 261.304688 553.902344 254.066406 557.867188 C 246.464844 562.03125 239.300781 566.902344 232.386719 572.109375 C 219.175781 582.054688 207.3125 593.289062 198.574219 607.511719 C 195.292969 612.851562 192.40625 618.394531 190.222656 624.25 C 187.242188 632.246094 186.507812 640.601562 186.945312 649.070312 C 187.054688 651.144531 187.125 653.269531 187.640625 655.257812 C 190.125 664.867188 192.347656 674.539062 194.75 684.167969 C 196.335938 690.535156 197.847656 696.917969 199.941406 703.152344 C 201.507812 707.808594 204.257812 711.3125 208.597656 713.570312 C 211.015625 714.824219 213.433594 716.082031 215.886719 717.265625 C 225.226562 721.78125 234.851562 725.253906 245.195312 726.910156 C 256.320312 728.691406 267.503906 729.089844 278.703125 729.457031 Z M 412.539062 536.292969 C 415.171875 537.886719 417.617188 538.871094 420.449219 537.722656 C 420.886719 537.546875 421.382812 537.515625 421.855469 537.417969 C 432.308594 535.300781 442.867188 533.972656 453.484375 532.96875 C 464.417969 531.929688 475.363281 531.171875 486.347656 531.300781 C 491.390625 531.359375 496.429688 531.695312 501.464844 532.058594 C 510.105469 532.683594 518.691406 533.679688 527.195312 535.324219 C 540.511719 537.894531 553.605469 541.394531 566.445312 545.6875 C 579.207031 549.957031 591.214844 555.804688 601.183594 565.160156 C 606.054688 569.734375 609.796875 575.0625 611.773438 581.492188 C 613.109375 585.839844 613.746094 590.304688 612.203125 594.714844 C 610.679688 599.050781 608.445312 603.003906 604.984375 606.179688 C 598.683594 611.957031 591.828125 616.910156 584.003906 620.433594 C 571.101562 626.242188 557.769531 630.757812 543.929688 633.738281 C 534.042969 635.867188 524.046875 637.167969 513.988281 638.140625 C 503.457031 639.160156 492.914062 639.875 482.332031 639.953125 C 478.5625 639.984375 474.785156 639.8125 471.035156 640.070312 C 467.574219 640.304688 464.152344 640.03125 460.714844 639.929688 C 458.714844 639.871094 456.742188 639.484375 454.730469 639.425781 C 452.871094 639.371094 451.777344 640.070312 450.941406 641.695312 C 448.664062 646.125 445.761719 650.152344 442.707031 654.078125 C 438.527344 659.457031 433.976562 664.519531 429.496094 669.640625 C 425.320312 674.40625 420.867188 678.894531 416.050781 683.015625 C 413.679688 685.046875 411.210938 686.960938 408.792969 688.9375 C 408.425781 689.238281 407.929688 689.519531 407.976562 690.050781 C 408.03125 690.667969 408.636719 690.652344 409.082031 690.753906 C 412.519531 691.53125 415.933594 692.441406 419.402344 693.039062 C 426.117188 694.199219 432.921875 694.601562 439.710938 695.101562 C 450.101562 695.863281 460.492188 696.605469 470.917969 696.386719 C 481.25 696.171875 491.578125 695.78125 501.875 694.886719 C 506.820312 694.457031 511.761719 693.929688 516.679688 693.253906 C 525.175781 692.09375 533.589844 690.453125 541.984375 688.722656 C 552.980469 686.453125 563.890625 683.898438 574.464844 680.050781 C 584.375 676.441406 593.8125 671.941406 602.371094 665.710938 C 608.703125 661.101562 614 655.46875 619.03125 649.503906 C 621.980469 646.007812 623.445312 642.175781 623.417969 637.675781 C 623.398438 634.554688 623.476562 631.429688 623.429688 628.308594 C 623.292969 618.949219 622.980469 609.585938 622.988281 600.226562 C 622.996094 591.199219 620.316406 583.085938 615.511719 575.550781 C 612.175781 570.320312 608.304688 565.550781 603.777344 561.3125 C 602.148438 559.792969 600.996094 557.839844 599.046875 556.585938 C 593.917969 553.289062 588.789062 549.988281 583.179688 547.578125 C 575.378906 544.222656 567.546875 540.96875 559.375 538.539062 C 544.429688 534.101562 529.214844 530.957031 513.699219 529.605469 C 505.09375 528.855469 496.441406 528.367188 487.773438 528.503906 C 483.769531 528.566406 479.761719 528.429688 475.753906 528.40625 C 474.472656 528.398438 473.1875 528.417969 471.914062 528.519531 C 464.167969 529.128906 456.421875 529.707031 448.683594 530.410156 C 440.308594 531.171875 431.941406 532.058594 423.703125 533.835938 C 420.054688 534.621094 416.414062 535.4375 412.539062 536.289062 Z M 420.128906 539.226562 C 420.230469 539.875 420.527344 540.019531 420.804688 540.152344 C 424.8125 542.039062 428.390625 544.613281 432.054688 547.058594 C 435.804688 549.558594 438.59375 552.882812 440.804688 556.777344 C 444.492188 563.273438 447.46875 570.074219 449.921875 577.121094 C 451.054688 580.371094 452.359375 583.554688 453.550781 586.785156 C 453.945312 587.863281 454.546875 588.195312 455.738281 588.023438 C 464.640625 586.753906 473.605469 586.503906 482.578125 586.5625 C 485.539062 586.582031 488.5 586.808594 491.460938 586.894531 C 499.875 587.132812 508.265625 587.679688 516.585938 588.949219 C 534.660156 591.714844 552.53125 595.382812 569.976562 600.953125 C 577.960938 603.503906 585.636719 606.675781 592.472656 611.574219 C 594.089844 612.730469 594.339844 612.484375 595.570312 611.59375 C 599.21875 608.953125 602.5625 605.976562 605.582031 602.640625 C 607.8125 600.171875 609.617188 597.398438 610.265625 594.109375 C 611.351562 588.605469 610.550781 583.273438 608.214844 578.191406 C 605.039062 571.285156 600.519531 565.628906 593.914062 561.519531 C 586.472656 556.890625 578.910156 552.5625 570.621094 549.683594 C 556.910156 544.925781 542.902344 541.183594 528.714844 538.144531 C 518.042969 535.859375 507.210938 534.769531 496.324219 534.085938 C 485.109375 533.382812 473.902344 533.628906 462.710938 534.425781 C 454.804688 534.992188 446.925781 535.875 439.035156 536.660156 C 432.746094 537.289062 426.496094 538.234375 420.128906 539.226562 Z M 591.898438 613.855469 C 586.222656 609.355469 580 606.613281 573.511719 604.507812 C 559.019531 599.804688 544.304688 595.921875 529.332031 593.058594 C 521.777344 591.613281 514.195312 590.261719 506.53125 589.601562 C 495.03125 588.609375 483.5 588.257812 471.953125 588.496094 C 466.746094 588.605469 461.546875 588.851562 456.375 589.503906 C 454.855469 589.695312 454.710938 589.910156 455.222656 591.363281 C 457.105469 596.722656 458.648438 602.207031 460.988281 607.398438 C 462.011719 609.667969 462.28125 611.988281 462.042969 614.417969 C 461.71875 617.726562 460.601562 620.8125 459.339844 623.847656 C 457.65625 627.914062 455.960938 631.976562 454.023438 635.933594 C 453.261719 637.488281 453.453125 637.765625 455.054688 637.898438 C 458.808594 638.210938 462.566406 638.394531 466.335938 638.265625 C 470.179688 638.132812 474.023438 637.945312 477.867188 637.929688 C 490.453125 637.890625 502.996094 637.226562 515.53125 636.023438 C 529.363281 634.691406 543.003906 632.398438 556.382812 628.652344 C 567.285156 625.597656 577.855469 621.648438 587.9375 616.457031 C 589.269531 615.769531 590.636719 615.105469 591.898438 613.859375 Z M 591.898438 613.855469 " fill-opacity="1" fill-rule="nonzero"/></g><path fill="#000000" d="M 255.109375 686.25 C 256.371094 685.34375 257.5 685.4375 258.597656 685.4375 C 263.007812 685.425781 267.417969 685.5 271.824219 685.421875 C 294.539062 685.015625 316.3125 680.21875 337.203125 671.351562 C 339.933594 670.195312 342.671875 669.054688 345.386719 667.867188 C 346.695312 667.292969 347.960938 666.621094 349.3125 665.960938 C 348.984375 664.96875 348.171875 664.921875 347.558594 664.683594 C 342.597656 662.746094 338.890625 659.324219 335.933594 654.984375 C 335.234375 653.960938 334.902344 652.890625 334.816406 651.640625 C 334.425781 645.894531 333.914062 640.15625 333.523438 634.410156 C 333.359375 632.015625 333.371094 629.609375 333.320312 627.210938 C 333.210938 621.851562 333.378906 616.492188 333.027344 611.128906 C 332.632812 605.128906 333.304688 599.128906 333.558594 593.140625 C 333.753906 588.609375 335.800781 584.503906 338.246094 580.675781 C 338.710938 579.945312 339.371094 579.324219 339.59375 578.390625 C 339.054688 577.753906 338.425781 578.140625 337.863281 578.273438 C 326.230469 581.023438 314.792969 584.429688 303.589844 588.605469 C 290.199219 593.597656 277.273438 599.589844 264.960938 606.867188 C 255.339844 612.550781 246.199219 618.878906 238.40625 626.96875 C 232.042969 633.578125 226.773438 641.015625 221.820312 648.707031 C 218.0625 654.539062 215.066406 660.695312 213.261719 667.40625 C 213.101562 667.996094 213.046875 668.691406 212.308594 669.085938 C 211.359375 668.359375 211.695312 667.355469 211.839844 666.472656 C 212.546875 662.09375 213.816406 657.851562 216.019531 654.007812 C 222.855469 642.078125 230.691406 630.894531 240.894531 621.519531 C 248.375 614.644531 256.785156 609.097656 265.566406 604.070312 C 286.703125 591.972656 309.171875 583.175781 332.722656 577.070312 C 340.890625 574.953125 349.222656 573.917969 357.640625 573.355469 C 365.09375 572.859375 372.542969 572.828125 379.988281 572.988281 C 392.460938 573.257812 404.730469 575.019531 416.734375 578.46875 C 421.539062 579.847656 426.035156 581.941406 430.3125 584.511719 C 430.65625 584.714844 430.988281 584.9375 431.320312 585.160156 C 432.1875 585.746094 432.679688 585.429688 432.820312 584.488281 C 432.949219 583.617188 432.980469 582.734375 433.082031 581.859375 C 433.128906 581.472656 433.1875 581.058594 433.78125 580.796875 C 434.703125 581.769531 434.484375 582.960938 434.339844 584.097656 C 433.480469 590.851562 431.328125 597.195312 428.03125 603.128906 C 421.824219 614.292969 413.84375 624.023438 404.269531 632.492188 C 398.027344 638.019531 391.703125 643.40625 384.859375 648.199219 C 377.007812 653.699219 368.566406 658.082031 359.941406 662.171875 C 356.105469 663.992188 352.261719 665.792969 348.46875 667.691406 C 332.824219 675.527344 316.398438 681.097656 299.226562 684.394531 C 291.515625 685.875 283.722656 686.753906 275.855469 687.136719 C 270.390625 687.40625 264.96875 687.289062 259.527344 687.003906 C 258.117188 686.929688 256.734375 686.777344 255.109375 686.246094 Z M 371.070312 575.066406 C 367.59375 575.042969 361.128906 575.554688 354.65625 575.886719 C 352.253906 576.011719 350.960938 577.011719 350.121094 579.007812 C 349.839844 579.667969 349.589844 580.347656 349.402344 581.039062 C 348.121094 585.746094 348.375 590.363281 350.203125 594.902344 C 353.472656 603.015625 359.339844 608.875 366.414062 613.707031 C 367.351562 614.347656 368.117188 614.195312 369.042969 613.609375 C 383 604.785156 397.878906 597.984375 413.726562 593.304688 C 418.945312 591.761719 424.117188 590.046875 429.539062 589.300781 C 430.363281 589.1875 431.511719 589.496094 431.738281 588.335938 C 431.957031 587.21875 430.800781 586.992188 430.105469 586.53125 C 423.796875 582.339844 416.714844 580.089844 409.394531 578.519531 C 397.761719 576.019531 385.96875 575.085938 371.070312 575.070312 Z M 335.140625 597.792969 C 335.042969 602.753906 334.757812 607.695312 334.78125 612.660156 C 334.84375 625.46875 335.269531 638.257812 335.976562 651.042969 C 336.023438 651.851562 336.0625 652.632812 336.558594 653.328125 C 340.089844 658.285156 344.675781 661.90625 350.316406 664.199219 C 351.347656 664.617188 352.320312 664.5625 353.296875 663.972656 C 357.214844 661.609375 361.53125 660.054688 365.554688 657.890625 C 374.398438 653.136719 382.847656 647.789062 390.839844 641.722656 C 391.410156 641.289062 392.25 641.015625 392.398438 640.007812 C 391.867188 639.941406 391.476562 639.882812 391.082031 639.84375 C 385.734375 639.320312 380.417969 638.605469 375.277344 636.941406 C 366.21875 634.011719 358.191406 629.28125 351.140625 622.917969 C 343.503906 616.03125 337.421875 608.140625 335.140625 597.792969 Z M 406.546875 628.089844 C 406.449219 627.921875 406.355469 627.757812 406.257812 627.589844 C 402.089844 627.4375 397.992188 626.738281 393.902344 626.023438 C 380.960938 623.769531 369.089844 619.164062 359.144531 610.289062 C 354.273438 605.945312 350.503906 600.835938 348.285156 594.695312 C 346.175781 588.867188 346.359375 583.085938 349.269531 577.5 C 349.363281 577.320312 349.28125 577.050781 349.28125 576.707031 C 347.734375 576.289062 346.273438 576.976562 344.785156 577.023438 C 343.402344 577.070312 342.386719 577.769531 341.515625 578.792969 C 337.59375 583.382812 336.320312 588.855469 336.675781 594.664062 C 336.914062 598.585938 338.261719 602.324219 340.03125 605.867188 C 343.230469 612.265625 347.75 617.601562 353.128906 622.261719 C 361.128906 629.183594 370.15625 634.148438 380.488281 636.667969 C 384.78125 637.710938 389.167969 638.09375 393.535156 638.65625 C 394.519531 638.785156 395.207031 638.296875 395.886719 637.699219 C 398.40625 635.476562 400.949219 633.277344 403.457031 631.039062 C 404.519531 630.09375 405.519531 629.074219 406.546875 628.089844 Z M 407.019531 626.097656 C 408.164062 626.359375 408.878906 625.742188 409.585938 625.046875 C 412.15625 622.507812 414.496094 619.769531 416.695312 616.914062 C 422.179688 609.789062 427.230469 602.402344 430.230469 593.820312 C 430.507812 593.019531 431.234375 592.117188 430.617188 591.34375 C 429.972656 590.539062 428.964844 591.09375 428.136719 591.285156 C 417.1875 593.8125 406.519531 597.226562 396.101562 601.417969 C 387.3125 604.953125 378.980469 609.410156 370.753906 614.074219 C 368.941406 615.101562 368.960938 615.464844 370.847656 616.578125 C 372.503906 617.558594 374.234375 618.390625 376.019531 619.125 C 385.972656 623.21875 396.410156 625.148438 407.019531 626.097656 Z M 407.019531 626.097656 " fill-opacity="1" fill-rule="nonzero"/><path fill="#000000" d="M 443.621094 577.417969 C 444.671875 578.785156 444.550781 579.902344 444.445312 581 C 443.753906 588.3125 441.707031 595.265625 439.019531 602.070312 C 435.230469 611.664062 429.417969 619.917969 422.59375 627.5625 C 413.074219 638.226562 402.632812 647.878906 391.191406 656.453125 C 386.246094 660.15625 380.996094 663.386719 375.59375 666.363281 C 374.972656 666.707031 374.367188 667.136719 373.480469 667.03125 C 373.242188 666.351562 373.773438 666.019531 374.191406 665.742188 C 375.589844 664.8125 377.003906 663.902344 378.449219 663.042969 C 393.804688 653.921875 407.023438 642.257812 419.042969 629.152344 C 423.160156 624.660156 427.144531 620.070312 430.503906 614.976562 C 436.992188 605.140625 441.0625 594.375 442.902344 582.75 C 443.160156 581.132812 442.820312 579.429688 443.621094 577.414062 Z M 443.621094 577.417969 " fill-opacity="1" fill-rule="nonzero"/><path fill="#000000" d="M 283.796875 694.75 C 285.109375 693.792969 286.320312 693.742188 287.476562 693.535156 C 296.535156 691.90625 305.699219 690.898438 314.691406 688.878906 C 330.8125 685.265625 346.03125 679.21875 360.738281 671.796875 C 361.800781 671.261719 362.785156 670.542969 364.140625 670.273438 C 364.207031 671.042969 363.609375 671.238281 363.207031 671.507812 C 359.808594 673.800781 356.089844 675.511719 352.410156 677.269531 C 340.453125 682.984375 328.085938 687.582031 315.148438 690.546875 C 305.929688 692.660156 296.550781 693.832031 287.1875 695.105469 C 286.183594 695.238281 285.132812 695.378906 283.796875 694.75 Z M 283.796875 694.75 " fill-opacity="1" fill-rule="nonzero"/><path fill="#000000" d="M 270.628906 696.042969 C 269.695312 697.066406 268.574219 697.128906 267.507812 696.980469 C 263.53125 696.433594 259.515625 696.757812 255.527344 696.269531 C 247.882812 695.335938 240.324219 693.992188 232.945312 691.8125 C 226.035156 689.769531 219.226562 687.386719 212.648438 684.425781 C 205.917969 681.398438 199.828125 677.476562 195.40625 671.417969 C 193.902344 669.355469 192.664062 667.097656 191.332031 664.917969 C 191.050781 664.457031 190.691406 663.972656 190.984375 663.359375 C 191.621094 662.984375 191.84375 663.558594 192.089844 663.902344 C 192.691406 664.746094 193.296875 665.601562 193.796875 666.511719 C 197.921875 673.964844 204.304688 678.886719 211.847656 682.445312 C 218.65625 685.664062 225.644531 688.503906 232.882812 690.582031 C 242.507812 693.347656 252.289062 695.402344 262.382812 695.542969 C 265.132812 695.582031 267.882812 695.867188 270.632812 696.042969 Z M 270.628906 696.042969 " fill-opacity="1" fill-rule="nonzero"/><path fill="#000000" d="M 270.441406 556.957031 C 277.613281 550.003906 324.398438 534.582031 332.917969 536.429688 C 332.023438 537.421875 330.886719 537.464844 329.851562 537.652344 C 323.78125 538.746094 317.777344 540.105469 311.835938 541.742188 C 299.613281 545.109375 287.816406 549.609375 276.355469 555.007812 C 274.980469 555.65625 273.597656 556.285156 272.199219 556.878906 C 271.710938 557.085938 271.199219 557.445312 270.441406 556.957031 Z M 270.441406 556.957031 " fill-opacity="1" fill-rule="nonzero"/><path fill="#000000" d="M 255.238281 565.164062 C 254.585938 566.390625 253.707031 566.957031 252.871094 567.542969 C 245.46875 572.75 238.082031 577.980469 231.050781 583.683594 C 222.261719 590.820312 214.203125 598.703125 207.171875 607.59375 C 206.378906 608.597656 205.695312 609.6875 204.941406 610.71875 C 204.675781 611.078125 204.488281 611.605469 203.726562 611.386719 C 203.59375 610.453125 204.230469 609.789062 204.667969 609.082031 C 206.617188 605.9375 209.125 603.226562 211.550781 600.457031 C 219.808594 591.019531 229.136719 582.746094 239.269531 575.367188 C 243.480469 572.304688 247.726562 569.292969 252.101562 566.472656 C 252.957031 565.921875 253.746094 565.191406 255.238281 565.164062 Z M 255.238281 565.164062 " fill-opacity="1" fill-rule="nonzero"/><path fill="#000000" d="M 434.183594 572.492188 C 433.410156 571.878906 433.460938 570.957031 433.363281 570.128906 C 432.710938 564.644531 430.742188 559.765625 426.8125 555.769531 C 424.445312 553.367188 421.871094 551.214844 419.101562 549.289062 C 414.667969 546.199219 409.808594 543.949219 404.785156 542.007812 C 403.089844 541.355469 401.273438 540.925781 399.539062 539.640625 C 400.714844 538.925781 401.675781 539.382812 402.585938 539.640625 C 409.035156 541.46875 415.078125 544.1875 420.542969 548.089844 C 424.875 551.179688 428.773438 554.695312 431.601562 559.292969 C 433.859375 562.964844 434.59375 567.007812 434.800781 571.207031 C 434.816406 571.511719 434.703125 571.835938 434.597656 572.132812 C 434.554688 572.257812 434.375 572.332031 434.183594 572.492188 Z M 434.183594 572.492188 " fill-opacity="1" fill-rule="nonzero"/><path fill="#000000" d="M 207.605469 671.210938 C 206.636719 671.292969 206.1875 670.78125 205.691406 670.402344 C 198.675781 665.015625 194.65625 657.910156 193.480469 649.164062 C 192.460938 641.621094 192.796875 634.179688 195.011719 626.867188 C 195.394531 625.605469 195.582031 624.230469 196.699219 623.289062 C 197.550781 623.738281 197.125 624.3125 197.011719 624.785156 C 196.484375 626.957031 195.917969 629.121094 195.382812 631.292969 C 193.710938 638.09375 193.992188 644.945312 195.246094 651.734375 C 196.554688 658.84375 200.269531 664.613281 205.925781 669.136719 C 206.574219 669.65625 207.472656 670.019531 207.605469 671.207031 Z M 207.605469 671.210938 " fill-opacity="1" fill-rule="nonzero"/><path fill="#000000" d="M 383.410156 537.234375 C 372.566406 535.886719 361.894531 534.789062 351.09375 535.140625 C 351.957031 534.273438 353.003906 534.179688 354.042969 534.109375 C 361.648438 533.589844 369.207031 534.089844 376.730469 535.207031 C 378.390625 535.457031 380.046875 535.714844 381.699219 536.003906 C 382.292969 536.109375 382.996094 536.097656 383.410156 537.234375 Z M 383.410156 537.234375 " fill-opacity="1" fill-rule="nonzero"/><path fill="#000000" d="M 245.339844 684.515625 C 240.558594 685.769531 222.183594 680.1875 218.570312 676.53125 C 219.867188 676.234375 220.824219 676.902344 221.757812 677.339844 C 227.734375 680.117188 234.0625 681.757812 240.453125 683.203125 C 241.964844 683.542969 243.601562 683.421875 245.34375 684.515625 Z M 245.339844 684.515625 " fill-opacity="1" fill-rule="nonzero"/></svg>