<svg xmlns="http://www.w3.org/2000/svg" xmlns:xlink="http://www.w3.org/1999/xlink" width="1080" zoomAndPan="magnify" viewBox="0 0 810 1439.999935" height="1920" preserveAspectRatio="xMidYMid meet" version="1.0"><defs><clipPath id="c595477ffa"><path d="M 200 586.199219 L 596 586.199219 L 596 1021.949219 L 200 1021.949219 Z M 200 586.199219 " clip-rule="nonzero"/></clipPath></defs><g clip-path="url(#c595477ffa)"><path fill="#000000" d="M 318.144531 755.074219 C 316.441406 755.074219 316.441406 752.378906 318.144531 752.378906 C 319.851562 752.378906 319.851562 755.074219 318.144531 755.074219 Z M 319.3125 769.535156 C 317.609375 769.535156 317.609375 772.230469 319.3125 772.230469 C 321.019531 772.230469 321.019531 769.535156 319.3125 769.535156 Z M 345.695312 758.484375 C 343.992188 758.484375 343.992188 761.179688 345.695312 761.179688 C 347.402344 761.179688 347.402344 758.484375 345.695312 758.484375 Z M 347.492188 661.023438 C 351.441406 663.539062 355.65625 665.515625 359.964844 667.132812 C 361.582031 667.761719 362.296875 665.15625 360.683594 664.527344 C 352.695312 661.382812 345.515625 657.070312 339.503906 650.875 C 338.339844 649.617188 336.363281 651.503906 337.621094 652.757812 C 340.582031 655.902344 343.902344 658.6875 347.492188 660.933594 Z M 364.183594 641.890625 C 370.554688 643.867188 376.925781 646.113281 382.9375 648.898438 C 387.875 651.234375 392.898438 653.835938 397.027344 657.519531 C 398.285156 658.6875 400.257812 656.800781 398.914062 655.632812 C 394.605469 651.863281 389.488281 648.988281 384.285156 646.652344 C 378.003906 643.777344 371.453125 641.441406 364.8125 639.375 C 363.195312 638.835938 362.476562 641.441406 364.09375 641.980469 Z M 492.691406 771.601562 C 494.394531 771.601562 494.394531 768.90625 492.691406 768.90625 C 490.984375 768.90625 490.984375 771.601562 492.691406 771.601562 Z M 474.023438 803.847656 C 475.730469 803.847656 475.730469 801.152344 474.023438 801.152344 C 472.320312 801.152344 472.320312 803.847656 474.023438 803.847656 Z M 490.269531 788.578125 C 491.972656 788.578125 491.972656 785.882812 490.269531 785.882812 C 488.5625 785.882812 488.5625 788.578125 490.269531 788.578125 Z M 464.78125 775.644531 C 466.488281 775.644531 466.488281 772.949219 464.78125 772.949219 C 463.078125 772.949219 463.078125 775.644531 464.78125 775.644531 Z M 489.730469 812.742188 C 488.023438 812.742188 488.023438 815.4375 489.730469 815.4375 C 491.433594 815.4375 491.433594 812.742188 489.730469 812.742188 Z M 455.71875 678 C 448.089844 681.953125 439.746094 683.03125 431.308594 683.390625 C 429.605469 683.390625 429.605469 686.175781 431.308594 686.085938 C 440.28125 685.726562 449.078125 684.558594 457.0625 680.335938 C 458.589844 679.527344 457.242188 677.191406 455.71875 678 Z M 420.628906 668.75 C 425.117188 665.425781 430.230469 663 435.4375 661.023438 C 441.71875 658.6875 448.269531 656.800781 454.820312 655.273438 C 456.527344 654.914062 455.808594 652.3125 454.101562 652.667969 C 447.371094 654.195312 440.730469 656.082031 434.359375 658.507812 C 429.066406 660.484375 423.769531 662.910156 419.285156 666.324219 C 417.9375 667.3125 419.285156 669.738281 420.628906 668.660156 Z M 582.429688 999.761719 C 572.917969 1006.765625 559.367188 1012.785156 544.472656 1016.828125 C 532.535156 1020.0625 521.226562 1021.589844 511.535156 1021.589844 C 495.292969 1021.589844 483.71875 1017.277344 481.5625 1009.28125 C 478.152344 996.707031 497.894531 980.988281 527.601562 972.453125 C 525.625 965.085938 523.5625 957.632812 521.585938 950.265625 C 516.203125 930.503906 510.730469 910.652344 505.253906 890.890625 C 499.691406 870.859375 494.125 850.917969 488.382812 830.886719 C 488.292969 830.527344 488.382812 830.167969 488.472656 829.898438 C 487.128906 829.988281 485.78125 829.988281 484.433594 829.898438 C 473.21875 828.820312 463.527344 820.464844 457.421875 811.484375 C 454.101562 806.542969 451.320312 801.0625 448.628906 795.765625 C 445.9375 790.464844 443.332031 785.074219 440.910156 779.683594 C 436.15625 769.085938 431.847656 758.214844 428.078125 747.167969 C 419.910156 723.722656 413.539062 699.828125 406.898438 675.933594 C 398.914062 698.480469 390.835938 721.027344 380.964844 742.945312 C 376.117188 753.636719 370.824219 764.144531 364.992188 774.386719 C 362.03125 779.59375 358.886719 784.714844 355.65625 789.835938 C 352.425781 794.777344 349.195312 799.535156 344.800781 803.488281 C 337.710938 810.046875 327.839844 815.167969 318.144531 813.640625 C 318.324219 813.910156 318.324219 814.269531 318.144531 814.628906 C 314.109375 825.675781 310.160156 836.726562 306.210938 847.773438 C 299.300781 867.085938 292.390625 886.488281 285.570312 905.800781 C 280.007812 921.523438 274.53125 937.332031 268.96875 953.140625 C 297.953125 963.738281 316.53125 980.808594 312.3125 993.113281 C 310.160156 999.3125 302.261719 1002.90625 290.058594 1003.355469 C 289.25 1003.355469 288.351562 1003.355469 287.457031 1003.355469 C 276.148438 1003.355469 262.597656 1000.839844 249.046875 996.078125 C 217.90625 985.296875 196.816406 967.0625 201.214844 954.578125 C 205.433594 942.363281 230.378906 940.386719 259.636719 949.90625 C 262.238281 942.542969 264.75 935.175781 267.351562 927.808594 C 274.171875 908.136719 281.082031 888.554688 288.082031 868.882812 C 295.082031 849.300781 302.082031 829.71875 309.261719 810.226562 C 301.542969 805.644531 296.070312 797.558594 294.007812 788.847656 C 290.867188 776.003906 293.46875 762.617188 296.25 749.953125 C 299.210938 736.746094 302.890625 723.8125 307.289062 711.058594 C 315.992188 685.457031 326.941406 660.664062 338.339844 636.140625 C 338.339844 636.050781 338.339844 635.960938 338.425781 635.871094 C 338.425781 635.691406 338.605469 635.601562 338.695312 635.421875 C 338.964844 634.972656 339.324219 634.613281 339.683594 634.253906 C 342.195312 632.007812 345.875 631.558594 349.105469 631.558594 C 353.773438 631.558594 358.53125 632.457031 363.015625 633.535156 C 373.964844 636.230469 384.644531 640.453125 394.515625 645.753906 C 396.757812 647.011719 399.003906 648.269531 401.246094 649.707031 C 403.488281 651.144531 405.734375 652.667969 407.527344 654.644531 C 409.679688 656.980469 411.65625 660.125 411.207031 663.449219 C 411.207031 663.898438 411.027344 664.257812 410.9375 664.617188 C 412.015625 663.71875 413.179688 662.910156 414.347656 662.191406 C 418.65625 659.496094 423.320312 657.339844 427.988281 655.363281 C 438.308594 651.054688 449.257812 647.820312 460.382812 646.472656 C 464.691406 645.933594 469.089844 645.664062 473.398438 646.472656 C 476.269531 647.011719 479.5 648.269531 480.933594 650.964844 C 480.933594 650.964844 480.933594 651.144531 480.933594 651.144531 C 480.933594 651.144531 480.933594 651.144531 480.933594 651.234375 C 482.191406 654.375 483.359375 657.609375 484.523438 660.753906 C 494.125 686.265625 503.011719 712.136719 509.203125 738.632812 C 512.253906 751.75 514.855469 765.042969 516.203125 778.425781 C 517.460938 790.554688 517.371094 803.9375 510.820312 814.628906 C 507.675781 819.746094 503.011719 824.238281 497.625 827.023438 C 500.855469 838.164062 504 849.390625 507.140625 860.617188 C 512.792969 880.738281 518.355469 900.863281 523.921875 921.074219 C 528.40625 937.332031 532.804688 953.589844 537.113281 969.847656 C 566.996094 962.484375 591.675781 966.164062 595.085938 978.652344 C 596.789062 984.9375 592.300781 992.394531 582.429688 999.671875 Z M 480.753906 658.238281 C 479.050781 662.460938 474.832031 665.695312 471.152344 668.03125 C 465.230469 671.804688 458.679688 674.585938 452.039062 676.742188 C 444.320312 679.167969 436.335938 680.695312 428.347656 681.144531 C 424.488281 681.324219 420.539062 681.414062 416.679688 681.144531 C 414.886719 680.964844 413 680.695312 411.296875 679.976562 C 412.195312 682.582031 413.269531 685.097656 414.347656 687.613281 C 417.757812 694.078125 422.066406 700.007812 426.820312 705.488281 C 439.476562 719.949219 455.449219 731.449219 472.589844 740.070312 C 476.808594 742.226562 481.203125 744.113281 485.601562 745.820312 C 490.089844 747.527344 494.664062 748.875 499.0625 750.671875 C 502.472656 752.109375 505.703125 753.90625 508.304688 756.507812 C 509.292969 757.40625 510.101562 758.484375 510.910156 759.472656 C 509.023438 748.875 506.691406 738.363281 503.910156 728.035156 C 497.625 704.320312 489.550781 681.234375 480.84375 658.328125 Z M 504.984375 757.226562 C 501.394531 754.175781 496.820312 752.558594 492.421875 751.121094 C 474.203125 745.101562 456.972656 735.667969 441.988281 723.722656 C 434.898438 718.0625 428.078125 711.597656 422.246094 704.410156 C 423.949219 707.464844 425.65625 710.609375 427.898438 713.304688 C 430.230469 716.085938 432.835938 718.78125 435.527344 721.296875 C 442.617188 727.855469 450.511719 733.515625 458.769531 738.453125 C 463.972656 741.597656 469.269531 744.472656 474.652344 747.078125 C 480.488281 749.953125 486.5 752.738281 492.601562 754.804688 C 496.910156 756.242188 501.484375 756.777344 505.792969 758.214844 C 505.882812 758.214844 505.972656 758.214844 506.0625 758.304688 C 505.703125 757.945312 505.253906 757.496094 504.804688 757.136719 Z M 409.054688 671.894531 C 408.335938 674.855469 410.578125 676.921875 413.269531 677.730469 C 416.320312 678.628906 419.730469 678.539062 422.964844 678.539062 C 426.730469 678.539062 430.410156 678.359375 434.179688 677.910156 C 441.539062 677.011719 448.808594 675.214844 455.71875 672.613281 C 461.460938 670.457031 467.203125 667.761719 472.140625 664.078125 C 475.820312 661.382812 480.128906 657.160156 478.421875 652.132812 C 478.152344 651.683594 478.0625 651.503906 477.703125 651.144531 C 476.988281 650.425781 475.820312 649.886719 474.652344 649.527344 C 473.128906 649.078125 471.511719 648.808594 469.898438 648.71875 C 465.679688 648.449219 461.371094 648.898438 457.152344 649.617188 C 446.921875 651.324219 436.78125 654.464844 427.269531 658.597656 C 423.050781 660.394531 418.835938 662.460938 414.976562 664.976562 C 412.464844 666.59375 409.859375 668.929688 409.054688 671.894531 Z M 340.671875 637.128906 C 340.222656 638.207031 340.042969 639.285156 340.132812 640.453125 C 340.402344 642.96875 342.015625 645.214844 343.632812 647.011719 C 345.605469 649.167969 347.941406 651.054688 350.453125 652.667969 C 356.015625 656.441406 362.117188 659.40625 368.402344 661.742188 C 375.222656 664.257812 382.398438 666.054688 389.578125 666.863281 C 393.078125 667.3125 396.667969 667.582031 400.167969 667.492188 C 402.683594 667.492188 405.914062 667.222656 407.617188 665.15625 C 409.589844 662.730469 408.066406 659.496094 406.359375 657.339844 C 404.746094 655.363281 402.59375 653.835938 400.4375 652.402344 C 396.488281 649.707031 392.183594 647.460938 387.875 645.394531 C 378.632812 640.902344 368.761719 637.308594 358.621094 635.242188 C 354.761719 634.433594 350.722656 633.894531 346.773438 634.253906 C 345.515625 634.34375 343.902344 634.703125 342.824219 635.152344 C 341.75 635.691406 341.03125 636.230469 340.582031 637.039062 Z M 300.648438 742.496094 C 302.621094 740.609375 304.773438 738.992188 307.199219 737.554688 C 307.738281 735.492188 308.273438 733.425781 308.8125 731.359375 C 313.121094 714.917969 318.953125 698.929688 325.59375 683.390625 C 326.3125 681.773438 328.554688 683.210938 327.929688 684.738281 C 324.25 693.363281 320.839844 702.074219 317.789062 710.878906 C 315.09375 718.78125 312.671875 726.6875 310.699219 734.773438 C 310.699219 735.132812 310.519531 735.402344 310.429688 735.757812 C 314.019531 733.964844 317.789062 732.4375 321.378906 731.089844 C 330.53125 727.585938 340.132812 725.339844 349.105469 721.296875 C 356.914062 717.703125 364.363281 713.304688 371.273438 708.09375 C 383.746094 698.75 394.425781 687.164062 403.128906 674.316406 C 404.117188 672.703125 405.015625 671.085938 405.824219 669.378906 C 405.644531 669.378906 405.464844 669.46875 405.285156 669.558594 C 402.054688 670.457031 398.554688 670.1875 395.234375 670.007812 C 391.285156 669.738281 387.425781 669.289062 383.566406 668.570312 C 375.847656 667.132812 368.3125 664.796875 361.132812 661.472656 C 354.941406 658.6875 348.746094 655.183594 343.632812 650.605469 C 341.210938 648.449219 339.054688 645.753906 338.070312 642.789062 C 337.621094 643.777344 337.082031 644.855469 336.632812 645.84375 C 325.59375 669.738281 315.273438 694.082031 307.289062 719.230469 C 304.863281 726.957031 302.621094 734.683594 300.648438 742.496094 Z M 390.566406 694.347656 C 378.8125 706.925781 364.632812 717.433594 348.835938 724.351562 C 339.683594 728.304688 329.992188 730.550781 320.75 734.234375 C 317.699219 735.492188 314.46875 736.746094 311.414062 738.363281 C 316.621094 737.285156 322.183594 737.375 327.03125 737.464844 C 333.582031 737.644531 340.132812 738.273438 346.59375 737.644531 C 351.976562 737.105469 357.09375 735.3125 361.671875 732.4375 C 370.375 727.136719 376.835938 718.78125 382.132812 710.25 C 384.464844 706.476562 386.4375 702.433594 388.59375 698.660156 C 389.667969 696.773438 390.835938 694.796875 392.003906 692.914062 C 391.554688 693.453125 391.105469 693.902344 390.65625 694.4375 Z M 268.070312 955.566406 C 267.085938 958.53125 266.007812 961.40625 265.019531 964.367188 C 268.070312 967.601562 268.789062 972.632812 267.710938 976.945312 C 267.53125 977.664062 266.90625 977.933594 266.277344 977.84375 C 266.277344 977.84375 266.097656 977.84375 266.007812 977.84375 C 261.519531 977.214844 257.210938 975.777344 253.175781 973.800781 C 252.546875 973.441406 252.367188 972.542969 252.726562 971.914062 C 253.085938 971.285156 253.890625 971.105469 254.609375 971.464844 C 258.019531 973.171875 261.609375 974.339844 265.378906 975.058594 C 265.917969 971.195312 264.839844 966.882812 261.339844 964.816406 C 256.765625 962.214844 251.019531 963.5625 247.699219 967.511719 C 246.625 968.859375 244.648438 966.882812 245.816406 965.625 C 248.328125 962.664062 252.007812 960.957031 255.777344 960.777344 C 255.777344 960.6875 255.777344 960.597656 255.777344 960.507812 C 256.765625 957.8125 257.660156 955.027344 258.648438 952.332031 C 231.277344 943.527344 207.316406 944.695312 203.636719 955.386719 C 199.957031 966.074219 221.136719 983.503906 249.855469 993.472656 C 264.210938 998.414062 278.390625 1000.929688 289.878906 1000.570312 C 300.738281 1000.210938 308.003906 997.066406 309.710938 992.125 C 313.390625 981.4375 295.171875 965.535156 268.070312 955.566406 Z M 316.082031 813.101562 C 315.542969 812.921875 315.003906 812.832031 314.378906 812.652344 C 313.390625 812.292969 312.492188 811.933594 311.59375 811.484375 C 307.648438 822.261719 303.699219 833.042969 299.839844 843.820312 C 292.75 863.492188 285.75 883.164062 278.839844 902.925781 C 272.019531 922.328125 265.289062 941.644531 258.558594 961.046875 C 259.996094 961.316406 261.339844 961.765625 262.6875 962.574219 C 262.6875 962.574219 262.6875 962.574219 262.777344 962.574219 C 266.546875 951.882812 270.226562 941.105469 273.996094 930.414062 C 280.816406 911.011719 287.632812 891.699219 294.453125 872.386719 C 301.453125 852.804688 308.453125 833.3125 315.542969 813.730469 C 315.632812 813.460938 315.8125 813.191406 316.082031 813.101562 Z M 382.398438 732.796875 C 389.578125 715.90625 395.863281 698.75 402.054688 681.414062 C 399.988281 684.917969 397.835938 688.332031 395.773438 691.746094 C 393.796875 694.976562 391.734375 698.210938 389.9375 701.625 C 387.605469 705.9375 385.363281 710.25 382.667969 714.382812 C 377.105469 722.914062 370.195312 730.910156 361.132812 735.757812 C 356.285156 738.363281 350.902344 739.800781 345.425781 740.25 C 338.875 740.789062 332.324219 740.070312 325.863281 739.980469 C 320.75 739.980469 315.542969 739.980469 310.519531 741.238281 C 310.070312 741.328125 309.53125 741.507812 309.082031 741.597656 C 308.003906 745.640625 307.019531 749.773438 306.121094 753.90625 C 304.683594 760.460938 303.429688 767.199219 303.070312 773.9375 C 302.800781 779.683594 303.160156 785.792969 305.761719 791.003906 C 306.570312 792.53125 304.238281 793.878906 303.429688 792.351562 C 300.378906 786.152344 300.019531 778.964844 300.46875 772.230469 C 300.917969 765.222656 302.261719 758.394531 303.878906 751.570312 C 304.59375 748.605469 305.222656 745.730469 306.03125 742.765625 C 303.429688 744.023438 301.183594 745.910156 299.660156 748.605469 C 299.570312 748.785156 299.480469 748.875 299.300781 748.964844 C 298.671875 751.839844 298.042969 754.714844 297.507812 757.496094 C 295.171875 769.445312 293.558594 783.097656 299.03125 794.507812 C 303.339844 803.488281 312.402344 811.394531 322.8125 810.945312 C 328.285156 810.675781 333.582031 808.339844 337.980469 805.285156 C 342.644531 802.140625 346.773438 798.097656 350.003906 793.429688 C 356.734375 783.90625 362.566406 773.667969 368.042969 763.335938 C 373.335938 753.277344 378.183594 743.035156 382.667969 732.617188 Z M 491.074219 826.664062 C 501.753906 824.148438 509.382812 814.808594 512.253906 804.65625 C 515.753906 792.441406 513.960938 779.324219 512.074219 767.019531 C 511.984375 766.929688 511.894531 766.839844 511.804688 766.660156 C 510.910156 764.863281 509.742188 763.15625 508.035156 762.078125 C 506.421875 761.089844 504.535156 760.550781 502.742188 760.101562 C 500.320312 759.5625 497.804688 759.023438 495.382812 758.394531 C 491.972656 757.496094 488.652344 756.152344 485.332031 754.804688 C 465.769531 746.539062 446.207031 735.847656 431.128906 720.667969 C 428.707031 718.242188 426.285156 715.726562 424.308594 712.855469 C 421.886719 709.441406 419.910156 705.667969 418.027344 701.894531 C 417.21875 700.1875 416.320312 698.570312 415.515625 696.863281 C 420.808594 715.636719 426.195312 734.324219 432.925781 752.648438 C 436.871094 763.425781 441.179688 774.027344 446.117188 784.355469 C 448.628906 789.65625 451.230469 794.867188 454.011719 799.984375 C 456.707031 805.015625 459.398438 810.046875 463.167969 814.359375 C 469.898438 822.171875 480.398438 829.359375 491.253906 826.753906 Z M 533.074219 982.425781 C 533.164062 982.425781 533.253906 982.335938 533.433594 982.246094 C 534.777344 981.707031 536.125 981.347656 537.382812 981.167969 C 534.421875 970.117188 531.367188 958.980469 528.40625 947.929688 C 522.933594 927.808594 517.460938 907.777344 511.894531 887.746094 C 506.421875 867.894531 500.769531 848.042969 495.113281 828.191406 C 493.679688 828.730469 492.152344 829.179688 490.628906 829.449219 C 490.804688 829.628906 490.894531 829.808594 490.984375 830.078125 C 494.214844 841.394531 497.359375 852.714844 500.589844 864.03125 C 506.152344 883.792969 511.625 903.554688 517.011719 923.40625 C 522.394531 943.078125 527.78125 962.753906 533.074219 982.425781 Z M 592.480469 979.460938 C 589.609375 968.589844 565.738281 965.625 537.832031 972.542969 C 538.546875 975.328125 539.355469 978.023438 540.074219 980.808594 C 540.074219 980.988281 540.074219 981.078125 540.074219 981.167969 C 543.933594 981.527344 547.523438 983.59375 549.855469 986.914062 C 550.84375 988.351562 548.507812 989.699219 547.523438 988.261719 C 544.5625 984.222656 538.996094 982.515625 534.421875 984.667969 C 530.382812 986.554688 528.945312 991.585938 529.664062 995.71875 C 529.933594 997.425781 527.332031 998.144531 527.0625 996.4375 C 526.253906 992.035156 527.332031 987.003906 530.652344 983.953125 C 529.84375 980.898438 529.035156 977.933594 528.226562 974.878906 C 500.5 982.875 481.113281 997.425781 484.074219 1008.382812 C 487.039062 1019.34375 514.320312 1021.949219 543.664062 1014.042969 C 558.292969 1010.089844 571.484375 1004.253906 580.816406 997.425781 C 589.609375 990.957031 593.828125 984.398438 592.480469 979.28125 Z M 545.367188 990.597656 C 541.597656 992.574219 537.472656 993.832031 533.253906 994.460938 C 532.535156 994.550781 532.175781 995.449219 532.355469 996.078125 C 532.535156 996.886719 533.253906 997.15625 533.972656 996.976562 C 538.457031 996.257812 542.765625 994.910156 546.714844 992.84375 C 547.34375 992.484375 547.523438 991.585938 547.164062 990.957031 C 546.804688 990.328125 545.996094 990.148438 545.277344 990.507812 Z M 483.179688 818.847656 C 474.742188 816.785156 468.730469 809.957031 464.332031 802.859375 C 459.398438 794.957031 455.089844 786.421875 451.140625 777.976562 C 448.808594 773.039062 446.65625 768.097656 444.589844 763.066406 C 443.960938 761.449219 441.359375 762.167969 441.988281 763.785156 C 445.757812 773.039062 449.886719 782.019531 454.550781 790.824219 C 458.859375 798.996094 463.257812 807.890625 470.078125 814.359375 C 473.578125 817.683594 477.792969 820.285156 482.550781 821.453125 C 484.253906 821.902344 484.972656 819.296875 483.269531 818.847656 Z M 408.964844 634.792969 C 408.066406 631.742188 407.347656 628.6875 407.347656 625.542969 C 407.347656 623.476562 407.796875 620.960938 409.679688 619.703125 C 411.925781 618.175781 414.796875 619.613281 416.5 621.410156 C 418.296875 623.386719 419.015625 625.8125 419.375 628.328125 C 420 632.367188 419.730469 636.230469 418.566406 640.09375 C 417.21875 644.496094 415.785156 648.808594 414.796875 653.296875 C 414.796875 653.65625 414.617188 654.015625 414.527344 654.375 C 414.347656 655.183594 413.71875 655.453125 413.089844 655.363281 C 412.375 655.273438 411.65625 654.644531 411.925781 653.746094 C 412.734375 650.695312 412.285156 647.460938 411.65625 644.40625 C 410.9375 641.171875 409.949219 638.027344 408.964844 634.792969 Z M 410.847656 631.652344 C 411.566406 634.34375 412.464844 637.039062 413.179688 639.734375 C 413.628906 641.261719 413.988281 642.789062 414.347656 644.316406 C 414.886719 642.609375 415.425781 640.902344 415.875 639.195312 C 416.859375 635.871094 417.21875 632.546875 416.679688 629.136719 C 416.320312 626.890625 415.875 624.644531 414.257812 623.027344 C 413.539062 622.308594 412.195312 621.230469 411.207031 621.859375 C 410.488281 622.21875 410.308594 623.207031 410.128906 623.925781 C 409.589844 626.441406 410.308594 629.316406 410.847656 631.742188 Z M 391.554688 614.492188 C 390.476562 612.335938 389.757812 609.464844 390.925781 607.21875 C 391.464844 606.140625 392.539062 605.332031 393.796875 605.332031 C 395.234375 605.332031 396.21875 606.410156 397.027344 607.488281 C 398.285156 609.285156 398.734375 611.527344 399.003906 613.59375 C 399.273438 615.660156 399.359375 617.816406 399.628906 619.972656 C 399.628906 620.152344 399.628906 620.421875 399.628906 620.601562 C 399.628906 621.230469 398.914062 621.769531 398.285156 621.769531 C 397.65625 621.769531 397.746094 621.769531 397.566406 621.589844 C 397.566406 621.589844 397.476562 621.589844 397.386719 621.5 C 395.234375 619.523438 392.988281 617.367188 391.644531 614.671875 Z M 394.875 614.761719 C 395.414062 615.570312 396.039062 616.289062 396.667969 616.917969 C 396.667969 616.019531 396.488281 615.121094 396.398438 614.222656 C 396.21875 612.605469 395.863281 610.8125 395.054688 609.375 C 394.785156 608.925781 394.246094 608.117188 393.707031 608.027344 C 393.707031 608.027344 393.617188 608.027344 393.527344 608.027344 C 393.4375 608.117188 393.347656 608.207031 393.257812 608.296875 C 393.078125 608.566406 392.988281 608.925781 392.988281 609.285156 C 392.808594 611.167969 393.796875 613.054688 394.785156 614.582031 Z M 407.707031 597.246094 C 407.617188 594.550781 407.707031 591.316406 409.324219 589.074219 C 410.039062 587.90625 411.207031 587.007812 412.554688 586.648438 C 414.347656 586.199219 415.605469 587.367188 416.230469 588.894531 C 417.488281 592.214844 416.859375 596.167969 415.875 599.492188 C 414.886719 602.90625 413.359375 606.140625 411.296875 609.015625 C 410.757812 609.824219 409.414062 609.734375 408.964844 608.925781 C 408.785156 608.65625 408.695312 608.296875 408.785156 607.9375 C 408.785156 604.253906 407.976562 600.75 407.796875 597.066406 Z M 410.398438 598.054688 C 410.488281 600.03125 410.847656 602.097656 411.117188 604.074219 C 412.195312 602.007812 413 599.941406 413.539062 597.695312 C 413.988281 595.898438 414.257812 593.921875 414.167969 592.035156 C 414.167969 591.40625 413.988281 589.792969 413.539062 589.433594 C 413.179688 589.074219 412.464844 589.613281 412.105469 589.972656 C 410.21875 591.855469 410.308594 595.628906 410.488281 598.054688 Z M 410.398438 598.054688 " fill-opacity="1" fill-rule="nonzero"/></g></svg>