<svg xmlns="http://www.w3.org/2000/svg" xmlns:xlink="http://www.w3.org/1999/xlink" zoomAndPan="magnify" preserveAspectRatio="xMidYMid meet" version="1.0" viewBox="176.3 409.49 457.72 464.1"><defs><clipPath id="0f48d072f4"><path d="M 176 409.34375 L 634.972656 409.34375 L 634.972656 874 L 176 874 Z M 176 409.34375 " clip-rule="nonzero"/></clipPath></defs><path fill="#ffffff" d="M 571.796875 602.328125 C 561.199219 585.9375 553.417969 569.542969 547.351562 550.992188 C 541.285156 532.390625 535.550781 513.28125 525.003906 496.617188 C 506.378906 467.195312 476.632812 446.671875 443.960938 435.601562 C 404.128906 422.136719 356.304688 422.113281 319.734375 444.757812 C 297.113281 458.757812 283.660156 479.800781 273.847656 503.082031 C 270.632812 504.382812 267.914062 507.003906 266.636719 511.257812 C 259.152344 536.113281 249.402344 558.324219 230.773438 576.816406 C 211.714844 595.714844 198.175781 617.839844 198.152344 645.546875 C 198.152344 659.84375 202.308594 672.027344 209.21875 682.464844 C 213.191406 695.320312 222.546875 705.570312 234.210938 712.753906 C 246.421875 720.261719 260.445312 724.371094 274.527344 727.25 C 284.230469 730.835938 293.886719 733.800781 302.859375 736.246094 C 307.996094 737.660156 312.214844 736.085938 315.070312 733.117188 C 327.007812 734.234375 338.992188 734.832031 350.980469 735.078125 C 394.261719 735.949219 437.84375 734.457031 481.074219 732.273438 C 503.039062 731.15625 525.203125 729.941406 546.980469 726.703125 C 564.710938 724.058594 581.648438 716.402344 590.695312 700.136719 C 609.398438 666.582031 590.261719 630.832031 571.796875 602.289062 Z M 571.796875 602.328125 " fill-opacity="1" fill-rule="nonzero"/><g clip-path="url(#0f48d072f4)"><path fill="#000000" d="M 400.46875 777.503906 C 399.734375 780.246094 399.050781 782.890625 398.296875 785.519531 C 395.253906 795.996094 390.6875 805.773438 385.140625 815.128906 C 384.386719 816.40625 383.542969 817.660156 382.5625 818.777344 C 381.902344 819.535156 381.605469 819.597656 382.832031 820.402344 C 384.085938 821.222656 385.230469 822.203125 386.234375 823.28125 C 387.996094 825.15625 389.273438 827.300781 390.042969 829.785156 C 390.664062 831.820312 390.589844 833.804688 389.796875 835.765625 C 389.273438 837.09375 388.605469 838.371094 387.898438 839.625 C 385.453125 843.894531 382.808594 848.050781 379.953125 852.046875 C 376.667969 856.660156 373.402344 861.289062 370.25 865.992188 C 369.359375 867.320312 368.425781 868.597656 367.371094 869.804688 C 365.546875 871.875 363.265625 873.015625 360.546875 873.390625 C 355.460938 874.121094 351.003906 872.84375 347.058594 869.605469 C 343.746094 866.886719 341.101562 863.625 339.042969 859.902344 C 337.355469 856.859375 337.304688 853.757812 338.695312 850.605469 C 339.378906 849.054688 340.296875 847.640625 341.25 846.226562 C 345.980469 839.265625 351.09375 832.625 356.726562 826.382812 C 357.980469 824.96875 359.230469 823.554688 360.375 822.027344 C 361.355469 820.726562 362.472656 819.496094 363.613281 818.332031 C 365.621094 816.296875 368.066406 815.589844 370.847656 816.046875 C 373.179688 816.433594 375.550781 816.804688 377.808594 817.671875 C 378.898438 818.082031 378.925781 818.058594 379.546875 817.050781 C 384.90625 808.429688 388.605469 799.085938 391.992188 789.542969 C 394.871094 781.464844 396.261719 773.125 397.128906 764.636719 C 397.351562 762.566406 397.515625 760.480469 397.675781 758.40625 C 397.785156 757.179688 397.761719 757.15625 396.507812 757.128906 C 392.488281 756.992188 388.457031 756.855469 384.433594 756.71875 C 381.964844 756.632812 379.457031 756.472656 376.988281 756.371094 C 375.847656 756.324219 375.847656 756.371094 375.6875 757.488281 C 375.339844 760.183594 374.457031 762.714844 373.378906 765.183594 C 369.792969 773.421875 364.753906 780.730469 358.5625 787.234375 C 353.585938 792.457031 348.335938 797.398438 342.878906 802.101562 C 340.074219 804.496094 337.121094 806.667969 333.953125 808.566406 C 332.898438 809.222656 332.925781 809.222656 333.519531 810.226562 C 334.277344 811.503906 335.070312 812.785156 335.804688 814.0625 C 336.621094 815.527344 337.269531 817.101562 337.652344 818.765625 C 338.175781 821.023438 337.789062 823.121094 336.351562 824.96875 C 335.777344 825.703125 335.183594 826.472656 334.5 827.117188 C 326.074219 835.132812 316.695312 841.746094 305.984375 846.363281 C 303.019531 847.640625 299.917969 848.558594 296.714844 849.078125 C 294.269531 849.464844 291.925781 849.167969 289.804688 847.851562 C 284.53125 844.636719 280.347656 840.480469 278.226562 834.5 C 276.078125 828.40625 277.132812 823.082031 281.601562 818.40625 C 283.265625 816.667969 285.1875 815.277344 287.171875 813.949219 C 293.726562 809.59375 300.550781 805.734375 307.648438 802.335938 C 309.222656 801.578125 310.773438 800.832031 312.351562 800.101562 C 314.472656 799.121094 316.667969 798.390625 319.015625 798.03125 C 323.234375 797.410156 326.496094 798.921875 328.917969 802.347656 C 329.328125 802.917969 329.511719 803.601562 330.082031 804.058594 C 330.246094 803.972656 330.40625 803.949219 330.519531 803.875 C 339.488281 797.707031 347.804688 790.820312 354.902344 782.53125 C 361.292969 775.046875 366.242188 766.710938 370.175781 757.761719 C 370.226562 757.625 370.289062 757.488281 370.339844 757.351562 C 370.773438 756.1875 370.773438 756.160156 369.46875 756.125 C 355.472656 755.691406 341.460938 755.03125 327.488281 754.003906 C 315.207031 753.109375 302.90625 752.066406 290.671875 750.714844 C 289.480469 750.578125 288.300781 750.417969 287.136719 750.230469 C 286.429688 750.117188 286.042969 750.28125 285.808594 751.023438 C 285.460938 752.117188 285.015625 753.171875 284.554688 754.199219 C 283.898438 755.664062 283.027344 757.003906 281.949219 758.171875 C 279.441406 760.816406 276.242188 761.410156 272.976562 759.773438 C 270.234375 758.382812 268.164062 756.324219 266.75 753.566406 C 265.953125 752.015625 265.46875 750.328125 265.0625 748.640625 C 264.863281 747.773438 264.304688 747.363281 263.371094 747.414062 C 262.777344 747.414062 262.183594 747.5 261.574219 747.523438 C 261.089844 747.523438 260.890625 747.773438 260.976562 748.28125 C 261.796875 752.824219 261.066406 757.304688 260.109375 761.746094 C 259.191406 766.0625 257.988281 770.332031 256.894531 774.601562 C 256.757812 775.121094 256.574219 775.632812 256.410156 776.175781 C 253.96875 784.144531 248.195312 788.027344 240.265625 788.871094 C 234.039062 789.53125 227.871094 788.785156 221.777344 787.34375 C 216.777344 786.179688 212.832031 783.425781 209.816406 779.265625 C 207.097656 775.484375 205.0625 771.351562 203.449219 767.007812 C 200.621094 759.3125 198.835938 751.398438 198.386719 743.195312 C 198.335938 742.351562 198.335938 741.507812 198.386719 740.664062 C 198.4375 739.980469 198.199219 739.683594 197.566406 739.472656 C 195.769531 738.875 193.980469 738.28125 192.246094 737.597656 C 189.503906 736.542969 186.882812 735.265625 184.390625 733.652344 C 176.238281 728.402344 175.332031 719.730469 176.996094 712.964844 C 177.886719 709.292969 180.507812 707.070312 183.957031 705.792969 C 185.183594 705.335938 186.425781 705.0625 187.742188 704.925781 C 188.472656 704.839844 188.609375 704.539062 188.496094 703.871094 C 187.46875 696.882812 187.269531 689.8125 187.21875 682.75 C 187.109375 661.519531 189.203125 640.472656 193.660156 619.699219 C 195.320312 611.921875 197.492188 604.265625 200.460938 596.867188 C 202.257812 592.375 204.40625 588.082031 207.035156 584.011719 C 212.261719 575.957031 218.082031 568.4375 225.414062 562.210938 C 232.265625 556.390625 235.824219 548.945312 236.59375 540.085938 C 237.078125 534.402344 237.550781 528.691406 238.007812 523.011719 C 238.902344 511.667969 241.570312 500.773438 245.453125 490.113281 C 246.84375 486.328125 248.222656 482.558594 249.773438 478.835938 C 250.691406 476.636719 251.511719 474.402344 252.242188 472.121094 C 257.378906 456.101562 267.035156 443.355469 280.359375 433.242188 C 289.554688 426.257812 299.804688 421.257812 310.652344 417.445312 C 321.957031 413.476562 333.65625 411.242188 345.582031 410.238281 C 355.347656 409.417969 365.125 409.34375 374.917969 409.667969 C 389.027344 410.125 403.136719 409.777344 417.242188 409.988281 C 429.019531 410.175781 440.785156 410.609375 452.511719 412.023438 C 458.875 412.78125 465.179688 413.960938 471.457031 415.261719 C 478.71875 416.765625 486.027344 417.929688 493.1875 419.878906 C 503.871094 422.78125 514.121094 426.753906 523.800781 432.203125 C 533.527344 437.660156 541.359375 445.117188 547.339844 454.523438 C 552.5625 462.738281 556.3125 471.574219 559.164062 480.820312 C 563.136719 493.675781 565.902344 506.777344 567.886719 520.082031 C 569.054688 527.886719 569.847656 535.765625 571.175781 543.546875 C 571.835938 547.382812 572.703125 551.152344 574.144531 554.777344 C 575.582031 558.363281 577.65625 561.578125 580.398438 564.292969 C 580.878906 564.777344 581.402344 565.273438 581.972656 565.660156 C 589.007812 570.609375 594.554688 576.914062 598.800781 584.335938 C 609.320312 602.738281 616.855469 622.230469 620.355469 643.226562 C 621.816406 652.0625 622.886719 660.921875 624.027344 669.796875 C 625.144531 678.46875 625.902344 687.191406 625.902344 695.953125 C 625.902344 704.714844 625.8125 700.519531 625.765625 702.804688 C 625.765625 704.082031 625.714844 704.082031 626.855469 704.539062 C 629.277344 705.457031 630.964844 707.183594 631.917969 709.542969 C 633.902344 714.605469 634.660156 719.792969 633.421875 725.175781 C 632.464844 729.222656 630.316406 732.574219 627.191406 735.289062 C 624.3125 737.796875 620.988281 739.582031 617.488281 741.046875 C 615.613281 741.839844 613.675781 742.511719 611.730469 743.082031 C 611.207031 743.242188 610.835938 743.429688 610.910156 744.085938 C 611.433594 748.195312 610.6875 752.214844 609.90625 756.210938 C 609.035156 760.503906 607.871094 764.722656 606.070312 768.71875 C 604.308594 772.664062 601.9375 776.164062 598.996094 779.355469 C 595.078125 783.574219 590.273438 785.992188 584.640625 786.910156 C 579.253906 787.78125 573.84375 787.667969 568.433594 787.074219 C 566.609375 786.886719 564.785156 786.664062 563 786.179688 C 556.796875 784.492188 552.5 780.496094 549.460938 775.035156 C 547.089844 770.765625 545.925781 766.089844 545.242188 761.273438 C 544.917969 758.964844 544.832031 756.65625 544.859375 754.101562 C 544.261719 754.621094 544.238281 755.195312 544.0625 755.652344 C 543.304688 757.824219 542.402344 759.921875 541.121094 761.820312 C 540.253906 763.125 539.273438 764.265625 537.96875 765.160156 C 535.4375 766.871094 532.535156 766.871094 530.003906 765.160156 C 528.453125 764.101562 527.3125 762.652344 526.332031 761.074219 C 524.890625 758.742188 523.910156 756.1875 523.117188 753.542969 C 522.707031 752.179688 522.707031 752.214844 521.269531 752.402344 C 517.820312 752.859375 514.355469 753.132812 510.882812 753.269531 C 504.378906 753.492188 497.914062 754.300781 491.414062 754.710938 C 480.457031 755.417969 469.5 756.011719 458.515625 756.398438 C 451.007812 756.671875 443.515625 756.855469 436.007812 757.078125 C 435.683594 757.078125 435.300781 756.992188 435 757.242188 C 434.816406 757.515625 435 757.726562 435.136719 757.925781 C 436.664062 760.070312 437.96875 762.355469 439.292969 764.636719 C 444.59375 773.71875 451.121094 781.824219 458.765625 789.019531 C 462.734375 792.769531 466.78125 796.441406 470.777344 800.164062 C 471.621094 800.957031 472.625 801.492188 473.582031 802.148438 C 473.988281 802.445312 474.3125 802.398438 474.5625 801.964844 C 474.699219 801.691406 474.859375 801.441406 475.019531 801.207031 C 477.847656 796.800781 481.871094 795.0625 487.03125 795.90625 C 488.65625 796.179688 490.246094 796.613281 491.761719 797.1875 C 500.023438 800.261719 507.902344 804.097656 515.136719 809.234375 C 517.445312 810.859375 519.542969 812.769531 521.738281 814.558594 C 524.046875 816.457031 524.890625 818.9375 525.214844 821.679688 C 525.511719 823.988281 525.101562 826.246094 524.421875 828.457031 C 522.597656 834.351562 519.308594 839.300781 514.628906 843.324219 C 513.648438 844.167969 512.59375 844.898438 511.453125 845.519531 C 508.574219 847.144531 505.65625 847.34375 502.59375 846.039062 C 498.621094 844.328125 494.761719 842.390625 491.039062 840.171875 C 489.847656 839.4375 488.644531 838.753906 487.390625 838.136719 C 484.5625 836.695312 481.84375 835.007812 479.289062 833.109375 C 478.257812 832.351562 477.167969 831.609375 476.113281 830.875 C 475.542969 830.464844 474.96875 830.082031 474.398438 829.683594 C 468.941406 826.011719 466.980469 821.605469 468.605469 813.703125 C 469.0625 811.445312 470.019531 809.347656 471.074219 807.335938 C 471.398438 806.703125 471.261719 806.207031 470.664062 805.871094 C 467.328125 803.910156 464.136719 801.691406 460.984375 799.457031 C 455.796875 795.785156 451.394531 791.277344 447.449219 786.304688 C 445.351562 783.660156 443.265625 781.003906 441.21875 778.3125 C 438.3125 774.527344 435.695312 770.53125 433.523438 766.261719 C 432.496094 764.226562 431.625 762.105469 431.265625 759.824219 C 431.265625 759.574219 431.179688 759.339844 431.105469 759.089844 C 430.582031 757.328125 430.484375 757.289062 428.597656 757.289062 C 420.246094 757.289062 411.90625 757.339844 403.558594 757.339844 L 403.121094 757.339844 C 401.792969 757.339844 401.820312 757.339844 401.894531 758.617188 C 401.980469 759.808594 402.214844 760.953125 402.550781 762.128906 C 403.394531 765.144531 404.175781 768.160156 404.945312 771.214844 C 406.472656 777.082031 408.507812 782.792969 410.976562 788.339844 C 413.398438 793.773438 416.113281 799.109375 418.992188 804.320312 C 420.085938 806.28125 421.363281 808.128906 422.714844 809.890625 C 423.3125 810.6875 423.335938 810.710938 424.242188 810.117188 C 425.980469 808.949219 427.855469 808.082031 429.949219 808.179688 C 434.332031 808.402344 438.238281 809.804688 441.019531 813.429688 C 442.25 815.003906 443.414062 816.605469 444.53125 818.242188 C 449.121094 825.042969 453.914062 831.707031 458.179688 838.695312 C 459.980469 841.632812 461.65625 844.589844 462.796875 847.851562 C 463.320312 849.265625 463.34375 850.65625 462.957031 852.09375 C 462.5 853.808594 461.65625 855.335938 460.488281 856.660156 C 456.929688 860.707031 452.796875 864.105469 448.117188 866.863281 C 446.21875 867.980469 444.097656 868.550781 441.886719 868.847656 C 438.003906 869.367188 434.742188 868.191406 432.097656 865.285156 C 430.90625 863.957031 429.925781 862.457031 429.132812 860.832031 C 428.535156 859.601562 427.855469 858.5 427.097656 857.382812 C 424.789062 854.007812 422.851562 850.421875 420.890625 846.859375 C 419.777344 844.824219 418.632812 842.777344 417.355469 840.828125 C 415.617188 838.222656 414.230469 835.394531 412.863281 832.589844 C 411.289062 829.351562 411.671875 825.988281 412.914062 822.75 C 414.054688 819.78125 415.992188 817.3125 418.273438 815.140625 C 418.832031 814.59375 418.894531 813.988281 418.460938 813.316406 C 415.222656 808.476562 412.316406 803.453125 409.875 798.179688 C 408.820312 795.894531 407.503906 793.6875 406.335938 791.464844 C 404.238281 787.382812 402.390625 783.226562 400.976562 778.84375 C 400.863281 778.523438 400.753906 778.1875 400.628906 777.863281 C 400.628906 777.777344 400.492188 777.753906 400.28125 777.59375 L 400.417969 777.542969 Z M 404.671875 717.085938 C 416.746094 716.972656 428.820312 716.925781 440.882812 716.789062 C 450.476562 716.675781 460.054688 716.539062 469.648438 716.355469 C 487.179688 716.007812 504.691406 715.050781 522.261719 714.828125 C 523.019531 714.828125 523.425781 714.578125 523.675781 713.847656 C 524.195312 712.183594 524.765625 710.535156 525.363281 708.894531 C 526.070312 707.023438 526.9375 705.246094 528.21875 703.710938 C 531.554688 699.601562 536.023438 699.488281 539.558594 703.460938 C 540.589844 704.628906 541.40625 705.929688 542.117188 707.296875 C 542.773438 708.546875 543.304688 709.800781 543.742188 711.128906 C 543.988281 711.835938 544.359375 712.085938 545.070312 711.972656 C 545.417969 711.921875 545.75 711.886719 546.097656 711.863281 C 550.09375 711.515625 554.089844 710.96875 558.109375 710.746094 C 566.488281 710.285156 574.886719 709.789062 583.261719 709.242188 C 585.734375 709.082031 588.214844 708.945312 590.683594 708.511719 C 598.328125 707.183594 605.996094 706.042969 613.714844 705.359375 C 615.339844 705.222656 616.976562 705.035156 618.554688 704.539062 C 619.3125 704.292969 619.722656 703.96875 619.722656 703.125 C 619.722656 701.328125 619.855469 699.539062 619.855469 697.765625 C 619.855469 693.609375 620.265625 689.390625 619.746094 685.257812 C 618.851562 677.996094 617.871094 670.761719 616.667969 663.566406 C 613.949219 647.386719 610.328125 631.402344 606.121094 615.554688 C 603.613281 606.199219 603.5625 606.261719 599.085938 597.613281 C 594.132812 588.121094 588.152344 579.371094 581.054688 571.40625 C 580.324219 570.585938 579.589844 569.777344 578.683594 569.144531 C 573.660156 565.695312 570.097656 561.066406 567.726562 555.519531 C 566.039062 551.574219 564.960938 547.441406 564.078125 543.261719 C 562.664062 536.300781 561.710938 529.265625 560.519531 522.242188 C 558.285156 509.25 555.378906 496.417969 551.273438 483.871094 C 548.507812 475.382812 544.96875 467.257812 540.066406 459.761719 C 535.179688 452.253906 528.925781 446.222656 521.121094 441.769531 C 514.109375 437.773438 506.847656 434.347656 499.253906 431.542969 C 485.742188 426.566406 471.84375 423.007812 457.636719 420.722656 C 450.671875 419.605469 443.710938 418.464844 436.613281 418.328125 C 427.023438 418.140625 417.441406 417.730469 407.851562 417.371094 C 402.328125 417.1875 396.84375 416.714844 391.320312 416.753906 C 383.378906 416.800781 375.414062 416.914062 367.472656 416.976562 C 356.5625 417.0625 345.71875 417.867188 334.960938 419.582031 C 316.261719 422.546875 298.800781 428.714844 283.214844 439.757812 C 278.671875 442.972656 274.566406 446.582031 271.4375 451.238281 C 268.632812 455.394531 266.117188 459.75 263.582031 464.066406 C 262.664062 465.644531 261.894531 467.332031 261.140625 469.019531 C 259.8125 471.921875 258.992188 475 257.851562 477.964844 C 256.4375 481.664062 255.023438 485.386719 253.878906 489.195312 C 251.027344 498.761719 248.085938 508.28125 246.808594 518.257812 C 246.125 523.417969 245.007812 528.53125 244.574219 533.730469 C 244.386719 536.199219 243.953125 538.65625 243.433594 541.078125 C 243.085938 542.738281 242.699219 544.390625 242.476562 546.054688 C 242.253906 547.605469 241.855469 549.070312 241.335938 550.507812 C 240.765625 552.132812 240.105469 553.773438 239.648438 555.433594 C 238.941406 557.992188 237.574219 560.164062 235.835938 562.097656 C 234.011719 564.132812 232.164062 566.144531 230.203125 568.054688 C 225.390625 572.808594 221.070312 578.007812 216.875 583.328125 C 211.851562 589.769531 207.992188 596.84375 205.238281 604.535156 C 203.089844 610.566406 201.351562 616.746094 199.9375 623 C 196.511719 638.089844 194.042969 653.339844 192.542969 668.726562 C 191.835938 675.988281 191.015625 683.246094 191.539062 690.59375 C 191.8125 694.675781 192.382812 698.695312 192.976562 702.714844 C 193.199219 704.15625 193.820312 704.675781 195.210938 704.863281 C 205.273438 706.191406 215.300781 707.46875 225.414062 708.3125 C 233.542969 708.996094 241.667969 709.566406 249.796875 709.914062 C 254.5 710.101562 259.226562 710 263.90625 710.78125 C 264.613281 710.894531 264.886719 710.644531 265.023438 709.988281 C 265.246094 708.820312 265.59375 707.679688 266.054688 706.5625 C 266.671875 705.097656 267.492188 703.734375 268.609375 702.566406 C 272.058594 698.957031 277.035156 698.78125 280.734375 702.15625 C 282.46875 703.734375 283.5625 705.71875 284.34375 707.890625 C 284.914062 709.464844 285.324219 711.128906 285.710938 712.753906 C 285.957031 713.871094 285.980469 713.871094 287.074219 713.785156 C 288.105469 713.671875 289.171875 713.699219 290.199219 713.699219 C 294.085938 713.746094 297.945312 714.046875 301.816406 714.320312 C 318.070312 715.433594 334.363281 716.03125 350.671875 716.441406 C 368.636719 716.875 386.644531 717.125 404.636719 717.097656 L 404.613281 717.074219 Z M 286.898438 718.339844 C 286.714844 718.75 286.898438 719.183594 286.949219 719.59375 C 288.066406 728.105469 288.574219 736.617188 287.222656 745.15625 C 287.0625 746.160156 287.109375 746.183594 288.226562 746.246094 C 289.667969 746.296875 291.105469 746.332031 292.546875 746.410156 C 303.316406 746.953125 314.074219 747.523438 324.847656 748.007812 C 335.855469 748.492188 346.898438 748.964844 357.90625 749.3125 C 372.808594 749.796875 387.699219 750.230469 402.601562 750.675781 C 410.109375 750.898438 417.605469 751.109375 425.109375 751.246094 C 430.683594 751.359375 436.230469 751.59375 441.800781 751.359375 C 449.246094 751.011719 456.667969 750.566406 464.125 750.167969 C 477.316406 749.4375 490.519531 748.914062 503.734375 748.753906 C 509.765625 748.667969 515.808594 748.566406 521.925781 748.753906 C 521.738281 747.5625 521.515625 746.382812 521.355469 745.21875 C 520.238281 737.226562 520.398438 729.257812 521.738281 721.316406 C 521.988281 719.792969 521.988281 719.816406 520.511719 719.902344 C 518.277344 720.039062 516.054688 720.199219 513.824219 720.289062 C 500.308594 720.882812 486.796875 720.90625 473.308594 721.839844 C 464.222656 722.460938 455.140625 722.792969 446.070312 723.203125 C 423.535156 724.183594 400.964844 724.78125 378.402344 724.890625 C 354.726562 725.003906 331.101562 724.371094 307.546875 721.601562 C 300.835938 720.808594 294.148438 719.976562 287.570312 718.3125 C 287.347656 718.265625 287.109375 718.152344 286.839844 718.363281 L 286.886719 718.363281 Z M 621.257812 709.09375 C 618.515625 709.28125 615.824219 709.617188 613.132812 710.148438 C 608.515625 711.105469 603.886719 711.972656 599.183594 712.617188 C 588.449219 714.082031 577.65625 714.851562 566.832031 715.523438 C 560.144531 715.957031 553.457031 716.339844 546.792969 717.234375 C 545.601562 717.394531 545.566406 717.394531 545.789062 718.601562 C 546.65625 723.140625 547.089844 727.734375 547.152344 732.386719 C 547.203125 736.355469 547.015625 740.328125 546.53125 744.296875 C 546.394531 745.414062 546.445312 745.488281 547.488281 745.328125 C 556.375 743.890625 565.320312 743.070312 574.265625 742.152344 C 581.875 741.359375 589.492188 740.738281 597.050781 739.484375 C 602.683594 738.566406 608.28125 737.410156 613.714844 735.5625 C 617.164062 734.394531 620.488281 732.957031 623.445312 730.773438 C 626.683594 728.378906 628.667969 725.226562 629.238281 721.230469 C 629.5625 718.898438 629.535156 716.578125 629.078125 714.269531 C 628.457031 711.191406 626.746094 709.589844 623.640625 709.242188 C 622.847656 709.15625 622.066406 709.15625 621.273438 709.132812 L 621.273438 709.082031 Z M 258.507812 743.902344 C 259.464844 743.953125 261.25 744.085938 263.050781 744.199219 C 264.277344 744.285156 264.277344 744.25 264.167969 743.007812 C 263.621094 736.976562 263.460938 730.910156 263.757812 724.839844 C 263.894531 722.011719 264.242188 719.183594 264.414062 716.390625 C 264.464844 715.335938 264.414062 715.300781 263.386719 715.335938 C 260.742188 715.421875 258.113281 715.421875 255.503906 715.285156 C 252.8125 715.125 250.144531 714.828125 247.488281 714.765625 C 236.046875 714.492188 224.65625 713.761719 213.316406 712.371094 C 206.714844 711.578125 200.125 710.496094 193.734375 708.5625 C 193.300781 708.425781 192.890625 708.261719 192.429688 708.335938 C 189.625 708.859375 186.910156 709.589844 184.574219 711.328125 C 183.386719 712.222656 182.617188 713.425781 182.269531 714.863281 C 180.851562 720.710938 183.085938 726.09375 188.222656 729.222656 C 190.53125 730.636719 192.976562 731.667969 195.507812 732.597656 C 207.0625 736.730469 218.972656 739.371094 231.074219 741.269531 C 239.90625 742.660156 248.828125 743.441406 258.582031 743.9375 L 258.535156 743.9375 L 258.535156 743.914062 Z M 288.6875 817.910156 C 294.121094 819.671875 297.449219 823.292969 299.730469 827.933594 C 302.015625 832.589844 302.722656 837.429688 300.984375 842.589844 C 302.695312 842.207031 304.085938 841.695312 305.4375 841.0625 C 314.933594 836.746094 323.332031 830.789062 330.941406 823.714844 C 331.289062 823.394531 331.597656 822.984375 331.945312 822.625 C 332.8125 821.753906 332.949219 820.75 332.566406 819.609375 C 332.105469 818.195312 331.585938 816.78125 330.804688 815.5 C 328.929688 812.460938 326.992188 809.433594 325.144531 806.394531 C 323.519531 803.699219 321.0625 802.71875 318.046875 803.054688 C 314.347656 803.464844 310.8125 804.359375 307.546875 806.183594 C 302.089844 809.222656 296.726562 812.460938 291.503906 815.910156 C 290.636719 816.480469 289.792969 817.101562 288.648438 817.894531 L 288.675781 817.894531 Z M 515.0625 815.425781 C 514.839844 815.203125 514.789062 815.105469 514.714844 815.078125 C 508.683594 811.742188 502.667969 808.367188 496.613281 805.054688 C 493.371094 803.289062 489.972656 801.902344 486.363281 801.082031 C 484.945312 800.757812 483.507812 800.597656 482.066406 800.894531 C 480.789062 801.167969 479.597656 801.601562 478.828125 802.792969 C 476.570312 806.355469 474.859375 810.140625 473.941406 814.234375 C 472.796875 819.324219 474.214844 823.457031 478.617188 826.421875 C 480.605469 827.75 482.589844 829.089844 484.601562 830.367188 C 489.351562 833.382812 494.527344 835.617188 499.441406 838.285156 C 499.550781 838.332031 499.714844 838.285156 499.925781 838.285156 C 500.246094 833.445312 501.996094 829.089844 504.628906 825.09375 C 507.296875 821.074219 510.558594 817.648438 515.039062 815.414062 L 515.0625 815.4375 Z M 366.503906 862.195312 C 367.074219 861.875 367.296875 861.351562 367.597656 860.894531 C 370.472656 856.734375 373.351562 852.542969 376.246094 848.386719 C 378.613281 844.960938 381.035156 841.558594 383.179688 837.972656 C 383.886719 836.78125 384.546875 835.554688 385.214844 834.324219 C 385.789062 833.296875 385.738281 832.253906 385.214844 831.175781 C 384.535156 829.710938 383.617188 828.429688 382.410156 827.339844 C 379.804688 824.96875 376.914062 823.09375 373.578125 821.929688 C 369.691406 820.5625 366.230469 821.269531 363.238281 824.074219 C 361.914062 825.328125 360.632812 826.65625 359.492188 828.097656 C 354.679688 834.101562 350.136719 840.332031 345.816406 846.699219 C 345.570312 847.042969 345.199219 847.355469 345.296875 847.839844 C 354.542969 850.074219 360.609375 854.144531 366.417969 862.109375 L 366.464844 862.195312 Z M 454.730469 843.953125 C 454.683594 843.769531 454.683594 843.632812 454.621094 843.496094 C 452.722656 840.070312 451.171875 836.460938 449.320312 832.972656 C 448.402344 831.210938 447.496094 829.4375 446.28125 827.859375 C 442.992188 823.679688 439.457031 819.707031 435.78125 815.847656 C 433.660156 813.613281 429.886719 813.269531 427.296875 814.957031 C 424.988281 816.480469 423.136719 818.46875 421.476562 820.664062 C 419.601562 823.171875 419.191406 825.851562 419.972656 828.839844 C 420.890625 832.214844 422.34375 835.367188 423.921875 838.496094 C 426.859375 844.363281 430.261719 849.972656 433.597656 855.621094 C 433.6875 855.78125 433.785156 855.96875 433.984375 855.96875 C 439.34375 849.328125 445.894531 844.824219 454.730469 843.980469 Z M 525.660156 731.332031 C 525.773438 737.472656 526.207031 743.617188 527.621094 749.660156 C 528.304688 752.511719 529.171875 755.316406 530.613281 757.898438 C 531.15625 758.902344 531.804688 759.859375 532.734375 760.566406 C 533.601562 761.222656 534.285156 761.222656 535.179688 760.566406 C 535.75 760.15625 536.183594 759.613281 536.59375 759.039062 C 537.414062 757.898438 538.007812 756.644531 538.527344 755.34375 C 539.644531 752.574219 540.402344 749.683594 541.296875 746.855469 C 541.542969 746.097656 541.644531 745.277344 541.542969 744.484375 C 541.457031 743.890625 541.542969 743.320312 541.542969 742.722656 C 542.523438 734.023438 542.25 725.351562 540.453125 716.789062 C 539.882812 714.09375 539.125 711.488281 537.871094 709.042969 C 537.25 707.792969 536.507812 706.601562 535.425781 705.707031 C 534.285156 704.75 533.355469 704.726562 532.1875 705.59375 C 531.457031 706.140625 530.886719 706.824219 530.390625 707.554688 C 528.972656 709.679688 527.882812 711.960938 527.3125 714.46875 C 526.082031 720.015625 525.6875 725.671875 525.597656 731.382812 L 525.625 731.382812 L 525.648438 731.355469 Z M 268.164062 728.316406 C 268.164062 729.507812 268.25 730.710938 268.164062 731.878906 C 267.914062 735.300781 267.914062 738.726562 268.574219 742.101562 C 269.03125 744.570312 269.441406 747.078125 270.394531 749.449219 C 271.289062 751.683594 272.792969 753.445312 274.886719 754.671875 C 276.441406 755.566406 277.394531 755.355469 278.476562 753.914062 C 279.132812 753.046875 279.640625 752.042969 279.9375 751.011719 C 280.484375 749 281.03125 746.992188 281.402344 744.945312 C 281.972656 741.867188 282.160156 738.738281 282.199219 735.613281 C 282.246094 728.972656 281.601562 722.421875 280.460938 715.90625 C 280.074219 713.648438 279.589844 711.414062 278.699219 709.304688 C 278.238281 708.1875 277.644531 707.160156 276.710938 706.363281 C 275.433594 705.246094 274.269531 705.246094 272.964844 706.363281 C 271.960938 707.207031 271.300781 708.324219 270.792969 709.515625 C 270.109375 711.066406 269.761719 712.730469 269.464844 714.378906 C 268.621094 718.996094 268.597656 723.675781 268.1875 728.328125 Z M 521.15625 822.75 L 521.15625 822.3125 C 521.070312 818.863281 519.445312 817.882812 516.292969 819.371094 C 514.789062 820.082031 513.488281 821.085938 512.347656 822.25 C 508.535156 826.136719 506.066406 830.765625 504.839844 836.0625 C 504.539062 837.316406 504.515625 838.621094 504.566406 839.898438 C 504.675781 842.292969 506.800781 843.320312 508.785156 842.453125 C 510.359375 841.746094 511.75 840.828125 512.964844 839.648438 C 516.367188 836.386719 518.675781 832.414062 520.175781 827.984375 C 520.746094 826.273438 521.132812 824.535156 521.132812 822.734375 L 521.15625 822.734375 Z M 296.816406 838 C 296.816406 832.835938 293.664062 827.179688 289.644531 824.648438 C 289.046875 824.261719 288.453125 823.964844 287.769531 823.753906 C 285.210938 822.910156 283.3125 823.863281 282.582031 826.445312 C 281.988281 828.566406 282.0625 830.714844 282.964844 832.726562 C 284.902344 836.992188 287.941406 840.332031 291.890625 842.863281 C 292.683594 843.382812 293.464844 843.320312 294.308594 842.949219 C 295.152344 842.539062 295.746094 841.894531 296.132812 841.074219 C 296.652344 839.984375 296.839844 838.816406 296.839844 838 Z M 360.707031 866.8125 L 361.390625 866.8125 C 362.832031 866.8125 363.105469 866.425781 362.644531 865.101562 C 362.261719 863.957031 361.664062 862.929688 360.957031 861.972656 C 357.234375 856.972656 352.417969 853.621094 346.277344 852.292969 C 345.792969 852.183594 345.296875 852.132812 344.8125 852.109375 C 343.585938 852.058594 342.964844 852.652344 342.988281 853.90625 C 342.988281 854.453125 343.125 855 343.335938 855.484375 C 343.820312 856.734375 344.589844 857.851562 345.457031 858.859375 C 347.988281 861.847656 351.167969 863.882812 354.753906 865.324219 C 356.6875 866.082031 358.699219 866.6875 360.707031 866.824219 Z M 438.886719 863.546875 C 440.25 863.546875 441.355469 863.324219 442.445312 862.976562 C 448.5625 860.96875 452.808594 856.75 456.070312 851.402344 C 456.804688 850.210938 456.480469 849.710938 455.089844 849.527344 C 454.707031 849.476562 454.296875 849.476562 453.898438 849.527344 C 452.238281 849.613281 450.6875 850.183594 449.222656 850.917969 C 444.195312 853.472656 440.089844 857.007812 437.507812 862.148438 C 436.960938 863.238281 436.988281 863.375 438.191406 863.5625 C 438.488281 863.609375 438.785156 863.609375 438.871094 863.609375 L 438.898438 863.5625 Z M 222.648438 774.886719 C 222.734375 773.558594 222.1875 772.605469 221.59375 771.671875 C 220.339844 769.710938 218.984375 767.8125 217.671875 765.878906 C 214.839844 761.660156 212.78125 757.15625 211.777344 752.179688 C 211.367188 750.191406 211.09375 748.183594 211.019531 746.148438 C 211.019531 745.714844 211.105469 745.253906 210.472656 745.117188 C 208.140625 744.570312 207.074219 745.339844 206.886719 747.722656 L 206.886719 748.457031 C 206.777344 751.261719 207.433594 753.914062 208.511719 756.421875 C 210.585938 761.148438 213.078125 765.667969 216.34375 769.710938 C 217.535156 771.175781 218.8125 772.566406 220.339844 773.707031 C 221.019531 774.191406 221.667969 774.714844 222.707031 774.9375 L 222.660156 774.886719 Z M 600.574219 746.421875 C 600.574219 745.851562 600.523438 745.800781 599.78125 745.898438 C 599.074219 745.988281 598.886719 746.359375 598.910156 747.015625 C 598.996094 749.921875 598.09375 752.589844 596.839844 755.167969 C 595.175781 758.59375 593.027344 761.695312 590.335938 764.390625 C 587.644531 767.082031 588.140625 766.535156 587.023438 767.601562 C 585.261719 769.316406 583.921875 771.351562 582.890625 773.558594 C 582.617188 774.105469 582.097656 774.8125 582.59375 775.320312 C 583.113281 775.890625 583.894531 775.570312 584.554688 775.371094 C 586.214844 774.886719 587.570312 773.90625 588.796875 772.703125 C 591.378906 770.121094 593.585938 767.242188 595.398438 764.117188 C 598.5 758.730469 600.101562 752.886719 600.5625 746.46875 L 600.5625 746.421875 Z M 565.71875 777.257812 C 565.605469 777.09375 565.492188 776.933594 565.394531 776.796875 C 561.609375 772.578125 559.4375 767.554688 558.246094 762.117188 C 557.675781 759.476562 556.558594 757.03125 555.875 754.449219 C 555.578125 753.308594 554.847656 752.300781 553.433594 752.140625 C 552.476562 752.03125 552.242188 752.191406 552.316406 753.121094 C 552.425781 754.398438 552.5625 755.703125 552.75 756.957031 C 553.433594 761.570312 554.761719 765.953125 557.265625 769.921875 C 559.300781 773.1875 562.082031 775.65625 565.71875 777.230469 Z M 248.753906 760.589844 C 248.667969 759.796875 248.644531 759.152344 248.507812 758.519531 C 248.34375 757.8125 248.046875 757.726562 247.476562 758.246094 C 247.09375 758.570312 246.769531 758.953125 246.472656 759.339844 C 245.46875 760.566406 244.621094 761.917969 243.777344 763.257812 C 241.496094 766.933594 239.375 770.679688 236.792969 774.128906 C 236.359375 774.726562 236.46875 775.046875 237.015625 775.457031 C 237.5 775.804688 237.972656 775.941406 238.542969 775.753906 C 239.363281 775.484375 240.117188 775.136719 240.800781 774.636719 C 245.617188 771.125 248.085938 766.289062 248.769531 760.554688 L 248.769531 760.578125 Z M 248.753906 760.589844 " fill-opacity="1" fill-rule="nonzero"/></g><path fill="#000000" d="M 312.585938 641.777344 C 311.058594 640.363281 309.917969 639.035156 308.640625 637.59375 C 307.25 641.8125 304.285156 643.527344 300.265625 643.390625 C 296.429688 643.253906 294.371094 640.945312 293.664062 637.273438 C 293.117188 637.273438 292.769531 637.59375 292.386719 637.792969 C 289.394531 639.15625 286.179688 638.550781 284.207031 635.945312 C 281.351562 632.222656 280.671875 628.027344 282.222656 623.546875 C 282.953125 621.449219 284.53125 620.121094 286.652344 619.5 C 286.652344 618.957031 286.242188 618.65625 286.03125 618.3125 C 284.367188 615.730469 284.097656 613.011719 285.511719 610.257812 C 286.976562 607.429688 289.34375 605.742188 292.582031 605.441406 C 294.085938 605.304688 295.414062 605.851562 296.605469 606.769531 C 298.367188 608.136719 299.679688 609.871094 300.574219 611.90625 C 301.035156 612.914062 301.058594 612.9375 302.078125 612.429688 C 302.894531 612.019531 303.765625 611.859375 304.769531 611.511719 C 303.402344 608.570312 302.101562 605.691406 299.546875 603.628906 C 298.492188 602.761719 297.238281 602.835938 295.984375 603.035156 C 294.953125 603.195312 293.949219 603.445312 292.90625 603.582031 C 289.890625 604.015625 287.171875 603.234375 284.777344 601.410156 C 281.625 599.015625 279.554688 595.839844 278.3125 592.140625 C 277.554688 589.832031 278.699219 588.257812 281.117188 588.28125 C 284.109375 588.28125 287.074219 588.628906 289.929688 589.558594 C 292.261719 590.316406 294.359375 591.570312 296.183594 593.230469 C 296.53125 593.554688 296.777344 594.027344 297.324219 594.125 C 297.671875 593.878906 297.546875 593.503906 297.570312 593.171875 C 297.683594 591.484375 298.09375 589.832031 298.550781 588.21875 C 299.234375 585.886719 299.878906 583.539062 300.5625 581.207031 C 300.722656 580.6875 300.886719 580.152344 301.109375 579.65625 C 301.816406 578.191406 303.09375 577.722656 304.582031 578.464844 C 305.699219 579.011719 306.519531 579.878906 307.1875 580.859375 C 310.203125 585.476562 311.023438 590.378906 309.039062 595.628906 C 308.441406 597.203125 307.625 598.703125 306.804688 600.167969 C 305.6875 602.152344 305.339844 604.25 305.800781 606.507812 C 306.097656 607.925781 306.234375 609.363281 306.457031 610.777344 C 306.507812 611.101562 306.457031 611.574219 306.890625 611.621094 C 307.300781 611.671875 307.414062 611.210938 307.574219 610.941406 C 308.195312 609.6875 308.800781 608.433594 309.421875 607.21875 C 310.613281 604.796875 312.027344 602.539062 313.988281 600.640625 C 316.757812 597.949219 320.082031 596.421875 323.890625 595.914062 C 324.277344 595.863281 324.6875 595.824219 325.082031 595.914062 C 326.386719 596.074219 327.117188 596.96875 327.042969 598.246094 C 327.042969 598.628906 326.929688 599.039062 326.796875 599.410156 C 325.742188 602.625 324.460938 605.753906 322.710938 608.679688 C 321.707031 610.367188 320.480469 611.859375 318.902344 613.035156 C 316.917969 614.5 314.746094 615.320312 312.214844 614.996094 C 311.941406 614.996094 311.644531 614.835938 311.371094 615.085938 C 311.257812 615.40625 311.507812 615.65625 311.617188 615.902344 C 313.304688 619.214844 313.742188 622.703125 312.945312 626.339844 C 312.785156 627.046875 312.835938 627.503906 313.40625 628.027344 C 315.339844 629.875 316.394531 632.246094 316.804688 634.851562 C 317.105469 636.652344 317.5625 638.328125 318.21875 639.988281 C 318.46875 640.648438 318.679688 641.292969 318.792969 641.972656 C 318.929688 642.792969 319.410156 643.253906 320.070312 643.636719 C 320.453125 643.089844 320.253906 642.605469 320.230469 642.136719 C 320.070312 636.203125 320.117188 630.308594 321.023438 624.441406 C 321.484375 621.339844 322.054688 618.273438 323.097656 615.308594 C 323.917969 612.914062 325.195312 610.851562 327.140625 609.164062 C 329.699219 606.96875 332.777344 606.125 336.027344 605.714844 C 336.683594 605.628906 337.332031 605.554688 337.964844 605.605469 C 341.957031 605.902344 345.90625 605.332031 349.839844 604.984375 C 356.960938 604.363281 364.109375 604.113281 371.269531 603.929688 C 387.113281 603.519531 402.972656 603.605469 418.820312 604.015625 C 432.382812 604.363281 445.921875 605.15625 459.433594 606.210938 C 465.277344 606.671875 471.125 607.082031 476.945312 607.789062 C 479.847656 608.136719 482.761719 608.582031 485.640625 609.066406 C 488.683594 609.585938 490.617188 611.375 491.511719 614.316406 C 491.921875 615.703125 492.105469 617.144531 492.21875 618.582031 C 492.789062 628.078125 492.652344 637.558594 492.03125 647.023438 C 491.597656 653.367188 491.027344 659.695312 490.730469 666.058594 C 490.679688 667.386719 490.570312 668.753906 490.40625 670.054688 C 489.726562 675.144531 489.972656 680.28125 489.515625 685.367188 C 489.191406 688.84375 488.695312 692.28125 487.691406 695.617188 C 487.167969 697.355469 486.273438 698.90625 485.183594 700.320312 C 484.089844 701.734375 482.601562 702.417969 480.890625 702.789062 C 477.601562 703.523438 474.25 703.980469 470.886719 704.316406 C 463.304688 705.050781 455.710938 705.320312 448.105469 705.234375 C 444.132812 705.234375 440.164062 705.757812 436.191406 705.96875 C 429.527344 706.351562 422.902344 706.699219 416.238281 706.539062 C 414.6875 706.539062 413.160156 706.488281 411.621094 706.539062 C 400.441406 706.8125 389.273438 706.402344 378.09375 705.71875 C 370.699219 705.261719 363.300781 705.261719 355.882812 705.285156 C 350.769531 705.285156 345.65625 705.125 340.570312 704.417969 C 337.304688 703.957031 334.152344 703.050781 330.941406 702.34375 C 327.925781 701.6875 325.691406 699.835938 324.113281 697.207031 C 322.488281 694.488281 321.421875 691.574219 321.210938 688.371094 C 320.886719 683.445312 320.914062 678.53125 320.9375 673.605469 C 321.023438 664.957031 320.714844 656.320312 320.390625 647.671875 C 320.390625 646.828125 320.144531 646.367188 319.273438 646.28125 C 319.027344 646.28125 318.792969 646.167969 318.566406 646.058594 C 317.859375 645.671875 317.585938 646.058594 317.425781 646.675781 C 317.289062 647.160156 317.105469 647.632812 316.90625 648.09375 C 315.851562 650.625 314.210938 652.707031 312.175781 654.507812 C 308.183594 658.070312 303.417969 659.894531 298.144531 660.488281 C 297.347656 660.574219 296.566406 660.710938 295.773438 660.761719 C 293.515625 660.921875 292.507812 659.53125 293.402344 657.472656 C 293.515625 657.25 293.625 657.015625 293.726562 656.789062 C 295.140625 654.210938 296.765625 651.789062 298.703125 649.554688 C 301.878906 645.832031 305.910156 643.550781 310.613281 642.347656 C 311.136719 642.210938 311.667969 642.074219 312.511719 641.863281 L 312.5625 641.863281 L 312.5625 641.835938 Z M 400.605469 610.953125 C 383.390625 611.226562 368.003906 611.175781 352.59375 610.953125 C 348.574219 610.902344 344.539062 610.765625 340.519531 610.703125 C 338.210938 610.703125 335.976562 611.050781 333.804688 611.84375 C 331.25 612.738281 329.488281 614.425781 328.695312 617.070312 C 328.394531 618.074219 328.121094 619.078125 327.875 620.085938 C 326.433594 626.585938 326.113281 633.164062 326.347656 639.789062 C 326.808594 653.054688 327.515625 666.296875 327.578125 679.5625 C 327.578125 682.441406 327.851562 685.320312 328.234375 688.183594 C 328.558594 690.71875 329.511719 693 331.0625 694.984375 C 332.429688 696.746094 334.140625 698 336.523438 698.222656 C 341.113281 698.660156 345.742188 699.042969 350.335938 699.367188 C 355.632812 699.75 360.933594 700.347656 366.242188 700.394531 C 378.070312 700.507812 389.894531 700.394531 401.71875 700.011719 C 413.84375 699.625 425.941406 699.253906 438.066406 698.917969 C 443.128906 698.78125 448.203125 698.695312 453.265625 698.808594 C 459.929688 698.945312 466.558594 698.261719 473.222656 697.890625 C 475.34375 697.753906 477.328125 697.292969 479.3125 696.636719 C 481.484375 695.929688 482.960938 694.488281 483.832031 692.390625 C 484.128906 691.660156 484.375 690.890625 484.511719 690.109375 C 485.492188 684.128906 486.199219 678.121094 486.226562 672.027344 C 486.335938 657.460938 486.0625 642.90625 485.953125 628.363281 C 485.953125 625.074219 485.789062 621.808594 485.429688 618.546875 C 485.109375 615.644531 484.886719 615.308594 481.980469 614.800781 C 476.65625 613.820312 471.347656 612.839844 466 611.996094 C 462.871094 611.511719 459.71875 611.015625 456.542969 610.964844 C 451.679688 610.914062 446.816406 610.828125 441.9375 610.828125 C 427.582031 610.828125 413.222656 610.941406 400.664062 610.988281 L 400.617188 610.988281 L 400.617188 610.941406 Z M 309.683594 624.128906 C 309.734375 622.46875 309.523438 620.867188 308.890625 619.316406 C 307.722656 616.410156 306.46875 615.59375 303.34375 615.703125 L 302.449219 615.703125 C 301.828125 615.703125 301.582031 615.976562 301.554688 616.597656 C 301.554688 617.902344 301.28125 619.15625 300.4375 620.210938 C 300.277344 620.433594 300.253906 620.644531 300.390625 620.890625 C 300.613281 621.214844 300.871094 621.140625 301.183594 621.027344 C 301.730469 620.804688 302.300781 620.570312 302.871094 620.433594 C 303.601562 620.246094 304.671875 619.726562 305.066406 620.433594 C 305.589844 621.324219 304.582031 622.007812 303.925781 622.578125 C 303.21875 623.199219 302.460938 623.746094 301.59375 624.15625 C 301.109375 624.402344 301.046875 624.835938 301.046875 625.296875 C 301.046875 625.757812 301.480469 625.757812 301.804688 625.867188 C 303.464844 626.351562 304.929688 627.144531 306.121094 628.375 C 306.554688 628.832031 307.078125 628.859375 307.625 628.722656 C 308.578125 628.449219 309.148438 627.851562 309.386719 626.898438 C 309.632812 625.980469 309.683594 625.046875 309.660156 624.09375 L 309.683594 624.117188 Z M 290.125 622.480469 C 289.644531 622.480469 289.234375 622.53125 288.847656 622.53125 C 287.050781 622.617188 285.859375 623.535156 285.261719 625.199219 C 284.257812 627.941406 284.578125 630.582031 286.105469 633.050781 C 287.246094 634.925781 289.207031 635.386719 291.167969 634.378906 C 292.0625 633.921875 292.769531 633.238281 293.316406 632.394531 C 293.910156 631.476562 294.234375 630.410156 294.679688 629.429688 C 295.027344 628.609375 294.519531 628.375 294.023438 628.015625 C 293.476562 627.605469 293.230469 628.0625 292.929688 628.398438 C 292.222656 629.15625 291.515625 629.949219 290.597656 630.472656 C 290.113281 630.746094 289.566406 630.992188 289.070312 630.519531 C 288.527344 630.035156 288.722656 629.429688 289.070312 628.894531 C 289.507812 628.164062 290.101562 627.53125 290.785156 627.046875 C 291.839844 626.3125 292.582031 625.496094 291.902344 624.105469 C 291.8125 623.945312 291.902344 623.722656 291.851562 623.511719 C 291.800781 622.800781 291.390625 622.457031 290.660156 622.457031 L 290.175781 622.457031 L 290.152344 622.480469 Z M 297.523438 628.96875 C 297.386719 629.105469 297.273438 629.191406 297.273438 629.269531 C 297.386719 630.894531 297.027344 632.417969 296.320312 633.859375 C 296.230469 634.019531 296.207031 634.242188 296.183594 634.429688 C 295.882812 637.804688 298.144531 640.226562 301.503906 640.136719 C 302.347656 640.136719 303.191406 639.976562 303.949219 639.617188 C 304.820312 639.230469 305.390625 638.585938 305.710938 637.71875 C 306.53125 635.324219 305.625 632.011719 303.675781 630.410156 C 302.648438 629.566406 301.554688 628.785156 300.5 627.964844 C 300.277344 627.804688 300.089844 627.503906 299.679688 627.804688 C 299.90625 628.1875 300.140625 628.535156 300.339844 628.921875 C 301.070312 630.335938 301.292969 631.824219 301.023438 633.414062 C 300.933594 633.894531 300.835938 634.441406 300.203125 634.503906 C 299.632812 634.554688 299.46875 634.046875 299.308594 633.660156 C 298.761719 632.433594 298.304688 631.191406 298.03125 629.851562 C 297.945312 629.527344 297.980469 629.144531 297.511719 628.957031 L 297.511719 628.980469 Z M 298.15625 616.710938 C 298.292969 614.042969 297.101562 611.4375 295.078125 609.773438 C 294.023438 608.90625 292.882812 608.742188 291.628906 609.289062 C 288.5 610.617188 287.335938 613.992188 288.984375 616.957031 C 289.644531 618.148438 290.5625 619.105469 291.542969 620.035156 C 292.359375 620.792969 292.359375 620.769531 293.277344 620.035156 C 293.625 619.761719 293.984375 619.464844 294.394531 619.304688 C 295.054688 619.03125 295.128906 618.597656 294.917969 618 C 294.753906 617.542969 294.644531 617.046875 294.480469 616.585938 C 294.234375 615.929688 293.9375 615.308594 293.6875 614.648438 C 293.304688 613.695312 293.414062 613.050781 293.960938 612.800781 C 294.445312 612.578125 294.917969 612.851562 295.402344 613.757812 C 295.921875 614.710938 296.355469 615.71875 296.628906 616.773438 C 296.742188 617.15625 296.851562 617.527344 296.878906 617.9375 C 296.925781 618.535156 297.175781 618.917969 297.769531 618.855469 C 298.367188 618.808594 298.117188 618.261719 298.179688 617.902344 L 298.179688 616.710938 Z M 303.480469 581.503906 C 303.316406 582.621094 303.15625 583.652344 302.996094 584.683594 C 302.609375 587.125 301.851562 589.496094 301.257812 591.917969 C 300.636719 594.472656 300.464844 597.027344 301.070312 599.585938 C 301.234375 600.269531 301.371094 601.023438 302.101562 601.683594 C 302.695312 599.261719 304.085938 597.4375 305.203125 595.453125 C 305.527344 594.859375 305.886719 594.226562 306.097656 593.578125 C 307.648438 589.199219 306.667969 585.289062 303.949219 581.703125 C 303.902344 581.65625 303.789062 581.617188 303.492188 581.519531 Z M 298.316406 656.355469 C 304.59375 655.808594 312.808594 649.371094 313.679688 644.417969 C 307.214844 646.539062 302.015625 650.3125 298.316406 656.355469 Z M 282.136719 592.265625 C 283.636719 595.304688 285.511719 597.722656 288.4375 599.199219 C 289.257812 599.609375 290.101562 599.859375 291.019531 599.882812 C 292.707031 599.96875 294.359375 599.636719 296.019531 599.3125 C 294.011719 595.09375 288.054688 592.027344 282.121094 592.277344 Z M 322.242188 599.957031 C 316.421875 601.695312 313.269531 606.210938 310.140625 611.050781 C 311.011719 611 311.695312 610.890625 312.375 610.914062 C 314.546875 611.050781 316.234375 610.097656 317.625 608.542969 C 319.882812 606.074219 321.023438 602.996094 322.242188 599.957031 Z M 315.167969 639.195312 C 315.28125 639.144531 315.417969 639.082031 315.515625 639.035156 C 314.398438 635.855469 312.6875 632.941406 311.332031 629.675781 C 310.464844 630.410156 309.707031 630.957031 308.777344 631.179688 C 308.257812 631.316406 308.183594 631.589844 308.292969 632.046875 C 308.542969 633.164062 308.777344 634.242188 309.980469 634.789062 C 310.414062 634.976562 310.773438 635.386719 311.148438 635.707031 C 312.511719 636.847656 313.839844 638.015625 315.167969 639.183594 Z M 298.863281 623.722656 C 298.863281 622.492188 297.96875 621.460938 296.964844 621.460938 C 295.957031 621.460938 294.890625 622.355469 294.890625 623.398438 C 294.890625 624.441406 295.921875 625.867188 296.828125 625.90625 C 297.832031 625.90625 298.835938 624.851562 298.863281 623.734375 Z M 298.863281 623.722656 " fill-opacity="1" fill-rule="nonzero"/><path fill="#000000" d="M 447.011719 528.371094 L 439.097656 528.371094 C 423.050781 528.644531 406.980469 528.753906 390.949219 528.804688 C 383.640625 528.804688 376.34375 529.460938 369.085938 529.996094 C 358.238281 530.789062 347.355469 531.460938 336.511719 531.933594 C 330.308594 532.203125 324.089844 532.589844 317.886719 532.367188 C 311.382812 532.144531 304.992188 532.851562 298.578125 533.53125 C 295.996094 533.804688 293.441406 533.96875 290.832031 533.96875 C 288.226562 533.96875 286.863281 533.667969 284.988281 532.988281 C 281.378906 531.660156 278.648438 529.3125 277.074219 525.753906 C 273.261719 517.128906 271.476562 508.195312 272.53125 498.726562 C 272.941406 495.050781 273.535156 491.441406 274.429688 487.878906 C 275.980469 481.8125 279.109375 476.761719 283.699219 472.542969 C 288.539062 468.085938 294.171875 464.984375 300.3125 462.777344 C 310.476562 459.128906 320.863281 456.3125 331.5 454.351562 C 344.191406 452.019531 357 450.949219 369.890625 450.492188 C 387.265625 449.871094 404.660156 449.808594 422.070312 450.242188 C 429.082031 450.429688 436.066406 450.765625 443.054688 451.25 C 448.351562 451.632812 453.6875 451.472656 458.988281 451.734375 C 471.929688 452.390625 484.710938 454.101562 497.320312 457.007812 C 500.171875 457.664062 502.976562 458.558594 505.671875 459.722656 C 510.507812 461.820312 514.730469 464.785156 517.929688 468.945312 C 525.1875 478.398438 529.273438 489.058594 529.371094 501.082031 C 529.421875 506.839844 528.476562 512.476562 526.378906 517.859375 C 525.488281 520.191406 524.308594 522.378906 522.707031 524.324219 C 522.113281 525.058594 521.453125 525.738281 520.609375 526.222656 C 518.675781 527.339844 516.726562 528.421875 514.789062 529.535156 C 514.082031 529.945312 513.328125 530.082031 512.53125 530.15625 C 508.3125 530.542969 504.082031 530.046875 499.863281 529.996094 C 493.148438 529.910156 486.460938 529.671875 479.746094 529.449219 C 470.417969 529.175781 461.074219 528.855469 451.742188 528.582031 C 450.164062 528.53125 448.5625 528.582031 446.988281 528.582031 L 446.988281 528.332031 Z M 411.746094 456.796875 C 406.585938 456.796875 401.410156 456.707031 396.246094 456.796875 C 381.183594 457.09375 366.15625 457.664062 351.167969 459.464844 C 340.828125 460.71875 330.617188 462.367188 320.554688 465.148438 C 314.210938 466.882812 307.910156 468.683594 301.816406 471.128906 C 297.0625 473.027344 292.734375 475.582031 289.011719 479.144531 C 285.769531 482.269531 283.597656 485.96875 282.542969 490.347656 C 281.726562 493.6875 281.21875 497.0625 280.832031 500.488281 C 279.988281 507.773438 281.21875 514.734375 283.984375 521.472656 C 285.152344 524.324219 287.273438 525.714844 290.1875 526.125 C 290.871094 526.210938 291.578125 526.210938 292.285156 526.234375 C 300.933594 526.421875 309.570312 526.234375 318.21875 525.851562 C 323.765625 525.601562 329.339844 525.304688 334.886719 524.933594 C 342.667969 524.414062 350.433594 523.765625 358.238281 523.308594 C 365.933594 522.847656 373.625 522.511719 381.320312 522.253906 C 399.398438 521.570312 417.480469 521.273438 435.558594 521.570312 C 452.746094 521.867188 469.957031 522.300781 487.132812 522.847656 C 491.808594 522.984375 496.460938 523.195312 501.105469 523.71875 C 504.441406 524.101562 507.839844 523.804688 511.191406 523.035156 C 513.910156 522.414062 515.945312 520.886719 517.421875 518.519531 C 518.242188 517.214844 518.886719 515.824219 519.40625 514.359375 C 521.230469 509.085938 521.964844 503.652344 521.554688 498.082031 C 521.121094 492.285156 519.132812 486.9375 516.554688 481.800781 C 515.164062 479.058594 513.539062 476.414062 511.464844 474.105469 C 508.957031 471.300781 506.191406 468.808594 502.679688 467.332031 C 499.464844 466.003906 496.175781 464.824219 492.839844 463.90625 C 483.917969 461.460938 474.785156 459.984375 465.652344 458.546875 C 460.835938 457.789062 455.949219 457.726562 451.082031 457.492188 C 437.980469 456.832031 424.875 456.574219 411.746094 456.785156 L 411.746094 456.808594 Z M 411.746094 456.796875 " fill-opacity="1" fill-rule="nonzero"/><path fill="#000000" d="M 391.84375 544.851562 C 372 544.328125 352.371094 546.449219 332.839844 549.9375 C 309.507812 554.117188 286.703125 560.296875 264.15625 567.535156 C 263.3125 567.804688 262.441406 568.078125 261.597656 568.289062 C 261.050781 568.425781 260.507812 568.476562 259.972656 568.289062 C 258.941406 567.992188 258.558594 567.234375 258.96875 566.21875 C 259.289062 565.421875 259.921875 564.964844 260.542969 564.480469 C 264.949219 561.054688 269.789062 558.476562 274.976562 556.539062 C 285.609375 552.59375 296.503906 549.527344 307.546875 546.882812 C 320.976562 543.671875 334.550781 540.953125 348.226562 539.078125 C 364.160156 536.882812 380.164062 536.136719 396.273438 536.636719 C 410.445312 537.070312 424.554688 538.261719 438.601562 540.011719 C 454.53125 541.996094 470.378906 544.550781 486.078125 547.953125 C 500.023438 550.96875 513.808594 554.527344 527.300781 559.320312 C 531.132812 560.683594 534.941406 562.148438 538.554688 564.019531 C 539.832031 564.679688 541.109375 565.386719 542.203125 566.304688 C 542.660156 566.6875 543.09375 567.097656 543.367188 567.632812 C 543.640625 568.167969 543.59375 568.203125 543.367188 568.476562 C 543.121094 568.800781 542.824219 568.5625 542.574219 568.476562 C 534.421875 565.757812 526.070312 563.6875 517.71875 561.625 C 496.191406 556.351562 474.410156 552.269531 452.410156 549.367188 C 434.765625 547.035156 417.070312 545.371094 399.261719 544.773438 C 396.792969 544.6875 394.289062 544.773438 391.816406 544.773438 L 391.816406 544.824219 Z M 391.84375 544.851562 " fill-opacity="1" fill-rule="nonzero"/><path fill="#000000" d="M 592.707031 660.328125 C 592.65625 667.5625 592 674.710938 589.964844 681.671875 C 589.257812 684.117188 588.339844 686.460938 587.085938 688.683594 C 586.214844 690.207031 585.210938 691.621094 583.933594 692.8125 C 580.558594 695.917969 576.425781 696.078125 572.839844 693.25 C 571.375 692.105469 570.234375 690.691406 569.230469 689.117188 C 567.566406 686.558594 566.425781 683.753906 565.554688 680.851562 C 563.59375 674.324219 562.75 667.660156 562.566406 660.875 C 562.265625 651.242188 563.546875 641.839844 566.808594 632.753906 C 567.601562 630.558594 568.519531 628.398438 569.886719 626.5 C 570.730469 625.308594 571.6875 624.242188 572.902344 623.460938 C 575.507812 621.746094 578.175781 621.613281 580.917969 623.136719 C 582.816406 624.191406 584.230469 625.804688 585.433594 627.59375 C 587.371094 630.472656 588.613281 633.660156 589.617188 636.949219 C 591.21875 642.199219 592.085938 647.582031 592.496094 653.042969 C 592.683594 655.464844 592.816406 657.90625 592.769531 660.328125 Z M 568.371094 656.019531 C 568.421875 661.65625 568.917969 667.226562 570.058594 672.734375 C 570.929688 676.917969 572.09375 681.027344 574.054688 684.859375 C 574.652344 686 575.308594 687.117188 576.226562 688.035156 C 577.667969 689.476562 578.785156 689.5 580.199219 688.085938 C 581.226562 687.054688 581.9375 685.804688 582.570312 684.5 C 583.847656 681.832031 584.640625 679.039062 585.261719 676.148438 C 586.8125 668.9375 587.136719 661.679688 586.699219 654.347656 C 586.351562 648.589844 585.535156 642.867188 583.796875 637.359375 C 583.066406 634.988281 582.171875 632.679688 580.804688 630.558594 C 580.148438 629.554688 579.441406 628.597656 578.4375 627.914062 C 577.457031 627.234375 576.5 627.234375 575.53125 627.914062 C 574.664062 628.511719 573.980469 629.304688 573.410156 630.171875 C 571.808594 632.59375 570.667969 635.238281 570.035156 638.089844 C 568.734375 643.984375 568.371094 649.964844 568.410156 656.007812 L 568.386719 656.007812 Z M 568.371094 656.019531 " fill-opacity="1" fill-rule="nonzero"/><path fill="#000000" d="M 243.964844 653.007812 C 243.878906 663.09375 242.910156 672.089844 240.21875 680.875 C 239.078125 684.597656 237.613281 688.160156 235.488281 691.449219 C 234.507812 692.949219 233.394531 694.328125 232.015625 695.496094 C 227.746094 699.140625 222.820312 698.808594 219.074219 694.625 C 217.980469 693.398438 217.113281 692.019531 216.378906 690.519531 C 214.417969 686.496094 213.390625 682.203125 212.820312 677.800781 C 211.058594 664.472656 212.296875 651.453125 216.492188 638.671875 C 217.523438 635.546875 218.5625 632.445312 220.191406 629.589844 C 221.171875 627.902344 222.261719 626.300781 223.640625 624.9375 C 224.371094 624.203125 225.191406 623.523438 226.085938 623 C 229.210938 621.265625 232.25 621.402344 235.167969 623.484375 C 237.015625 624.8125 238.292969 626.636719 239.347656 628.648438 C 241.222656 632.207031 242.179688 636.066406 242.859375 639.988281 C 243.679688 644.605469 243.914062 649.257812 243.976562 652.980469 Z M 238.714844 655.699219 C 238.765625 652.027344 238.605469 648.351562 238.121094 644.691406 C 237.574219 640.648438 236.730469 636.675781 235.105469 632.890625 C 234.449219 631.363281 233.691406 629.925781 232.574219 628.710938 C 230.972656 626.972656 229.472656 626.835938 227.597656 628.273438 C 226.234375 629.304688 225.203125 630.671875 224.308594 632.109375 C 221.976562 635.894531 220.289062 639.964844 219.359375 644.34375 C 218.789062 647.0625 218.304688 649.804688 217.96875 652.558594 C 216.988281 661.097656 216.851562 669.609375 218.402344 678.085938 C 218.949219 681.125 219.730469 684.089844 220.984375 686.917969 C 221.503906 688.085938 222.125 689.226562 222.945312 690.234375 C 224.792969 692.542969 226.417969 692.675781 228.578125 690.667969 C 229.421875 689.875 230.105469 688.980469 230.75 688.023438 C 231.890625 686.285156 232.820312 684.414062 233.605469 682.476562 C 237.054688 673.890625 238.394531 664.882812 238.691406 655.699219 Z M 238.714844 655.699219 " fill-opacity="1" fill-rule="nonzero"/><path fill="#000000" d="M 530.996094 685.304688 C 533.230469 660.539062 537.574219 636.453125 545.265625 613.011719 C 548.605469 602.785156 552.664062 592.859375 557.984375 583.515625 C 559.265625 581.257812 560.59375 579.0625 562.144531 576.988281 C 562.441406 576.578125 562.765625 576.195312 563.125 575.871094 C 563.421875 575.574219 563.78125 575.4375 564.214844 575.625 C 564.625 575.808594 564.785156 576.167969 564.8125 576.578125 C 564.859375 577.175781 564.675781 577.746094 564.464844 578.316406 C 563.757812 580.277344 562.886719 582.175781 562.019531 584.074219 C 554.078125 601.285156 548.480469 619.253906 544.421875 637.769531 C 541.480469 651.167969 539.335938 664.707031 537.546875 678.308594 C 537.113281 681.644531 536.570312 684.996094 536.046875 688.308594 C 535.9375 689.105469 535.773438 689.886719 535.453125 690.59375 C 535.066406 691.4375 534.472656 691.984375 533.515625 691.984375 C 532.558594 691.984375 531.941406 691.4375 531.53125 690.617188 C 531.121094 689.796875 531.046875 688.90625 531.007812 688.011719 L 531.007812 685.269531 L 530.984375 685.292969 Z M 530.996094 685.304688 " fill-opacity="1" fill-rule="nonzero"/><path fill="#000000" d="M 279.691406 688.792969 C 279.777344 689.6875 279.742188 690.59375 279.640625 691.460938 C 279.554688 691.945312 279.417969 692.441406 279.183594 692.875 C 278.226562 694.476562 276.488281 694.539062 275.460938 692.988281 C 274.914062 692.144531 274.664062 691.164062 274.503906 690.183594 C 273.90625 686.050781 273.3125 681.917969 272.765625 677.785156 C 271.191406 666.121094 269.640625 654.433594 267.246094 642.90625 C 264.277344 628.636719 260.148438 614.6875 255.308594 600.925781 C 252.972656 594.261719 250.554688 587.660156 247.75 581.15625 C 247.402344 580.339844 246.992188 579.558594 246.609375 578.738281 C 246.222656 577.917969 246.285156 577.871094 246.71875 577.511719 C 247.15625 577.164062 247.5625 577.375 247.972656 577.621094 C 248.570312 577.96875 249.027344 578.515625 249.476562 579.0625 C 250.589844 580.476562 251.511719 582.003906 252.378906 583.578125 C 256.1875 590.5625 259.152344 597.960938 261.945312 605.40625 C 268.859375 623.871094 273.5625 642.867188 276.378906 662.363281 C 277.519531 670.28125 278.636719 678.207031 279.503906 686.148438 C 279.617188 687.042969 279.640625 687.949219 279.726562 688.816406 L 279.703125 688.792969 Z M 279.691406 688.792969 " fill-opacity="1" fill-rule="nonzero"/><path fill="#000000" d="M 381.40625 734.570312 C 388.890625 734.816406 397.664062 735.164062 406.449219 735.390625 C 411.808594 735.5 417.183594 735.390625 422.542969 735.339844 C 432.976562 735.226562 443.425781 735.339844 453.839844 735.664062 C 457.015625 735.75 460.203125 735.960938 463.355469 736.121094 C 464.113281 736.121094 464.855469 736.308594 465.503906 736.691406 C 466.023438 737.015625 466.046875 737.375 465.503906 737.722656 C 464.683594 738.269531 463.742188 738.40625 462.808594 738.480469 C 459.792969 738.753906 456.777344 739 453.75 739.1875 C 440.152344 740.140625 426.539062 739.980469 412.9375 740.351562 C 403.605469 740.625 394.261719 740.8125 384.90625 740.738281 C 371.890625 740.625 358.882812 740.117188 345.890625 739.273438 C 337.902344 738.753906 329.933594 738.269531 321.941406 737.671875 C 314.300781 737.101562 306.691406 736.554688 299.136719 735.300781 C 298.105469 735.140625 297.101562 734.894531 296.09375 734.621094 C 295.660156 734.507812 295.25 734.320312 294.84375 734.136719 C 294.570312 734 294.296875 733.839844 294.359375 733.476562 C 294.40625 733.179688 294.679688 733.128906 294.902344 733.042969 C 295.226562 732.933594 295.585938 732.882812 295.933594 732.820312 C 297.808594 732.523438 299.679688 732.472656 301.59375 732.410156 C 310.476562 732.164062 319.375 732.460938 328.257812 732.757812 C 336.199219 733.03125 344.167969 733.21875 352.109375 733.492188 C 361.441406 733.8125 370.785156 734.171875 381.445312 734.546875 L 381.417969 734.546875 Z M 381.40625 734.570312 " fill-opacity="1" fill-rule="nonzero"/><path fill="#000000" d="M 568.621094 732.996094 C 565.085938 732.996094 561.546875 732.996094 558.074219 732.285156 C 557.339844 732.148438 556.632812 731.9375 555.925781 731.667969 C 555.40625 731.480469 554.871094 731.183594 554.972656 730.5 C 555.058594 729.878906 555.652344 729.816406 556.136719 729.769531 C 558.210938 729.496094 560.269531 729.222656 562.34375 729.011719 C 570.929688 728.117188 579.527344 727.273438 588.113281 726.34375 C 593.636719 725.746094 599.121094 724.71875 604.59375 723.785156 C 605.4375 723.648438 606.257812 723.539062 607.125 723.648438 C 607.585938 723.699219 608.042969 723.835938 608.179688 724.332031 C 608.316406 724.816406 607.957031 725.175781 607.632812 725.472656 C 607.089844 725.933594 606.441406 726.183594 605.808594 726.453125 C 598.875 729.285156 591.675781 731.070312 584.21875 731.976562 C 579.03125 732.597656 573.832031 732.980469 568.609375 733.007812 Z M 568.621094 732.996094 " fill-opacity="1" fill-rule="nonzero"/><path fill="#000000" d="M 245.703125 727.769531 C 238.058594 727.472656 229.792969 726.714844 221.59375 725.574219 C 215.523438 724.730469 209.46875 723.996094 203.488281 722.746094 C 202.480469 722.519531 201.476562 722.222656 200.472656 721.925781 C 200.085938 721.8125 199.714844 721.628906 199.417969 721.402344 C 198.957031 721.058594 199.03125 720.535156 199.601562 720.398438 C 200.285156 720.261719 200.992188 720.214844 201.675781 720.214844 C 205.285156 720.214844 208.910156 720.511719 212.519531 720.785156 C 219.667969 721.304688 226.742188 722.246094 233.863281 722.929688 C 238.457031 723.363281 243.085938 723.613281 247.652344 724.257812 C 249.722656 724.554688 251.757812 724.964844 253.71875 725.722656 C 254.339844 725.96875 255.21875 726.15625 255.046875 727.050781 C 254.910156 727.945312 254.015625 727.84375 253.335938 727.871094 C 251 727.980469 248.65625 727.871094 245.664062 727.78125 L 245.714844 727.78125 L 245.714844 727.757812 Z M 245.703125 727.769531 " fill-opacity="1" fill-rule="nonzero"/><path fill="#000000" d="M 516.988281 827.363281 C 516.875 828.640625 516.367188 829.96875 515.757812 831.285156 C 515 832.972656 513.773438 834.363281 512.71875 835.851562 C 512.421875 836.285156 511.984375 836.507812 511.464844 836.558594 C 510.375 836.695312 509.863281 836.148438 510.101562 835.09375 C 510.210938 834.660156 510.398438 834.25 510.585938 833.867188 C 511.75 831.582031 512.980469 829.300781 514.144531 827.015625 C 514.257812 826.792969 514.394531 826.582031 514.53125 826.359375 C 514.878906 825.789062 515.324219 825.328125 516.082031 825.492188 C 516.703125 825.652344 517 826.199219 516.949219 827.339844 L 516.976562 827.363281 Z M 516.988281 827.363281 " fill-opacity="1" fill-rule="nonzero"/><path fill="#000000" d="M 392.710938 465.59375 C 392.625 466.277344 392.226562 466.785156 391.867188 467.304688 C 389.722656 470.410156 387.214844 473.261719 384.609375 475.957031 C 377.210938 483.597656 369.519531 490.90625 361.714844 498.117188 C 357.992188 501.542969 354.230469 504.941406 350.324219 508.144531 C 349.453125 508.875 348.5 509.535156 347.578125 510.214844 C 347.234375 510.464844 346.761719 510.738281 346.351562 510.351562 C 345.941406 509.941406 346.214844 509.507812 346.402344 509.125 C 346.859375 508.167969 347.519531 507.363281 348.136719 506.542969 C 349.738281 504.507812 351.453125 502.597656 353.226562 500.699219 C 360.96875 492.433594 369.207031 484.679688 377.398438 476.847656 C 381.394531 473.039062 385.316406 469.179688 389.585938 465.667969 C 390.15625 465.207031 390.703125 464.664062 391.457031 464.476562 C 392.351562 464.253906 392.824219 464.699219 392.710938 465.570312 Z M 392.710938 465.59375 " fill-opacity="1" fill-rule="nonzero"/><path fill="#000000" d="M 448.066406 467.617188 C 448.066406 468.074219 447.84375 468.484375 447.609375 468.871094 C 447.148438 469.625 446.554688 470.308594 445.921875 470.941406 C 444.667969 472.132812 443.414062 473.363281 442.085938 474.476562 C 432.570312 482.558594 422.59375 490.003906 412.207031 496.875 C 411.660156 497.222656 411.113281 497.558594 410.542969 497.882812 C 410.269531 498.019531 409.972656 498.066406 409.722656 497.832031 C 409.476562 497.597656 409.539062 497.261719 409.675781 496.988281 C 409.898438 496.605469 410.109375 496.195312 410.40625 495.871094 C 411.300781 494.890625 412.230469 493.910156 413.210938 492.992188 C 416.175781 490.1875 419.277344 487.582031 422.429688 484.976562 C 428.1875 480.1875 433.957031 475.410156 439.753906 470.644531 C 441.144531 469.503906 442.558594 468.410156 444.070312 467.492188 C 444.828125 467.03125 445.648438 466.625 446.542969 466.488281 C 447.410156 466.351562 448.066406 466.871094 448.09375 467.652344 L 448.066406 467.652344 Z M 448.066406 467.617188 " fill-opacity="1" fill-rule="nonzero"/><path fill="#000000" d="M 325.777344 477.667969 C 325.640625 478.238281 325.34375 478.808594 325.019531 479.355469 C 324.128906 480.855469 323.035156 482.210938 321.867188 483.488281 C 314.769531 491.34375 307.300781 498.800781 299.546875 505.996094 C 298.863281 506.65625 298.082031 507.1875 297.347656 507.734375 C 297.074219 507.957031 296.726562 508.082031 296.394531 507.785156 C 296.070312 507.511719 296.167969 507.125 296.394531 506.828125 C 296.777344 506.207031 297.1875 505.550781 297.621094 504.953125 C 299.421875 502.449219 301.371094 500.089844 303.378906 497.746094 C 308.242188 491.988281 313.28125 486.355469 318.308594 480.757812 C 319.363281 479.589844 320.453125 478.425781 321.707031 477.417969 C 322.5 476.800781 323.332031 476.253906 324.351562 476.117188 C 325.378906 475.957031 326.011719 476.574219 325.875 477.644531 L 325.828125 477.644531 L 325.800781 477.667969 Z M 325.777344 477.667969 " fill-opacity="1" fill-rule="nonzero"/><path fill="#000000" d="M 428.460938 507.226562 C 428.027344 507.226562 427.867188 506.929688 427.914062 506.519531 C 428.003906 506.058594 428.214844 505.675781 428.460938 505.289062 C 429.082031 504.335938 429.851562 503.464844 430.632812 502.648438 C 436.179688 497.101562 442.113281 491.960938 448.367188 487.171875 C 449.347656 486.414062 450.402344 485.78125 451.46875 485.136719 C 451.988281 484.816406 452.609375 484.652344 453.09375 485.1875 C 453.578125 485.734375 453.390625 486.328125 453.09375 486.851562 C 452.472656 487.742188 451.839844 488.648438 451.132812 489.492188 C 449.855469 491.019531 448.414062 492.398438 446.914062 493.710938 C 441.554688 498.464844 435.769531 502.683594 429.753906 506.566406 C 429.34375 506.839844 428.933594 507.164062 428.449219 507.226562 Z M 428.460938 507.226562 " fill-opacity="1" fill-rule="nonzero"/></svg>