<svg xmlns="http://www.w3.org/2000/svg" xmlns:xlink="http://www.w3.org/1999/xlink" zoomAndPan="magnify" preserveAspectRatio="xMidYMid meet" version="1.0" viewBox="340.58 399.84 260.65 264.28"><defs><clipPath id="151bab3729"><path d="M 340 399.757812 L 601.71875 399.757812 L 601.71875 664.507812 L 340 664.507812 Z M 340 399.757812 " clip-rule="nonzero"/></clipPath></defs><path fill="#f4f2eb" d="M 565.800781 509.652344 C 559.765625 500.316406 555.335938 490.980469 551.878906 480.417969 C 548.425781 469.824219 545.160156 458.941406 539.152344 449.453125 C 528.546875 432.699219 511.609375 421.011719 493.003906 414.707031 C 470.320312 407.042969 443.085938 407.027344 422.261719 419.921875 C 409.378906 427.894531 401.722656 439.878906 396.132812 453.136719 C 394.300781 453.875 392.753906 455.367188 392.027344 457.792969 C 387.765625 471.945312 382.210938 484.59375 371.605469 495.121094 C 360.75 505.882812 353.042969 518.484375 353.027344 534.261719 C 353.027344 542.402344 355.394531 549.34375 359.332031 555.285156 C 361.589844 562.605469 366.917969 568.441406 373.5625 572.535156 C 380.515625 576.808594 388.5 579.148438 396.519531 580.789062 C 402.046875 582.828125 407.542969 584.519531 412.652344 585.910156 C 415.578125 586.714844 417.980469 585.820312 419.605469 584.128906 C 426.402344 584.765625 433.230469 585.105469 440.054688 585.246094 C 464.703125 585.742188 489.519531 584.894531 514.136719 583.648438 C 526.644531 583.011719 539.265625 582.320312 551.667969 580.476562 C 561.765625 578.972656 571.410156 574.613281 576.5625 565.347656 C 587.210938 546.242188 576.316406 525.882812 565.800781 509.628906 Z M 565.800781 509.652344 " fill-opacity="1" fill-rule="nonzero"/><g clip-path="url(#151bab3729)"><path fill="#000000" d="M 468.234375 609.40625 C 467.820312 610.96875 467.429688 612.472656 467 613.96875 C 465.269531 619.933594 462.667969 625.503906 459.507812 630.832031 C 459.078125 631.558594 458.597656 632.273438 458.039062 632.910156 C 457.664062 633.339844 457.496094 633.375 458.195312 633.835938 C 458.910156 634.300781 459.558594 634.859375 460.128906 635.472656 C 461.132812 636.539062 461.863281 637.761719 462.300781 639.175781 C 462.652344 640.335938 462.609375 641.464844 462.160156 642.582031 C 461.863281 643.339844 461.480469 644.066406 461.078125 644.78125 C 459.6875 647.210938 458.179688 649.578125 456.554688 651.851562 C 454.683594 654.480469 452.824219 657.117188 451.03125 659.796875 C 450.519531 660.550781 449.992188 661.28125 449.390625 661.964844 C 448.351562 663.144531 447.050781 663.796875 445.503906 664.007812 C 442.605469 664.425781 440.070312 663.695312 437.824219 661.851562 C 435.9375 660.304688 434.429688 658.445312 433.257812 656.324219 C 432.296875 654.59375 432.269531 652.828125 433.058594 651.035156 C 433.449219 650.148438 433.972656 649.34375 434.515625 648.539062 C 437.207031 644.574219 440.117188 640.792969 443.328125 637.238281 C 444.039062 636.433594 444.753906 635.628906 445.40625 634.757812 C 445.964844 634.019531 446.597656 633.316406 447.25 632.652344 C 448.394531 631.496094 449.785156 631.09375 451.367188 631.355469 C 452.695312 631.574219 454.046875 631.785156 455.332031 632.28125 C 455.953125 632.511719 455.96875 632.5 456.320312 631.925781 C 459.375 627.015625 461.480469 621.695312 463.410156 616.261719 C 465.050781 611.660156 465.839844 606.910156 466.335938 602.078125 C 466.460938 600.898438 466.554688 599.710938 466.644531 598.53125 C 466.710938 597.832031 466.695312 597.816406 465.980469 597.804688 C 463.691406 597.726562 461.394531 597.648438 459.105469 597.570312 C 457.699219 597.519531 456.273438 597.429688 454.867188 597.371094 C 454.214844 597.34375 454.214844 597.371094 454.125 598.007812 C 453.925781 599.542969 453.425781 600.984375 452.808594 602.390625 C 450.769531 607.082031 447.898438 611.242188 444.371094 614.945312 C 441.539062 617.921875 438.550781 620.734375 435.441406 623.410156 C 433.84375 624.773438 432.164062 626.011719 430.359375 627.09375 C 429.761719 627.46875 429.773438 627.46875 430.113281 628.039062 C 430.542969 628.765625 430.996094 629.496094 431.414062 630.222656 C 431.878906 631.058594 432.246094 631.953125 432.464844 632.902344 C 432.761719 634.1875 432.542969 635.382812 431.722656 636.433594 C 431.398438 636.851562 431.058594 637.289062 430.671875 637.65625 C 425.875 642.222656 420.53125 645.988281 414.433594 648.617188 C 412.746094 649.34375 410.976562 649.867188 409.15625 650.164062 C 407.761719 650.382812 406.425781 650.214844 405.21875 649.464844 C 402.214844 647.632812 399.835938 645.265625 398.625 641.859375 C 397.402344 638.390625 398.003906 635.359375 400.546875 632.695312 C 401.496094 631.707031 402.589844 630.914062 403.71875 630.160156 C 407.453125 627.679688 411.339844 625.480469 415.378906 623.546875 C 416.277344 623.113281 417.160156 622.691406 418.058594 622.273438 C 419.265625 621.714844 420.515625 621.296875 421.851562 621.09375 C 424.253906 620.738281 426.113281 621.601562 427.492188 623.550781 C 427.726562 623.878906 427.832031 624.265625 428.15625 624.527344 C 428.246094 624.476562 428.339844 624.464844 428.402344 624.421875 C 433.511719 620.910156 438.246094 616.988281 442.289062 612.269531 C 445.925781 608.007812 448.746094 603.257812 450.988281 598.164062 C 451.015625 598.085938 451.050781 598.007812 451.078125 597.929688 C 451.328125 597.265625 451.328125 597.25 450.585938 597.230469 C 442.613281 596.984375 434.636719 596.609375 426.679688 596.023438 C 419.683594 595.511719 412.679688 594.921875 405.714844 594.148438 C 405.035156 594.070312 404.363281 593.980469 403.699219 593.875 C 403.296875 593.8125 403.078125 593.902344 402.941406 594.328125 C 402.746094 594.949219 402.492188 595.550781 402.230469 596.136719 C 401.855469 596.96875 401.359375 597.730469 400.746094 598.398438 C 399.316406 599.902344 397.496094 600.242188 395.636719 599.308594 C 394.074219 598.515625 392.894531 597.34375 392.089844 595.773438 C 391.636719 594.890625 391.363281 593.929688 391.128906 592.96875 C 391.015625 592.476562 390.699219 592.242188 390.167969 592.269531 C 389.828125 592.269531 389.488281 592.320312 389.144531 592.332031 C 388.867188 592.332031 388.753906 592.476562 388.804688 592.765625 C 389.269531 595.351562 388.851562 597.902344 388.308594 600.433594 C 387.785156 602.890625 387.101562 605.320312 386.480469 607.753906 C 386.402344 608.050781 386.296875 608.339844 386.203125 608.648438 C 384.8125 613.1875 381.527344 615.398438 377.011719 615.878906 C 373.460938 616.253906 369.949219 615.828125 366.480469 615.007812 C 363.632812 614.34375 361.386719 612.777344 359.667969 610.410156 C 358.121094 608.253906 356.964844 605.902344 356.042969 603.429688 C 354.433594 599.046875 353.414062 594.539062 353.160156 589.867188 C 353.132812 589.386719 353.132812 588.90625 353.160156 588.425781 C 353.191406 588.039062 353.054688 587.867188 352.695312 587.746094 C 351.671875 587.410156 350.652344 587.070312 349.664062 586.679688 C 348.101562 586.078125 346.609375 585.351562 345.191406 584.433594 C 340.546875 581.445312 340.03125 576.503906 340.980469 572.652344 C 341.488281 570.5625 342.980469 569.296875 344.941406 568.570312 C 345.644531 568.308594 346.347656 568.152344 347.097656 568.074219 C 347.515625 568.027344 347.59375 567.855469 347.53125 567.472656 C 346.941406 563.496094 346.828125 559.46875 346.800781 555.449219 C 346.738281 543.355469 347.933594 531.371094 350.46875 519.542969 C 351.414062 515.113281 352.652344 510.753906 354.339844 506.542969 C 355.367188 503.984375 356.589844 501.539062 358.085938 499.222656 C 361.0625 494.636719 364.375 490.351562 368.550781 486.804688 C 372.453125 483.492188 374.480469 479.25 374.917969 474.207031 C 375.195312 470.96875 375.460938 467.71875 375.722656 464.484375 C 376.234375 458.023438 377.753906 451.820312 379.964844 445.75 C 380.753906 443.59375 381.539062 441.445312 382.421875 439.328125 C 382.945312 438.078125 383.410156 436.804688 383.828125 435.503906 C 386.753906 426.382812 392.253906 419.125 399.839844 413.367188 C 405.078125 409.386719 410.914062 406.539062 417.089844 404.371094 C 423.527344 402.109375 430.191406 400.835938 436.980469 400.265625 C 442.542969 399.796875 448.109375 399.757812 453.6875 399.941406 C 461.722656 400.203125 469.753906 400.003906 477.789062 400.125 C 484.496094 400.230469 491.195312 400.476562 497.871094 401.28125 C 501.496094 401.714844 505.085938 402.382812 508.664062 403.125 C 512.796875 403.980469 516.957031 404.644531 521.035156 405.753906 C 527.121094 407.410156 532.957031 409.671875 538.46875 412.773438 C 544.007812 415.882812 548.464844 420.128906 551.871094 425.484375 C 554.847656 430.164062 556.980469 435.195312 558.605469 440.457031 C 560.867188 447.777344 562.445312 455.242188 563.574219 462.816406 C 564.238281 467.261719 564.691406 471.746094 565.445312 476.179688 C 565.820312 478.363281 566.316406 480.507812 567.136719 482.574219 C 567.957031 484.613281 569.136719 486.445312 570.695312 487.992188 C 570.972656 488.269531 571.269531 488.550781 571.59375 488.769531 C 575.601562 491.589844 578.757812 495.179688 581.175781 499.40625 C 587.167969 509.882812 591.457031 520.984375 593.449219 532.941406 C 594.285156 537.972656 594.890625 543.019531 595.542969 548.070312 C 596.179688 553.011719 596.609375 557.976562 596.609375 562.964844 C 596.609375 567.953125 596.558594 565.566406 596.53125 566.867188 C 596.53125 567.59375 596.503906 567.59375 597.152344 567.855469 C 598.53125 568.378906 599.492188 569.359375 600.035156 570.703125 C 601.167969 573.585938 601.597656 576.539062 600.890625 579.605469 C 600.347656 581.910156 599.125 583.820312 597.34375 585.367188 C 595.703125 586.792969 593.8125 587.8125 591.816406 588.644531 C 590.75 589.097656 589.648438 589.480469 588.539062 589.804688 C 588.242188 589.894531 588.03125 590 588.074219 590.375 C 588.371094 592.714844 587.945312 595.003906 587.5 597.28125 C 587.007812 599.726562 586.34375 602.128906 585.316406 604.402344 C 584.3125 606.648438 582.964844 608.644531 581.289062 610.457031 C 579.054688 612.859375 576.320312 614.238281 573.113281 614.761719 C 570.046875 615.257812 566.964844 615.191406 563.886719 614.855469 C 562.847656 614.746094 561.808594 614.621094 560.789062 614.34375 C 557.257812 613.382812 554.8125 611.109375 553.082031 608 C 551.730469 605.570312 551.066406 602.90625 550.679688 600.164062 C 550.496094 598.847656 550.445312 597.535156 550.460938 596.078125 C 550.121094 596.375 550.105469 596.699219 550.007812 596.960938 C 549.574219 598.199219 549.058594 599.394531 548.332031 600.472656 C 547.835938 601.214844 547.28125 601.867188 546.539062 602.375 C 545.097656 603.351562 543.441406 603.351562 542 602.375 C 541.117188 601.773438 540.46875 600.949219 539.910156 600.050781 C 539.089844 598.722656 538.53125 597.265625 538.078125 595.761719 C 537.847656 594.984375 537.847656 595.003906 537.027344 595.109375 C 535.0625 595.371094 533.089844 595.527344 531.113281 595.605469 C 527.410156 595.734375 523.726562 596.191406 520.023438 596.425781 C 513.785156 596.828125 507.546875 597.167969 501.292969 597.386719 C 497.015625 597.542969 492.75 597.648438 488.472656 597.773438 C 488.289062 597.773438 488.070312 597.726562 487.902344 597.867188 C 487.796875 598.023438 487.902344 598.140625 487.980469 598.253906 C 488.847656 599.476562 489.589844 600.777344 490.347656 602.078125 C 493.363281 607.25 497.082031 611.863281 501.433594 615.964844 C 503.695312 618.097656 506 620.1875 508.273438 622.308594 C 508.753906 622.761719 509.328125 623.066406 509.871094 623.441406 C 510.105469 623.609375 510.289062 623.582031 510.429688 623.332031 C 510.507812 623.179688 510.597656 623.035156 510.691406 622.902344 C 512.300781 620.394531 514.589844 619.40625 517.53125 619.886719 C 518.457031 620.039062 519.359375 620.289062 520.222656 620.613281 C 524.929688 622.367188 529.414062 624.550781 533.535156 627.472656 C 534.851562 628.398438 536.042969 629.488281 537.292969 630.503906 C 538.609375 631.585938 539.089844 633 539.273438 634.5625 C 539.441406 635.875 539.210938 637.164062 538.820312 638.421875 C 537.78125 641.777344 535.910156 644.597656 533.246094 646.886719 C 532.6875 647.367188 532.085938 647.78125 531.4375 648.136719 C 529.796875 649.0625 528.136719 649.175781 526.390625 648.433594 C 524.128906 647.457031 521.933594 646.355469 519.8125 645.089844 C 519.132812 644.671875 518.449219 644.285156 517.734375 643.933594 C 516.125 643.113281 514.578125 642.152344 513.121094 641.070312 C 512.535156 640.640625 511.914062 640.214844 511.3125 639.796875 C 510.988281 639.566406 510.660156 639.347656 510.335938 639.121094 C 507.226562 637.027344 506.109375 634.519531 507.035156 630.019531 C 507.296875 628.730469 507.84375 627.539062 508.441406 626.394531 C 508.625 626.03125 508.550781 625.75 508.210938 625.558594 C 506.308594 624.441406 504.492188 623.179688 502.699219 621.90625 C 499.746094 619.816406 497.234375 617.25 494.988281 614.414062 C 493.792969 612.910156 492.609375 611.398438 491.441406 609.863281 C 489.789062 607.710938 488.296875 605.433594 487.058594 603.003906 C 486.472656 601.84375 485.980469 600.636719 485.773438 599.335938 C 485.773438 599.195312 485.726562 599.0625 485.683594 598.917969 C 485.386719 597.917969 485.328125 597.894531 484.253906 597.894531 C 479.5 597.894531 474.75 597.921875 469.996094 597.921875 L 469.75 597.921875 C 468.992188 597.921875 469.007812 597.921875 469.046875 598.652344 C 469.097656 599.328125 469.230469 599.980469 469.421875 600.652344 C 469.902344 602.367188 470.347656 604.085938 470.785156 605.824219 C 471.65625 609.164062 472.816406 612.417969 474.222656 615.574219 C 475.597656 618.667969 477.144531 621.707031 478.785156 624.675781 C 479.40625 625.792969 480.136719 626.84375 480.90625 627.847656 C 481.246094 628.300781 481.257812 628.316406 481.773438 627.976562 C 482.765625 627.3125 483.832031 626.816406 485.027344 626.875 C 487.519531 627 489.746094 627.800781 491.328125 629.863281 C 492.027344 630.761719 492.691406 631.671875 493.328125 632.605469 C 495.941406 636.476562 498.671875 640.269531 501.101562 644.25 C 502.125 645.925781 503.078125 647.605469 503.730469 649.464844 C 504.027344 650.269531 504.039062 651.0625 503.820312 651.882812 C 503.558594 652.855469 503.078125 653.726562 502.414062 654.480469 C 500.386719 656.785156 498.035156 658.722656 495.371094 660.289062 C 494.289062 660.925781 493.082031 661.25 491.824219 661.421875 C 489.613281 661.71875 487.753906 661.046875 486.246094 659.394531 C 485.570312 658.636719 485.011719 657.78125 484.558594 656.855469 C 484.21875 656.15625 483.832031 655.527344 483.398438 654.890625 C 482.085938 652.96875 480.984375 650.925781 479.867188 648.898438 C 479.230469 647.742188 478.582031 646.574219 477.851562 645.464844 C 476.863281 643.980469 476.074219 642.371094 475.296875 640.773438 C 474.398438 638.929688 474.617188 637.015625 475.324219 635.167969 C 475.972656 633.480469 477.074219 632.074219 478.375 630.839844 C 478.695312 630.527344 478.730469 630.179688 478.480469 629.800781 C 476.636719 627.042969 474.984375 624.179688 473.59375 621.179688 C 472.992188 619.878906 472.242188 618.621094 471.578125 617.355469 C 470.382812 615.03125 469.332031 612.664062 468.527344 610.167969 C 468.460938 609.984375 468.398438 609.792969 468.328125 609.609375 C 468.328125 609.5625 468.25 609.546875 468.128906 609.457031 L 468.207031 609.425781 Z M 470.632812 575 C 477.507812 574.9375 484.382812 574.910156 491.25 574.832031 C 496.714844 574.765625 502.167969 574.6875 507.628906 574.582031 C 517.613281 574.386719 527.585938 573.839844 537.589844 573.714844 C 538.023438 573.714844 538.253906 573.574219 538.398438 573.15625 C 538.695312 572.207031 539.019531 571.269531 539.359375 570.335938 C 539.761719 569.269531 540.253906 568.257812 540.984375 567.382812 C 542.882812 565.042969 545.429688 564.980469 547.441406 567.242188 C 548.027344 567.90625 548.496094 568.648438 548.898438 569.425781 C 549.273438 570.136719 549.574219 570.851562 549.824219 571.609375 C 549.964844 572.011719 550.175781 572.152344 550.578125 572.089844 C 550.777344 572.058594 550.96875 572.039062 551.164062 572.023438 C 553.441406 571.828125 555.714844 571.515625 558.007812 571.390625 C 562.777344 571.128906 567.558594 570.84375 572.328125 570.535156 C 573.734375 570.441406 575.148438 570.363281 576.554688 570.117188 C 580.90625 569.359375 585.273438 568.710938 589.671875 568.324219 C 590.597656 568.246094 591.527344 568.140625 592.425781 567.855469 C 592.855469 567.714844 593.089844 567.53125 593.089844 567.050781 C 593.089844 566.027344 593.167969 565.007812 593.167969 563.996094 C 593.167969 561.628906 593.402344 559.226562 593.105469 556.875 C 592.59375 552.742188 592.039062 548.621094 591.351562 544.523438 C 589.804688 535.308594 587.742188 526.207031 585.34375 517.183594 C 583.917969 511.855469 583.890625 511.890625 581.339844 506.964844 C 578.519531 501.558594 575.113281 496.578125 571.070312 492.042969 C 570.65625 491.574219 570.238281 491.117188 569.722656 490.753906 C 566.859375 488.792969 564.832031 486.15625 563.480469 482.996094 C 562.519531 480.75 561.90625 478.398438 561.40625 476.015625 C 560.597656 472.050781 560.054688 468.042969 559.375 464.046875 C 558.105469 456.648438 556.453125 449.339844 554.113281 442.195312 C 552.535156 437.363281 550.523438 432.734375 547.730469 428.464844 C 544.949219 424.191406 541.386719 420.757812 536.941406 418.21875 C 532.949219 415.945312 528.816406 413.996094 524.492188 412.398438 C 516.796875 409.5625 508.882812 407.535156 500.789062 406.234375 C 496.824219 405.601562 492.863281 404.949219 488.820312 404.871094 C 483.359375 404.765625 477.902344 404.53125 472.441406 404.328125 C 469.296875 404.222656 466.171875 403.953125 463.027344 403.976562 C 458.503906 404.003906 453.96875 404.066406 449.445312 404.101562 C 443.234375 404.152344 437.058594 404.609375 430.933594 405.585938 C 420.285156 407.273438 410.339844 410.785156 401.464844 417.074219 C 398.878906 418.90625 396.542969 420.960938 394.761719 423.613281 C 393.164062 425.980469 391.730469 428.460938 390.289062 430.917969 C 389.765625 431.816406 389.328125 432.777344 388.894531 433.738281 C 388.140625 435.390625 387.671875 437.144531 387.023438 438.832031 C 386.21875 440.9375 385.410156 443.058594 384.761719 445.226562 C 383.136719 450.675781 381.460938 456.09375 380.734375 461.777344 C 380.34375 464.714844 379.710938 467.628906 379.460938 470.589844 C 379.355469 471.996094 379.109375 473.394531 378.8125 474.773438 C 378.613281 475.71875 378.394531 476.660156 378.269531 477.605469 C 378.140625 478.488281 377.914062 479.324219 377.617188 480.140625 C 377.292969 481.066406 376.917969 482 376.65625 482.949219 C 376.253906 484.402344 375.476562 485.640625 374.488281 486.742188 C 373.449219 487.902344 372.394531 489.046875 371.28125 490.132812 C 368.539062 492.839844 366.078125 495.800781 363.691406 498.832031 C 360.828125 502.5 358.628906 506.527344 357.0625 510.910156 C 355.839844 514.34375 354.851562 517.863281 354.042969 521.421875 C 352.09375 530.015625 350.6875 538.699219 349.832031 547.460938 C 349.429688 551.597656 348.964844 555.730469 349.261719 559.914062 C 349.417969 562.238281 349.742188 564.527344 350.082031 566.816406 C 350.207031 567.636719 350.5625 567.933594 351.351562 568.039062 C 357.082031 568.796875 362.792969 569.523438 368.550781 570.003906 C 373.179688 570.394531 377.808594 570.71875 382.4375 570.914062 C 385.113281 571.023438 387.808594 570.964844 390.472656 571.410156 C 390.875 571.472656 391.03125 571.332031 391.105469 570.957031 C 391.234375 570.292969 391.433594 569.644531 391.695312 569.007812 C 392.046875 568.175781 392.511719 567.398438 393.148438 566.734375 C 395.113281 564.675781 397.949219 564.578125 400.054688 566.5 C 401.042969 567.398438 401.664062 568.527344 402.109375 569.765625 C 402.433594 570.660156 402.667969 571.609375 402.886719 572.535156 C 403.027344 573.167969 403.042969 573.167969 403.664062 573.121094 C 404.25 573.058594 404.859375 573.070312 405.445312 573.070312 C 407.65625 573.097656 409.855469 573.269531 412.058594 573.425781 C 421.316406 574.058594 430.59375 574.398438 439.878906 574.632812 C 450.109375 574.878906 460.363281 575.019531 470.609375 575.007812 L 470.597656 574.992188 Z M 403.566406 575.714844 C 403.460938 575.945312 403.566406 576.195312 403.59375 576.425781 C 404.230469 581.273438 404.519531 586.121094 403.75 590.984375 C 403.65625 591.554688 403.683594 591.570312 404.320312 591.605469 C 405.140625 591.632812 405.960938 591.65625 406.78125 591.699219 C 412.914062 592.007812 419.039062 592.332031 425.175781 592.609375 C 431.441406 592.886719 437.730469 593.152344 444 593.351562 C 452.484375 593.625 460.964844 593.875 469.453125 594.128906 C 473.726562 594.253906 477.996094 594.375 482.269531 594.453125 C 485.441406 594.515625 488.601562 594.652344 491.773438 594.515625 C 496.011719 594.320312 500.238281 594.066406 504.484375 593.839844 C 511.996094 593.421875 519.515625 593.125 527.042969 593.035156 C 530.476562 592.984375 533.917969 592.925781 537.402344 593.035156 C 537.292969 592.355469 537.167969 591.683594 537.074219 591.019531 C 536.441406 586.46875 536.53125 581.933594 537.292969 577.410156 C 537.4375 576.539062 537.4375 576.554688 536.59375 576.605469 C 535.324219 576.683594 534.058594 576.773438 532.785156 576.824219 C 525.089844 577.164062 517.394531 577.175781 509.714844 577.707031 C 504.542969 578.058594 499.371094 578.25 494.203125 578.484375 C 481.371094 579.042969 468.519531 579.382812 455.671875 579.445312 C 442.191406 579.507812 428.734375 579.148438 415.324219 577.570312 C 411.5 577.121094 407.691406 576.648438 403.945312 575.699219 C 403.820312 575.671875 403.683594 575.609375 403.53125 575.726562 L 403.558594 575.726562 Z M 593.964844 570.449219 C 592.40625 570.554688 590.871094 570.746094 589.339844 571.050781 C 586.710938 571.59375 584.074219 572.089844 581.394531 572.457031 C 575.28125 573.289062 569.136719 573.726562 562.972656 574.109375 C 559.164062 574.355469 555.355469 574.574219 551.5625 575.085938 C 550.882812 575.175781 550.863281 575.175781 550.988281 575.863281 C 551.484375 578.449219 551.730469 581.0625 551.765625 583.710938 C 551.792969 585.972656 551.6875 588.234375 551.414062 590.496094 C 551.335938 591.132812 551.363281 591.175781 551.957031 591.082031 C 557.015625 590.261719 562.113281 589.796875 567.207031 589.273438 C 571.539062 588.820312 575.875 588.46875 580.179688 587.753906 C 583.386719 587.230469 586.574219 586.574219 589.671875 585.523438 C 591.632812 584.859375 593.527344 584.039062 595.210938 582.792969 C 597.054688 581.429688 598.183594 579.636719 598.511719 577.359375 C 598.695312 576.03125 598.679688 574.710938 598.417969 573.394531 C 598.066406 571.644531 597.089844 570.730469 595.324219 570.535156 C 594.871094 570.484375 594.425781 570.484375 593.972656 570.46875 L 593.972656 570.441406 Z M 387.398438 590.269531 C 387.941406 590.296875 388.960938 590.375 389.984375 590.441406 C 390.683594 590.488281 390.683594 590.46875 390.621094 589.761719 C 390.308594 586.328125 390.21875 582.871094 390.386719 579.417969 C 390.464844 577.804688 390.660156 576.195312 390.761719 574.605469 C 390.789062 574.003906 390.761719 573.984375 390.175781 574.003906 C 388.667969 574.054688 387.171875 574.054688 385.6875 573.976562 C 384.152344 573.882812 382.636719 573.714844 381.121094 573.679688 C 374.609375 573.523438 368.121094 573.105469 361.660156 572.316406 C 357.902344 571.863281 354.152344 571.246094 350.511719 570.144531 C 350.265625 570.066406 350.03125 569.976562 349.769531 570.019531 C 348.171875 570.316406 346.625 570.730469 345.296875 571.722656 C 344.617188 572.230469 344.179688 572.914062 343.980469 573.734375 C 343.175781 577.0625 344.449219 580.128906 347.375 581.910156 C 348.6875 582.714844 350.082031 583.304688 351.523438 583.832031 C 358.101562 586.1875 364.882812 587.691406 371.773438 588.773438 C 376.804688 589.5625 381.886719 590.007812 387.441406 590.292969 L 387.410156 590.292969 L 387.410156 590.277344 Z M 404.582031 632.414062 C 407.675781 633.417969 409.570312 635.480469 410.871094 638.125 C 412.171875 640.773438 412.574219 643.527344 411.585938 646.46875 C 412.558594 646.25 413.351562 645.960938 414.121094 645.597656 C 419.527344 643.140625 424.3125 639.75 428.644531 635.722656 C 428.839844 635.535156 429.019531 635.304688 429.214844 635.097656 C 429.710938 634.605469 429.789062 634.03125 429.570312 633.382812 C 429.308594 632.578125 429.011719 631.769531 428.566406 631.042969 C 427.5 629.3125 426.394531 627.585938 425.34375 625.855469 C 424.417969 624.324219 423.019531 623.765625 421.300781 623.957031 C 419.195312 624.1875 417.183594 624.699219 415.324219 625.734375 C 412.214844 627.46875 409.160156 629.3125 406.1875 631.277344 C 405.691406 631.601562 405.210938 631.953125 404.5625 632.40625 L 404.574219 632.40625 Z M 533.492188 631 C 533.367188 630.875 533.335938 630.816406 533.296875 630.800781 C 529.859375 628.902344 526.433594 626.980469 522.984375 625.09375 C 521.140625 624.089844 519.203125 623.296875 517.148438 622.832031 C 516.34375 622.648438 515.523438 622.554688 514.703125 622.726562 C 513.976562 622.882812 513.296875 623.128906 512.859375 623.808594 C 511.574219 625.835938 510.597656 627.988281 510.074219 630.320312 C 509.425781 633.21875 510.230469 635.574219 512.738281 637.261719 C 513.871094 638.015625 515 638.78125 516.144531 639.507812 C 518.851562 641.226562 521.796875 642.496094 524.597656 644.015625 C 524.660156 644.042969 524.753906 644.015625 524.871094 644.015625 C 525.054688 641.261719 526.050781 638.78125 527.550781 636.503906 C 529.070312 634.214844 530.929688 632.265625 533.480469 630.992188 L 533.492188 631.007812 Z M 448.894531 657.632812 C 449.21875 657.449219 449.347656 657.152344 449.515625 656.890625 C 451.15625 654.523438 452.796875 652.136719 454.441406 649.769531 C 455.792969 647.816406 457.171875 645.882812 458.390625 643.839844 C 458.796875 643.160156 459.167969 642.460938 459.550781 641.761719 C 459.875 641.175781 459.847656 640.582031 459.550781 639.96875 C 459.164062 639.132812 458.640625 638.40625 457.953125 637.785156 C 456.46875 636.433594 454.824219 635.367188 452.921875 634.703125 C 450.710938 633.925781 448.738281 634.328125 447.035156 635.925781 C 446.28125 636.640625 445.554688 637.394531 444.902344 638.214844 C 442.160156 641.636719 439.574219 645.183594 437.117188 648.808594 C 436.972656 649.003906 436.761719 649.183594 436.820312 649.457031 C 442.082031 650.730469 445.539062 653.046875 448.847656 657.582031 L 448.875 657.632812 Z M 499.136719 647.246094 C 499.109375 647.140625 499.109375 647.0625 499.074219 646.984375 C 497.992188 645.035156 497.109375 642.976562 496.054688 640.992188 C 495.53125 639.988281 495.015625 638.976562 494.324219 638.082031 C 492.453125 635.699219 490.4375 633.4375 488.347656 631.242188 C 487.136719 629.96875 484.988281 629.769531 483.511719 630.730469 C 482.199219 631.601562 481.144531 632.730469 480.199219 633.980469 C 479.132812 635.410156 478.898438 636.9375 479.34375 638.640625 C 479.867188 640.5625 480.695312 642.355469 481.589844 644.136719 C 483.265625 647.480469 485.203125 650.671875 487.101562 653.886719 C 487.152344 653.980469 487.207031 654.085938 487.320312 654.085938 C 490.375 650.304688 494.105469 647.742188 499.136719 647.261719 Z M 539.527344 583.113281 C 539.589844 586.609375 539.839844 590.109375 540.644531 593.550781 C 541.03125 595.175781 541.527344 596.769531 542.347656 598.242188 C 542.65625 598.8125 543.027344 599.359375 543.554688 599.761719 C 544.050781 600.136719 544.4375 600.136719 544.949219 599.761719 C 545.273438 599.527344 545.519531 599.214844 545.753906 598.890625 C 546.21875 598.242188 546.558594 597.527344 546.855469 596.785156 C 547.492188 595.210938 547.921875 593.5625 548.429688 591.953125 C 548.574219 591.519531 548.628906 591.054688 548.574219 590.601562 C 548.523438 590.261719 548.574219 589.9375 548.574219 589.597656 C 549.128906 584.644531 548.976562 579.707031 547.949219 574.832031 C 547.625 573.296875 547.195312 571.8125 546.480469 570.421875 C 546.128906 569.707031 545.703125 569.027344 545.089844 568.519531 C 544.4375 567.976562 543.910156 567.960938 543.246094 568.457031 C 542.828125 568.769531 542.503906 569.15625 542.21875 569.574219 C 541.414062 570.78125 540.792969 572.082031 540.46875 573.507812 C 539.769531 576.667969 539.542969 579.890625 539.492188 583.140625 L 539.507812 583.140625 L 539.519531 583.125 Z M 392.894531 581.394531 C 392.894531 582.074219 392.945312 582.757812 392.894531 583.421875 C 392.753906 585.375 392.753906 587.324219 393.128906 589.246094 C 393.390625 590.652344 393.621094 592.078125 394.167969 593.429688 C 394.675781 594.699219 395.53125 595.703125 396.726562 596.402344 C 397.609375 596.914062 398.152344 596.792969 398.765625 595.972656 C 399.140625 595.476562 399.429688 594.90625 399.601562 594.320312 C 399.910156 593.175781 400.222656 592.03125 400.433594 590.863281 C 400.761719 589.113281 400.867188 587.332031 400.886719 585.550781 C 400.914062 581.769531 400.546875 578.039062 399.898438 574.328125 C 399.679688 573.042969 399.402344 571.769531 398.894531 570.570312 C 398.632812 569.933594 398.292969 569.347656 397.765625 568.894531 C 397.035156 568.257812 396.371094 568.257812 395.628906 568.894531 C 395.058594 569.375 394.683594 570.011719 394.394531 570.691406 C 394.003906 571.574219 393.804688 572.519531 393.636719 573.460938 C 393.15625 576.089844 393.140625 578.753906 392.910156 581.402344 Z M 536.960938 635.167969 L 536.960938 634.921875 C 536.914062 632.957031 535.988281 632.398438 534.191406 633.246094 C 533.335938 633.648438 532.59375 634.222656 531.945312 634.886719 C 529.777344 637.097656 528.371094 639.734375 527.671875 642.75 C 527.5 643.464844 527.488281 644.207031 527.515625 644.933594 C 527.578125 646.300781 528.785156 646.886719 529.917969 646.390625 C 530.816406 645.988281 531.605469 645.464844 532.300781 644.792969 C 534.234375 642.933594 535.550781 640.675781 536.40625 638.152344 C 536.730469 637.175781 536.949219 636.1875 536.949219 635.164062 L 536.960938 635.164062 Z M 409.210938 643.855469 C 409.210938 640.914062 407.417969 637.691406 405.125 636.25 C 404.789062 636.03125 404.449219 635.863281 404.058594 635.742188 C 402.605469 635.261719 401.523438 635.804688 401.105469 637.273438 C 400.765625 638.484375 400.808594 639.707031 401.324219 640.851562 C 402.425781 643.28125 404.160156 645.183594 406.40625 646.625 C 406.859375 646.921875 407.304688 646.886719 407.785156 646.671875 C 408.265625 646.441406 408.601562 646.074219 408.824219 645.605469 C 409.121094 644.984375 409.226562 644.320312 409.226562 643.855469 Z M 445.59375 660.261719 L 445.984375 660.261719 C 446.804688 660.261719 446.960938 660.042969 446.699219 659.285156 C 446.480469 658.636719 446.140625 658.050781 445.738281 657.507812 C 443.617188 654.660156 440.875 652.75 437.378906 651.996094 C 437.101562 651.929688 436.820312 651.902344 436.542969 651.886719 C 435.84375 651.859375 435.492188 652.199219 435.503906 652.914062 C 435.503906 653.222656 435.582031 653.535156 435.703125 653.808594 C 435.976562 654.523438 436.417969 655.160156 436.910156 655.734375 C 438.351562 657.433594 440.160156 658.59375 442.203125 659.414062 C 443.304688 659.84375 444.449219 660.191406 445.59375 660.269531 Z M 490.113281 658.402344 C 490.890625 658.402344 491.519531 658.277344 492.140625 658.078125 C 495.625 656.933594 498.042969 654.53125 499.898438 651.484375 C 500.316406 650.808594 500.132812 650.523438 499.339844 650.417969 C 499.121094 650.390625 498.890625 650.390625 498.664062 650.417969 C 497.714844 650.46875 496.832031 650.792969 496 651.210938 C 493.136719 652.664062 490.796875 654.679688 489.328125 657.605469 C 489.019531 658.226562 489.03125 658.304688 489.71875 658.410156 C 489.886719 658.4375 490.054688 658.4375 490.105469 658.4375 L 490.121094 658.410156 Z M 366.976562 607.914062 C 367.023438 607.160156 366.714844 606.613281 366.375 606.085938 C 365.660156 604.96875 364.890625 603.886719 364.140625 602.785156 C 362.53125 600.382812 361.359375 597.816406 360.785156 594.984375 C 360.550781 593.851562 360.398438 592.707031 360.355469 591.550781 C 360.355469 591.300781 360.402344 591.039062 360.042969 590.960938 C 358.714844 590.652344 358.109375 591.089844 358 592.445312 L 358 592.863281 C 357.9375 594.460938 358.3125 595.972656 358.925781 597.398438 C 360.109375 600.09375 361.527344 602.664062 363.386719 604.96875 C 364.066406 605.800781 364.792969 606.59375 365.660156 607.242188 C 366.050781 607.519531 366.417969 607.816406 367.011719 607.941406 L 366.984375 607.914062 Z M 582.1875 591.703125 C 582.1875 591.378906 582.160156 591.351562 581.734375 591.40625 C 581.332031 591.457031 581.226562 591.667969 581.238281 592.042969 C 581.289062 593.699219 580.773438 595.214844 580.058594 596.6875 C 579.113281 598.636719 577.890625 600.402344 576.355469 601.9375 C 574.824219 603.46875 575.105469 603.160156 574.46875 603.765625 C 573.46875 604.742188 572.703125 605.902344 572.117188 607.160156 C 571.960938 607.46875 571.664062 607.871094 571.949219 608.164062 C 572.246094 608.488281 572.691406 608.304688 573.0625 608.191406 C 574.011719 607.914062 574.78125 607.355469 575.480469 606.671875 C 576.949219 605.203125 578.207031 603.5625 579.242188 601.78125 C 581.007812 598.714844 581.917969 595.386719 582.179688 591.734375 L 582.179688 591.703125 Z M 562.335938 609.265625 C 562.273438 609.171875 562.210938 609.082031 562.152344 609.003906 C 560 606.601562 558.761719 603.738281 558.082031 600.644531 C 557.757812 599.136719 557.121094 597.746094 556.734375 596.277344 C 556.566406 595.625 556.148438 595.054688 555.34375 594.960938 C 554.796875 594.898438 554.664062 594.992188 554.707031 595.519531 C 554.769531 596.25 554.847656 596.992188 554.953125 597.703125 C 555.34375 600.332031 556.097656 602.828125 557.527344 605.089844 C 558.683594 606.945312 560.265625 608.351562 562.335938 609.25 Z M 381.84375 599.773438 C 381.792969 599.320312 381.78125 598.953125 381.703125 598.59375 C 381.609375 598.191406 381.441406 598.140625 381.117188 598.4375 C 380.898438 598.621094 380.710938 598.839844 380.542969 599.0625 C 379.972656 599.761719 379.492188 600.53125 379.011719 601.292969 C 377.710938 603.386719 376.5 605.519531 375.03125 607.484375 C 374.785156 607.824219 374.847656 608.007812 375.160156 608.238281 C 375.433594 608.4375 375.703125 608.515625 376.027344 608.410156 C 376.496094 608.253906 376.925781 608.054688 377.3125 607.773438 C 380.054688 605.773438 381.460938 603.019531 381.851562 599.753906 L 381.851562 599.765625 Z M 381.84375 599.773438 " fill-opacity="1" fill-rule="nonzero"/></g><path fill="#000000" d="M 418.191406 532.113281 C 417.324219 531.308594 416.671875 530.554688 415.945312 529.734375 C 415.152344 532.136719 413.464844 533.109375 411.175781 533.035156 C 408.992188 532.957031 407.820312 531.640625 407.417969 529.550781 C 407.105469 529.550781 406.90625 529.734375 406.6875 529.847656 C 404.984375 530.625 403.15625 530.277344 402.03125 528.792969 C 400.40625 526.671875 400.019531 524.285156 400.902344 521.734375 C 401.316406 520.539062 402.214844 519.785156 403.421875 519.429688 C 403.421875 519.121094 403.191406 518.949219 403.070312 518.753906 C 402.125 517.28125 401.96875 515.734375 402.773438 514.167969 C 403.609375 512.554688 404.957031 511.59375 406.800781 511.425781 C 407.65625 511.347656 408.414062 511.65625 409.089844 512.179688 C 410.09375 512.957031 410.84375 513.949219 411.351562 515.105469 C 411.613281 515.679688 411.628906 515.691406 412.207031 515.402344 C 412.671875 515.167969 413.167969 515.078125 413.742188 514.878906 C 412.964844 513.207031 412.222656 511.566406 410.765625 510.394531 C 410.164062 509.898438 409.453125 509.941406 408.738281 510.054688 C 408.152344 510.144531 407.578125 510.285156 406.984375 510.363281 C 405.269531 510.613281 403.71875 510.167969 402.355469 509.128906 C 400.5625 507.765625 399.382812 505.957031 398.675781 503.847656 C 398.246094 502.535156 398.894531 501.636719 400.273438 501.652344 C 401.976562 501.652344 403.664062 501.851562 405.289062 502.378906 C 406.617188 502.8125 407.8125 503.523438 408.851562 504.472656 C 409.046875 504.65625 409.191406 504.921875 409.5 504.980469 C 409.699219 504.839844 409.628906 504.625 409.640625 504.4375 C 409.707031 503.476562 409.9375 502.535156 410.199219 501.617188 C 410.589844 500.289062 410.957031 498.953125 411.34375 497.625 C 411.4375 497.328125 411.527344 497.023438 411.65625 496.742188 C 412.058594 495.90625 412.785156 495.636719 413.632812 496.0625 C 414.269531 496.375 414.738281 496.867188 415.117188 497.425781 C 416.835938 500.054688 417.300781 502.847656 416.171875 505.835938 C 415.832031 506.734375 415.367188 507.585938 414.898438 508.421875 C 414.261719 509.550781 414.066406 510.746094 414.328125 512.03125 C 414.496094 512.835938 414.574219 513.65625 414.703125 514.464844 C 414.730469 514.648438 414.703125 514.914062 414.949219 514.945312 C 415.183594 514.972656 415.246094 514.710938 415.335938 514.554688 C 415.691406 513.839844 416.039062 513.128906 416.390625 512.433594 C 417.070312 511.058594 417.875 509.769531 418.992188 508.691406 C 420.566406 507.15625 422.460938 506.289062 424.628906 505.996094 C 424.847656 505.96875 425.082031 505.949219 425.308594 505.996094 C 426.050781 506.089844 426.46875 506.597656 426.425781 507.328125 C 426.425781 507.546875 426.359375 507.777344 426.285156 507.992188 C 425.683594 509.820312 424.953125 511.601562 423.957031 513.269531 C 423.386719 514.230469 422.6875 515.078125 421.789062 515.75 C 420.660156 516.582031 419.421875 517.050781 417.980469 516.867188 C 417.824219 516.867188 417.65625 516.773438 417.5 516.914062 C 417.4375 517.097656 417.578125 517.238281 417.640625 517.382812 C 418.601562 519.269531 418.847656 521.253906 418.398438 523.324219 C 418.304688 523.726562 418.332031 523.988281 418.660156 524.285156 C 419.761719 525.339844 420.363281 526.6875 420.59375 528.171875 C 420.765625 529.195312 421.027344 530.148438 421.402344 531.097656 C 421.542969 531.472656 421.660156 531.839844 421.726562 532.226562 C 421.804688 532.695312 422.078125 532.957031 422.453125 533.175781 C 422.671875 532.863281 422.558594 532.589844 422.546875 532.320312 C 422.453125 528.941406 422.480469 525.585938 422.996094 522.242188 C 423.257812 520.476562 423.582031 518.730469 424.175781 517.042969 C 424.644531 515.679688 425.371094 514.503906 426.480469 513.542969 C 427.9375 512.292969 429.6875 511.8125 431.539062 511.582031 C 431.914062 511.53125 432.28125 511.488281 432.644531 511.515625 C 434.917969 511.6875 437.164062 511.359375 439.40625 511.164062 C 443.460938 510.808594 447.53125 510.667969 451.609375 510.5625 C 460.632812 510.328125 469.664062 510.378906 478.6875 510.613281 C 486.410156 510.808594 494.121094 511.261719 501.816406 511.863281 C 505.144531 512.125 508.472656 512.355469 511.785156 512.761719 C 513.4375 512.957031 515.097656 513.210938 516.738281 513.488281 C 518.46875 513.785156 519.574219 514.800781 520.082031 516.476562 C 520.3125 517.269531 520.421875 518.089844 520.484375 518.90625 C 520.808594 524.3125 520.730469 529.710938 520.378906 535.105469 C 520.128906 538.714844 519.804688 542.320312 519.636719 545.945312 C 519.609375 546.699219 519.542969 547.476562 519.453125 548.21875 C 519.0625 551.117188 519.203125 554.042969 518.945312 556.9375 C 518.761719 558.917969 518.476562 560.875 517.90625 562.773438 C 517.609375 563.765625 517.097656 564.648438 516.476562 565.453125 C 515.855469 566.257812 515.007812 566.648438 514.03125 566.859375 C 512.160156 567.277344 510.253906 567.539062 508.335938 567.730469 C 504.019531 568.144531 499.695312 568.300781 495.363281 568.25 C 493.101562 568.25 490.839844 568.546875 488.578125 568.667969 C 484.785156 568.886719 481.011719 569.085938 477.21875 568.992188 C 476.332031 568.992188 475.464844 568.964844 474.589844 568.992188 C 468.222656 569.148438 461.863281 568.914062 455.496094 568.527344 C 451.285156 568.265625 447.074219 568.265625 442.847656 568.28125 C 439.933594 568.28125 437.023438 568.1875 434.125 567.785156 C 432.269531 567.523438 430.472656 567.007812 428.644531 566.605469 C 426.925781 566.230469 425.65625 565.179688 424.757812 563.679688 C 423.832031 562.132812 423.222656 560.472656 423.101562 558.648438 C 422.917969 555.84375 422.933594 553.046875 422.949219 550.238281 C 422.996094 545.316406 422.820312 540.394531 422.636719 535.472656 C 422.636719 534.992188 422.496094 534.730469 422 534.679688 C 421.859375 534.679688 421.726562 534.617188 421.597656 534.550781 C 421.195312 534.332031 421.039062 534.550781 420.949219 534.90625 C 420.871094 535.179688 420.765625 535.449219 420.652344 535.710938 C 420.050781 537.152344 419.117188 538.339844 417.960938 539.363281 C 415.683594 541.394531 412.96875 542.429688 409.96875 542.769531 C 409.515625 542.820312 409.070312 542.898438 408.617188 542.925781 C 407.332031 543.019531 406.757812 542.226562 407.269531 541.054688 C 407.332031 540.925781 407.394531 540.792969 407.453125 540.664062 C 408.257812 539.195312 409.183594 537.816406 410.285156 536.546875 C 412.09375 534.425781 414.390625 533.125 417.070312 532.441406 C 417.367188 532.363281 417.667969 532.285156 418.148438 532.164062 L 418.179688 532.164062 L 418.179688 532.148438 Z M 468.3125 514.5625 C 458.511719 514.71875 449.75 514.6875 440.972656 514.5625 C 438.683594 514.535156 436.386719 514.457031 434.097656 514.421875 C 432.785156 514.421875 431.511719 514.617188 430.277344 515.070312 C 428.820312 515.578125 427.816406 516.539062 427.363281 518.046875 C 427.195312 518.617188 427.039062 519.191406 426.898438 519.761719 C 426.078125 523.464844 425.894531 527.210938 426.027344 530.984375 C 426.289062 538.539062 426.691406 546.078125 426.726562 553.632812 C 426.726562 555.269531 426.882812 556.910156 427.101562 558.542969 C 427.285156 559.984375 427.832031 561.285156 428.714844 562.414062 C 429.492188 563.417969 430.464844 564.132812 431.824219 564.257812 C 434.4375 564.507812 437.074219 564.726562 439.6875 564.910156 C 442.707031 565.128906 445.722656 565.46875 448.746094 565.496094 C 455.480469 565.558594 462.214844 565.496094 468.949219 565.277344 C 475.851562 565.058594 482.742188 564.847656 489.648438 564.65625 C 492.53125 564.578125 495.417969 564.527344 498.304688 564.589844 C 502.097656 564.667969 505.871094 564.28125 509.664062 564.070312 C 510.875 563.992188 512.003906 563.730469 513.136719 563.355469 C 514.371094 562.953125 515.210938 562.132812 515.707031 560.9375 C 515.875 560.519531 516.019531 560.082031 516.097656 559.636719 C 516.652344 556.230469 517.058594 552.8125 517.070312 549.34375 C 517.132812 541.046875 516.980469 532.757812 516.914062 524.476562 C 516.914062 522.605469 516.824219 520.746094 516.617188 518.886719 C 516.433594 517.234375 516.308594 517.042969 514.65625 516.753906 C 511.621094 516.195312 508.597656 515.636719 505.554688 515.15625 C 503.773438 514.878906 501.976562 514.597656 500.167969 514.570312 C 497.398438 514.539062 494.628906 514.492188 491.851562 514.492188 C 483.675781 514.492188 475.5 514.554688 468.347656 514.582031 L 468.320312 514.582031 L 468.320312 514.554688 Z M 416.539062 522.066406 C 416.566406 521.121094 416.445312 520.207031 416.085938 519.324219 C 415.421875 517.671875 414.707031 517.203125 412.929688 517.269531 L 412.417969 517.269531 C 412.066406 517.269531 411.925781 517.425781 411.910156 517.777344 C 411.910156 518.519531 411.753906 519.234375 411.273438 519.832031 C 411.183594 519.960938 411.167969 520.082031 411.246094 520.222656 C 411.375 520.40625 411.523438 520.363281 411.699219 520.300781 C 412.007812 520.171875 412.335938 520.039062 412.660156 519.960938 C 413.078125 519.855469 413.683594 519.558594 413.910156 519.960938 C 414.207031 520.46875 413.632812 520.859375 413.261719 521.183594 C 412.855469 521.535156 412.425781 521.847656 411.933594 522.082031 C 411.65625 522.222656 411.621094 522.46875 411.621094 522.730469 C 411.621094 522.992188 411.867188 522.992188 412.050781 523.054688 C 413 523.332031 413.832031 523.785156 414.511719 524.484375 C 414.757812 524.746094 415.054688 524.757812 415.367188 524.679688 C 415.910156 524.527344 416.234375 524.1875 416.371094 523.640625 C 416.511719 523.121094 416.539062 522.589844 416.523438 522.046875 L 416.539062 522.058594 Z M 405.402344 521.125 C 405.125 521.125 404.894531 521.15625 404.675781 521.15625 C 403.648438 521.203125 402.972656 521.726562 402.632812 522.675781 C 402.058594 524.234375 402.242188 525.742188 403.113281 527.148438 C 403.761719 528.214844 404.878906 528.476562 405.996094 527.902344 C 406.503906 527.640625 406.90625 527.253906 407.21875 526.773438 C 407.558594 526.25 407.742188 525.640625 407.996094 525.082031 C 408.195312 524.617188 407.902344 524.484375 407.621094 524.277344 C 407.308594 524.046875 407.167969 524.304688 407 524.496094 C 406.597656 524.929688 406.195312 525.378906 405.671875 525.675781 C 405.394531 525.832031 405.085938 525.972656 404.800781 525.707031 C 404.492188 525.429688 404.605469 525.082031 404.800781 524.78125 C 405.050781 524.363281 405.386719 524.003906 405.777344 523.726562 C 406.378906 523.308594 406.800781 522.84375 406.414062 522.050781 C 406.363281 521.960938 406.414062 521.832031 406.382812 521.714844 C 406.355469 521.308594 406.125 521.113281 405.707031 521.113281 L 405.429688 521.113281 L 405.417969 521.125 Z M 409.613281 524.824219 C 409.535156 524.898438 409.472656 524.949219 409.472656 524.992188 C 409.535156 525.917969 409.332031 526.785156 408.929688 527.605469 C 408.878906 527.699219 408.863281 527.824219 408.851562 527.929688 C 408.679688 529.855469 409.96875 531.230469 411.882812 531.183594 C 412.363281 531.183594 412.84375 531.089844 413.273438 530.886719 C 413.769531 530.667969 414.09375 530.296875 414.277344 529.804688 C 414.742188 528.441406 414.226562 526.554688 413.117188 525.640625 C 412.53125 525.160156 411.910156 524.714844 411.308594 524.25 C 411.183594 524.15625 411.078125 523.988281 410.84375 524.15625 C 410.96875 524.378906 411.105469 524.574219 411.21875 524.792969 C 411.636719 525.601562 411.761719 526.449219 411.605469 527.351562 C 411.558594 527.628906 411.5 527.9375 411.140625 527.972656 C 410.816406 528.003906 410.722656 527.710938 410.632812 527.492188 C 410.320312 526.792969 410.058594 526.085938 409.902344 525.324219 C 409.855469 525.140625 409.875 524.921875 409.605469 524.816406 L 409.605469 524.828125 Z M 409.972656 517.839844 C 410.050781 516.320312 409.375 514.835938 408.222656 513.890625 C 407.621094 513.394531 406.972656 513.304688 406.257812 513.613281 C 404.476562 514.371094 403.8125 516.292969 404.753906 517.980469 C 405.125 518.660156 405.648438 519.203125 406.207031 519.734375 C 406.675781 520.164062 406.675781 520.152344 407.195312 519.734375 C 407.394531 519.578125 407.601562 519.410156 407.832031 519.316406 C 408.207031 519.164062 408.25 518.914062 408.128906 518.574219 C 408.039062 518.3125 407.972656 518.03125 407.882812 517.769531 C 407.742188 517.394531 407.570312 517.042969 407.429688 516.667969 C 407.210938 516.125 407.273438 515.757812 407.585938 515.613281 C 407.863281 515.488281 408.128906 515.644531 408.40625 516.160156 C 408.703125 516.703125 408.949219 517.277344 409.105469 517.875 C 409.167969 518.09375 409.230469 518.308594 409.246094 518.539062 C 409.273438 518.878906 409.417969 519.097656 409.753906 519.0625 C 410.09375 519.035156 409.953125 518.722656 409.988281 518.519531 L 409.988281 517.839844 Z M 413.003906 497.792969 C 412.914062 498.429688 412.820312 499.015625 412.730469 499.601562 C 412.511719 500.996094 412.078125 502.34375 411.742188 503.722656 C 411.386719 505.179688 411.289062 506.632812 411.636719 508.089844 C 411.726562 508.476562 411.804688 508.910156 412.222656 509.285156 C 412.558594 507.90625 413.351562 506.867188 413.988281 505.734375 C 414.171875 505.398438 414.375 505.035156 414.496094 504.667969 C 415.378906 502.175781 414.820312 499.949219 413.273438 497.90625 C 413.246094 497.878906 413.183594 497.855469 413.011719 497.800781 Z M 410.066406 540.417969 C 413.640625 540.105469 418.320312 536.4375 418.8125 533.621094 C 415.132812 534.828125 412.171875 536.976562 410.066406 540.417969 Z M 400.851562 503.921875 C 401.707031 505.652344 402.773438 507.03125 404.441406 507.871094 C 404.90625 508.101562 405.386719 508.246094 405.910156 508.257812 C 406.871094 508.308594 407.8125 508.117188 408.757812 507.933594 C 407.613281 505.53125 404.222656 503.785156 400.84375 503.925781 Z M 423.691406 508.300781 C 420.375 509.289062 418.582031 511.863281 416.800781 514.617188 C 417.296875 514.589844 417.683594 514.527344 418.070312 514.539062 C 419.308594 514.617188 420.269531 514.074219 421.0625 513.191406 C 422.347656 511.785156 422.996094 510.03125 423.691406 508.300781 Z M 419.664062 530.644531 C 419.726562 530.617188 419.804688 530.582031 419.859375 530.554688 C 419.222656 528.742188 418.25 527.082031 417.480469 525.226562 C 416.984375 525.640625 416.554688 525.953125 416.023438 526.082031 C 415.726562 526.15625 415.683594 526.3125 415.746094 526.574219 C 415.890625 527.210938 416.023438 527.824219 416.707031 528.136719 C 416.957031 528.242188 417.160156 528.476562 417.371094 528.660156 C 418.148438 529.308594 418.90625 529.972656 419.664062 530.636719 Z M 410.378906 521.832031 C 410.378906 521.132812 409.867188 520.546875 409.296875 520.546875 C 408.722656 520.546875 408.117188 521.054688 408.117188 521.648438 C 408.117188 522.242188 408.703125 523.054688 409.21875 523.078125 C 409.789062 523.078125 410.363281 522.476562 410.378906 521.839844 Z M 410.378906 521.832031 " fill-opacity="1" fill-rule="nonzero"/><path fill="#000000" d="M 494.742188 467.535156 L 490.234375 467.535156 C 481.097656 467.691406 471.945312 467.753906 462.816406 467.785156 C 458.652344 467.785156 454.5 468.15625 450.363281 468.460938 C 444.1875 468.914062 437.992188 469.296875 431.816406 469.5625 C 428.28125 469.71875 424.742188 469.9375 421.210938 469.8125 C 417.507812 469.683594 413.867188 470.085938 410.214844 470.476562 C 408.746094 470.632812 407.289062 470.722656 405.804688 470.722656 C 404.320312 470.722656 403.542969 470.554688 402.476562 470.164062 C 400.421875 469.410156 398.867188 468.074219 397.96875 466.046875 C 395.800781 461.132812 394.78125 456.046875 395.382812 450.65625 C 395.617188 448.5625 395.953125 446.507812 396.464844 444.480469 C 397.347656 441.023438 399.128906 438.148438 401.742188 435.746094 C 404.496094 433.207031 407.707031 431.441406 411.203125 430.183594 C 416.992188 428.105469 422.90625 426.503906 428.960938 425.386719 C 436.191406 424.058594 443.484375 423.449219 450.824219 423.1875 C 460.71875 422.835938 470.625 422.800781 480.539062 423.046875 C 484.53125 423.152344 488.507812 423.34375 492.488281 423.617188 C 495.503906 423.839844 498.542969 423.746094 501.558594 423.894531 C 508.929688 424.269531 516.207031 425.246094 523.386719 426.898438 C 525.011719 427.273438 526.609375 427.78125 528.144531 428.445312 C 530.898438 429.640625 533.300781 431.328125 535.125 433.695312 C 539.257812 439.078125 541.582031 445.148438 541.640625 451.996094 C 541.667969 455.277344 541.132812 458.484375 539.9375 461.550781 C 539.429688 462.878906 538.757812 464.121094 537.847656 465.230469 C 537.507812 465.648438 537.132812 466.039062 536.652344 466.3125 C 535.550781 466.949219 534.441406 467.5625 533.335938 468.199219 C 532.933594 468.433594 532.503906 468.511719 532.050781 468.554688 C 529.648438 468.773438 527.238281 468.488281 524.835938 468.460938 C 521.015625 468.414062 517.207031 468.277344 513.382812 468.152344 C 508.070312 467.996094 502.746094 467.8125 497.433594 467.65625 C 496.535156 467.628906 495.625 467.65625 494.726562 467.65625 L 494.726562 467.515625 Z M 474.660156 426.777344 C 471.71875 426.777344 468.773438 426.726562 465.832031 426.777344 C 457.253906 426.945312 448.699219 427.273438 440.160156 428.296875 C 434.273438 429.011719 428.460938 429.949219 422.730469 431.53125 C 419.117188 432.523438 415.527344 433.546875 412.058594 434.9375 C 409.351562 436.019531 406.886719 437.476562 404.765625 439.503906 C 402.921875 441.285156 401.683594 443.390625 401.085938 445.886719 C 400.617188 447.785156 400.328125 449.707031 400.109375 451.65625 C 399.628906 455.804688 400.328125 459.769531 401.90625 463.605469 C 402.570312 465.230469 403.777344 466.023438 405.4375 466.257812 C 405.828125 466.304688 406.230469 466.304688 406.632812 466.320312 C 411.558594 466.425781 416.476562 466.320312 421.402344 466.101562 C 424.558594 465.960938 427.730469 465.789062 430.890625 465.578125 C 435.320312 465.28125 439.746094 464.914062 444.1875 464.652344 C 448.570312 464.390625 452.953125 464.199219 457.332031 464.050781 C 467.628906 463.664062 477.921875 463.492188 488.21875 463.664062 C 498.007812 463.832031 507.808594 464.082031 517.585938 464.390625 C 520.25 464.46875 522.902344 464.589844 525.542969 464.886719 C 527.445312 465.105469 529.378906 464.933594 531.289062 464.496094 C 532.835938 464.144531 533.996094 463.273438 534.835938 461.925781 C 535.300781 461.183594 535.667969 460.390625 535.964844 459.558594 C 537.003906 456.554688 537.421875 453.460938 537.1875 450.285156 C 536.941406 446.988281 535.8125 443.941406 534.339844 441.015625 C 533.550781 439.453125 532.625 437.949219 531.445312 436.636719 C 530.015625 435.039062 528.441406 433.617188 526.441406 432.777344 C 524.609375 432.019531 522.738281 431.347656 520.835938 430.828125 C 515.757812 429.433594 510.554688 428.59375 505.355469 427.773438 C 502.613281 427.34375 499.828125 427.308594 497.058594 427.171875 C 489.597656 426.796875 482.136719 426.648438 474.660156 426.769531 L 474.660156 426.785156 Z M 474.660156 426.777344 " fill-opacity="1" fill-rule="nonzero"/><path fill="#000000" d="M 463.324219 476.921875 C 452.027344 476.625 440.847656 477.832031 429.722656 479.816406 C 416.441406 482.199219 403.453125 485.71875 390.613281 489.835938 C 390.132812 489.992188 389.636719 490.148438 389.15625 490.269531 C 388.847656 490.347656 388.535156 490.375 388.230469 490.269531 C 387.644531 490.097656 387.425781 489.667969 387.660156 489.089844 C 387.84375 488.636719 388.203125 488.375 388.554688 488.097656 C 391.066406 486.148438 393.820312 484.679688 396.773438 483.578125 C 402.832031 481.328125 409.035156 479.582031 415.324219 478.078125 C 422.96875 476.25 430.699219 474.699219 438.488281 473.632812 C 447.558594 472.382812 456.675781 471.960938 465.847656 472.242188 C 473.917969 472.488281 481.953125 473.167969 489.949219 474.164062 C 499.023438 475.292969 508.046875 476.75 516.984375 478.6875 C 524.929688 480.402344 532.78125 482.433594 540.460938 485.160156 C 542.644531 485.9375 544.8125 486.769531 546.871094 487.835938 C 547.597656 488.210938 548.324219 488.613281 548.945312 489.136719 C 549.207031 489.355469 549.457031 489.589844 549.609375 489.894531 C 549.765625 490.199219 549.738281 490.21875 549.609375 490.375 C 549.46875 490.558594 549.300781 490.421875 549.160156 490.375 C 544.515625 488.828125 539.761719 487.648438 535.003906 486.472656 C 522.746094 483.46875 510.34375 481.144531 497.816406 479.492188 C 487.765625 478.164062 477.691406 477.214844 467.550781 476.878906 C 466.144531 476.828125 464.71875 476.878906 463.3125 476.878906 L 463.3125 476.90625 Z M 463.324219 476.921875 " fill-opacity="1" fill-rule="nonzero"/><path fill="#000000" d="M 577.707031 542.679688 C 577.679688 546.796875 577.304688 550.867188 576.144531 554.832031 C 575.742188 556.226562 575.21875 557.558594 574.503906 558.824219 C 574.011719 559.695312 573.4375 560.5 572.710938 561.179688 C 570.789062 562.945312 568.4375 563.035156 566.394531 561.425781 C 565.558594 560.777344 564.910156 559.96875 564.335938 559.074219 C 563.390625 557.617188 562.742188 556.019531 562.246094 554.367188 C 561.128906 550.648438 560.648438 546.855469 560.542969 542.988281 C 560.375 537.507812 561.101562 532.148438 562.960938 526.976562 C 563.410156 525.726562 563.933594 524.496094 564.710938 523.417969 C 565.191406 522.738281 565.738281 522.128906 566.429688 521.683594 C 567.914062 520.710938 569.433594 520.632812 570.992188 521.5 C 572.074219 522.101562 572.878906 523.019531 573.566406 524.039062 C 574.667969 525.675781 575.375 527.492188 575.949219 529.367188 C 576.859375 532.355469 577.351562 535.421875 577.585938 538.53125 C 577.691406 539.910156 577.769531 541.300781 577.742188 542.679688 Z M 563.851562 540.226562 C 563.878906 543.433594 564.160156 546.609375 564.8125 549.746094 C 565.304688 552.125 565.96875 554.464844 567.085938 556.648438 C 567.425781 557.300781 567.800781 557.933594 568.324219 558.457031 C 569.140625 559.277344 569.777344 559.292969 570.585938 558.484375 C 571.171875 557.898438 571.574219 557.1875 571.933594 556.445312 C 572.660156 554.925781 573.113281 553.335938 573.46875 551.6875 C 574.351562 547.582031 574.535156 543.449219 574.285156 539.273438 C 574.089844 535.996094 573.621094 532.738281 572.632812 529.597656 C 572.214844 528.25 571.707031 526.933594 570.929688 525.726562 C 570.554688 525.15625 570.152344 524.609375 569.582031 524.222656 C 569.023438 523.832031 568.476562 523.832031 567.925781 524.222656 C 567.433594 524.5625 567.042969 525.011719 566.71875 525.507812 C 565.808594 526.886719 565.15625 528.390625 564.796875 530.015625 C 564.054688 533.371094 563.851562 536.777344 563.871094 540.21875 L 563.855469 540.21875 Z M 563.851562 540.226562 " fill-opacity="1" fill-rule="nonzero"/><path fill="#000000" d="M 379.117188 538.507812 C 379.066406 544.253906 378.515625 549.378906 376.980469 554.378906 C 376.332031 556.5 375.496094 558.527344 374.289062 560.402344 C 373.730469 561.257812 373.09375 562.039062 372.3125 562.703125 C 369.878906 564.78125 367.074219 564.589844 364.941406 562.210938 C 364.320312 561.511719 363.824219 560.726562 363.40625 559.871094 C 362.289062 557.582031 361.703125 555.136719 361.378906 552.628906 C 360.375 545.039062 361.082031 537.625 363.472656 530.347656 C 364.058594 528.566406 364.652344 526.800781 365.578125 525.175781 C 366.136719 524.214844 366.757812 523.304688 367.542969 522.527344 C 367.957031 522.109375 368.425781 521.71875 368.933594 521.421875 C 370.714844 520.433594 372.445312 520.511719 374.105469 521.699219 C 375.160156 522.457031 375.886719 523.492188 376.488281 524.636719 C 377.554688 526.667969 378.097656 528.863281 378.488281 531.097656 C 378.953125 533.726562 379.085938 536.375 379.121094 538.496094 Z M 376.125 540.042969 C 376.15625 537.953125 376.0625 535.859375 375.789062 533.773438 C 375.476562 531.472656 374.996094 529.210938 374.070312 527.054688 C 373.695312 526.1875 373.265625 525.367188 372.628906 524.675781 C 371.71875 523.683594 370.863281 523.605469 369.796875 524.425781 C 369.019531 525.011719 368.429688 525.789062 367.921875 526.609375 C 366.59375 528.765625 365.632812 531.082031 365.101562 533.578125 C 364.777344 535.125 364.503906 536.6875 364.3125 538.253906 C 363.753906 543.117188 363.675781 547.964844 364.558594 552.789062 C 364.871094 554.523438 365.316406 556.210938 366.027344 557.820312 C 366.324219 558.484375 366.679688 559.136719 367.144531 559.707031 C 368.199219 561.023438 369.125 561.101562 370.355469 559.957031 C 370.835938 559.503906 371.222656 558.996094 371.589844 558.449219 C 372.242188 557.460938 372.769531 556.394531 373.214844 555.292969 C 375.179688 550.402344 375.941406 545.273438 376.113281 540.042969 Z M 376.125 540.042969 " fill-opacity="1" fill-rule="nonzero"/><path fill="#000000" d="M 542.566406 556.902344 C 543.839844 542.800781 546.3125 529.082031 550.691406 515.734375 C 552.59375 509.914062 554.902344 504.257812 557.933594 498.9375 C 558.664062 497.652344 559.417969 496.402344 560.300781 495.222656 C 560.472656 494.988281 560.65625 494.769531 560.859375 494.585938 C 561.03125 494.417969 561.234375 494.339844 561.484375 494.445312 C 561.714844 494.550781 561.808594 494.753906 561.820312 494.988281 C 561.851562 495.328125 561.742188 495.652344 561.625 495.976562 C 561.222656 497.09375 560.726562 498.175781 560.230469 499.257812 C 555.710938 509.058594 552.523438 519.289062 550.210938 529.832031 C 548.539062 537.464844 547.316406 545.171875 546.296875 552.917969 C 546.050781 554.820312 545.738281 556.726562 545.441406 558.613281 C 545.378906 559.066406 545.285156 559.511719 545.101562 559.914062 C 544.882812 560.394531 544.542969 560.703125 544 560.703125 C 543.457031 560.703125 543.101562 560.394531 542.871094 559.925781 C 542.636719 559.460938 542.59375 558.953125 542.574219 558.445312 L 542.574219 556.882812 L 542.558594 556.894531 Z M 542.566406 556.902344 " fill-opacity="1" fill-rule="nonzero"/><path fill="#000000" d="M 399.460938 558.890625 C 399.507812 559.398438 399.488281 559.914062 399.429688 560.40625 C 399.382812 560.683594 399.304688 560.964844 399.167969 561.214844 C 398.625 562.125 397.636719 562.160156 397.050781 561.277344 C 396.738281 560.796875 396.597656 560.238281 396.507812 559.679688 C 396.167969 557.328125 395.828125 554.972656 395.515625 552.621094 C 394.621094 545.980469 393.734375 539.324219 392.371094 532.757812 C 390.683594 524.632812 388.332031 516.6875 385.574219 508.851562 C 384.246094 505.058594 382.867188 501.296875 381.269531 497.597656 C 381.074219 497.128906 380.839844 496.683594 380.621094 496.21875 C 380.402344 495.75 380.4375 495.722656 380.683594 495.519531 C 380.933594 495.320312 381.164062 495.441406 381.398438 495.582031 C 381.738281 495.78125 382 496.089844 382.253906 496.402344 C 382.890625 497.207031 383.410156 498.078125 383.90625 498.972656 C 386.074219 502.953125 387.765625 507.164062 389.355469 511.402344 C 393.289062 521.917969 395.96875 532.738281 397.574219 543.835938 C 398.222656 548.347656 398.859375 552.863281 399.355469 557.382812 C 399.417969 557.890625 399.429688 558.410156 399.480469 558.902344 L 399.464844 558.890625 Z M 399.460938 558.890625 " fill-opacity="1" fill-rule="nonzero"/><path fill="#000000" d="M 457.382812 584.957031 C 461.644531 585.097656 466.640625 585.296875 471.640625 585.421875 C 474.695312 585.488281 477.753906 585.421875 480.808594 585.394531 C 486.75 585.332031 492.699219 585.394531 498.628906 585.578125 C 500.4375 585.628906 502.253906 585.746094 504.046875 585.839844 C 504.480469 585.839844 504.902344 585.945312 505.269531 586.164062 C 505.566406 586.347656 505.582031 586.554688 505.269531 586.75 C 504.804688 587.0625 504.265625 587.140625 503.738281 587.183594 C 502.019531 587.335938 500.300781 587.480469 498.578125 587.585938 C 490.832031 588.128906 483.082031 588.039062 475.335938 588.25 C 470.023438 588.40625 464.703125 588.511719 459.375 588.46875 C 451.960938 588.40625 444.558594 588.113281 437.160156 587.632812 C 432.609375 587.335938 428.070312 587.0625 423.519531 586.722656 C 419.167969 586.398438 414.835938 586.085938 410.53125 585.375 C 409.945312 585.28125 409.375 585.140625 408.800781 584.984375 C 408.554688 584.921875 408.320312 584.816406 408.085938 584.710938 C 407.933594 584.632812 407.777344 584.539062 407.8125 584.335938 C 407.839844 584.164062 407.996094 584.136719 408.121094 584.085938 C 408.304688 584.023438 408.511719 583.996094 408.710938 583.960938 C 409.777344 583.789062 410.84375 583.761719 411.933594 583.726562 C 416.992188 583.585938 422.058594 583.753906 427.117188 583.925781 C 431.640625 584.082031 436.175781 584.1875 440.699219 584.339844 C 446.011719 584.527344 451.332031 584.730469 457.402344 584.941406 L 457.390625 584.941406 Z M 457.382812 584.957031 " fill-opacity="1" fill-rule="nonzero"/><path fill="#000000" d="M 563.992188 584.058594 C 561.976562 584.058594 559.964844 584.058594 557.984375 583.65625 C 557.566406 583.578125 557.164062 583.457031 556.761719 583.304688 C 556.464844 583.195312 556.160156 583.027344 556.21875 582.640625 C 556.269531 582.285156 556.605469 582.25 556.882812 582.222656 C 558.0625 582.066406 559.234375 581.910156 560.414062 581.789062 C 565.304688 581.28125 570.203125 580.800781 575.09375 580.273438 C 578.238281 579.933594 581.359375 579.347656 584.476562 578.816406 C 584.957031 578.738281 585.421875 578.675781 585.917969 578.738281 C 586.179688 578.765625 586.441406 578.84375 586.519531 579.125 C 586.597656 579.402344 586.390625 579.605469 586.207031 579.777344 C 585.898438 580.039062 585.527344 580.179688 585.167969 580.335938 C 581.21875 581.945312 577.121094 582.964844 572.875 583.480469 C 569.917969 583.832031 566.960938 584.050781 563.984375 584.066406 Z M 563.992188 584.058594 " fill-opacity="1" fill-rule="nonzero"/><path fill="#000000" d="M 380.105469 581.085938 C 375.753906 580.914062 371.046875 580.484375 366.375 579.832031 C 362.917969 579.351562 359.472656 578.9375 356.066406 578.222656 C 355.492188 578.09375 354.921875 577.925781 354.347656 577.757812 C 354.128906 577.691406 353.917969 577.585938 353.746094 577.460938 C 353.488281 577.261719 353.527344 576.964844 353.855469 576.886719 C 354.242188 576.808594 354.644531 576.78125 355.035156 576.78125 C 357.089844 576.78125 359.152344 576.949219 361.210938 577.105469 C 365.28125 577.402344 369.308594 577.941406 373.363281 578.328125 C 375.976562 578.574219 378.613281 578.71875 381.214844 579.085938 C 382.394531 579.253906 383.554688 579.488281 384.667969 579.917969 C 385.023438 580.058594 385.523438 580.164062 385.425781 580.675781 C 385.347656 581.183594 384.839844 581.125 384.449219 581.140625 C 383.121094 581.203125 381.785156 581.140625 380.082031 581.089844 L 380.113281 581.089844 L 380.113281 581.078125 Z M 380.105469 581.085938 " fill-opacity="1" fill-rule="nonzero"/><path fill="#000000" d="M 534.589844 637.796875 C 534.523438 638.527344 534.234375 639.28125 533.890625 640.03125 C 533.457031 640.992188 532.757812 641.785156 532.15625 642.632812 C 531.988281 642.878906 531.742188 643.007812 531.445312 643.035156 C 530.820312 643.113281 530.53125 642.800781 530.667969 642.199219 C 530.730469 641.953125 530.835938 641.71875 530.941406 641.5 C 531.605469 640.199219 532.304688 638.902344 532.96875 637.601562 C 533.035156 637.472656 533.113281 637.351562 533.1875 637.226562 C 533.386719 636.902344 533.640625 636.640625 534.074219 636.730469 C 534.425781 636.824219 534.59375 637.132812 534.566406 637.785156 L 534.582031 637.796875 Z M 534.589844 637.796875 " fill-opacity="1" fill-rule="nonzero"/><path fill="#000000" d="M 463.820312 431.789062 C 463.769531 432.175781 463.542969 432.464844 463.339844 432.761719 C 462.117188 434.527344 460.6875 436.15625 459.207031 437.6875 C 454.992188 442.039062 450.613281 446.203125 446.167969 450.308594 C 444.046875 452.257812 441.90625 454.195312 439.679688 456.019531 C 439.1875 456.433594 438.640625 456.808594 438.121094 457.199219 C 437.921875 457.339844 437.652344 457.496094 437.417969 457.277344 C 437.1875 457.042969 437.34375 456.796875 437.449219 456.574219 C 437.710938 456.03125 438.082031 455.574219 438.4375 455.105469 C 439.347656 453.949219 440.324219 452.859375 441.335938 451.777344 C 445.742188 447.070312 450.4375 442.65625 455.101562 438.195312 C 457.375 436.027344 459.609375 433.828125 462.039062 431.828125 C 462.363281 431.570312 462.675781 431.257812 463.105469 431.152344 C 463.613281 431.023438 463.882812 431.277344 463.820312 431.773438 Z M 463.820312 431.789062 " fill-opacity="1" fill-rule="nonzero"/><path fill="#000000" d="M 495.34375 432.9375 C 495.34375 433.199219 495.214844 433.433594 495.082031 433.652344 C 494.820312 434.085938 494.480469 434.472656 494.121094 434.832031 C 493.40625 435.511719 492.691406 436.210938 491.9375 436.847656 C 486.515625 441.445312 480.835938 445.6875 474.921875 449.601562 C 474.609375 449.800781 474.296875 449.992188 473.972656 450.175781 C 473.816406 450.25 473.648438 450.28125 473.507812 450.144531 C 473.367188 450.011719 473.402344 449.820312 473.480469 449.664062 C 473.605469 449.445312 473.726562 449.214844 473.894531 449.03125 C 474.40625 448.472656 474.933594 447.914062 475.492188 447.390625 C 477.183594 445.792969 478.949219 444.308594 480.742188 442.824219 C 484.023438 440.097656 487.308594 437.378906 490.609375 434.664062 C 491.398438 434.011719 492.203125 433.390625 493.066406 432.867188 C 493.496094 432.605469 493.964844 432.375 494.472656 432.296875 C 494.96875 432.21875 495.34375 432.515625 495.355469 432.960938 L 495.34375 432.960938 Z M 495.34375 432.9375 " fill-opacity="1" fill-rule="nonzero"/><path fill="#000000" d="M 425.703125 438.664062 C 425.625 438.988281 425.457031 439.3125 425.273438 439.625 C 424.765625 440.480469 424.140625 441.25 423.476562 441.976562 C 419.4375 446.449219 415.183594 450.695312 410.765625 454.796875 C 410.378906 455.167969 409.933594 455.472656 409.515625 455.785156 C 409.359375 455.910156 409.160156 455.984375 408.972656 455.8125 C 408.789062 455.65625 408.84375 455.4375 408.972656 455.269531 C 409.191406 454.914062 409.421875 454.539062 409.671875 454.203125 C 410.695312 452.773438 411.804688 451.433594 412.949219 450.097656 C 415.71875 446.816406 418.589844 443.609375 421.449219 440.421875 C 422.050781 439.757812 422.671875 439.09375 423.386719 438.523438 C 423.839844 438.167969 424.3125 437.859375 424.890625 437.78125 C 425.476562 437.6875 425.839844 438.042969 425.761719 438.648438 L 425.730469 438.648438 L 425.71875 438.664062 Z M 425.703125 438.664062 " fill-opacity="1" fill-rule="nonzero"/><path fill="#000000" d="M 484.175781 455.496094 C 483.929688 455.496094 483.839844 455.324219 483.867188 455.09375 C 483.914062 454.832031 484.035156 454.613281 484.175781 454.394531 C 484.53125 453.847656 484.96875 453.355469 485.414062 452.886719 C 488.574219 449.730469 491.949219 446.804688 495.511719 444.074219 C 496.070312 443.644531 496.671875 443.285156 497.277344 442.917969 C 497.574219 442.734375 497.929688 442.640625 498.203125 442.945312 C 498.480469 443.257812 498.375 443.59375 498.203125 443.890625 C 497.851562 444.402344 497.492188 444.917969 497.085938 445.398438 C 496.359375 446.265625 495.539062 447.050781 494.683594 447.800781 C 491.632812 450.507812 488.339844 452.910156 484.914062 455.121094 C 484.679688 455.277344 484.445312 455.460938 484.171875 455.496094 Z M 484.175781 455.496094 " fill-opacity="1" fill-rule="nonzero"/></svg>