<svg xmlns="http://www.w3.org/2000/svg" xmlns:xlink="http://www.w3.org/1999/xlink" zoomAndPan="magnify" preserveAspectRatio="xMidYMid meet" version="1.0" viewBox="164.02 455.54 482.07 378.14"><defs><clipPath id="373683b2de"><path d="M 164 822 L 646.1875 822 L 646.1875 833.964844 L 164 833.964844 Z M 164 822 " clip-rule="nonzero"/></clipPath><clipPath id="ccb2317c83"><path d="M 306 455.214844 L 312 455.214844 L 312 503 L 306 503 Z M 306 455.214844 " clip-rule="nonzero"/></clipPath></defs><g clip-path="url(#373683b2de)"><path fill="#000000" d="M 341.179688 822.476562 C 340.082031 822.476562 338.984375 822.480469 337.886719 822.480469 L 337.878906 822.480469 C 313.960938 822.59375 294.09375 822.988281 278.277344 823.671875 L 278.25 823.671875 C 269.554688 823.992188 258.90625 824.546875 246.304688 825.328125 L 246.289062 825.328125 L 188.421875 829.421875 L 188.40625 829.421875 C 183.148438 829.667969 178.691406 829.792969 175.03125 829.792969 C 171.234375 829.792969 168.296875 829.660156 166.21875 829.394531 C 166.132812 829.382812 166.050781 829.378906 165.96875 829.378906 C 165 829.378906 164.164062 830.097656 164.035156 831.078125 C 163.898438 832.144531 164.65625 833.121094 165.722656 833.257812 C 167.953125 833.539062 171.066406 833.683594 175.070312 833.683594 C 178.820312 833.683594 183.347656 833.558594 188.652344 833.308594 L 188.695312 833.304688 L 246.542969 829.214844 L 246.546875 829.214844 C 259.132812 828.433594 269.757812 827.882812 278.421875 827.5625 L 278.457031 827.5625 L 278.46875 827.558594 L 278.476562 827.558594 C 294.238281 826.878906 314.046875 826.484375 337.898438 826.375 L 337.890625 826.375 C 338.988281 826.371094 340.085938 826.371094 341.183594 826.371094 C 362.480469 826.371094 383.710938 826.574219 404.867188 826.980469 C 436.753906 827.585938 494.617188 828.839844 578.460938 830.738281 L 578.464844 830.738281 C 599.019531 831.183594 620.90625 831.480469 644.125 831.632812 C 644.128906 831.632812 644.132812 831.632812 644.136719 831.632812 C 645.207031 831.632812 646.082031 830.769531 646.085938 829.699219 C 646.09375 828.625 645.226562 827.746094 644.152344 827.742188 C 620.960938 827.589844 599.09375 827.289062 578.546875 826.84375 L 578.550781 826.84375 C 494.757812 824.949219 436.886719 823.695312 404.941406 823.089844 L 404.945312 823.089844 C 383.761719 822.679688 362.507812 822.476562 341.179688 822.476562 Z M 341.179688 822.476562 " fill-opacity="1" fill-rule="nonzero"/></g><path fill="#000000" d="M 365 606.84375 C 362.839844 606.84375 359.535156 608.777344 355.09375 612.648438 L 355.027344 612.648438 C 353.265625 613.964844 341.875 624.492188 320.851562 644.226562 C 320.808594 644.269531 320.769531 644.308594 320.738281 644.335938 L 320.71875 644.355469 C 284.730469 679.285156 263.394531 700.964844 256.710938 709.394531 C 256.042969 710.238281 256.183594 711.460938 257.027344 712.128906 C 257.386719 712.414062 257.8125 712.550781 258.234375 712.550781 C 258.808594 712.550781 259.378906 712.296875 259.765625 711.8125 C 266.339844 703.519531 287.558594 681.96875 323.417969 647.164062 C 323.457031 647.125 323.492188 647.09375 323.519531 647.066406 C 343.824219 628.007812 355.019531 617.636719 357.109375 615.960938 L 357.046875 615.960938 C 356.792969 616.085938 356.546875 616.152344 356.304688 616.152344 C 355.988281 616.152344 355.683594 616.046875 355.382812 615.835938 L 355.445312 615.835938 C 355.484375 615.855469 355.523438 615.875 355.5625 615.890625 C 355.8125 616.003906 356.074219 616.0625 356.34375 616.0625 C 356.824219 616.0625 357.3125 615.878906 357.746094 615.496094 L 357.75 615.492188 L 357.757812 615.492188 C 361.40625 612.324219 363.777344 610.738281 364.871094 610.730469 L 364.933594 610.730469 L 365.101562 610.785156 C 380.390625 614.6875 415.550781 651.785156 470.585938 722.070312 C 470.972656 722.5625 471.542969 722.820312 472.125 722.820312 C 472.542969 722.820312 472.964844 722.683594 473.320312 722.40625 C 474.171875 721.742188 474.320312 720.519531 473.65625 719.671875 C 418.425781 649.132812 382.664062 611.605469 366.371094 607.09375 L 366.316406 607.09375 C 365.988281 606.960938 365.636719 606.882812 365.265625 606.851562 L 365.261719 606.851562 C 365.175781 606.847656 365.089844 606.84375 365 606.84375 Z M 365 606.84375 " fill-opacity="1" fill-rule="nonzero"/><path fill="#000000" d="M 271.613281 704.351562 C 270.542969 704.351562 269.667969 705.214844 269.664062 706.285156 C 269.609375 715.066406 269.515625 721.429688 269.386719 725.386719 L 269.386719 725.398438 L 269.089844 736.695312 L 269.089844 736.691406 C 268.480469 757.332031 268.039062 771.859375 267.761719 780.28125 L 267.761719 780.277344 C 267.714844 781.582031 267.664062 783.648438 267.609375 786.476562 C 267.535156 789.707031 267.503906 793.894531 267.511719 799.035156 C 267.511719 800.054688 267.523438 802.234375 267.542969 805.578125 L 267.542969 805.589844 C 267.636719 813.625 267.675781 818.285156 267.660156 819.574219 L 267.660156 819.578125 C 267.640625 821.851562 267.589844 823.363281 267.507812 824.105469 C 267.390625 825.171875 268.164062 826.132812 269.234375 826.25 C 269.304688 826.257812 269.378906 826.261719 269.449219 826.261719 C 270.429688 826.261719 271.273438 825.523438 271.382812 824.527344 C 271.476562 823.660156 271.535156 822.023438 271.558594 819.621094 C 271.574219 818.304688 271.535156 813.609375 271.441406 805.542969 L 271.441406 805.554688 C 271.417969 802.207031 271.410156 800.03125 271.410156 799.03125 L 271.410156 799.027344 C 271.398438 793.90625 271.429688 789.753906 271.503906 786.5625 L 271.503906 786.554688 C 271.5625 783.691406 271.613281 781.644531 271.65625 780.414062 L 271.65625 780.410156 C 271.9375 771.8125 272.382812 757.277344 272.984375 736.804688 L 272.984375 736.800781 L 273.28125 725.5 L 273.28125 725.515625 C 273.414062 721.542969 273.503906 715.140625 273.558594 706.3125 C 273.566406 705.238281 272.699219 704.359375 271.625 704.351562 C 271.621094 704.351562 271.617188 704.351562 271.613281 704.351562 Z M 271.613281 704.351562 " fill-opacity="1" fill-rule="nonzero"/><path fill="#000000" d="M 456.25 706.664062 C 455.261719 706.664062 454.414062 707.410156 454.3125 708.410156 C 452.542969 725.632812 451.109375 748.632812 450.003906 777.417969 L 450.003906 777.429688 C 449.671875 787.570312 449.5625 795.75 449.671875 801.96875 C 449.832031 812.28125 450.125 819.292969 450.554688 823.007812 L 450.554688 823.011719 C 450.671875 824.003906 451.511719 824.734375 452.488281 824.734375 C 452.5625 824.734375 452.640625 824.730469 452.714844 824.722656 C 453.785156 824.597656 454.550781 823.632812 454.441406 822.789062 L 454.441406 822.785156 L 454.425781 822.5625 C 454.011719 818.980469 453.726562 812.09375 453.570312 801.90625 L 453.570312 801.898438 C 453.460938 795.75 453.570312 787.640625 453.898438 777.570312 C 455 748.871094 456.429688 725.949219 458.191406 708.808594 C 458.300781 707.738281 457.519531 706.78125 456.449219 706.671875 C 456.382812 706.667969 456.316406 706.664062 456.25 706.664062 Z M 456.25 706.664062 " fill-opacity="1" fill-rule="nonzero"/><path fill="#000000" d="M 356.117188 682.632812 C 356.117188 682.632812 356.121094 682.632812 356.121094 682.632812 Z M 356.507812 678.8125 C 356.339844 678.8125 356.175781 678.828125 356.011719 678.859375 L 355.777344 678.914062 C 355.6875 678.941406 355.597656 678.976562 355.503906 679.011719 C 352.347656 680.289062 344.757812 690.753906 332.734375 710.414062 L 332.707031 710.460938 C 327.425781 719.652344 323.175781 729.789062 319.960938 740.867188 C 313.679688 760.972656 311.390625 788.394531 313.09375 823.132812 C 313.144531 824.171875 314.007812 824.984375 315.039062 824.984375 C 315.070312 824.984375 315.105469 824.984375 315.136719 824.980469 C 316.210938 824.929688 317.039062 824.015625 316.988281 822.941406 C 315.308594 788.640625 317.542969 761.65625 323.691406 741.988281 L 323.703125 741.953125 C 326.828125 731.191406 330.945312 721.355469 336.058594 712.441406 C 346.886719 694.738281 353.683594 684.898438 356.445312 682.921875 L 356.507812 682.921875 C 358.226562 684.488281 361.339844 690.667969 365.847656 701.453125 L 365.855469 701.46875 C 373.476562 719.367188 379.171875 735.132812 382.9375 748.765625 L 382.945312 748.789062 C 388.785156 768.976562 392.179688 792.617188 393.136719 819.710938 C 393.175781 820.761719 394.039062 821.589844 395.082031 821.589844 C 395.105469 821.589844 395.128906 821.589844 395.152344 821.585938 C 396.230469 821.550781 397.070312 820.648438 397.03125 819.574219 C 396.066406 792.167969 392.621094 768.222656 386.695312 747.730469 C 382.882812 733.933594 377.132812 718.007812 369.445312 699.953125 C 364.226562 687.464844 360.414062 680.554688 358.003906 679.226562 C 357.503906 678.949219 357.003906 678.8125 356.507812 678.8125 Z M 356.507812 678.8125 " fill-opacity="1" fill-rule="nonzero"/><path fill="#000000" d="M 553.140625 642.21875 L 553.140625 642.222656 L 553.101562 642.222656 L 553.097656 642.21875 Z M 561.082031 647.269531 C 561.039062 647.957031 560.65625 648.425781 559.929688 648.679688 C 560.507812 648.410156 560.90625 647.878906 561.019531 647.269531 Z M 558.496094 648.761719 C 558.621094 648.804688 558.75 648.832031 558.878906 648.847656 C 558.722656 648.839844 558.574219 648.8125 558.433594 648.761719 Z M 553.394531 638.367188 C 552.671875 638.367188 551.996094 638.675781 551.375 639.292969 C 550.621094 640.046875 549.9375 641.425781 549.328125 643.441406 L 549.3125 643.492188 C 547.550781 649.871094 545.746094 657.125 543.894531 665.261719 L 543.890625 665.28125 C 541.078125 678.203125 538.496094 693.292969 536.140625 710.558594 L 536.136719 710.585938 C 535.28125 716.90625 534.621094 722.914062 534.160156 728.609375 L 534.160156 728.621094 C 531.078125 769.496094 528.988281 800.859375 527.894531 822.714844 C 527.839844 823.789062 528.667969 824.703125 529.742188 824.753906 C 529.777344 824.757812 529.808594 824.757812 529.839844 824.757812 C 530.871094 824.757812 531.734375 823.949219 531.785156 822.910156 C 532.878906 801.113281 534.964844 769.785156 538.042969 728.925781 C 538.5 723.296875 539.152344 717.359375 540 711.105469 L 540.003906 711.078125 L 540.007812 711.054688 C 542.347656 693.914062 544.910156 678.9375 547.695312 666.125 C 549.527344 658.0625 551.316406 650.875 553.058594 644.566406 C 553.320312 643.703125 553.558594 643.050781 553.773438 642.609375 L 553.835938 642.609375 C 554.640625 643.308594 555.832031 645.058594 557.40625 647.867188 C 557.511719 648.058594 557.648438 648.226562 557.808594 648.367188 L 557.742188 648.367188 C 558.941406 650.472656 564.277344 660.847656 573.746094 679.492188 C 586.109375 705.050781 592.328125 719.070312 592.40625 721.542969 L 592.398438 721.542969 C 592.371094 721.769531 592.386719 722 592.441406 722.21875 C 593.4375 726.246094 593.796875 734.585938 593.519531 747.246094 L 593.519531 747.339844 C 593.617188 751.082031 592.566406 776.980469 590.363281 825.039062 C 590.3125 826.113281 591.144531 827.023438 592.21875 827.074219 C 592.25 827.074219 592.28125 827.074219 592.3125 827.074219 C 593.347656 827.074219 594.207031 826.261719 594.257812 825.21875 C 596.445312 777.4375 597.5 751.476562 597.417969 747.332031 C 597.695312 734.460938 597.308594 725.828125 596.257812 721.425781 L 596.300781 721.425781 C 596.207031 718.398438 589.855469 703.84375 577.238281 677.765625 L 577.222656 677.730469 C 567.015625 657.636719 561.542969 647.027344 560.808594 645.910156 L 560.777344 645.910156 C 558.488281 641.839844 556.558594 639.457031 554.992188 638.765625 C 554.886719 638.71875 554.78125 638.675781 554.679688 638.640625 L 554.613281 638.640625 C 554.488281 638.582031 554.359375 638.535156 554.230469 638.496094 L 554.230469 638.492188 C 553.945312 638.410156 553.667969 638.367188 553.394531 638.367188 Z M 553.394531 638.367188 " fill-opacity="1" fill-rule="nonzero"/><path fill="#000000" d="M 499.34375 635.460938 C 486.128906 635.460938 476.148438 635.550781 469.402344 635.738281 L 469.40625 635.738281 C 457.0625 636.070312 446.398438 636.542969 437.40625 637.164062 C 429.773438 637.667969 420.292969 638.605469 408.964844 639.976562 C 407.898438 640.105469 407.136719 641.074219 407.265625 642.144531 C 407.386719 643.132812 408.226562 643.855469 409.199219 643.855469 C 409.277344 643.855469 409.355469 643.851562 409.433594 643.839844 C 420.691406 642.476562 430.105469 641.546875 437.671875 641.046875 L 437.675781 641.046875 C 446.609375 640.429688 457.222656 639.960938 469.507812 639.632812 L 469.511719 639.632812 C 476.222656 639.445312 486.160156 639.351562 499.328125 639.351562 C 503.199219 639.351562 507.355469 639.359375 511.789062 639.375 L 511.777344 639.375 C 526.078125 639.527344 539.078125 639.824219 550.78125 640.269531 C 550.804688 640.273438 550.832031 640.273438 550.855469 640.273438 C 551.898438 640.273438 552.761719 639.449219 552.800781 638.402344 C 552.84375 637.328125 552.003906 636.421875 550.929688 636.378906 C 539.191406 635.933594 526.152344 635.632812 511.816406 635.484375 L 511.804688 635.484375 C 507.371094 635.46875 503.21875 635.460938 499.34375 635.460938 Z M 499.34375 635.460938 " fill-opacity="1" fill-rule="nonzero"/><path fill="#000000" d="M 307.511719 498.894531 C 307.1875 498.894531 306.871094 498.949219 306.558594 499.054688 C 306.273438 499.152344 306.015625 499.3125 305.804688 499.523438 C 299.925781 505.425781 287.339844 530.117188 268.050781 573.597656 C 267.617188 574.578125 268.058594 575.726562 269.042969 576.164062 C 269.300781 576.277344 269.570312 576.332031 269.832031 576.332031 C 270.582031 576.332031 271.292969 575.898438 271.617188 575.171875 C 289.863281 534.042969 301.921875 510.023438 307.789062 503.121094 L 307.851562 503.121094 C 309.046875 504.152344 310.898438 507.101562 313.40625 511.960938 C 325.113281 535.515625 334.054688 554.324219 340.230469 568.382812 C 340.550781 569.113281 341.265625 569.550781 342.015625 569.550781 C 342.277344 569.550781 342.542969 569.496094 342.796875 569.382812 C 343.78125 568.953125 344.230469 567.804688 343.796875 566.820312 C 337.597656 552.703125 328.628906 533.835938 316.894531 510.226562 L 316.890625 510.222656 L 316.882812 510.199219 L 316.871094 510.179688 C 313.5 503.640625 310.792969 499.964844 308.753906 499.148438 C 308.332031 498.980469 307.917969 498.894531 307.511719 498.894531 Z M 307.511719 498.894531 " fill-opacity="1" fill-rule="nonzero"/><path fill="#000000" d="M 277.351562 560.542969 C 276.3125 560.542969 275.453125 561.359375 275.40625 562.402344 C 274.5 582.65625 273.171875 608.164062 271.421875 638.921875 L 271.417969 638.925781 L 271.410156 639.089844 L 271.410156 639.105469 C 270.75 652.695312 270.390625 660.96875 270.328125 663.917969 L 270.328125 663.898438 C 270.160156 669.355469 270.125 674.324219 270.222656 678.808594 L 270.222656 678.816406 C 270.308594 682.261719 270.601562 687.679688 271.113281 695.066406 C 271.183594 696.09375 272.039062 696.878906 273.054688 696.878906 C 273.101562 696.878906 273.144531 696.878906 273.191406 696.875 C 274.265625 696.800781 275.074219 695.871094 275 694.800781 C 274.496094 687.46875 274.199219 682.109375 274.121094 678.722656 C 274.023438 674.316406 274.054688 669.414062 274.222656 664.019531 L 274.222656 664 C 274.285156 661.113281 274.644531 652.882812 275.300781 639.308594 L 275.3125 639.140625 C 277.0625 608.355469 278.390625 582.832031 279.296875 562.578125 C 279.347656 561.503906 278.515625 560.59375 277.4375 560.542969 C 277.410156 560.542969 277.378906 560.542969 277.351562 560.542969 Z M 277.351562 560.542969 " fill-opacity="1" fill-rule="nonzero"/><path fill="#000000" d="M 336.433594 568.660156 C 335.402344 568.660156 334.539062 569.464844 334.488281 570.507812 C 333.949219 581.136719 333.664062 587.011719 333.644531 588.128906 L 333.640625 588.128906 C 333.382812 594.582031 333.175781 601.1875 333.023438 607.941406 L 333.019531 607.945312 C 332.898438 614.261719 332.84375 619.285156 332.855469 623.019531 C 332.851562 628.214844 332.914062 631.523438 333.035156 632.9375 C 333.125 633.949219 333.976562 634.714844 334.976562 634.714844 C 335.03125 634.714844 335.089844 634.710938 335.148438 634.707031 C 336.21875 634.613281 337.011719 633.671875 336.921875 632.597656 C 336.804688 631.296875 336.75 628.101562 336.753906 623.011719 L 336.753906 623.003906 C 336.742188 619.324219 336.796875 614.332031 336.917969 608.027344 C 337.070312 601.316406 337.277344 594.722656 337.539062 588.25 L 337.539062 588.210938 C 337.5625 587.136719 337.839844 581.300781 338.378906 570.703125 C 338.433594 569.628906 337.605469 568.714844 336.53125 568.660156 C 336.5 568.660156 336.464844 568.660156 336.433594 568.660156 Z M 336.433594 568.660156 " fill-opacity="1" fill-rule="nonzero"/><g clip-path="url(#ccb2317c83)"><path fill="#000000" d="M 309.355469 455.542969 C 308.328125 455.542969 307.46875 456.347656 307.410156 457.382812 C 307.105469 462.996094 306.898438 468.109375 306.792969 472.726562 L 306.792969 472.71875 C 306.679688 476.886719 306.597656 480.890625 306.546875 484.730469 C 306.527344 485.535156 306.515625 488.296875 306.519531 493.023438 C 306.511719 494.242188 306.503906 495.167969 306.488281 495.796875 L 306.488281 495.808594 C 306.460938 497.429688 306.375 498.820312 306.230469 499.972656 L 306.230469 499.980469 C 306.097656 501.046875 306.855469 502.023438 307.921875 502.15625 C 308.003906 502.164062 308.085938 502.171875 308.167969 502.171875 C 309.136719 502.171875 309.972656 501.453125 310.089844 500.519531 L 310.089844 500.511719 L 310.097656 500.457031 C 310.261719 499.167969 310.355469 497.644531 310.386719 495.886719 L 310.382812 495.886719 C 310.398438 495.214844 310.410156 494.265625 310.417969 493.03125 L 310.417969 493.019531 C 310.414062 488.277344 310.421875 485.539062 310.445312 484.8125 L 310.445312 484.78125 C 310.496094 480.949219 310.574219 476.964844 310.691406 472.824219 L 310.691406 472.816406 C 310.792969 468.257812 311 463.183594 311.300781 457.597656 C 311.363281 456.523438 310.539062 455.605469 309.460938 455.546875 C 309.425781 455.542969 309.390625 455.542969 309.355469 455.542969 Z M 309.355469 455.542969 " fill-opacity="1" fill-rule="nonzero"/></g><path fill="#000000" d="M 293.40625 476.535156 C 292.429688 476.535156 291.589844 477.261719 291.472656 478.253906 C 291.347656 479.320312 292.113281 480.289062 293.214844 480.417969 C 293.425781 480.441406 293.78125 480.460938 294.285156 480.476562 L 294.332031 480.476562 C 296.277344 480.488281 297.648438 480.511719 298.441406 480.550781 L 298.457031 480.550781 C 300.039062 480.609375 301.566406 480.6875 303.03125 480.777344 L 303.097656 480.78125 C 304.027344 480.808594 309.265625 481.210938 318.816406 481.996094 C 318.871094 482 318.921875 482 318.976562 482 C 319.980469 482 320.832031 481.230469 320.917969 480.214844 C 321.003906 479.140625 320.207031 478.203125 319.132812 478.113281 C 309.757812 477.347656 304.480469 476.9375 303.296875 476.890625 L 303.277344 476.890625 C 301.789062 476.796875 300.238281 476.722656 298.621094 476.660156 C 297.789062 476.621094 296.398438 476.597656 294.449219 476.582031 L 294.394531 476.582031 C 293.992188 476.570312 293.738281 476.558594 293.636719 476.546875 L 293.609375 476.542969 L 293.601562 476.542969 C 293.535156 476.535156 293.46875 476.535156 293.40625 476.535156 Z M 293.40625 476.535156 " fill-opacity="1" fill-rule="nonzero"/><path fill="#000000" d="M 364.726562 555.671875 C 363.703125 555.671875 362.84375 556.46875 362.78125 557.5 C 361.988281 570.621094 361.539062 580.105469 361.4375 585.949219 C 361.378906 588.457031 361.363281 591.238281 361.390625 594.292969 L 361.390625 594.300781 C 361.414062 595.960938 361.433594 597.105469 361.449219 597.730469 L 361.449219 597.734375 C 361.546875 601.402344 361.628906 604.136719 361.691406 605.941406 L 361.6875 605.941406 C 361.699219 606.921875 361.703125 607.5625 361.695312 607.859375 C 361.675781 608.933594 362.53125 609.824219 363.609375 609.84375 C 363.621094 609.84375 363.632812 609.84375 363.644531 609.84375 C 364.703125 609.84375 365.574219 608.996094 365.59375 607.933594 C 365.601562 607.601562 365.597656 606.910156 365.585938 605.851562 L 365.585938 605.804688 C 365.523438 604.042969 365.445312 601.316406 365.347656 597.628906 C 365.332031 597.039062 365.3125 595.910156 365.289062 594.25 C 365.261719 591.226562 365.277344 588.484375 365.332031 586.027344 L 365.332031 586.015625 C 365.433594 580.226562 365.878906 570.800781 366.671875 557.738281 C 366.738281 556.664062 365.917969 555.742188 364.84375 555.675781 C 364.804688 555.671875 364.765625 555.671875 364.726562 555.671875 Z M 364.726562 555.671875 " fill-opacity="1" fill-rule="nonzero"/><path fill="#000000" d="M 379.527344 579.308594 C 379.460938 579.308594 379.394531 579.3125 379.324219 579.320312 C 374.285156 579.84375 370.460938 580.183594 367.855469 580.328125 L 367.839844 580.332031 C 366.128906 580.441406 364.191406 580.527344 362.035156 580.59375 L 362.023438 580.59375 C 361.027344 580.625 360.003906 580.648438 358.949219 580.667969 L 358.933594 580.667969 C 358.546875 580.679688 357.203125 580.699219 354.914062 580.726562 L 354.90625 580.726562 C 354.527344 580.734375 354.179688 580.742188 353.871094 580.75 L 353.863281 580.753906 C 352.753906 580.792969 351.914062 580.898438 351.34375 581.058594 C 350.308594 581.355469 349.710938 582.429688 350.003906 583.464844 C 350.25 584.320312 351.027344 584.878906 351.878906 584.878906 C 352.054688 584.878906 352.234375 584.855469 352.414062 584.804688 C 352.679688 584.726562 353.210938 584.671875 354.007812 584.644531 C 354.304688 584.632812 354.617188 584.625 354.945312 584.621094 L 354.960938 584.621094 C 357.234375 584.59375 358.589844 584.574219 359.023438 584.5625 C 360.117188 584.539062 361.164062 584.515625 362.152344 584.488281 L 362.152344 584.484375 C 364.351562 584.417969 366.328125 584.328125 368.074219 584.21875 C 370.734375 584.066406 374.621094 583.722656 379.726562 583.191406 C 380.796875 583.082031 381.578125 582.125 381.464844 581.054688 C 381.359375 580.054688 380.515625 579.308594 379.527344 579.308594 Z M 379.527344 579.308594 " fill-opacity="1" fill-rule="nonzero"/><path fill="#000000" d="M 218.664062 722.554688 C 217.664062 722.554688 216.816406 723.316406 216.722656 724.328125 C 214.15625 752.789062 212.703125 771.832031 212.371094 781.453125 C 212.144531 786.699219 212.027344 793.195312 212.023438 800.9375 L 212.023438 800.953125 C 212.101562 810.351562 212.253906 818.019531 212.484375 823.960938 C 212.496094 824.710938 212.488281 825.4375 212.460938 826.132812 C 212.417969 827.207031 213.253906 828.113281 214.328125 828.160156 C 214.355469 828.160156 214.382812 828.160156 214.410156 828.160156 C 215.449219 828.160156 216.3125 827.339844 216.355469 826.292969 C 216.386719 825.507812 216.398438 824.691406 216.382812 823.847656 L 216.378906 823.808594 C 216.152344 817.910156 216 810.285156 215.921875 800.9375 C 215.925781 793.238281 216.039062 786.792969 216.265625 781.605469 L 216.265625 781.585938 C 216.597656 772.039062 218.042969 753.070312 220.605469 724.675781 C 220.703125 723.605469 219.914062 722.660156 218.839844 722.5625 C 218.78125 722.558594 218.722656 722.554688 218.664062 722.554688 Z M 218.664062 722.554688 " fill-opacity="1" fill-rule="nonzero"/><path fill="#000000" d="M 213.960938 722.867188 Z M 267.648438 635.128906 C 267.585938 635.128906 267.527344 635.132812 267.464844 635.136719 C 260.539062 635.785156 256.382812 637.046875 254.992188 638.921875 L 254.992188 638.917969 C 254.621094 639.421875 254.398438 639.960938 254.324219 640.542969 L 254.261719 640.542969 C 245.890625 657.394531 240.609375 667.738281 238.421875 671.574219 L 238.398438 671.613281 C 233.203125 681.222656 224.5625 696.140625 212.472656 716.371094 L 212.457031 716.398438 C 210.84375 719.195312 210.046875 721.3125 210.070312 722.746094 L 210.066406 722.746094 C 210.066406 722.761719 210.066406 722.777344 210.066406 722.789062 L 210.066406 722.796875 C 210.042969 724.046875 210.558594 725.011719 211.613281 725.699219 C 212.460938 726.25 213.65625 726.539062 215.199219 726.566406 L 215.328125 726.566406 C 224.242188 726.152344 234.085938 725.945312 244.851562 725.945312 C 252.050781 725.945312 259.664062 726.039062 267.695312 726.222656 C 267.707031 726.222656 267.722656 726.222656 267.738281 726.222656 C 268.792969 726.222656 269.664062 725.382812 269.6875 724.320312 C 269.710938 723.246094 268.859375 722.355469 267.78125 722.332031 C 259.726562 722.144531 252.085938 722.054688 244.855469 722.054688 C 234.050781 722.054688 224.171875 722.261719 215.210938 722.671875 C 214.691406 722.660156 214.300781 722.621094 214.035156 722.554688 L 213.972656 722.554688 C 214.027344 721.800781 214.644531 720.40625 215.820312 718.367188 C 227.925781 698.109375 236.585938 683.152344 241.804688 673.503906 C 244.058594 669.558594 249.453125 658.988281 257.992188 641.792969 C 258.082031 641.617188 258.140625 641.429688 258.171875 641.238281 L 258.121094 641.238281 C 258.824219 640.296875 262.058594 639.554688 267.828125 639.015625 C 268.898438 638.914062 269.6875 637.964844 269.585938 636.894531 C 269.492188 635.886719 268.640625 635.128906 267.648438 635.128906 Z M 267.648438 635.128906 " fill-opacity="1" fill-rule="nonzero"/></svg>