<svg xmlns="http://www.w3.org/2000/svg" xmlns:xlink="http://www.w3.org/1999/xlink" zoomAndPan="magnify" preserveAspectRatio="xMidYMid meet" version="1.0" viewBox="245.59 587.07 291.44 371.25"><defs><clipPath id="40c15d20fa"><path d="M 245.421875 587.066406 L 537.171875 587.066406 L 537.171875 958.316406 L 245.421875 958.316406 Z M 245.421875 587.066406 " clip-rule="nonzero"/></clipPath></defs><g clip-path="url(#40c15d20fa)"><path fill="#000000" d="M 282.117188 721.332031 C 280.464844 720.09375 278.605469 719.472656 276.746094 718.921875 C 274.0625 718.164062 271.378906 717.269531 268.488281 717.40625 C 268.007812 717.40625 267.527344 717.269531 267.113281 716.71875 C 268.214844 716.097656 269.316406 716.167969 270.417969 716.097656 C 274.820312 716.097656 278.261719 714.101562 281.359375 711.207031 C 284.59375 708.175781 286.933594 704.386719 289.136719 700.597656 C 291.269531 696.878906 293.125 693.019531 294.503906 688.953125 C 294.640625 688.472656 294.847656 687.988281 295.121094 687.507812 C 295.671875 686.613281 296.429688 686.679688 297.117188 687.507812 C 298.082031 688.746094 298.289062 690.261719 298.632812 691.710938 C 299.390625 695.085938 300.628906 698.324219 302.003906 701.492188 C 302.140625 701.835938 302.28125 702.25 302.625 702.457031 C 303.726562 701.699219 304.550781 700.667969 305.515625 699.769531 C 309.851562 695.914062 314.667969 692.742188 319.761719 689.851562 C 326.710938 685.921875 334.074219 682.753906 341.644531 680.207031 C 348.25 678 354.996094 676.140625 361.878906 674.761719 C 362.910156 674.554688 363.390625 674.554688 364.21875 674.003906 C 365.042969 673.453125 365.867188 671.9375 366.488281 671.113281 C 368.414062 668.496094 370.753906 666.222656 373.300781 664.222656 C 375.367188 662.570312 377.707031 661.261719 380.390625 660.847656 C 381.285156 660.710938 382.179688 660.640625 383.074219 660.640625 C 385.277344 660.640625 387.476562 660.433594 389.679688 660.503906 C 389.816406 660.503906 390.230469 651.066406 390.023438 646.449219 C 389.816406 640.800781 389.75 635.21875 389.816406 629.570312 C 389.816406 625.921875 389.957031 622.335938 390.160156 618.6875 C 390.367188 615.3125 390.507812 611.933594 390.644531 608.628906 C 390.851562 604.632812 391.125 600.636719 391.402344 596.640625 C 391.539062 594.367188 391.953125 591.886719 392.089844 591.199219 C 392.226562 590.511719 392.640625 588.238281 392.914062 587.339844 C 392.914062 587.136719 393.945312 587.066406 394.222656 587.066406 C 394.496094 587.066406 396.082031 587.339844 396.148438 587.546875 C 396.90625 591.199219 396.492188 594.644531 396.21875 598.433594 C 395.941406 601.671875 395.875 604.910156 395.667969 608.144531 C 395.390625 612.417969 394.980469 616.6875 394.703125 620.890625 C 394.359375 625.851562 393.945312 630.8125 393.808594 635.769531 C 393.742188 639.148438 393.808594 642.523438 393.535156 645.898438 C 393.328125 649.550781 392.984375 659.261719 392.914062 660.503906 C 394.292969 660.570312 395.804688 660.570312 397.386719 660.777344 C 400.070312 661.121094 402.757812 660.777344 405.371094 661.191406 C 406.402344 661.398438 407.503906 661.605469 408.535156 661.8125 C 411.082031 662.363281 413.148438 663.601562 414.867188 665.601562 C 416.519531 667.53125 418.378906 669.183594 419.617188 671.457031 C 419.890625 671.9375 420.167969 672.421875 420.097656 673.042969 C 420.03125 673.660156 420.234375 673.867188 420.855469 674.003906 C 424.914062 674.832031 428.699219 676.210938 432.554688 677.792969 C 434.070312 678.414062 435.71875 678.691406 437.304688 679.101562 C 442.738281 680.550781 447.902344 682.824219 452.992188 685.097656 C 465.863281 690.882812 477.425781 698.738281 487.953125 708.105469 C 499.035156 717.957031 508.460938 729.117188 515.964844 741.863281 C 521.949219 752.058594 526.835938 762.667969 529.933594 774.101562 C 530.554688 776.308594 531.035156 778.511719 531.449219 780.785156 C 531.859375 783.265625 532.6875 785.609375 533.03125 788.15625 C 533.375 790.707031 533.71875 793.253906 533.992188 795.871094 C 534.476562 800.144531 534.820312 804.414062 534.957031 808.617188 C 535.09375 812.957031 535.164062 817.367188 534.890625 821.707031 C 534.75 823.703125 534.683594 825.769531 534.542969 827.769531 C 533.925781 835.691406 532.824219 843.542969 530.964844 851.261719 C 528.625 860.972656 525.667969 870.410156 521.539062 879.503906 C 520.851562 881.019531 520.160156 882.605469 519.40625 884.050781 C 519.128906 884.535156 519.265625 884.808594 519.679688 885.085938 C 523.464844 887.839844 527.664062 889.496094 532.34375 889.976562 C 533.648438 890.113281 534.890625 890.253906 536.128906 890.664062 C 536.402344 890.734375 536.609375 890.804688 536.816406 890.941406 C 537.160156 891.214844 537.089844 891.5625 536.679688 891.769531 C 536.472656 891.835938 536.195312 891.90625 535.921875 891.972656 C 528.625 893.765625 522.226562 897.140625 516.652344 902.171875 C 511.695312 906.71875 507.84375 912.023438 505.710938 918.429688 C 504.882812 920.839844 503.78125 923.113281 503.164062 925.59375 C 503.164062 925.800781 502.957031 926.007812 502.75 926.007812 C 502.40625 926.007812 502.40625 925.730469 502.335938 925.457031 C 502.128906 924.835938 502.199219 924.144531 502.199219 923.527344 C 502.199219 920.21875 500.339844 914.847656 498.207031 912.226562 C 497.449219 913.054688 496.761719 913.882812 496.003906 914.707031 C 494.285156 916.707031 492.222656 918.429688 490.429688 920.289062 C 486.644531 924.078125 482.171875 926.96875 477.976562 930.207031 C 467.238281 938.613281 455.195312 944.539062 442.601562 949.359375 C 435.167969 952.183594 427.460938 953.90625 419.683594 955.351562 C 413.285156 956.523438 406.886719 957.28125 400.484375 957.902344 C 397.527344 958.179688 394.566406 958.316406 391.539062 958.316406 C 388.371094 958.316406 385.207031 957.832031 381.972656 957.625 C 369.792969 956.800781 358.230469 953.355469 346.667969 949.773438 C 345.910156 949.566406 345.222656 949.292969 344.464844 949.015625 C 343.984375 948.878906 343.570312 948.535156 343.089844 949.152344 C 342.8125 949.496094 341.988281 949.292969 341.78125 948.738281 C 341.507812 947.914062 340.820312 947.707031 340.128906 947.429688 C 332.285156 944.539062 324.988281 940.472656 317.832031 936.203125 C 314.734375 934.34375 311.640625 932.414062 308.679688 930.277344 C 308.0625 929.796875 307.234375 929.933594 306.683594 929.589844 C 306.132812 929.242188 306.132812 928.417969 305.515625 928.003906 C 300.765625 924.492188 296.429688 920.496094 292.230469 916.429688 C 289.136719 913.46875 286.105469 910.4375 283.148438 907.335938 C 278.191406 902.101562 273.652344 896.589844 269.933594 890.457031 C 268.28125 887.773438 266.355469 885.359375 264.773438 882.675781 C 259.40625 873.925781 255.414062 864.554688 252.386719 854.773438 C 250.253906 848.023438 248.875 841.066406 247.636719 834.105469 C 246.878906 829.699219 246.191406 825.21875 245.917969 820.742188 C 245.710938 817.367188 245.433594 813.921875 245.710938 810.476562 C 245.917969 808.136719 245.917969 805.722656 246.054688 803.382812 C 246.46875 797.871094 247.15625 792.429688 248.1875 786.984375 C 250.046875 777.273438 252.796875 767.765625 256.652344 758.601562 C 257.410156 756.742188 258.234375 754.953125 259.269531 753.230469 C 261.539062 749.371094 263.257812 745.238281 265.597656 741.449219 C 269.382812 735.386719 273.445312 729.53125 278.261719 724.296875 C 279.363281 723.054688 280.53125 721.953125 281.839844 720.851562 Z M 459.808594 824.945312 C 460.21875 825.359375 460.289062 825.769531 460.289062 826.117188 C 460.632812 830.59375 460.976562 835.070312 461.320312 839.550781 C 461.390625 840.652344 461.320312 840.71875 462.492188 840.652344 C 464.625 840.652344 466.828125 840.511719 468.960938 840.375 C 472.605469 840.167969 476.1875 839.894531 479.832031 839.617188 C 483.894531 839.34375 487.886719 838.996094 491.945312 838.585938 C 492.496094 838.585938 492.703125 838.445312 492.769531 837.828125 C 492.769531 837.070312 492.910156 836.378906 492.976562 835.621094 C 493.183594 833.074219 493.320312 830.457031 493.597656 827.90625 C 493.941406 824.738281 494.078125 821.636719 494.214844 818.46875 C 494.421875 815.367188 494.492188 812.269531 494.5625 809.167969 C 494.628906 804.140625 494.628906 799.109375 494.5625 794.082031 C 494.5625 793.460938 494.285156 793.253906 493.734375 793.1875 C 492.910156 793.1875 492.015625 792.980469 491.1875 792.910156 C 487.542969 792.496094 483.894531 792.082031 480.246094 791.808594 C 476.460938 791.464844 472.675781 791.257812 468.890625 790.914062 C 466.894531 790.773438 464.832031 790.636719 462.835938 790.5 C 462.285156 790.5 461.941406 790.566406 461.871094 791.257812 C 461.871094 792.015625 461.804688 792.703125 461.664062 793.460938 C 461.320312 796.355469 460.976562 799.179688 460.632812 802.074219 C 460.632812 802.347656 460.632812 802.691406 460.152344 802.691406 C 459.945312 802.347656 459.875 802.003906 459.808594 801.589844 C 459.394531 798.144531 458.914062 794.632812 458.5 791.1875 C 458.429688 790.5 458.222656 790.222656 457.535156 790.222656 C 454.714844 790.085938 451.960938 789.878906 449.140625 789.671875 C 445.835938 789.464844 442.535156 789.191406 439.230469 788.984375 C 436.0625 788.777344 432.828125 788.570312 429.664062 788.363281 C 426.980469 788.226562 424.226562 788.085938 421.542969 787.949219 C 421.335938 788.15625 421.335938 788.363281 421.335938 788.570312 C 421.335938 789.808594 421.40625 791.117188 421.335938 792.359375 C 421.0625 795.597656 421.199219 798.835938 420.925781 802.074219 C 420.71875 804.414062 420.71875 806.824219 420.375 809.167969 C 420.375 809.445312 420.375 809.71875 420.03125 809.71875 C 419.753906 809.71875 419.546875 809.582031 419.410156 809.375 C 419.066406 808.894531 419.136719 808.273438 419.136719 807.722656 C 419.136719 801.867188 419.136719 796.011719 419.066406 790.222656 C 419.066406 789.671875 418.996094 789.191406 418.929688 788.707031 C 418.929688 788.019531 418.515625 787.882812 417.894531 787.882812 C 414.730469 787.882812 411.496094 787.675781 408.332031 787.605469 C 403.167969 787.535156 397.9375 787.46875 392.777344 787.46875 C 387.546875 787.46875 382.316406 787.535156 377.085938 787.605469 C 373.78125 787.605469 370.410156 787.675781 367.109375 787.742188 C 366.695312 787.742188 366.28125 787.8125 365.800781 787.882812 C 365.316406 787.882812 365.113281 788.15625 365.113281 788.640625 C 365.113281 789.878906 364.90625 791.117188 364.90625 792.359375 C 364.769531 795.320312 364.769531 798.214844 364.699219 801.175781 C 364.492188 807.722656 364.628906 814.265625 364.421875 820.742188 C 364.285156 825.910156 364.421875 831.144531 364.148438 836.3125 C 364.148438 837.34375 364.148438 838.378906 364.148438 839.410156 C 364.148438 840.101562 364.421875 840.308594 365.042969 840.308594 C 365.730469 840.308594 366.417969 840.308594 367.109375 840.308594 C 371.648438 840.445312 376.191406 840.652344 380.664062 840.789062 C 384.382812 840.925781 388.097656 840.925781 391.8125 841.066406 C 393.878906 841.132812 395.875 841.066406 397.9375 841.203125 C 404.199219 841.410156 410.464844 841.476562 416.726562 841.410156 C 417.691406 841.410156 417.621094 841.410156 417.757812 840.375 C 418.308594 834.65625 418.859375 828.871094 419.410156 823.152344 C 419.410156 822.53125 419.410156 821.773438 419.890625 821.15625 C 420.234375 821.773438 420.304688 822.328125 420.304688 822.878906 C 420.304688 824.875 420.441406 826.941406 420.582031 828.941406 C 420.785156 832.660156 420.855469 836.449219 420.925781 840.238281 C 420.925781 841.546875 420.925781 841.476562 422.230469 841.476562 C 422.230469 841.476562 422.300781 841.476562 422.371094 841.476562 C 429.390625 841.476562 436.476562 841.476562 443.496094 841.269531 C 447.695312 841.132812 451.960938 840.996094 456.160156 840.996094 C 456.433594 840.996094 456.777344 840.996094 457.054688 840.996094 C 457.671875 840.996094 457.949219 840.652344 458.019531 840.03125 C 458.429688 835.554688 458.914062 831.074219 459.324219 826.667969 C 459.324219 826.183594 459.464844 825.632812 459.738281 825.082031 Z M 304.621094 924.078125 C 304.621094 923.664062 304.550781 923.527344 304.480469 923.320312 C 302.625 917.738281 300.972656 912.023438 299.597656 906.234375 C 299.457031 905.683594 299.183594 905.476562 298.703125 905.269531 C 296.292969 904.238281 293.816406 903.273438 291.40625 902.238281 C 291.199219 902.171875 290.925781 902.03125 290.71875 901.964844 C 290.582031 901.964844 290.511719 901.824219 290.511719 901.6875 C 290.511719 901.480469 290.71875 901.414062 290.855469 901.414062 C 291.40625 901.480469 291.957031 901.617188 292.507812 901.757812 C 294.570312 902.238281 296.566406 902.722656 298.5625 903.203125 C 298.769531 902.789062 298.632812 902.515625 298.5625 902.238281 C 297.050781 895.554688 295.464844 888.875 294.296875 882.121094 C 294.160156 881.226562 293.746094 880.953125 292.921875 880.675781 C 289.34375 879.574219 285.832031 878.472656 282.324219 877.371094 C 282.046875 877.300781 281.632812 877.230469 281.496094 876.886719 C 281.773438 876.472656 282.183594 876.679688 282.527344 876.679688 C 284.9375 876.957031 287.347656 877.300781 289.6875 877.578125 C 290.925781 877.714844 292.164062 878.058594 293.472656 877.851562 C 292.851562 874.0625 292.371094 870.273438 292.027344 866.484375 C 291.683594 862.765625 291.542969 858.976562 291.476562 855.253906 C 291.476562 851.535156 291.476562 847.746094 291.820312 843.75 C 292.371094 844.578125 292.371094 845.199219 292.4375 845.816406 C 292.921875 849.054688 293.402344 852.292969 293.953125 855.53125 C 294.570312 859.664062 295.191406 863.796875 295.535156 868 C 295.8125 871.167969 296.222656 874.339844 296.566406 877.507812 C 296.636719 878.265625 296.980469 878.539062 297.667969 878.609375 C 298.839844 878.746094 300.007812 878.886719 301.109375 879.09375 C 307.027344 880.125 313.015625 881.160156 318.933594 882.191406 C 320.515625 882.46875 322.167969 882.675781 323.820312 882.949219 C 324.507812 883.019531 324.578125 882.949219 324.507812 882.261719 C 324.507812 882.121094 324.441406 881.917969 324.371094 881.777344 C 324.09375 879.851562 323.75 877.851562 323.546875 875.855469 C 323.339844 872.890625 323.40625 869.859375 323.546875 866.898438 C 323.546875 866.621094 323.546875 866.277344 323.820312 866.070312 C 324.300781 866.277344 324.300781 866.761719 324.371094 867.171875 C 325.058594 869.378906 325.679688 871.582031 326.296875 873.789062 C 327.125 876.679688 327.535156 879.710938 328.019531 882.675781 C 328.15625 883.363281 328.363281 883.570312 329.050781 883.707031 C 333.316406 884.257812 337.585938 884.742188 341.917969 885.085938 C 345.636719 885.429688 349.285156 885.636719 353 885.910156 C 355.890625 886.117188 358.78125 886.257812 361.671875 886.324219 C 362.976562 886.324219 362.976562 886.394531 363.117188 885.152344 C 363.117188 885.152344 363.253906 885.085938 363.324219 885.015625 C 363.527344 885.015625 363.597656 885.222656 363.597656 885.359375 C 363.871094 886.601562 364.011719 886.394531 364.972656 886.394531 C 368.003906 886.464844 371.03125 886.601562 374.058594 886.667969 C 383.832031 886.667969 393.601562 886.808594 403.375 886.324219 C 406.886719 886.117188 410.464844 885.980469 413.972656 885.773438 C 414.523438 885.773438 414.730469 885.5 414.730469 885.015625 C 414.867188 882.8125 415.074219 880.605469 415.210938 878.402344 C 415.351562 876.128906 415.417969 873.925781 415.554688 871.652344 C 415.761719 868.070312 416.039062 864.488281 416.246094 860.90625 C 416.382812 858.769531 416.449219 856.566406 416.589844 854.429688 C 416.726562 851.671875 416.863281 848.917969 417.070312 846.164062 C 417.140625 845.058594 416.863281 845.199219 416.105469 845.199219 C 414.800781 845.199219 413.492188 845.265625 412.253906 845.335938 C 403.652344 845.335938 395.046875 845.199219 386.445312 845.058594 C 382.660156 845.058594 378.945312 845.058594 375.160156 844.851562 C 372.75 844.785156 370.34375 844.851562 367.933594 844.648438 C 366.832031 844.507812 365.664062 844.648438 364.5625 844.648438 C 364.148438 844.648438 363.941406 844.785156 363.941406 845.265625 C 363.941406 846.714844 363.804688 848.089844 363.804688 849.539062 C 363.734375 852.636719 363.667969 855.738281 363.527344 858.90625 C 363.390625 863.523438 363.390625 868.136719 363.253906 872.753906 C 363.253906 873.789062 362.976562 874.820312 363.253906 875.855469 C 363.324219 876.199219 363.046875 876.542969 362.632812 876.542969 C 362.152344 876.542969 362.082031 876.265625 362.082031 875.855469 C 362.082031 875.648438 362.082031 875.441406 362.082031 875.234375 C 362.082031 874.132812 362.082031 872.960938 362.082031 871.859375 C 361.808594 868.277344 361.808594 864.695312 361.671875 861.113281 C 361.464844 855.945312 361.464844 850.710938 361.394531 845.542969 C 361.394531 845.472656 361.394531 845.335938 361.394531 845.265625 C 361.394531 844.714844 361.121094 844.507812 360.636719 844.507812 C 359.332031 844.507812 358.023438 844.371094 356.785156 844.371094 C 353.824219 844.371094 350.933594 844.234375 347.976562 844.09375 C 344.605469 843.957031 341.164062 843.75 337.789062 843.613281 C 335.65625 843.476562 333.453125 843.40625 331.320312 843.269531 C 327.949219 843.0625 324.644531 842.855469 321.34375 842.648438 C 321.136719 842.992188 321.207031 843.269531 321.273438 843.613281 C 321.6875 847.058594 322.03125 850.433594 322.445312 853.878906 C 322.511719 854.636719 322.511719 855.460938 322.445312 856.21875 C 322.445312 856.496094 322.238281 856.839844 321.894531 856.769531 C 321.550781 856.769531 321.34375 856.566406 321.34375 856.152344 C 321.34375 855.875 321.34375 855.601562 321.34375 855.394531 C 321.34375 854.703125 321.273438 854.015625 321.136719 853.328125 C 320.65625 850.019531 320.171875 846.78125 319.761719 843.476562 C 319.691406 842.71875 319.414062 842.511719 318.660156 842.441406 C 314.253906 842.097656 309.917969 841.683594 305.515625 841.203125 C 299.527344 840.582031 293.609375 839.824219 287.691406 838.929688 C 282.597656 838.101562 277.574219 837.34375 272.550781 836.105469 C 270.621094 835.621094 268.628906 835.070312 266.699219 834.589844 C 266.492188 834.863281 266.5625 835.140625 266.5625 835.414062 C 266.90625 838.652344 267.183594 841.820312 267.527344 845.058594 C 268.007812 849.675781 268.695312 854.292969 269.453125 858.90625 C 270.691406 866.003906 272.136719 873.097656 273.789062 880.054688 C 275.234375 886.117188 276.679688 892.25 278.742188 898.175781 C 278.949219 898.792969 279.226562 899.34375 279.636719 899.898438 C 281.632812 902.238281 283.628906 904.511719 285.832031 906.71875 C 290.167969 911.195312 294.570312 915.605469 299.183594 919.738281 C 300.835938 921.253906 302.554688 922.699219 304.550781 924.214844 Z M 321.6875 783.816406 C 322.648438 783.816406 323.476562 783.816406 324.300781 783.816406 C 329.324219 783.542969 334.417969 783.195312 339.441406 783.058594 C 344.742188 782.921875 350.039062 782.644531 355.410156 782.644531 C 357.199219 782.644531 359.054688 782.507812 360.84375 782.507812 C 361.464844 782.507812 361.808594 782.371094 361.808594 781.679688 C 361.808594 779.0625 362.082031 776.445312 362.289062 773.828125 C 362.566406 769.695312 362.910156 765.5625 363.324219 761.425781 C 363.734375 757.363281 364.078125 753.367188 364.628906 749.371094 C 364.699219 748.683594 364.492188 748.40625 363.804688 748.40625 C 362.566406 748.269531 361.328125 748.132812 360.089844 747.925781 C 359.742188 747.925781 359.191406 747.925781 359.125 747.511719 C 359.125 747.027344 359.605469 747.027344 360.019531 746.960938 C 361.257812 746.683594 362.496094 746.410156 363.667969 746.203125 C 364.90625 745.925781 364.972656 745.996094 365.113281 744.6875 C 365.316406 742.964844 365.457031 741.242188 365.664062 739.519531 C 366.144531 735.730469 366.558594 732.011719 367.039062 728.222656 C 367.65625 723.605469 368.207031 718.992188 368.898438 714.375 C 368.964844 713.753906 368.898438 713.617188 368.277344 713.617188 C 364.972656 713.894531 361.671875 714.101562 358.367188 714.304688 C 355.0625 714.511719 351.761719 714.925781 348.390625 714.855469 C 345.910156 714.855469 343.503906 714.71875 341.023438 714.582031 C 339.234375 714.511719 337.515625 714.375 335.726562 714.238281 C 335.382812 714.238281 334.761719 714.375 334.761719 713.894531 C 334.761719 713.410156 335.3125 713.410156 335.65625 713.34375 C 338.683594 712.515625 341.78125 711.757812 344.808594 710.929688 C 347.976562 710.105469 351.140625 709.484375 354.375 709.277344 C 359.191406 708.933594 364.011719 708.449219 368.828125 708.382812 C 369.792969 708.382812 369.792969 708.3125 369.929688 707.347656 C 370.753906 702.042969 371.648438 696.738281 372.613281 691.433594 C 372.75 690.539062 372.683594 690.46875 371.789062 690.539062 C 367.453125 690.882812 363.117188 691.433594 358.847656 692.125 C 352.242188 693.226562 345.703125 694.671875 339.304688 696.464844 C 338.753906 696.601562 338.410156 696.878906 338.273438 697.429688 C 338.066406 698.1875 337.789062 699.011719 337.585938 699.769531 C 335.3125 707.210938 333.660156 714.789062 331.871094 722.367188 C 331.253906 725.121094 330.566406 727.808594 330.152344 730.632812 C 330.152344 730.976562 329.875 731.390625 330.425781 731.597656 C 331.046875 731.875 331.253906 732.425781 331.390625 733.042969 C 331.941406 734.835938 332.421875 736.625 333.109375 738.347656 C 334.488281 741.726562 336.621094 744.273438 340.335938 745.167969 C 341.4375 745.445312 342.46875 745.996094 343.433594 746.753906 C 343.777344 747.027344 343.847656 747.304688 343.433594 747.582031 C 342.882812 747.925781 342.332031 748.269531 341.714844 748.476562 C 337.996094 749.714844 334.898438 751.921875 332.492188 754.882812 C 330.566406 757.292969 329.050781 759.910156 328.5 763.082031 C 328.363281 763.769531 328.429688 764.457031 328.15625 765.078125 C 327.949219 765.628906 327.605469 765.765625 327.191406 765.421875 C 326.574219 764.871094 326.089844 764.320312 326.160156 763.425781 C 326.160156 763.082031 326.160156 762.734375 326.023438 762.460938 C 325.679688 761.703125 325.539062 760.875 325.265625 760.117188 C 325.128906 759.566406 324.988281 759.015625 324.441406 758.328125 C 323.476562 766.9375 322.375 775.34375 321.753906 783.746094 Z M 325.402344 715.820312 C 323.339844 717.40625 321.617188 718.851562 319.484375 719.679688 C 316.25 720.917969 313.222656 722.503906 310.46875 724.707031 C 306.476562 727.945312 303.105469 731.734375 300.285156 736.074219 C 298.21875 739.175781 296.222656 742.277344 295.742188 746.132812 C 295.398438 748.75 294.917969 751.371094 294.433594 754.054688 C 294.640625 754.054688 294.710938 754.125 294.847656 754.125 C 297.875 753.644531 300.902344 753.503906 304 753.367188 C 305.722656 753.367188 307.441406 752.953125 309.160156 753.089844 C 310.402344 753.160156 311.570312 753.230469 312.945312 753.917969 C 311.296875 754.675781 309.78125 755.226562 308.199219 755.363281 C 303.65625 755.777344 299.183594 756.46875 294.710938 757.019531 C 293.953125 757.085938 293.675781 757.363281 293.609375 758.121094 C 292.921875 762.390625 292.300781 766.664062 291.820312 770.933594 C 291.269531 775.824219 291.0625 780.714844 290.71875 785.675781 C 290.71875 786.710938 290.71875 786.640625 291.683594 786.574219 C 294.917969 786.226562 298.21875 785.746094 301.453125 785.46875 C 306.339844 785.058594 311.15625 784.710938 316.042969 784.300781 C 316.9375 784.300781 318.109375 784.574219 318.660156 783.886719 C 319.210938 783.265625 318.933594 782.164062 319.003906 781.269531 C 319.414062 776.238281 319.898438 771.210938 320.585938 766.25 C 321 763.148438 321.34375 759.980469 322.167969 756.949219 C 322.511719 755.710938 322.167969 754.953125 321.273438 754.125 C 319.070312 752.058594 316.664062 750.472656 313.839844 749.578125 C 313.289062 749.371094 312.878906 749.097656 312.464844 748.613281 C 312.257812 748.339844 312.328125 748.132812 312.671875 748.0625 C 312.945312 748.0625 313.222656 748.0625 313.429688 748.0625 C 315.21875 747.925781 317.007812 747.582031 318.589844 746.546875 C 319.761719 745.71875 320.722656 744.6875 321.6875 743.585938 C 324.164062 740.621094 326.160156 737.316406 327.742188 733.800781 C 328.085938 733.042969 328.773438 732.492188 329.050781 731.734375 C 329.257812 730.976562 329.121094 730.082031 329.1875 729.253906 C 329.53125 725.8125 330.082031 722.296875 330.632812 718.851562 C 331.527344 712.859375 332.628906 706.867188 334.210938 700.941406 C 334.488281 699.910156 334.761719 698.875 334.96875 697.839844 C 334.417969 697.703125 334.074219 697.839844 333.730469 697.910156 C 328.773438 699.011719 323.820312 699.632812 318.796875 700.390625 C 318.453125 700.390625 318.039062 700.667969 317.902344 700.253906 C 317.765625 699.839844 318.246094 699.769531 318.519531 699.5625 C 318.589844 699.5625 318.660156 699.496094 318.726562 699.425781 C 324.507812 696.601562 330.152344 693.433594 336.34375 691.640625 C 336.757812 691.503906 337.035156 691.367188 337.171875 690.953125 C 337.789062 688.953125 338.410156 686.957031 338.890625 684.890625 C 338.410156 684.753906 338.066406 684.960938 337.722656 685.097656 C 335.933594 685.785156 334.074219 686.476562 332.285156 687.164062 C 322.167969 691.296875 312.742188 696.53125 304.207031 703.351562 C 303.382812 704.042969 303.382812 704.042969 304 704.867188 C 306.890625 708.726562 310.539062 711.757812 315.011719 713.6875 C 316.25 714.238281 317.488281 714.375 318.796875 714.445312 C 319.347656 714.445312 319.898438 714.445312 320.449219 714.445312 C 322.101562 714.582031 323.683594 714.925781 325.402344 715.753906 Z M 287.277344 793.390625 C 286.589844 793.390625 286.105469 793.390625 285.625 793.460938 C 280.808594 794.148438 275.992188 794.425781 271.171875 794.632812 C 269.523438 794.703125 267.871094 794.839844 266.289062 794.90625 C 265.667969 794.90625 265.324219 795.113281 265.324219 795.804688 C 265.324219 798.558594 265.117188 801.246094 265.117188 804 C 265.117188 806.480469 265.117188 808.960938 265.253906 811.371094 C 265.394531 813.714844 265.394531 816.058594 265.53125 818.398438 C 265.738281 822.121094 266.011719 825.839844 266.148438 829.492188 C 266.148438 830.730469 266.355469 830.867188 267.59375 831.007812 C 271.929688 831.28125 276.265625 831.902344 280.53125 832.589844 C 292.714844 834.726562 304.964844 836.242188 317.214844 837.34375 C 319.554688 837.550781 319.140625 837.550781 318.933594 835.621094 C 318.453125 830.59375 318.246094 825.5625 318.039062 820.535156 C 317.832031 813.851562 317.96875 807.238281 318.039062 800.558594 C 318.039062 800.210938 318.039062 799.867188 318.039062 799.523438 C 318.246094 796.699219 318.109375 793.804688 318.382812 790.980469 C 318.453125 790.222656 318.246094 790.085938 317.488281 790.15625 C 315.835938 790.292969 314.117188 790.359375 312.464844 790.566406 C 307.304688 791.050781 302.074219 791.601562 296.910156 792.082031 C 294.984375 792.289062 293.058594 792.566406 291.132812 792.773438 C 290.511719 792.773438 290.238281 793.046875 290.238281 793.738281 C 290.238281 794.496094 290.238281 795.320312 290.167969 796.078125 C 289.890625 799.800781 289.753906 803.589844 289.753906 807.378906 C 289.753906 808.410156 289.753906 809.445312 289.753906 810.476562 C 289.753906 814.402344 289.6875 818.332031 289.960938 822.257812 C 290.167969 824.804688 289.753906 827.355469 290.03125 829.902344 C 290.03125 830.179688 289.960938 830.316406 289.6875 830.316406 C 289.546875 830.316406 289.34375 830.25 289.273438 830.042969 C 289.136719 829.558594 289.066406 829.007812 288.996094 828.527344 C 288.585938 825.425781 288.445312 822.257812 288.171875 819.089844 C 287.828125 814.886719 287.621094 810.753906 287.484375 806.550781 C 287.347656 802.898438 287.414062 799.25 287.347656 795.664062 C 287.347656 794.90625 287.347656 794.21875 287.347656 793.390625 Z M 320.308594 819.914062 C 320.449219 823.429688 320.171875 826.941406 320.449219 830.386719 C 320.585938 832.523438 320.585938 834.726562 320.722656 836.863281 C 320.722656 837.480469 320.929688 837.757812 321.617188 837.757812 C 322.925781 837.757812 324.234375 837.894531 325.472656 838.035156 C 329.738281 838.445312 334.003906 838.652344 338.273438 838.929688 C 340.886719 839.066406 343.433594 839.136719 346.050781 839.34375 C 350.933594 839.6875 355.890625 839.753906 360.777344 840.03125 C 361.394531 840.03125 361.53125 839.753906 361.464844 839.273438 C 361.464844 838.308594 361.328125 837.34375 361.328125 836.449219 C 361.328125 829.699219 361.1875 822.945312 361.050781 816.195312 C 360.984375 809.789062 361.050781 803.382812 361.050781 796.976562 C 361.050781 796.492188 361.050781 796.011719 361.050781 795.527344 C 361.328125 793.253906 361.121094 791.050781 361.257812 788.777344 C 361.257812 787.882812 361.257812 787.8125 360.363281 787.8125 C 358.4375 787.8125 356.578125 787.882812 354.652344 787.949219 C 352.3125 788.019531 349.902344 788.15625 347.5625 788.226562 C 344.398438 788.363281 341.164062 788.570312 337.996094 788.707031 C 335.519531 788.84375 332.972656 788.984375 330.496094 789.121094 C 328.15625 789.257812 325.816406 789.398438 323.546875 789.601562 C 320.792969 789.878906 321.410156 789.257812 321.136719 792.082031 C 320.929688 794.289062 320.929688 796.492188 320.792969 798.695312 C 320.65625 802.898438 320.449219 807.171875 320.308594 811.371094 C 320.242188 814.199219 320.308594 817.023438 320.308594 819.777344 Z M 365.523438 782.371094 C 366.007812 782.578125 366.351562 782.507812 366.695312 782.507812 C 373.027344 782.507812 379.289062 782.507812 385.621094 782.507812 C 388.578125 782.507812 391.46875 782.578125 394.429688 782.644531 C 399.660156 782.785156 404.957031 782.988281 410.1875 783.128906 C 412.460938 783.195312 414.730469 783.335938 417.070312 783.472656 C 417.484375 783.472656 417.828125 783.472656 418.238281 783.472656 C 418.652344 783.472656 418.859375 783.265625 418.859375 782.851562 C 418.859375 782.09375 418.722656 781.40625 418.722656 780.648438 C 418.722656 777.339844 418.378906 774.101562 418.101562 770.796875 C 417.828125 767.078125 417.414062 763.425781 417.070312 759.703125 C 416.796875 757.019531 416.589844 754.332031 416.3125 751.574219 C 416.3125 751.023438 416.175781 750.679688 415.488281 750.679688 C 413.835938 750.679688 412.117188 750.472656 410.464844 750.40625 C 408.191406 750.335938 405.921875 750.199219 403.582031 750.128906 C 399.109375 749.992188 394.703125 749.714844 390.230469 749.648438 C 385.757812 749.578125 381.214844 749.578125 376.742188 749.507812 C 376.398438 749.507812 376.054688 749.507812 375.710938 749.441406 C 373.578125 749.371094 371.511719 749.164062 369.378906 748.890625 C 368.828125 748.820312 368.484375 749.027344 368.484375 749.648438 C 368.414062 750.613281 368.277344 751.644531 368.140625 752.609375 C 367.796875 755.984375 367.453125 759.359375 367.039062 762.734375 C 366.558594 767.078125 366.210938 771.417969 365.867188 775.757812 C 365.664062 777.890625 365.59375 780.027344 365.386719 782.230469 Z M 455.816406 844.027344 C 454.785156 844.027344 453.957031 844.09375 453.0625 844.164062 C 448.519531 844.371094 443.980469 844.578125 439.503906 844.714844 C 435.308594 844.851562 431.039062 844.851562 426.84375 844.992188 C 425.191406 844.992188 423.539062 845.128906 421.886719 845.058594 C 421.199219 845.058594 420.992188 845.265625 420.992188 845.957031 C 420.992188 849.332031 420.992188 852.707031 420.71875 856.082031 C 420.578125 858.632812 420.511719 861.179688 420.375 863.730469 C 420.167969 867.035156 419.960938 870.34375 419.683594 873.648438 C 419.546875 875.714844 419.339844 877.78125 419.203125 879.851562 C 419.066406 881.367188 418.996094 882.949219 418.859375 884.464844 C 418.859375 885.015625 418.996094 885.292969 419.546875 885.222656 C 419.753906 885.222656 419.960938 885.222656 420.167969 885.222656 C 422.988281 885.015625 425.742188 884.742188 428.5625 884.464844 C 432.625 884.050781 436.683594 883.707031 440.8125 883.226562 C 445.21875 882.742188 449.621094 882.125 454.027344 881.433594 C 454.644531 881.367188 454.988281 881.160156 455.058594 880.402344 C 455.332031 877.300781 455.679688 874.199219 455.953125 871.167969 C 456.367188 866.761719 456.710938 862.421875 456.984375 858.011719 C 457.261719 854.015625 457.46875 850.019531 457.605469 845.957031 C 457.605469 845.335938 458.15625 844.578125 457.605469 844.09375 C 457.121094 843.613281 456.367188 844.09375 455.882812 844.09375 Z M 387.203125 713.136719 C 382.9375 712.996094 378.667969 713.136719 374.402344 713.273438 C 373.78125 713.273438 373.507812 713.480469 373.4375 714.167969 C 373.09375 717.0625 372.613281 719.957031 372.199219 722.847656 C 371.648438 726.980469 371.03125 731.117188 370.480469 735.25 C 370.066406 738.140625 369.722656 740.96875 369.378906 743.859375 C 369.242188 744.960938 369.308594 744.960938 370.34375 744.824219 C 373.164062 744.410156 375.984375 744.066406 378.875 744.136719 C 382.730469 744.136719 386.652344 744.136719 390.507812 744.410156 C 393.535156 744.617188 396.632812 744.617188 399.660156 744.824219 C 404.75 745.167969 409.914062 745.582031 415.003906 745.925781 C 415.761719 745.925781 415.832031 745.925781 415.761719 745.167969 C 415.761719 744.34375 415.625 743.445312 415.554688 742.621094 C 415.351562 739.453125 415.144531 736.351562 415.003906 733.183594 C 414.800781 729.804688 414.660156 726.429688 414.523438 723.125 C 414.386719 720.367188 414.25 717.613281 414.179688 714.855469 C 414.179688 714.304688 413.972656 714.03125 413.355469 713.960938 C 407.984375 713.753906 402.617188 713.410156 397.179688 713.203125 C 393.878906 713.066406 390.507812 713.203125 387.203125 713.203125 Z M 380.597656 890.597656 C 379.5625 890.597656 378.53125 890.597656 377.5 890.597656 C 373.714844 890.457031 369.929688 890.597656 366.074219 890.457031 C 364.90625 890.457031 364.90625 890.457031 365.113281 891.5625 C 366.488281 898.589844 367.175781 905.613281 367.796875 912.710938 C 367.933594 914.226562 368.070312 915.742188 368.277344 917.1875 C 368.414062 918.222656 368.414062 918.222656 369.449219 918.289062 C 375.226562 918.773438 381.078125 919.117188 386.859375 919.324219 C 393.464844 919.53125 400.070312 919.53125 406.679688 919.324219 C 408.054688 919.324219 409.429688 919.1875 410.808594 919.117188 C 412.117188 918.980469 412.117188 918.980469 412.183594 917.601562 C 412.320312 915.398438 412.527344 913.125 412.734375 910.917969 C 413.148438 906.785156 413.558594 902.652344 413.90625 898.585938 C 414.179688 895.902344 414.316406 893.144531 414.523438 890.457031 C 414.59375 889.425781 414.59375 889.355469 413.558594 889.425781 C 411.425781 889.5625 409.363281 889.632812 407.230469 889.839844 C 403.167969 890.183594 399.039062 890.320312 394.980469 890.457031 C 390.160156 890.664062 385.414062 890.597656 380.597656 890.664062 Z M 455.472656 913.191406 C 455.679688 913.332031 455.882812 913.191406 456.089844 913.191406 C 460.632812 912.160156 465.175781 911.195312 469.648438 909.816406 C 473.363281 908.644531 477.011719 907.335938 480.796875 906.441406 C 481.347656 906.304688 481.554688 906.027344 481.691406 905.546875 C 482.171875 903.410156 482.722656 901.273438 483.273438 899.140625 C 483.6875 897.347656 484.03125 897.625 482.105469 896.867188 C 478.664062 895.351562 475.015625 894.386719 471.230469 893.972656 C 469.992188 893.835938 468.753906 893.351562 467.652344 892.730469 C 467.996094 892.179688 468.476562 892.113281 468.890625 891.972656 C 473.640625 890.253906 478.183594 888.046875 482.585938 885.566406 C 488.503906 882.191406 493.734375 877.988281 497.3125 871.996094 C 497.382812 871.859375 497.519531 871.722656 497.589844 871.582031 C 499.171875 869.722656 500.136719 867.519531 501.03125 865.246094 C 501.71875 863.386719 502.199219 861.59375 501.71875 859.527344 C 501.441406 858.21875 501.71875 856.839844 502.269531 855.257812 C 503.300781 856.839844 504.058594 858.21875 504.46875 859.800781 C 505.089844 862.214844 505.710938 864.625 506.398438 867.105469 C 506.671875 868.070312 506.671875 868.070312 507.636719 867.933594 C 509.699219 867.585938 511.695312 867.242188 513.761719 866.96875 C 514.242188 866.898438 514.3125 866.554688 514.378906 866.140625 C 514.519531 863.589844 514.65625 861.042969 514.863281 858.492188 C 515 856.703125 515 854.980469 515.273438 853.1875 C 515.894531 848.78125 516.652344 844.300781 517.066406 839.824219 C 517.132812 839.136719 517.269531 838.378906 517.203125 837.621094 C 516.996094 837.621094 516.859375 837.550781 516.789062 837.621094 C 510.390625 838.792969 503.988281 839.753906 497.589844 840.511719 C 496.695312 840.652344 496.625 840.71875 496.554688 841.683594 C 496.074219 846.300781 495.457031 850.847656 494.699219 855.394531 C 493.804688 861.179688 492.769531 866.898438 490.980469 872.476562 C 490.914062 872.824219 490.636719 873.097656 490.914062 873.511719 C 492.496094 873.234375 494.078125 872.960938 495.730469 872.753906 C 495.9375 872.753906 496.210938 872.617188 496.28125 872.890625 C 496.351562 873.167969 496.28125 873.375 496.003906 873.582031 C 495.660156 873.789062 495.316406 873.992188 494.972656 874.0625 C 493.941406 874.339844 492.910156 874.75 491.875 874.890625 C 490.5 875.097656 489.8125 875.785156 489.535156 877.164062 C 489.332031 878.128906 489.054688 879.160156 488.503906 879.988281 C 488.160156 879.917969 488.160156 879.710938 488.160156 879.4375 C 488.160156 878.746094 488.160156 878.058594 488.296875 877.371094 C 488.4375 876.128906 488.4375 875.855469 487.058594 876.265625 C 478.113281 879.023438 469.167969 881.570312 460.082031 883.5 C 458.980469 883.707031 458.980469 883.777344 458.914062 884.808594 C 458.636719 887.703125 458.363281 890.597656 458.019531 893.421875 C 457.261719 899.691406 456.710938 906.027344 455.746094 912.296875 C 455.746094 912.640625 455.609375 912.984375 455.746094 913.332031 Z M 267.734375 763.839844 C 267.113281 763.839844 266.699219 764.113281 266.289062 764.25 C 263.808594 765.078125 261.46875 766.386719 258.785156 766.800781 C 257.890625 766.9375 257.480469 767.28125 257.203125 768.179688 C 255.550781 773.484375 253.96875 778.855469 252.800781 784.300781 C 251.355469 791.050781 250.460938 797.800781 249.910156 804.621094 C 249.703125 806.964844 249.703125 809.304688 249.496094 811.578125 C 249.21875 815.300781 249.496094 819.019531 249.703125 822.738281 C 249.910156 826.804688 250.460938 830.800781 251.148438 834.796875 C 252.042969 840.308594 252.9375 845.816406 254.3125 851.191406 C 257.273438 862.695312 261.539062 873.648438 267.59375 883.84375 C 269.453125 887.015625 271.378906 890.183594 273.71875 893.007812 C 274.546875 893.972656 275.441406 894.9375 276.335938 895.902344 C 275.578125 893.421875 274.753906 891.078125 274.0625 888.667969 C 270.828125 877.921875 268.144531 867.105469 266.011719 856.082031 C 264.636719 848.847656 263.601562 841.617188 263.054688 834.3125 C 263.054688 833.625 262.777344 833.347656 262.160156 833.140625 C 259.679688 832.453125 257.273438 831.625 254.863281 830.867188 C 254.449219 830.730469 254.039062 830.730469 253.761719 830.179688 C 254.449219 829.835938 255.070312 830.042969 255.6875 830.042969 C 257.480469 830.179688 259.269531 830.386719 261.125 830.523438 C 261.675781 830.523438 262.296875 830.867188 262.707031 830.457031 C 263.054688 830.109375 262.707031 829.558594 262.707031 829.078125 C 262.570312 825.5625 262.296875 821.980469 262.226562 818.46875 C 262.160156 812.613281 262.089844 806.6875 262.433594 800.832031 C 262.503906 799.25 262.640625 797.734375 262.707031 796.148438 C 262.707031 795.597656 262.777344 795.046875 261.953125 795.183594 C 261.746094 795.183594 261.46875 795.183594 261.402344 794.90625 C 261.402344 794.5625 261.609375 794.425781 261.8125 794.355469 C 262.777344 794.148438 262.984375 793.460938 262.914062 792.632812 C 262.914062 792.289062 263.054688 791.945312 263.054688 791.601562 C 263.742188 783.953125 265.1875 776.515625 266.632812 769.003906 C 266.976562 767.351562 267.25 765.628906 267.59375 763.839844 Z M 505.089844 731.320312 C 504.953125 731.734375 505.089844 731.875 505.089844 732.078125 C 507.222656 738.832031 509.082031 745.582031 511.007812 752.332031 C 511.765625 755.019531 512.523438 757.777344 513.28125 760.460938 C 513.417969 760.945312 513.484375 761.425781 514.175781 761.632812 C 516.375 762.183594 518.507812 763.148438 520.851562 763.148438 C 520.988281 763.148438 521.195312 763.148438 521.261719 763.425781 C 521.195312 763.5625 520.917969 763.632812 520.710938 763.632812 C 518.441406 763.90625 516.308594 763.082031 514.105469 762.734375 C 513.898438 763.21875 514.105469 763.632812 514.242188 764.046875 C 516.925781 774.515625 519.40625 784.988281 520.78125 795.734375 C 520.78125 796.148438 520.851562 796.421875 521.398438 796.492188 C 521.8125 796.492188 521.8125 796.90625 521.539062 797.042969 C 520.851562 797.457031 521.054688 798.007812 521.125 798.628906 C 521.46875 801.796875 521.746094 804.964844 521.949219 808.136719 C 522.15625 810.960938 522.226562 813.851562 522.292969 816.675781 C 522.433594 821.636719 522.292969 826.597656 521.8125 831.558594 C 521.746094 832.660156 521.675781 833.761719 521.675781 834.796875 C 522.089844 834.933594 522.363281 834.796875 522.640625 834.796875 C 522.914062 834.796875 523.257812 834.65625 523.394531 835.003906 C 523.601562 835.414062 523.464844 835.761719 523.191406 836.035156 C 522.984375 836.242188 522.640625 836.378906 522.363281 836.378906 C 521.539062 836.378906 521.332031 836.929688 521.261719 837.6875 C 521.125 839.824219 520.78125 841.960938 520.503906 844.09375 C 519.679688 850.984375 518.027344 857.597656 515.621094 864.074219 C 515.34375 864.902344 515.070312 865.660156 514.792969 866.554688 C 515.480469 866.554688 516.101562 866.554688 516.71875 866.554688 C 518.234375 866.417969 519.75 866.210938 521.195312 866.070312 C 521.605469 866.070312 522.019531 866.070312 522.15625 866.554688 C 522.292969 867.035156 522.019531 867.378906 521.605469 867.585938 C 521.125 867.792969 520.644531 867.933594 520.160156 868.070312 C 516.375 869.035156 512.453125 869.652344 508.667969 870.6875 C 507.636719 870.960938 507.636719 870.894531 508.050781 871.859375 C 509.976562 876.335938 513.484375 879.574219 516.996094 882.949219 C 517.890625 881.019531 518.855469 879.230469 519.679688 877.371094 C 522.433594 871.308594 524.566406 865.105469 526.285156 858.699219 C 528.625 850.019531 530.347656 841.203125 530.964844 832.246094 C 531.242188 828.734375 531.449219 825.289062 531.515625 821.773438 C 531.585938 814.886719 531.722656 807.929688 531.308594 801.039062 C 531.105469 797.457031 530.828125 793.804688 530.554688 790.222656 C 530.347656 787.949219 530.070312 785.675781 529.589844 783.472656 C 528.695312 779.339844 527.25 775.34375 525.941406 771.347656 C 521.882812 758.535156 515.6875 746.683594 508.117188 735.664062 C 507.15625 734.214844 506.191406 732.835938 504.953125 731.460938 Z M 419.824219 751.230469 C 420.03125 753.503906 420.234375 755.640625 420.304688 757.84375 C 420.511719 761.910156 420.855469 766.042969 421.0625 770.109375 C 421.199219 773.484375 421.476562 776.925781 421.335938 780.304688 C 421.335938 781.199219 421.335938 782.09375 421.335938 783.058594 C 421.335938 783.609375 421.476562 783.816406 422.09375 783.886719 C 424.089844 783.953125 426.085938 784.09375 428.011719 784.300781 C 432.554688 784.644531 437.097656 785.058594 441.640625 785.46875 C 446.800781 785.953125 451.960938 786.433594 457.054688 786.917969 C 457.949219 786.984375 457.949219 786.984375 457.949219 786.019531 C 457.949219 784.09375 457.8125 782.230469 457.742188 780.304688 C 457.535156 776.652344 457.261719 773 456.917969 769.351562 C 456.503906 764.664062 455.953125 759.980469 455.332031 755.363281 C 455.195312 754.261719 455.332031 754.261719 454.09375 754.125 C 450.722656 753.78125 447.351562 753.503906 443.910156 753.160156 C 438.609375 752.679688 433.378906 752.195312 428.082031 751.78125 C 425.328125 751.574219 422.574219 751.300781 419.683594 751.230469 Z M 415.28125 918.703125 C 415.898438 918.980469 416.449219 918.839844 417 918.839844 C 420.03125 918.566406 423.125 918.359375 426.15625 918.015625 C 434.070312 917.1875 441.984375 916.015625 449.828125 914.5 C 451.824219 914.089844 451.824219 914.089844 452.03125 912.160156 C 452.648438 906.578125 453.132812 901 453.613281 895.417969 C 453.957031 892.042969 454.234375 888.667969 454.578125 885.222656 C 454.578125 884.601562 454.578125 884.464844 453.886719 884.535156 C 453.75 884.535156 453.613281 884.535156 453.476562 884.535156 C 444.117188 886.257812 434.6875 887.359375 425.257812 888.324219 C 423.265625 888.53125 421.199219 888.738281 419.203125 888.875 C 418.652344 888.875 418.378906 889.082031 418.308594 889.699219 C 417.964844 893.351562 417.621094 897.003906 417.277344 900.65625 C 417 903.410156 416.65625 906.234375 416.3125 908.992188 C 415.96875 912.226562 415.625 915.398438 415.210938 918.636719 Z M 418.308594 714.375 C 418.515625 716.648438 418.445312 718.714844 418.515625 720.78125 C 418.722656 725.8125 418.859375 730.769531 419.066406 735.800781 C 419.203125 738.417969 419.273438 740.96875 419.410156 743.585938 C 419.410156 744.34375 419.410156 745.03125 419.546875 745.789062 C 419.617188 746.269531 419.753906 746.410156 420.234375 746.476562 C 421.476562 746.546875 422.714844 746.753906 423.953125 746.890625 C 430.628906 747.582031 437.234375 748.40625 443.839844 749.234375 C 447.144531 749.648438 450.449219 750.058594 453.75 750.40625 C 454.714844 750.542969 454.78125 750.542969 454.644531 749.507812 C 454.507812 748.40625 454.300781 747.375 454.164062 746.339844 C 452.855469 737.523438 451.136719 728.84375 449.277344 720.160156 C 448.863281 718.09375 449.207031 718.578125 447.144531 718.234375 C 439.847656 717.0625 432.554688 715.960938 425.257812 715.132812 C 422.988281 714.859375 420.71875 714.652344 418.238281 714.445312 Z M 494.421875 788.292969 C 494.355469 787.261719 494.214844 786.226562 494.214844 785.195312 C 494.078125 781.75 493.734375 778.304688 493.460938 774.859375 C 492.976562 769.695312 492.289062 764.597656 491.53125 759.429688 C 491.328125 758.257812 491.328125 758.191406 490.085938 758.050781 C 480.589844 756.675781 471.09375 755.570312 461.597656 754.675781 C 460.976562 754.675781 460.289062 754.605469 459.667969 754.539062 C 459.257812 754.539062 459.117188 754.746094 459.1875 755.089844 C 459.1875 755.296875 459.257812 755.503906 459.324219 755.710938 C 460.359375 762.460938 461.113281 769.210938 461.664062 776.03125 C 461.941406 779.40625 462.007812 782.851562 462.214844 786.226562 C 462.214844 787.191406 462.285156 787.261719 463.246094 787.328125 C 465.726562 787.535156 468.203125 787.742188 470.75 788.019531 C 476.1875 788.5 481.621094 789.121094 487.058594 789.878906 C 489.261719 790.15625 491.53125 790.5 493.734375 790.84375 C 494.285156 790.914062 494.5625 790.84375 494.492188 790.222656 C 494.492188 789.601562 494.492188 788.914062 494.492188 788.292969 Z M 492.289062 841.203125 C 492.015625 841.203125 491.808594 841.203125 491.671875 841.203125 C 488.988281 841.476562 486.234375 841.753906 483.550781 842.027344 C 476.597656 842.785156 469.648438 843.269531 462.628906 843.683594 C 461.664062 843.683594 461.664062 843.683594 461.597656 844.714844 C 461.597656 846.921875 461.597656 849.125 461.457031 851.328125 C 461.253906 855.460938 460.976562 859.597656 460.632812 863.730469 C 460.21875 869.035156 459.738281 874.269531 459.050781 879.574219 C 458.980469 880.402344 459.050781 880.539062 460.011719 880.402344 C 461.527344 880.125 462.972656 879.851562 464.488281 879.503906 C 471.988281 878.058594 479.421875 876.199219 486.851562 874.40625 C 488.023438 874.132812 487.953125 874.132812 488.230469 872.824219 C 488.367188 872.203125 488.296875 871.652344 488.367188 871.03125 C 488.503906 869.242188 488.503906 867.519531 488.78125 865.726562 C 489.882812 858.355469 491.257812 851.054688 492.082031 843.613281 C 492.152344 842.855469 492.359375 842.097656 492.222656 841.203125 Z M 490.707031 755.984375 C 490.84375 755.363281 490.707031 754.882812 490.636719 754.402344 C 489.8125 749.921875 488.917969 745.445312 487.886719 740.96875 C 486.644531 735.867188 485.40625 730.839844 484.167969 725.742188 C 484.03125 725.054688 483.6875 724.640625 482.929688 724.503906 C 480.660156 724.089844 478.386719 723.46875 476.117188 723.054688 C 469.71875 721.816406 463.316406 720.78125 456.847656 719.679688 C 455.195312 719.402344 453.542969 719.128906 451.824219 718.851562 C 451.753906 719.609375 452.03125 720.230469 452.167969 720.851562 C 454.371094 729.875 456.296875 738.96875 457.949219 748.0625 C 458.085938 748.957031 457.949219 749.992188 458.5 750.679688 C 458.980469 751.371094 460.152344 751.164062 461.046875 751.230469 C 469.371094 752.265625 477.632812 753.574219 485.820312 755.089844 C 487.402344 755.363281 489.054688 755.640625 490.636719 755.984375 Z M 531.105469 891.421875 C 531.035156 891.421875 530.964844 891.355469 530.828125 891.355469 C 526.148438 891.148438 521.882812 889.699219 517.960938 887.082031 C 516.03125 885.773438 514.378906 884.257812 512.660156 882.742188 C 509.976562 880.261719 507.636719 877.507812 506.054688 874.199219 C 505.019531 872.066406 504.265625 869.929688 503.644531 867.65625 C 503.371094 866.691406 503.230469 865.726562 502.75 864.761719 C 502.679688 864.96875 502.542969 865.039062 502.542969 865.175781 C 501.992188 867.933594 500.753906 870.410156 499.585938 872.890625 C 498 876.199219 495.9375 879.160156 493.183594 881.570312 C 488.089844 885.980469 482.171875 888.941406 475.773438 891.078125 C 475.429688 891.214844 475.015625 891.214844 474.808594 891.5625 C 474.945312 891.5625 475.015625 891.628906 475.085938 891.628906 C 480.246094 892.730469 484.925781 894.660156 489.125 897.96875 C 494.628906 902.308594 498.414062 907.886719 501.375 914.15625 C 502.0625 915.671875 502.542969 917.257812 503.027344 918.910156 C 503.164062 918.773438 503.230469 918.703125 503.230469 918.636719 C 503.371094 918.222656 503.574219 917.808594 503.714844 917.394531 C 506.054688 910.574219 509.632812 904.582031 515.207031 899.828125 C 519.609375 896.039062 524.429688 893.007812 530.210938 891.835938 C 530.554688 891.835938 530.898438 891.835938 531.105469 891.421875 Z M 389.335938 942.953125 C 390.710938 942.953125 392.089844 942.953125 393.464844 942.953125 C 398.625 942.953125 403.71875 942.472656 408.8125 942.058594 C 409.570312 942.058594 409.84375 941.714844 409.980469 941.023438 C 410.464844 938.40625 410.875 935.71875 411.082031 933.101562 C 411.21875 931.378906 411.425781 929.65625 411.496094 927.933594 C 411.566406 926.28125 411.566406 924.558594 411.769531 922.90625 C 411.839844 922.285156 411.632812 922.078125 410.945312 922.078125 C 409.363281 922.21875 407.78125 922.285156 406.195312 922.355469 C 401.515625 922.492188 396.769531 922.699219 392.089844 922.628906 C 389.199219 922.628906 386.308594 922.628906 383.417969 922.628906 C 378.808594 922.425781 374.195312 922.285156 369.585938 921.871094 C 368.621094 921.804688 368.484375 922.011719 368.554688 922.835938 C 368.898438 926.417969 369.171875 930.070312 369.449219 933.652344 C 369.652344 936.0625 369.859375 938.476562 370.066406 940.886719 C 370.203125 942.265625 370.273438 942.265625 371.648438 942.332031 C 377.5 942.816406 383.347656 943.023438 389.265625 942.953125 Z M 365.25 917.738281 C 365.523438 917.394531 365.386719 917.1875 365.386719 916.914062 C 365.042969 913.675781 364.628906 910.4375 364.285156 907.128906 C 363.871094 903.824219 363.597656 900.515625 363.460938 897.210938 C 363.390625 895.210938 363.460938 893.214844 363.390625 891.214844 C 363.390625 890.183594 363.390625 890.183594 362.429688 890.183594 C 357.402344 890.113281 352.449219 889.769531 347.425781 889.425781 C 342.058594 889.011719 336.6875 888.53125 331.320312 887.910156 C 330.632812 887.839844 329.945312 887.566406 329.324219 887.910156 C 329.324219 887.980469 329.324219 888.046875 329.324219 888.046875 C 330.632812 895.902344 332.148438 903.6875 333.660156 911.46875 C 333.800781 912.089844 334.144531 912.433594 334.761719 912.503906 C 336.140625 912.78125 337.515625 913.125 338.960938 913.398438 C 346.597656 915.050781 354.238281 916.429688 362.015625 917.394531 C 363.183594 917.53125 364.285156 917.808594 365.386719 917.671875 Z M 518.234375 820.191406 C 517.960938 816.402344 518.027344 812.683594 517.753906 808.960938 C 517.546875 805.378906 517.203125 801.726562 516.859375 798.144531 C 516.71875 796.976562 516.71875 796.976562 515.6875 796.769531 C 512.453125 796.148438 509.148438 795.527344 505.914062 794.976562 C 503.714844 794.5625 501.511719 794.289062 499.242188 793.945312 C 498.621094 793.804688 498.347656 793.945312 498.414062 794.632812 C 498.414062 794.976562 498.414062 795.320312 498.414062 795.664062 C 498.550781 800.28125 498.484375 804.828125 498.484375 809.445312 C 498.484375 811.304688 498.484375 813.164062 498.414062 815.023438 C 498.207031 819.019531 498 823.015625 497.726562 827.011719 C 497.589844 829.078125 497.382812 831.144531 497.246094 833.210938 C 497.105469 834.589844 497.039062 835.964844 496.902344 837.34375 C 496.902344 837.828125 496.96875 838.101562 497.519531 838.035156 C 497.65625 838.035156 497.863281 838.035156 498 838.035156 C 504.125 837.414062 510.25 836.585938 516.375 835.761719 C 517.339844 835.621094 517.476562 835.621094 517.476562 834.519531 C 517.476562 834.105469 517.613281 833.761719 517.613281 833.347656 C 517.820312 828.941406 518.027344 824.53125 518.234375 820.191406 Z M 483.207031 722.640625 C 483.207031 722.296875 483.207031 722.089844 483.207031 721.953125 C 481.621094 716.234375 479.902344 710.515625 477.976562 704.867188 C 477.699219 704.109375 477.285156 703.492188 476.667969 703.007812 C 470.335938 698.117188 463.660156 693.707031 456.574219 689.917969 C 451.753906 687.371094 446.867188 684.960938 441.84375 682.824219 C 441.363281 682.617188 440.8125 682.273438 440.054688 682.273438 C 441.292969 684.890625 442.328125 687.371094 443.222656 689.917969 C 443.496094 690.746094 443.980469 691.019531 444.734375 691.226562 C 451.480469 692.882812 458.019531 695.222656 464.488281 697.773438 C 464.625 697.773438 464.691406 697.839844 464.832031 697.910156 C 465.039062 698.046875 465.242188 698.253906 465.175781 698.53125 C 465.105469 698.804688 464.832031 698.738281 464.625 698.738281 C 463.9375 698.597656 463.246094 698.460938 462.628906 698.324219 C 458.5 697.289062 454.4375 696.257812 450.308594 695.222656 C 448.519531 694.808594 446.730469 694.328125 444.941406 694.121094 C 444.941406 694.328125 444.941406 694.398438 444.941406 694.464844 C 447.074219 701.078125 449.003906 707.691406 450.652344 714.375 C 450.792969 714.925781 451.136719 715.132812 451.617188 715.203125 C 453.132812 715.476562 454.578125 715.820312 456.023438 716.097656 C 463.042969 717.542969 470.128906 718.992188 477.148438 720.78125 C 479.144531 721.265625 481.140625 721.882812 483.273438 722.433594 Z M 413.972656 706.660156 C 413.835938 703.628906 413.699219 700.527344 413.492188 697.496094 C 413.355469 695.363281 413.078125 693.292969 412.941406 691.160156 C 412.941406 690.609375 412.734375 690.195312 412.046875 690.125 C 409.570312 689.988281 407.023438 689.78125 404.546875 689.710938 C 401.035156 689.644531 397.527344 689.574219 394.015625 689.574219 C 388.714844 689.574219 383.488281 689.574219 378.1875 689.917969 C 377.429688 689.917969 377.15625 690.195312 377.085938 690.953125 C 376.878906 692.675781 376.535156 694.328125 376.261719 696.050781 C 375.640625 699.769531 375.089844 703.492188 374.472656 707.140625 C 374.332031 707.832031 374.472656 708.039062 375.160156 707.96875 C 376.054688 707.96875 376.878906 707.832031 377.773438 707.832031 C 383.96875 707.761719 390.230469 707.898438 396.425781 708.105469 C 398.28125 708.105469 400.140625 708.242188 402 708.382812 C 405.785156 708.65625 409.570312 708.933594 413.355469 709.277344 C 413.835938 709.277344 414.109375 709.140625 414.109375 708.65625 C 414.109375 707.96875 414.109375 707.28125 414.109375 706.589844 Z M 451.34375 916.292969 C 450.722656 916.429688 450.242188 916.5 449.757812 916.566406 C 442.464844 918.082031 435.101562 919.394531 427.738281 920.355469 C 423.746094 920.839844 419.753906 921.320312 415.761719 921.597656 C 415.144531 921.597656 414.9375 921.804688 414.867188 922.425781 C 414.800781 923.734375 414.59375 925.109375 414.457031 926.417969 C 414.179688 929.242188 413.90625 932.070312 413.421875 934.894531 C 413.078125 937.097656 412.597656 939.300781 412.046875 941.4375 C 412.527344 941.714844 412.941406 941.507812 413.355469 941.4375 C 418.996094 940.75 424.640625 939.992188 430.285156 939.027344 C 435.308594 938.132812 440.261719 937.167969 445.285156 936.132812 C 445.835938 935.996094 446.25 935.925781 446.386719 935.304688 C 447.761719 930.691406 449.347656 926.214844 450.378906 921.527344 C 450.722656 919.875 451.136719 918.152344 451.273438 916.222656 Z M 330.566406 911.539062 C 330.703125 911.195312 330.566406 910.988281 330.566406 910.78125 C 330.082031 908.644531 329.601562 906.578125 329.121094 904.445312 C 327.878906 899 326.710938 893.558594 325.746094 888.117188 C 325.609375 887.496094 325.402344 887.152344 324.644531 887.082031 C 323.546875 887.015625 322.511719 886.738281 321.480469 886.601562 C 313.773438 885.429688 306.066406 884.121094 298.496094 882.191406 C 298.21875 882.125 297.875 881.847656 297.53125 882.054688 C 297.324219 882.46875 297.53125 882.882812 297.53125 883.226562 C 298.632812 889.769531 299.871094 896.316406 301.109375 902.789062 C 301.246094 903.480469 301.589844 903.824219 302.347656 904.03125 C 308.542969 905.476562 314.734375 907.128906 320.859375 908.921875 C 324.027344 909.886719 327.261719 910.710938 330.566406 911.46875 Z M 479.695312 705.695312 C 479.558594 705.96875 479.695312 706.175781 479.695312 706.382812 C 481.964844 711.828125 483.960938 717.335938 485.75 722.917969 C 485.890625 723.398438 486.164062 723.746094 486.714844 723.882812 C 488.023438 724.296875 489.332031 724.777344 490.570312 725.398438 C 491.601562 725.878906 492.632812 726.363281 493.597656 726.84375 C 493.941406 727.050781 494.5625 727.1875 494.355469 727.738281 C 494.148438 728.359375 493.597656 727.878906 493.253906 727.738281 C 492.910156 727.671875 492.496094 727.464844 492.152344 727.328125 C 490.636719 726.777344 489.125 726.292969 487.609375 725.8125 C 487.335938 725.742188 487.058594 725.535156 486.785156 725.8125 C 486.785156 726.085938 486.785156 726.363281 486.921875 726.707031 C 489.882812 736.28125 492.359375 745.996094 494.214844 755.847656 C 494.355469 756.675781 494.699219 756.949219 495.523438 757.15625 C 499.996094 758.050781 504.402344 759.015625 508.738281 760.1875 C 509.082031 760.257812 509.355469 760.460938 509.769531 760.1875 C 509.699219 759.773438 509.632812 759.359375 509.5625 758.945312 C 508.875 755.984375 508.1875 752.953125 507.5 749.992188 C 505.984375 743.101562 504.539062 736.214844 502.886719 729.394531 C 502.75 728.703125 502.542969 728.085938 502.0625 727.535156 C 499.308594 724.226562 496.417969 720.988281 493.390625 717.957031 C 489.742188 714.375 485.957031 710.863281 481.964844 707.625 C 481.210938 707.003906 480.523438 706.316406 479.695312 705.832031 Z M 290.03125 757.570312 C 287.691406 757.984375 285.558594 757.984375 283.421875 758.535156 C 279.085938 759.703125 274.753906 761.152344 270.484375 762.667969 C 269.867188 762.875 269.589844 763.148438 269.453125 763.769531 C 268.421875 768.9375 267.457031 774.101562 266.769531 779.339844 C 266.425781 782.09375 266.082031 784.917969 265.875 787.675781 C 265.738281 789.398438 265.460938 791.117188 265.597656 792.839844 C 266.425781 792.839844 267.042969 792.429688 267.734375 792.222656 C 273.925781 790.085938 280.121094 787.949219 286.726562 787.191406 C 287.484375 787.125 287.550781 786.710938 287.550781 786.019531 C 287.550781 781.886719 287.757812 777.824219 288.035156 773.757812 C 288.308594 769.902344 288.722656 766.113281 289.34375 762.324219 C 289.617188 760.808594 289.824219 759.292969 290.03125 757.570312 Z M 276.816406 716.648438 C 276.816406 716.785156 276.816406 716.855469 276.886719 716.855469 C 277.4375 716.992188 278.054688 717.199219 278.605469 717.335938 C 284.316406 718.714844 288.515625 721.953125 290.992188 727.394531 C 292.4375 730.5625 293.609375 733.800781 294.570312 737.109375 C 294.710938 737.523438 294.710938 738.003906 295.054688 738.347656 C 295.191406 738.140625 295.261719 738.074219 295.328125 738.003906 C 297.738281 733.800781 300.558594 729.875 303.792969 726.292969 C 307.234375 722.574219 311.15625 719.609375 315.835938 717.820312 C 316.042969 717.75 316.457031 717.820312 316.457031 717.335938 C 316.25 716.992188 315.90625 716.992188 315.5625 716.925781 C 314.597656 716.785156 313.636719 716.371094 312.742188 716.027344 C 309.574219 714.789062 307.027344 712.722656 304.550781 710.449219 C 303.726562 709.691406 303.035156 708.933594 302.347656 708.039062 C 299.800781 704.453125 297.738281 700.597656 296.84375 696.257812 C 296.636719 695.429688 296.429688 694.605469 296.222656 693.707031 C 296.222656 693.433594 296.222656 693.089844 295.8125 693.019531 C 295.742188 693.15625 295.671875 693.363281 295.605469 693.5 C 294.023438 698.046875 291.75 702.25 288.996094 706.246094 C 286.726562 709.484375 284.179688 712.445312 280.808594 714.652344 C 279.5 715.546875 278.054688 716.167969 276.609375 716.785156 Z M 367.109375 941.921875 C 368.484375 941.921875 368.484375 941.921875 368.347656 940.886719 C 367.863281 937.234375 367.382812 933.515625 366.96875 929.863281 C 366.695312 927.453125 366.417969 924.972656 366.074219 922.5625 C 365.9375 921.527344 365.867188 921.527344 364.90625 921.460938 C 362.910156 921.253906 360.84375 921.046875 358.847656 920.839844 C 351.210938 919.875 343.570312 918.566406 336 916.84375 C 335.726562 916.84375 335.519531 916.773438 335.246094 916.707031 C 334.898438 916.707031 334.761719 916.84375 334.761719 917.1875 C 334.761719 917.394531 334.761719 917.601562 334.832031 917.808594 C 336.207031 923.941406 337.515625 930.003906 339.234375 936.0625 C 339.511719 937.097656 339.992188 937.578125 341.09375 937.855469 C 346.050781 938.957031 351.003906 939.851562 355.957031 940.609375 C 359.742188 941.164062 363.460938 941.644531 367.039062 941.988281 Z M 337.308594 936.683594 C 337.445312 936.339844 337.308594 936.132812 337.171875 935.859375 C 335.246094 929.863281 333.660156 923.734375 332.148438 917.671875 C 331.664062 915.605469 332.148438 916.015625 329.945312 915.535156 C 321.550781 913.46875 313.222656 911.125 305.101562 907.957031 C 304.136719 907.542969 303.105469 907.199219 302.140625 906.785156 C 301.867188 907.128906 302.003906 907.40625 302.140625 907.613281 C 303.382812 913.605469 304.894531 919.460938 306.683594 925.25 C 306.820312 925.730469 307.097656 926.074219 307.511719 926.351562 C 309.230469 927.589844 310.949219 928.761719 312.742188 930 C 313.085938 930.207031 313.429688 930.347656 313.773438 930.414062 C 318.039062 931.3125 322.304688 932.207031 326.433594 933.515625 C 329.738281 934.546875 333.042969 935.71875 336.484375 936.546875 C 336.757812 936.617188 337.035156 936.820312 337.378906 936.617188 Z M 447.96875 714.652344 C 448.175781 714.304688 448.039062 714.167969 447.96875 713.960938 C 446.59375 707.625 445.011719 701.285156 443.359375 694.949219 C 443.152344 694.121094 442.738281 693.777344 441.914062 693.640625 C 433.863281 692.125 425.671875 691.367188 417.550781 690.609375 C 417 690.609375 416.863281 690.675781 416.933594 691.296875 C 417.550781 696.121094 417.894531 700.871094 418.035156 705.765625 C 418.035156 706.867188 418.101562 708.039062 418.101562 709.140625 C 418.101562 709.691406 418.238281 709.964844 418.859375 709.964844 C 419.066406 709.964844 419.273438 709.964844 419.480469 710.035156 C 427.050781 710.863281 434.621094 712.101562 442.121094 713.546875 C 444.046875 713.894531 445.972656 714.304688 447.96875 714.652344 Z M 494.90625 758.878906 C 494.90625 759.152344 494.90625 759.359375 494.90625 759.5 C 495.25 761.839844 495.660156 764.183594 496.007812 766.523438 C 496.695312 771.347656 497.246094 776.167969 497.65625 781.0625 C 497.933594 784.230469 498.070312 787.398438 498.277344 790.636719 C 498.277344 791.53125 498.140625 791.671875 499.445312 791.945312 C 502.820312 792.496094 506.121094 793.1875 509.496094 793.945312 C 511.765625 794.496094 514.105469 794.976562 516.375 795.527344 C 516.582031 794.976562 516.375 794.425781 516.375 793.945312 C 516.101562 792.082031 515.894531 790.292969 515.550781 788.433594 C 514.175781 779.890625 512.316406 771.484375 510.527344 763.082031 C 510.320312 762.117188 509.839844 761.773438 508.945312 761.566406 C 504.332031 760.601562 499.722656 759.773438 494.90625 759.015625 Z M 480.867188 908.234375 C 480.453125 908.164062 480.246094 908.234375 479.972656 908.371094 C 471.988281 910.988281 464.003906 913.398438 455.816406 915.257812 C 455.058594 915.464844 454.785156 915.878906 454.644531 916.566406 C 453.820312 921.460938 452.304688 926.214844 450.449219 930.828125 C 449.828125 932.34375 449.277344 933.859375 448.726562 935.375 C 449.003906 935.511719 449.207031 935.445312 449.414062 935.375 C 456.777344 933.722656 464.074219 931.863281 471.300781 929.519531 C 472.332031 929.175781 473.640625 929.039062 474.398438 928.347656 C 475.152344 927.589844 475.359375 926.351562 475.773438 925.316406 C 477.632812 920.496094 478.9375 915.535156 480.246094 910.574219 C 480.453125 909.816406 480.726562 909.128906 480.796875 908.234375 Z M 284.523438 723.261719 C 283.492188 725.054688 281.976562 726.429688 280.671875 727.945312 C 280.257812 728.359375 280.050781 728.84375 279.984375 729.394531 C 279.707031 730.910156 279.292969 732.355469 278.675781 733.734375 C 277.988281 735.316406 277.296875 736.902344 276.679688 738.488281 C 274.132812 745.167969 272.414062 752.128906 270.554688 759.085938 C 270.554688 759.222656 270.554688 759.429688 270.691406 759.566406 C 273.71875 758.742188 276.746094 757.914062 279.84375 757.15625 C 283.148438 756.328125 286.453125 755.640625 289.824219 754.953125 C 290.511719 754.8125 290.785156 754.539062 290.925781 753.917969 C 291.132812 752.953125 291.335938 751.988281 291.542969 751.023438 C 291.957031 749.027344 292.027344 746.890625 292.988281 745.03125 C 293.125 744.6875 292.988281 744.480469 292.988281 744.136719 C 292.027344 739.589844 290.71875 735.109375 289.136719 730.703125 C 288.378906 728.636719 287.484375 726.636719 286.175781 724.777344 C 285.761719 724.15625 285.351562 723.605469 284.664062 723.191406 Z M 408.949219 945.15625 C 408.398438 945.15625 407.984375 945.15625 407.574219 945.226562 C 401.65625 945.847656 395.734375 946.261719 389.75 946.328125 C 383.554688 946.328125 377.429688 946.121094 371.238281 945.640625 C 370.6875 945.640625 370.546875 945.707031 370.617188 946.261719 C 370.894531 948.671875 371.097656 951.082031 371.375 953.425781 C 371.511719 954.597656 371.441406 954.597656 372.613281 954.800781 C 375.433594 955.351562 378.1875 955.835938 381.078125 956.042969 C 383.417969 956.25 385.828125 956.457031 388.167969 956.386719 C 391.261719 956.386719 394.359375 956.109375 397.457031 955.90625 C 400.210938 955.699219 402.960938 955.351562 405.714844 955.078125 C 406.335938 955.078125 406.609375 954.800781 406.679688 954.113281 C 406.886719 952.941406 407.160156 951.839844 407.4375 950.738281 C 407.917969 948.878906 408.398438 947.085938 408.949219 945.15625 Z M 394.496094 674.761719 C 391.402344 674.625 387.890625 674.902344 384.382812 675.175781 C 382.9375 675.3125 381.492188 675.382812 379.976562 675.589844 C 379.152344 675.660156 379.082031 675.726562 379.082031 676.625 C 379.082031 677.519531 379.082031 678.414062 378.945312 679.308594 C 378.667969 680.894531 378.394531 682.546875 378.117188 684.132812 C 377.980469 684.960938 378.117188 685.027344 378.875 685.027344 C 379.496094 685.027344 380.183594 684.960938 380.800781 684.960938 C 384.105469 684.960938 387.476562 684.960938 390.78125 684.960938 C 394.085938 684.960938 397.320312 685.097656 400.621094 685.234375 C 404.199219 685.441406 407.78125 685.71875 411.359375 686.0625 C 411.976562 686.0625 412.117188 685.921875 412.117188 685.371094 C 411.976562 684.203125 411.769531 683.097656 411.703125 681.929688 C 411.566406 680.273438 411.152344 678.691406 411.289062 677.035156 C 411.359375 675.933594 411.359375 675.933594 410.324219 675.796875 C 405.234375 675.109375 400.140625 674.832031 394.496094 674.902344 Z M 417.414062 673.386719 C 417.621094 672.972656 417.414062 672.835938 417.414062 672.628906 C 415.832031 670.285156 414.109375 667.941406 411.976562 666.082031 C 410.671875 664.980469 409.019531 664.707031 407.4375 664.359375 C 405.441406 663.878906 403.375 663.878906 401.242188 663.808594 C 397.9375 663.671875 394.703125 663.601562 391.402344 663.878906 C 386.789062 664.222656 382.246094 664.910156 377.636719 665.394531 C 376.742188 665.53125 375.917969 665.808594 375.160156 666.359375 C 372.75 668.148438 370.6875 670.285156 368.757812 672.558594 C 368.484375 672.902344 368.003906 673.109375 368.003906 673.796875 C 384.519531 670.699219 401.035156 669.941406 417.484375 673.316406 Z M 445.421875 938.683594 C 444.941406 938.476562 444.667969 938.683594 444.390625 938.683594 C 439.847656 939.714844 435.308594 940.75 430.765625 941.644531 C 424.570312 942.882812 418.308594 943.917969 411.976562 944.675781 C 411.425781 944.675781 411.015625 944.8125 410.808594 945.503906 C 410.121094 947.84375 409.292969 950.117188 408.535156 952.390625 C 408.332031 953.082031 407.984375 953.839844 408.054688 954.664062 C 408.742188 954.664062 409.363281 954.597656 409.980469 954.527344 C 416.863281 953.632812 423.675781 952.253906 430.421875 950.738281 C 433.929688 949.910156 437.371094 948.945312 440.742188 947.707031 C 441.15625 947.570312 441.640625 947.5 441.640625 946.8125 C 441.640625 946.535156 441.984375 946.261719 442.1875 945.984375 C 443.980469 943.847656 444.667969 941.300781 445.421875 938.683594 Z M 375.847656 676.140625 C 375.574219 676.140625 375.503906 676.070312 375.433594 676.070312 C 365.457031 677.449219 355.683594 679.585938 345.980469 682.410156 C 344.878906 682.753906 343.503906 682.753906 342.746094 683.582031 C 341.988281 684.40625 341.78125 685.785156 341.507812 686.957031 C 341.164062 688.128906 340.679688 689.230469 340.542969 690.539062 C 341.023438 690.402344 341.371094 690.332031 341.78125 690.261719 C 351.96875 687.578125 362.289062 685.921875 372.75 685.371094 C 373.4375 685.371094 373.714844 685.097656 373.851562 684.40625 C 374.402344 681.652344 374.882812 678.898438 375.847656 676.210938 Z M 441.914062 690.609375 C 441.914062 690.332031 441.984375 690.261719 441.914062 690.195312 C 441.15625 687.507812 440.195312 684.960938 439.230469 682.339844 C 439.023438 681.859375 438.679688 681.722656 438.265625 681.582031 C 434.480469 680.550781 430.902344 678.964844 426.910156 678.621094 C 423.882812 678.414062 420.992188 677.382812 418.035156 676.828125 C 416.863281 676.625 415.695312 676.277344 414.386719 676.210938 C 414.59375 676.96875 414.867188 677.65625 415.003906 678.414062 C 415.417969 680.757812 415.832031 683.097656 416.175781 685.441406 C 416.3125 686.199219 416.589844 686.542969 417.277344 686.476562 C 417.414062 686.476562 417.621094 686.476562 417.757812 686.542969 C 423.953125 687.300781 430.144531 688.128906 436.269531 689.367188 C 438.058594 689.710938 439.917969 690.125 441.777344 690.539062 Z M 479.625 925.179688 C 480.175781 925.109375 480.453125 924.765625 480.726562 924.558594 C 484.582031 922.078125 488.023438 919.1875 491.464844 916.222656 C 493.320312 914.707031 495.042969 913.125 496.695312 911.402344 C 497.519531 910.507812 497.519531 910.710938 496.902344 909.75 C 494.5625 906.164062 491.671875 903.132812 488.367188 900.449219 C 487.335938 899.621094 486.300781 898.863281 485.0625 898.3125 C 484.652344 900.792969 484.308594 903.132812 483.894531 905.613281 C 484.996094 905.546875 485.890625 905.203125 486.785156 904.925781 C 487.128906 904.855469 487.472656 904.71875 487.816406 904.789062 C 488.160156 904.789062 488.230469 905.0625 488.023438 905.339844 C 487.886719 905.613281 487.542969 905.683594 487.265625 905.753906 C 486.371094 906.097656 485.476562 906.371094 484.582031 906.648438 C 483.894531 906.855469 483.550781 907.269531 483.410156 908.027344 C 482.378906 913.742188 481.277344 919.460938 479.625 925.179688 Z M 327.46875 758.601562 C 328.84375 756.121094 330.289062 753.847656 332.214844 751.921875 C 334.144531 749.992188 336.414062 748.613281 338.890625 747.304688 C 336 745.789062 334.96875 744.960938 333.59375 743.035156 C 332.492188 741.449219 331.734375 739.726562 331.113281 737.9375 C 330.769531 736.765625 330.359375 735.59375 329.945312 734.351562 C 329.738281 734.628906 329.667969 734.765625 329.601562 734.972656 C 328.292969 738.695312 326.160156 741.863281 323.613281 744.753906 C 322.03125 746.546875 320.242188 747.992188 317.902344 748.683594 C 317.488281 748.820312 316.9375 748.820312 316.527344 749.164062 C 321.34375 750.957031 325.195312 753.847656 327.46875 758.671875 Z M 370.34375 954.320312 C 369.929688 951.632812 369.585938 949.152344 369.171875 946.605469 C 368.964844 945.433594 368.964844 945.433594 367.863281 945.296875 C 359.949219 944.539062 352.035156 943.367188 344.257812 941.714844 C 343.226562 941.507812 342.195312 941.164062 341.023438 941.09375 C 341.230469 942.472656 341.851562 943.640625 342.125 944.882812 C 342.332031 945.640625 342.746094 946.054688 343.503906 946.398438 C 349.902344 948.808594 356.441406 950.875 363.117188 952.597656 C 365.457031 953.21875 367.796875 953.839844 370.34375 954.320312 Z M 258.855469 763.699219 C 260.09375 763.21875 261.195312 762.667969 262.363281 762.324219 C 264.152344 761.703125 265.941406 761.082031 267.800781 760.53125 C 268.351562 760.324219 268.628906 760.117188 268.765625 759.5 C 269.246094 757.433594 269.726562 755.363281 270.277344 753.296875 C 271.929688 746.753906 273.582031 740.210938 276.128906 734.007812 C 276.128906 733.871094 276.265625 733.664062 276.128906 733.527344 C 275.578125 733.941406 275.234375 734.558594 274.753906 735.109375 C 270.898438 739.796875 267.113281 744.617188 263.949219 749.855469 C 263.535156 750.542969 263.191406 751.230469 262.984375 751.988281 C 262.226562 754.539062 261.539062 757.085938 260.574219 759.5 C 260.023438 760.945312 259.472656 762.390625 258.921875 763.839844 Z M 472.746094 930.621094 C 472.261719 930.484375 472.058594 930.621094 471.851562 930.757812 C 464.691406 933.378906 457.328125 935.511719 449.964844 937.304688 C 448.382812 937.648438 447.488281 938.335938 446.9375 939.921875 C 446.113281 942.402344 444.941406 944.8125 442.945312 946.605469 C 442.945312 946.605469 442.945312 946.742188 442.945312 946.949219 C 453.613281 942.816406 463.59375 937.578125 472.8125 930.621094 Z M 340.128906 945.089844 C 340.199219 944.882812 340.269531 944.8125 340.269531 944.8125 C 339.925781 943.847656 339.511719 942.882812 339.304688 941.851562 C 339.03125 940.816406 338.480469 940.335938 337.445312 940.058594 C 331.253906 938.476562 325.058594 936.617188 319.277344 933.722656 C 319.140625 933.652344 318.933594 933.585938 318.726562 933.789062 C 325.679688 937.925781 332.628906 941.988281 340.199219 945.019531 Z M 271.792969 699.5625 C 275.785156 699.152344 279.433594 697.636719 283.078125 696.050781 C 283.21875 696.050781 283.421875 695.914062 283.492188 695.773438 C 283.699219 695.5 283.628906 695.292969 283.355469 695.222656 C 283.148438 695.222656 282.941406 695.222656 282.734375 695.222656 C 276.953125 695.085938 271.171875 695.363281 265.394531 695.636719 C 263.742188 695.707031 262.160156 695.636719 260.507812 695.222656 C 259.679688 695.015625 258.921875 695.015625 258.097656 695.222656 C 257.683594 695.363281 257.617188 695.636719 257.753906 696.050781 C 258.167969 696.945312 258.855469 697.636719 259.820312 697.910156 C 263.121094 698.945312 266.425781 699.839844 269.933594 699.769531 C 270.554688 699.769531 271.171875 699.769531 271.722656 699.703125 Z M 271.929688 665.53125 C 272.34375 666.289062 272.894531 666.980469 273.238281 667.738281 C 274.753906 670.699219 276.542969 673.523438 278.46875 676.210938 C 280.878906 679.515625 284.113281 681.996094 287.484375 684.269531 C 287.550781 684.269531 287.621094 684.40625 287.691406 684.40625 C 287.828125 684.40625 287.964844 684.476562 288.035156 684.40625 C 288.171875 684.339844 288.242188 684.0625 288.171875 683.925781 C 287.964844 683.582031 287.691406 683.167969 287.484375 682.824219 C 285.007812 679.101562 282.597656 675.3125 279.636719 671.871094 C 277.644531 669.527344 275.578125 667.253906 273.859375 664.707031 C 273.582031 664.292969 273.101562 664.152344 272.617188 664.152344 C 271.65625 664.152344 271.378906 664.566406 271.792969 665.464844 Z M 303.449219 679.929688 C 304.34375 675.519531 305.101562 671.042969 305.515625 666.496094 C 305.789062 663.328125 306.132812 660.160156 307.027344 657.058594 C 307.167969 656.578125 307.167969 656.023438 307.167969 655.542969 C 307.167969 655.265625 307.167969 654.992188 306.820312 654.921875 C 306.546875 654.921875 306.339844 654.921875 306.132812 655.199219 C 305.789062 655.613281 305.652344 656.09375 305.515625 656.578125 C 304.480469 660.296875 303.519531 664.085938 303.035156 667.941406 C 302.484375 672.078125 302.554688 676.277344 302.96875 680.550781 C 303.449219 680.414062 303.449219 680.136719 303.519531 679.859375 Z M 303.449219 679.929688 " fill-opacity="1" fill-rule="nonzero"/></g></svg>