<svg xmlns="http://www.w3.org/2000/svg" xmlns:xlink="http://www.w3.org/1999/xlink" zoomAndPan="magnify" preserveAspectRatio="xMidYMid meet" version="1.0" viewBox="132.77 441.35 595.88 477"><defs><clipPath id="bb39c45a87"><path d="M 132.40625 510 L 728.65625 510 L 728.65625 918.574219 L 132.40625 918.574219 Z M 132.40625 510 " clip-rule="nonzero"/></clipPath></defs><g clip-path="url(#bb39c45a87)"><path fill="#000000" d="M 339.917969 518.914062 C 339.917969 518.265625 340.242188 517.617188 340.566406 517.074219 C 341.21875 516.207031 342.082031 516.207031 342.839844 516.75 C 343.597656 517.289062 343.597656 518.265625 343.164062 518.808594 C 339.59375 522.921875 338.726562 528.339844 336.566406 533.105469 C 332.5625 542.203125 328.667969 551.40625 323.90625 560.179688 C 323.582031 560.722656 323.257812 561.265625 323.257812 562.347656 C 333.96875 562.347656 344.789062 562.886719 355.714844 563.863281 C 354.742188 560.613281 353.875 557.796875 353.117188 554.875 C 351.171875 547.402344 350.304688 539.820312 353.117188 532.34375 C 352.46875 529.964844 354.417969 529.421875 355.929688 528.773438 C 357.554688 528.011719 359.394531 527.582031 361.234375 527.253906 C 372.375 525.304688 383.519531 524.222656 394.773438 524.332031 C 406.457031 524.4375 418.140625 524.222656 429.828125 524.113281 C 439.132812 524.113281 448.4375 524.007812 457.742188 524.113281 C 460.878906 524.113281 464.015625 524.332031 467.152344 524.4375 C 468.34375 524.4375 469.535156 524.546875 470.832031 524.113281 C 470.722656 521.40625 469.535156 518.914062 469.207031 516.316406 C 469.101562 515.339844 468.667969 514.367188 468.667969 513.5 C 468.667969 512.632812 467.585938 511.550781 469.101562 511.007812 C 470.507812 510.574219 471.914062 510.359375 472.886719 511.875 C 473.429688 512.632812 473.753906 513.609375 474.078125 514.582031 C 474.835938 516.964844 475.59375 519.347656 476.347656 521.730469 C 477.214844 524.546875 477.214844 524.65625 480.351562 524.765625 C 484.140625 524.980469 487.925781 524.980469 491.714844 525.199219 C 497.445312 525.523438 503.179688 525.738281 508.808594 526.605469 C 512.054688 527.148438 515.082031 527.90625 518.003906 529.636719 C 519.410156 530.503906 520.058594 531.585938 520.167969 533.320312 C 520.277344 540.035156 520.382812 546.75 519.953125 553.464844 C 519.734375 555.957031 519.84375 555.957031 522.441406 556.28125 C 533.367188 557.796875 544.402344 558.230469 555.332031 559.53125 C 569.828125 561.265625 584.109375 564.078125 598.390625 567.328125 C 599.796875 567.652344 601.203125 567.546875 602.503906 568.085938 C 606.9375 570.035156 609.96875 575.667969 608.667969 580.433594 C 606.074219 589.640625 601.960938 598.195312 596.984375 606.429688 C 595.363281 609.136719 593.628906 611.734375 591.898438 614.335938 C 591.359375 615.199219 591.140625 615.851562 591.898438 616.824219 C 596.550781 622.890625 600.339844 629.390625 603.691406 636.210938 C 604.667969 638.269531 605.421875 640.4375 605.421875 642.710938 C 605.421875 645.308594 604.449219 646.285156 601.960938 647.042969 C 598.933594 648.019531 596.011719 647.476562 592.980469 646.933594 C 582.917969 644.984375 573.183594 641.628906 563.121094 639.246094 C 552.734375 636.753906 542.347656 634.261719 531.960938 631.773438 C 527.847656 630.796875 523.628906 630.582031 519.410156 630.148438 C 513.242188 629.496094 507.183594 628.304688 501.234375 626.679688 C 489.65625 623.539062 477.757812 621.914062 465.855469 620.074219 C 454.925781 618.34375 444 617.691406 433.074219 616.066406 C 429.71875 615.527344 426.257812 615.308594 422.792969 615.632812 C 421.710938 615.632812 420.628906 615.417969 419.65625 615.199219 C 417.382812 614.769531 415.21875 614.226562 412.949219 613.902344 C 411.109375 613.578125 409.269531 613.902344 407.753906 615.308594 C 405.050781 617.691406 404.835938 619.640625 406.996094 622.566406 C 408.511719 624.625 410.566406 626.140625 412.949219 626.789062 C 415.546875 627.546875 418.25 628.414062 421.0625 628.414062 C 423.660156 628.414062 425.28125 627.222656 426.472656 624.296875 C 427.445312 621.808594 427.011719 620.398438 424.851562 618.667969 C 424.523438 618.449219 424.199219 618.125 423.769531 617.800781 C 426.582031 617.257812 428.203125 618.449219 428.746094 621.15625 C 429.394531 624.730469 427.554688 628.414062 423.984375 630.6875 C 426.257812 632.421875 428.960938 633.179688 431.449219 634.261719 C 443.242188 639.136719 455.144531 643.792969 467.476562 647.042969 C 468.992188 647.476562 470.617188 647.691406 472.238281 648.019531 C 477.648438 648.992188 482.839844 650.507812 487.710938 653.433594 C 493.011719 656.683594 499.070312 658.089844 504.914062 660.039062 C 512.808594 662.640625 520.816406 664.804688 528.929688 666.972656 C 530.121094 667.296875 531.417969 667.511719 532.5 668.273438 C 532.175781 669.246094 531.417969 669.03125 530.988281 668.921875 C 516.164062 665.5625 501.234375 661.988281 487.167969 656.03125 C 481.542969 653.648438 475.808594 652.027344 469.859375 650.941406 C 463.582031 649.859375 457.523438 647.691406 451.574219 645.636719 C 450.492188 645.308594 449.410156 644.550781 448.21875 644.660156 C 448.003906 647.152344 447.679688 649.535156 447.570312 651.917969 C 447.570312 653.324219 446.703125 653.757812 445.515625 653.757812 C 443.351562 653.757812 442.050781 652.351562 440.753906 650.835938 C 441.726562 650.183594 442.269531 650.835938 442.917969 651.050781 C 444.757812 651.699219 445.296875 651.375 445.515625 649.535156 C 445.839844 647.800781 445.40625 646.070312 445.839844 644.335938 C 446.054688 643.46875 445.296875 643.253906 444.648438 643.144531 C 442.050781 642.386719 439.347656 641.84375 436.644531 641.84375 C 433.828125 641.84375 433.179688 643.253906 434.695312 645.636719 C 435.667969 647.152344 436.859375 648.667969 438.15625 649.96875 C 449.410156 660.90625 461.742188 670.65625 474.726562 679.425781 C 478.621094 682.027344 482.949219 683.757812 487.167969 685.710938 C 498.527344 691.015625 509.890625 696.324219 521.25 701.738281 C 522.113281 702.171875 523.414062 702.28125 523.738281 704.121094 C 515.949219 701.628906 508.914062 698.273438 501.773438 695.132812 C 494.527344 692.097656 487.386719 688.957031 479.8125 685.601562 C 480.351562 689.609375 481.757812 692.75 483.273438 695.78125 C 489.222656 708.238281 498.746094 717.660156 509.890625 725.351562 C 513.027344 727.515625 516.8125 728.816406 520.382812 730.332031 C 523.195312 731.523438 525.792969 733.039062 528.28125 734.773438 C 528.824219 735.097656 529.363281 735.421875 529.472656 736.398438 C 526.875 735.964844 524.386719 735.207031 522.113281 734.121094 C 516.488281 731.414062 510.753906 728.707031 505.128906 725.890625 C 498.3125 722.535156 491.171875 720.152344 483.921875 717.769531 C 482.625 717.335938 481.21875 717.226562 479.59375 717.550781 C 480.027344 719.285156 481.867188 720.476562 481.21875 722.535156 C 480.785156 724.160156 481.433594 726.109375 478.839844 726.648438 C 480.351562 728.816406 482.191406 729.898438 483.816406 731.199219 C 491.929688 737.15625 500.691406 742.136719 509.132812 747.550781 C 513.566406 750.476562 518.328125 752.859375 523.414062 754.375 C 527.742188 755.785156 531.636719 758.273438 535.53125 760.550781 C 545.808594 766.722656 555.761719 773.4375 566.367188 779.070312 C 575.777344 784.050781 585.191406 788.925781 594.171875 794.339844 C 595.902344 795.425781 597.851562 796.074219 599.796875 796.941406 C 618.191406 805.0625 635.066406 815.785156 650.539062 828.566406 C 660.277344 836.691406 668.5 846.4375 676.074219 856.511719 C 680.402344 862.359375 684.511719 868.316406 688.730469 874.273438 C 694.898438 883.046875 702.472656 890.625 709.9375 898.316406 C 715.128906 903.515625 719.78125 909.253906 725.085938 914.347656 C 726.273438 915.539062 727.898438 916.296875 728.65625 918.355469 C 726.597656 918.027344 725.515625 916.730469 724.328125 915.753906 C 720.757812 912.289062 717.078125 908.929688 713.617188 905.355469 C 705.5 896.910156 696.414062 889.542969 688.949219 880.445312 C 683.648438 874.054688 678.777344 867.234375 673.800781 860.515625 C 658.222656 839.074219 638.53125 822.609375 615.59375 809.613281 C 608.238281 805.496094 601.3125 800.515625 593.953125 796.398438 C 584.757812 791.199219 574.914062 787.085938 565.5 782.320312 C 556.953125 778.09375 548.621094 773.546875 540.617188 768.347656 C 537.371094 766.289062 534.015625 764.230469 530.769531 762.066406 C 526.335938 759.140625 521.683594 756.757812 516.707031 754.808594 C 514.648438 753.941406 512.59375 752.859375 510.648438 751.992188 C 510.105469 751.992188 509.996094 752.425781 509.996094 752.644531 C 509.996094 759.574219 509.566406 766.507812 510.539062 773.328125 C 511.296875 778.421875 513.136719 783.078125 515.839844 787.519531 C 517.460938 790.226562 519.195312 791.308594 522.332031 791.632812 C 531.960938 792.609375 541.699219 793.910156 551.003906 796.941406 C 557.386719 799 563.554688 801.597656 568.3125 806.6875 C 570.476562 809.070312 572.101562 811.671875 572.101562 815.027344 C 572.101562 817.300781 571.449219 819.46875 569.71875 820.769531 C 561.605469 826.941406 552.515625 829.433594 541.699219 827.375 C 545.59375 825.640625 549.164062 824.992188 552.515625 824.125 C 556.195312 823.257812 559.875 822.285156 563.226562 820.550781 C 564.203125 820.011719 565.175781 819.578125 566.042969 818.925781 C 569.285156 816.652344 569.9375 813.945312 567.773438 810.585938 C 565.824219 807.445312 563.011719 805.28125 559.875 803.546875 C 552.191406 799.324219 543.863281 797.050781 535.316406 795.425781 C 530.011719 794.449219 524.710938 793.257812 519.300781 792.824219 C 515.515625 792.609375 513.242188 790.441406 511.621094 787.191406 C 508.699219 781.34375 507.507812 775.171875 507.726562 768.671875 C 507.941406 763.257812 508.265625 757.84375 508.589844 752.535156 C 508.589844 751.34375 508.589844 750.476562 507.402344 749.828125 C 503.9375 747.769531 500.585938 745.710938 497.015625 743.546875 C 496.363281 744.410156 496.691406 745.167969 496.796875 745.820312 C 498.203125 752.75 497.773438 759.792969 497.015625 766.832031 C 496.691406 770.082031 496.472656 773.222656 495.609375 776.472656 C 494.09375 782.210938 490.847656 786.652344 486.410156 790.335938 C 485.328125 791.308594 484.03125 791.851562 482.625 792.066406 C 476.78125 793.148438 470.941406 794.234375 465.097656 795.316406 C 458.066406 796.722656 451.25 798.671875 444.972656 802.355469 C 441.835938 804.199219 439.238281 806.6875 437.398438 809.828125 C 436.101562 811.996094 436.316406 812.863281 438.265625 814.59375 C 439.886719 816.003906 441.835938 816.761719 443.785156 817.300781 C 453.84375 820.117188 464.015625 822.175781 474.292969 823.042969 C 485.4375 824.019531 496.472656 823.910156 507.617188 824.125 C 517.679688 824.34375 527.742188 824.234375 537.695312 825.75 C 538.453125 825.859375 539.316406 825.535156 539.640625 826.726562 C 534.234375 827.59375 528.714844 828.023438 523.304688 828.132812 C 510.320312 828.351562 497.339844 827.917969 484.355469 827.59375 C 470.832031 827.160156 457.523438 824.992188 444.433594 821.203125 C 441.945312 820.445312 439.5625 819.46875 437.398438 818.0625 C 432.855469 814.921875 432.207031 811.128906 435.667969 806.796875 C 438.480469 803.222656 441.945312 800.625 446.054688 798.671875 C 452.546875 795.640625 459.472656 793.800781 466.503906 792.71875 C 470.183594 792.175781 473.753906 791.632812 477.429688 791.199219 C 480.570312 790.875 483.058594 789.46875 485.328125 787.300781 C 490.089844 782.96875 492.902344 777.664062 493.769531 771.273438 C 494.09375 768.78125 494.527344 766.398438 494.851562 763.90625 C 495.824219 757.625 496.257812 751.234375 495.28125 744.84375 C 494.957031 743.003906 494.308594 742.027344 492.792969 741.164062 C 487.710938 738.238281 482.839844 735.097656 478.40625 731.089844 C 474.617188 727.734375 470.832031 724.375 467.152344 720.800781 C 465.3125 719.066406 463.472656 717.226562 464.125 714.085938 C 464.664062 711.59375 466.179688 710.292969 468.667969 710.835938 C 469.964844 711.160156 471.15625 711.703125 472.347656 712.246094 C 476.132812 713.976562 479.917969 715.601562 484.246094 716.25 C 488.46875 716.902344 492.578125 718.632812 496.691406 719.933594 C 497.554688 720.257812 498.527344 720.476562 499.71875 720.910156 C 499.285156 719.5 498.3125 719.066406 497.554688 718.417969 C 488.140625 710.402344 480.785156 700.980469 476.566406 689.285156 C 476.242188 688.523438 475.699219 687.660156 475.699219 686.792969 C 475.917969 683.652344 473.753906 682.460938 471.480469 681.050781 C 462.394531 675.3125 454.171875 668.488281 445.949219 661.664062 C 443.027344 659.28125 440.320312 656.683594 437.398438 654.082031 C 436.425781 654.949219 436.96875 655.925781 436.859375 656.898438 C 436.425781 665.78125 436.75 674.660156 436.859375 683.542969 C 436.859375 686.902344 436.859375 690.257812 436.75 693.617188 C 436.75 701.195312 437.292969 708.777344 438.375 716.25 C 438.699219 718.960938 438.699219 721.667969 438.589844 724.375 C 438.589844 726.648438 439.457031 728.058594 441.296875 729.140625 C 444.109375 730.765625 447.027344 732.171875 450.273438 732.714844 C 456.765625 733.796875 463.367188 734.449219 469.75 736.070312 C 476.566406 737.695312 482.839844 740.40625 488.25 745.0625 C 492.144531 748.417969 493.769531 753.183594 492.253906 757.84375 C 490.847656 762.066406 487.492188 764.230469 483.488281 765.421875 C 478.1875 767.046875 472.671875 767.480469 467.152344 766.507812 C 466.289062 766.398438 465.421875 766.179688 464.554688 766.179688 C 458.390625 766.179688 452.222656 766.507812 446.054688 766.398438 C 434.261719 766.289062 422.46875 766.398438 410.785156 765.75 C 403.644531 765.421875 396.503906 765.421875 389.472656 764.339844 C 384.710938 763.582031 380.058594 762.609375 375.839844 760.332031 C 374.757812 759.792969 373.78125 759.25 372.808594 758.492188 C 369.023438 755.785156 368.046875 751.777344 370.320312 747.660156 C 372.808594 743.21875 376.703125 740.40625 381.464844 738.671875 C 384.601562 737.589844 387.957031 736.832031 391.203125 736.398438 C 398.125 735.421875 405.050781 734.230469 412.082031 733.796875 C 414.464844 733.582031 416.84375 733.148438 419.007812 732.171875 C 422.035156 730.875 423.550781 728.597656 423.226562 725.242188 C 422.578125 717.441406 423.335938 709.644531 423.660156 701.957031 C 423.875 695.671875 423.875 689.390625 424.09375 683.109375 C 424.199219 676.070312 424.632812 669.03125 424.523438 661.988281 C 424.308594 654.082031 424.742188 646.175781 423.984375 638.269531 C 423.984375 637.296875 423.335938 636.320312 423.875 635.453125 C 424.417969 634.589844 423.875 634.261719 423.226562 634.046875 C 419.546875 632.421875 416.300781 630.039062 412.300781 629.0625 C 409.054688 628.304688 406.347656 626.464844 404.078125 624.082031 C 403.101562 623.105469 402.453125 622.023438 402.128906 620.726562 C 401.589844 618.773438 401.804688 617.042969 403.535156 615.417969 C 406.671875 612.601562 410.136719 611.410156 414.246094 612.058594 C 417.382812 612.601562 420.628906 613.359375 423.875 613.578125 C 424.523438 613.578125 425.175781 613.792969 425.929688 613.035156 C 418.898438 603.613281 416.519531 592.457031 415.21875 580.867188 C 411 581.734375 406.890625 580.433594 402.777344 581.191406 C 402.777344 583.25 403.753906 585.089844 404.402344 586.824219 C 406.242188 591.699219 408.296875 596.464844 411 600.90625 C 411.867188 602.421875 412.625 603.9375 412.730469 605.886719 C 410.351562 605.453125 409.484375 603.71875 408.511719 602.097656 C 405.375 596.679688 403.101562 590.832031 401.15625 584.765625 C 400.9375 584.226562 400.722656 583.792969 400.722656 583.25 C 400.613281 581.191406 399.207031 580.652344 397.367188 580.542969 C 395.53125 580.542969 393.796875 580.21875 392.175781 579.027344 C 393.691406 578.375 395.203125 578.59375 396.71875 578.703125 C 399.207031 578.808594 399.316406 578.703125 398.773438 576.210938 C 398.34375 573.9375 397.910156 571.769531 397.476562 569.496094 C 397.042969 567.222656 396.828125 567.003906 394.554688 566.894531 C 392.285156 566.894531 390.011719 566.894531 387.738281 566.789062 C 387.089844 566.789062 386.441406 567.003906 385.792969 566.136719 C 387.199219 565.269531 388.714844 565.269531 390.226562 565.269531 C 391.742188 565.269531 393.257812 565.269531 394.773438 565.269531 C 396.070312 565.269531 396.71875 564.945312 396.613281 563.429688 C 396.285156 559.207031 396.613281 554.980469 395.636719 550.867188 C 395.53125 550.214844 395.3125 549.566406 396.394531 549.023438 C 397.695312 551.515625 397.585938 554.332031 398.019531 556.929688 C 398.34375 558.988281 398.34375 561.046875 398.449219 563.105469 C 398.449219 564.40625 398.992188 565.164062 400.398438 565.164062 C 404.941406 565.054688 409.488281 564.945312 414.03125 565.488281 C 414.894531 565.488281 415.113281 565.164062 415.21875 564.40625 C 416.410156 558.449219 416.628906 558.121094 422.46875 557.257812 C 428.746094 556.390625 435.128906 555.847656 441.511719 555.199219 C 448.109375 554.546875 454.710938 554.546875 461.3125 554.332031 C 463.691406 554.332031 463.691406 554.222656 464.125 551.839844 C 464.339844 550.324219 464.449219 548.808594 464.664062 547.292969 C 464.664062 546.859375 464.882812 546.101562 465.53125 546.210938 C 466.289062 546.210938 466.289062 546.859375 466.289062 547.402344 C 466.289062 549.023438 466.289062 550.648438 466.289062 552.273438 C 466.289062 553.683594 466.71875 554.222656 468.125 554.222656 C 471.15625 554.117188 474.1875 554.007812 477.214844 554.007812 C 478.511719 554.007812 479.054688 553.464844 478.621094 552.164062 C 477.429688 548.375 476.242188 544.585938 475.050781 540.683594 C 474.726562 539.710938 474.1875 539.277344 473.105469 539.386719 C 472.238281 539.386719 471.371094 539.386719 470.507812 539.386719 C 462.933594 539.492188 455.359375 540.035156 447.785156 540.035156 C 439.238281 540.035156 430.691406 539.492188 422.253906 539.0625 C 416.84375 538.84375 411.433594 538.519531 406.023438 538.300781 C 398.449219 537.976562 390.878906 537.542969 383.410156 537.328125 C 377.027344 537.21875 370.644531 537.003906 364.261719 536.570312 C 360.367188 536.246094 356.582031 535.703125 353.011719 533.96875 C 351.277344 543.933594 354.089844 553.03125 357.664062 561.914062 C 358.3125 563.429688 359.285156 563.972656 360.90625 564.078125 C 366.535156 564.511719 372.160156 564.945312 377.570312 566.136719 C 378.976562 566.460938 380.273438 566.789062 381.574219 567.546875 C 385.144531 569.820312 385.144531 573.828125 381.464844 575.777344 C 380.382812 576.320312 379.300781 576.75 378.21875 577.078125 C 370.96875 579.566406 363.289062 580.757812 355.714844 581.625 C 345.867188 582.816406 336.023438 583.898438 326.070312 584.875 C 321.742188 585.308594 317.523438 585.632812 313.085938 586.390625 C 313.84375 586.714844 314.601562 586.933594 315.359375 587.257812 C 319.792969 588.664062 321.957031 591.804688 322.28125 596.464844 C 322.5 599.0625 322.5 599.0625 325.097656 599.386719 C 325.636719 599.386719 326.179688 599.386719 326.71875 599.496094 C 328.015625 599.605469 329.316406 600.253906 330.503906 599.714844 C 331.804688 599.0625 330.9375 597.4375 331.585938 596.464844 C 331.585938 596.355469 331.914062 596.246094 332.128906 596.140625 C 332.238281 596.246094 332.453125 596.355469 332.5625 596.464844 C 332.996094 597.546875 332.128906 599.0625 333.101562 599.820312 C 334.183594 600.796875 335.808594 600.472656 337.105469 600.578125 C 340.890625 601.121094 344.679688 601.335938 348.359375 601.988281 C 349.871094 602.203125 350.519531 601.769531 350.953125 600.363281 C 351.496094 598.304688 352.144531 596.246094 353.011719 594.296875 C 353.984375 596.464844 353.011719 598.414062 352.792969 600.472656 C 352.46875 602.527344 352.46875 602.636719 354.523438 602.960938 C 357.988281 603.503906 361.339844 603.9375 364.804688 604.585938 C 366.640625 604.910156 367.398438 604.261719 367.722656 602.636719 C 368.265625 600.363281 369.023438 598.089844 369.78125 595.8125 C 370.105469 594.730469 370.210938 593.539062 371.511719 592.566406 C 370.644531 596.355469 369.996094 599.929688 369.023438 603.503906 C 368.589844 605.019531 369.023438 605.453125 370.320312 605.777344 C 371.402344 606.101562 372.375 606.429688 373.351562 606.859375 C 376.164062 608.269531 376.921875 610.542969 375.515625 613.359375 C 374.433594 615.417969 372.699219 616.933594 370.535156 617.800781 C 368.589844 618.558594 366.75 619.425781 364.695312 619.640625 C 362.53125 619.859375 361.339844 621.15625 360.367188 623 C 357.230469 628.738281 353.765625 634.15625 349.113281 638.8125 C 347.277344 640.652344 345.328125 642.277344 342.730469 642.929688 C 347.492188 635.453125 354.523438 629.605469 358.417969 621.265625 C 355.5 621.265625 352.902344 621.375 350.304688 621.484375 C 349.113281 621.484375 347.925781 621.917969 346.734375 621.808594 C 344.679688 621.699219 343.707031 622.675781 342.839844 624.40625 C 340.136719 629.714844 337.429688 635.019531 333.425781 639.570312 C 332.128906 641.085938 330.613281 642.496094 328.882812 643.792969 C 331.15625 635.886719 336.671875 629.714844 340.460938 622.457031 C 336.347656 621.484375 332.453125 622.023438 328.667969 622.132812 C 327.476562 622.132812 327.476562 623.214844 327.261719 623.972656 C 325.421875 630.796875 323.039062 637.402344 320.660156 644.011719 C 319.578125 646.933594 318.605469 649.96875 317.199219 652.785156 C 316.441406 654.300781 315.683594 655.816406 314.058594 657.332031 C 313.410156 653.976562 314.058594 651.160156 315.25 648.453125 C 317.847656 641.738281 320.550781 634.914062 323.148438 628.199219 C 323.796875 626.355469 324.554688 624.625 324.878906 622.457031 C 319.363281 622.023438 314.058594 622.347656 308.433594 622.457031 C 308.21875 628.847656 308 635.128906 307.675781 641.519531 C 307.246094 647.800781 307.675781 654.191406 304.863281 660.472656 C 303.566406 657.875 303.132812 654.625 303.457031 650.617188 C 304.105469 643.253906 304.429688 635.78125 304.757812 628.304688 C 304.757812 627.980469 304.757812 627.65625 304.757812 627.332031 C 304.757812 625.707031 305.835938 623.867188 304.648438 622.675781 C 303.457031 621.589844 301.511719 622.347656 299.996094 622.132812 C 298.15625 621.917969 296.316406 622.132812 294.476562 622.132812 C 292.960938 622.132812 292.3125 622.675781 292.421875 624.191406 C 293.070312 629.929688 293.828125 635.78125 294.371094 641.519531 C 295.019531 647.261719 296.207031 653 295.777344 658.957031 C 294.800781 659.175781 294.800781 658.414062 294.585938 657.875 C 293.394531 655.273438 292.746094 652.566406 292.421875 649.75 C 291.664062 643.359375 291.015625 636.863281 290.582031 630.363281 C 290.582031 629.496094 290.367188 628.738281 290.257812 627.871094 C 289.066406 627.65625 288.960938 628.738281 288.636719 629.28125 C 285.605469 633.503906 283.441406 638.269531 281.0625 642.929688 C 280.414062 644.226562 280.628906 645.09375 281.386719 646.175781 C 283.660156 649.210938 285.605469 652.457031 287.445312 656.574219 C 283.226562 654.625 280.953125 651.265625 278.355469 648.234375 C 277.058594 649.644531 276.300781 651.160156 275.4375 652.566406 C 276.734375 653.976562 278.355469 654.734375 279.4375 656.464844 C 277.816406 656.683594 276.519531 656.140625 275.328125 655.707031 C 274.136719 655.273438 273.273438 655.601562 272.621094 656.683594 C 271.648438 658.414062 270.566406 660.039062 269.484375 661.773438 C 271.539062 663.074219 273.921875 663.613281 276.085938 664.480469 C 280.195312 665.890625 284.308594 667.1875 288.417969 668.597656 C 289.285156 668.921875 290.148438 669.03125 290.800781 669.464844 C 293.503906 671.414062 296.640625 671.414062 299.777344 671.085938 C 300.753906 671.085938 302.375 670.761719 302.484375 672.0625 C 302.59375 673.46875 300.96875 673.6875 299.777344 673.6875 C 298.480469 673.6875 297.183594 673.6875 295.777344 673.796875 C 295.558594 675.203125 296.425781 676.179688 296.859375 677.585938 C 302.160156 675.09375 304.972656 679.210938 308.757812 682.242188 C 308.542969 678.453125 309.082031 675.203125 309.839844 671.953125 C 312.113281 662.097656 318.496094 656.25 327.585938 652.890625 C 333.425781 650.726562 339.269531 648.34375 345.003906 645.742188 C 359.824219 639.027344 370.429688 628.089844 377.679688 613.683594 C 381.140625 606.753906 384.277344 599.820312 386.007812 592.238281 C 387.199219 587.367188 387.847656 582.492188 387.738281 577.511719 C 387.738281 575.777344 387.414062 574.042969 386.875 572.417969 C 386.65625 571.878906 386.441406 571.335938 387.089844 571.011719 C 387.847656 570.6875 388.390625 571.121094 388.605469 571.769531 C 389.144531 573.394531 389.578125 575.128906 389.6875 576.859375 C 390.011719 582.925781 389.6875 588.992188 388.171875 594.839844 C 387.738281 596.355469 388.171875 597.4375 388.929688 598.738281 C 392.390625 603.71875 397.261719 607.1875 402.453125 610.21875 C 403.320312 610.652344 404.292969 610.867188 404.726562 611.84375 C 402.5625 614.550781 402.5625 614.550781 399.855469 612.710938 C 394.878906 609.351562 390.554688 605.34375 387.414062 600.144531 C 386.117188 600.6875 386.226562 601.878906 385.902344 602.636719 C 383.304688 610.003906 380.058594 617.042969 375.945312 623.757812 C 369.886719 633.828125 361.558594 641.519531 351.277344 647.152344 C 350.628906 647.476562 349.980469 647.910156 349.332031 648.234375 C 345.761719 650.074219 345.871094 650.074219 346.625 654.191406 C 347.277344 657.550781 348.140625 661.015625 347.277344 664.480469 C 346.519531 667.730469 345.21875 670.871094 342.839844 673.363281 C 342.082031 674.121094 341.757812 674.988281 341.324219 675.851562 C 338.945312 680.617188 335.265625 684.300781 331.15625 687.441406 C 329.855469 688.417969 328.449219 689.175781 326.394531 689.066406 C 327.261719 686.902344 328.882812 685.601562 330.398438 684.410156 C 333.320312 682.027344 336.347656 679.644531 338.511719 676.503906 C 339.378906 675.203125 340.242188 674.011719 340.785156 672.605469 C 341.648438 670.546875 342.191406 668.488281 341.542969 666.105469 C 340.675781 662.964844 341.21875 659.605469 340.351562 656.464844 C 339.917969 654.949219 341.757812 653.867188 341.867188 652.242188 C 340.242188 652.242188 339.054688 653.21875 337.648438 653.757812 C 333.96875 655.058594 330.289062 656.25 326.609375 657.65625 C 323.691406 658.742188 323.148438 660.039062 323.472656 663.179688 C 323.691406 665.128906 324.664062 666.863281 325.3125 668.703125 C 326.503906 672.386719 324.230469 675.3125 320.445312 674.988281 C 319.792969 674.988281 319.039062 674.988281 318.820312 674.230469 C 318.605469 673.578125 319.144531 673.253906 319.46875 672.820312 C 319.46875 672.820312 319.578125 672.605469 319.6875 672.605469 C 323.039062 671.085938 322.390625 668.597656 321.527344 665.890625 C 320.984375 664.371094 321.308594 662.746094 320.875 660.796875 C 318.0625 662.53125 316.007812 664.589844 314.816406 667.511719 C 313.410156 671.085938 312.222656 674.878906 312.328125 678.777344 C 312.328125 679.859375 312.328125 681.050781 311.789062 681.917969 C 310.921875 683.757812 311.789062 684.84375 313.085938 685.710938 C 315.46875 687.226562 317.847656 688.742188 320.226562 690.257812 C 324.554688 693.074219 328.773438 696.214844 332.238281 700.003906 C 336.023438 704.121094 336.890625 708.671875 335.15625 713.761719 C 332.886719 720.367188 328.667969 725.132812 322.175781 727.839844 C 319.253906 729.03125 316.332031 730.222656 313.410156 731.308594 C 312.003906 731.847656 311.570312 732.28125 311.679688 734.121094 C 312.328125 740.296875 313.195312 746.363281 313.953125 752.425781 C 313.953125 753.078125 314.386719 753.402344 314.816406 753.617188 C 314.710938 754.269531 314.386719 754.917969 314.492188 755.566406 C 315.035156 759.464844 315.574219 763.257812 316.117188 767.046875 C 316.332031 768.457031 317.414062 768.347656 318.386719 768.238281 C 322.390625 767.480469 326.394531 766.289062 329.964844 764.339844 C 331.914062 763.257812 333.210938 761.417969 332.886719 759.359375 C 332.238281 755.351562 330.613281 751.667969 327.585938 748.527344 C 326.648438 750.332031 325.527344 751.488281 324.230469 751.992188 C 325.421875 747.554688 323.691406 743.113281 319.6875 740.730469 C 318.386719 739.972656 317.089844 740.511719 316.765625 742.027344 C 316.550781 743.113281 316.765625 744.195312 317.199219 745.171875 C 318.171875 747.445312 319.363281 749.394531 321.09375 751.128906 C 321.527344 751.558594 322.5 751.886719 321.957031 753.078125 C 319.6875 751.886719 318.28125 749.609375 316.117188 747.769531 C 315.25 752.320312 317.847656 755.242188 320.011719 758.273438 C 317.414062 758.273438 317.199219 758.273438 316.332031 756.976562 C 315.683594 756 315.140625 754.917969 314.925781 753.726562 C 314.492188 752.96875 314.167969 752.101562 314.277344 751.234375 C 314.710938 748.3125 315.46875 745.496094 315.25 742.460938 C 315.140625 739.214844 318.496094 737.804688 321.09375 739.972656 C 324.445312 742.679688 327.910156 745.277344 330.613281 748.746094 C 333.320312 752.210938 334.507812 756.109375 334.292969 760.550781 C 334.292969 763.582031 332.777344 765.75 330.179688 767.046875 C 326.71875 768.890625 323.039062 770.082031 319.039062 770.296875 C 316.65625 770.40625 316.550781 770.515625 316.980469 772.679688 C 317.957031 777.664062 319.039062 782.644531 320.121094 787.625 C 320.335938 788.816406 320.875 790.117188 321.957031 790.660156 C 324.554688 792.066406 326.933594 793.910156 329.855469 794.773438 C 339.59375 797.699219 349.546875 799.757812 359.5 801.816406 C 364.585938 802.898438 369.238281 804.738281 372.917969 808.53125 C 375.945312 811.5625 376.703125 815.136719 374.972656 818.925781 C 373.242188 822.71875 370.644531 825.859375 366.75 827.265625 C 358.636719 830.300781 350.195312 832.25 341.542969 832.25 C 340.566406 832.25 339.59375 832.25 338.621094 831.492188 C 341.21875 829.648438 344.03125 829.433594 346.84375 828.890625 C 352.144531 828.023438 357.445312 827.050781 362.640625 825.535156 C 366.75 824.34375 370.105469 822.175781 372.050781 818.277344 C 374 814.59375 373.457031 811.347656 370.105469 808.746094 C 367.292969 806.582031 364.152344 805.171875 360.800781 804.414062 C 357.554688 803.65625 354.199219 803.007812 350.953125 802.464844 C 343.164062 801.164062 335.589844 798.78125 328.125 796.398438 C 322.175781 794.558594 318.496094 790.335938 316.65625 784.59375 C 314.816406 779.070312 313.953125 773.222656 313.085938 767.480469 C 311.679688 757.84375 310.382812 748.203125 309.625 738.5625 C 308.976562 729.789062 308.109375 721.125 308.328125 712.351562 C 308.328125 710.402344 307.785156 709.105469 306.164062 708.128906 C 303.566406 706.503906 301.1875 704.769531 298.265625 702.820312 C 298.265625 704.011719 298.265625 704.988281 298.265625 705.855469 C 298.804688 711.054688 299.453125 716.144531 299.996094 721.34375 C 300.753906 728.492188 301.726562 735.746094 302.265625 742.894531 C 302.699219 748.417969 302.808594 753.941406 302.917969 759.464844 C 303.023438 766.941406 302.808594 774.414062 302.265625 781.777344 C 302.050781 785.027344 301.726562 788.277344 300.859375 791.417969 C 299.886719 794.773438 300.859375 796.183594 304.324219 796.941406 C 306.269531 797.375 308.21875 797.375 310.164062 797.375 C 314.277344 797.375 318.386719 796.722656 322.5 797.589844 C 323.691406 797.808594 324.773438 798.023438 325.960938 798.347656 C 325.960938 799.539062 324.988281 799.433594 324.230469 799.648438 C 317.847656 801.488281 311.355469 801.058594 304.972656 799.867188 C 302.375 799.324219 300.105469 798.132812 298.914062 795.640625 C 298.15625 795.53125 297.832031 795.964844 297.398438 796.292969 C 291.988281 801.058594 285.605469 803.871094 278.679688 805.390625 C 269.59375 807.445312 260.828125 810.695312 253.148438 816.003906 C 252.066406 816.761719 251.09375 817.519531 250.117188 818.386719 C 248.0625 820.335938 248.496094 822.828125 249.035156 825.101562 C 249.359375 826.507812 251.09375 826.941406 252.390625 827.375 C 256.609375 828.890625 260.9375 829.757812 265.375 830.300781 C 279.222656 832.03125 293.179688 832.574219 307.136719 831.597656 C 314.167969 831.167969 321.199219 830.734375 328.234375 831.597656 C 328.992188 831.597656 329.640625 831.597656 330.289062 832.140625 C 330.074219 833.222656 329.316406 833.441406 328.558594 833.441406 C 325.421875 833.765625 322.28125 834.199219 319.253906 834.414062 C 314.167969 834.742188 309.082031 834.847656 304 835.066406 C 288.960938 835.714844 273.921875 835.390625 259.097656 832.464844 C 256.175781 831.925781 253.148438 831.167969 250.441406 829.757812 C 245.464844 827.265625 244.167969 821.417969 247.738281 816.976562 C 248.929688 815.570312 250.335938 814.378906 251.851562 813.402344 C 260.074219 807.664062 269.375 804.632812 279.113281 802.679688 C 285.820312 801.382812 291.882812 798.566406 297.074219 794.125 C 298.589844 792.824219 299.347656 791.527344 299.347656 789.46875 C 299.347656 784.484375 299.996094 779.503906 300.105469 774.628906 C 300.210938 771.378906 299.886719 771.054688 296.640625 771.054688 C 283.660156 771.273438 270.675781 771.707031 257.910156 774.089844 C 255.09375 774.628906 252.28125 775.386719 249.46875 776.253906 C 244.058594 777.878906 238.433594 778.3125 232.808594 778.636719 C 228.15625 778.960938 223.503906 779.394531 218.960938 779.613281 C 217.550781 779.613281 216.796875 780.261719 216.144531 781.34375 C 207.382812 794.882812 198.292969 808.207031 188.558594 821.09375 C 185.742188 824.777344 183.253906 828.785156 179.902344 831.925781 C 179.253906 832.464844 178.929688 833.441406 177.628906 833.332031 C 177.847656 830.839844 178.929688 828.785156 180.007812 826.726562 C 182.5 822.175781 185.742188 818.0625 188.882812 813.945312 C 196.5625 803.65625 204.351562 793.367188 212.035156 783.078125 C 212.574219 782.320312 213.441406 781.667969 213.332031 780.476562 C 210.304688 780.695312 207.382812 781.667969 204.570312 782.753906 C 198.078125 785.136719 191.371094 786.21875 184.554688 786.109375 C 179.144531 786.003906 173.734375 785.675781 168.757812 783.078125 C 168.214844 782.753906 167.566406 782.644531 167.242188 781.667969 C 168.972656 780.585938 170.921875 781.019531 172.761719 781.128906 C 175.25 781.34375 177.628906 781.886719 180.117188 782.101562 C 187.367188 782.96875 194.398438 782.101562 201.214844 779.71875 C 206.734375 777.769531 212.359375 776.144531 218.203125 775.820312 C 222.097656 775.605469 225.992188 775.605469 229.886719 776.144531 C 235.730469 776.902344 241.355469 775.605469 246.765625 773.980469 C 254.445312 771.707031 262.234375 769.863281 270.242188 769.214844 C 276.300781 768.671875 282.359375 768.238281 288.417969 768.457031 C 291.664062 768.457031 294.910156 768.78125 298.15625 768.996094 C 299.453125 768.996094 300.210938 768.996094 300.210938 767.375 C 299.777344 756.976562 299.886719 746.578125 299.128906 736.074219 C 296.316406 736.074219 293.9375 737.480469 290.800781 737.046875 C 291.988281 735.421875 293.613281 735.421875 294.910156 734.773438 C 296.207031 734.230469 297.832031 734.015625 298.695312 733.148438 C 299.671875 732.171875 298.589844 730.65625 298.480469 729.464844 C 298.15625 720.691406 297.074219 712.027344 296.964844 703.253906 C 296.964844 701.957031 296.535156 700.980469 295.777344 700.007812 C 294.152344 698.054688 292.960938 695.890625 292.207031 693.507812 C 291.554688 691.558594 291.230469 689.390625 291.988281 687.441406 C 293.179688 684.410156 292.746094 681.269531 293.289062 678.234375 C 293.613281 676.285156 292.960938 674.878906 291.125 673.363281 C 286.902344 670.003906 281.925781 668.703125 276.949219 667.082031 C 267.96875 664.046875 258.882812 661.230469 249.902344 658.199219 C 249.144531 657.984375 248.496094 657.65625 247.738281 657.984375 C 241.355469 660.257812 234.753906 661.015625 228.261719 662.855469 C 224.910156 663.832031 223.285156 665.347656 222.636719 668.8125 C 221.449219 674.769531 220.367188 680.726562 220.148438 686.792969 C 220.148438 688.957031 219.714844 691.015625 217.984375 692.75 C 216.46875 690.691406 216.902344 688.417969 217.121094 686.359375 C 217.660156 680.292969 218.742188 674.445312 220.257812 668.488281 C 221.449219 664.046875 222.3125 659.390625 223.070312 654.839844 C 223.9375 649.644531 222.53125 644.550781 221.230469 639.460938 C 221.230469 639.027344 220.796875 638.703125 220.582031 638.378906 C 217.121094 634.261719 214.523438 629.390625 211.167969 625.273438 C 209.980469 623.757812 208.679688 622.242188 206.734375 621.375 C 205.867188 622.566406 206.300781 623.867188 206.300781 625.058594 C 206.515625 630.253906 206.085938 635.453125 204.675781 640.4375 C 204.136719 642.496094 203.378906 644.335938 201.214844 645.203125 C 200.457031 645.527344 199.808594 646.175781 199.375 647.042969 C 196.886719 651.265625 194.398438 655.382812 192.019531 659.605469 C 191.476562 660.472656 191.152344 661.558594 190.9375 662.640625 C 190.289062 665.890625 188.773438 668.703125 187.152344 671.519531 C 184.335938 676.394531 181.742188 681.378906 179.683594 686.574219 C 177.195312 692.964844 173.734375 698.597656 168.648438 703.472656 C 163.5625 708.453125 159.128906 714.300781 155.125 720.367188 C 150.363281 727.734375 147.445312 736.074219 143.441406 743.871094 C 139.871094 750.800781 136.625 757.84375 133.054688 765.207031 C 132.40625 763.90625 133.054688 763.039062 133.269531 762.28125 C 139.328125 745.820312 146.902344 730.007812 156.640625 715.386719 C 160.96875 708.886719 165.511719 702.605469 170.921875 696.972656 C 174.492188 693.289062 176.765625 688.742188 177.628906 683.542969 C 178.277344 679.644531 179.683594 676.070312 182.171875 672.929688 C 183.6875 670.980469 184.878906 668.8125 185.636719 666.429688 C 185.851562 665.890625 185.960938 665.347656 186.285156 664.914062 C 190.289062 658.742188 193.210938 651.917969 196.671875 645.417969 C 197.320312 644.121094 197.753906 642.820312 197.863281 641.410156 C 197.96875 635.671875 198.945312 630.039062 199.375 624.300781 C 199.484375 622.78125 199.808594 621.265625 200.351562 619.859375 C 201.433594 617.152344 202.839844 616.390625 205.652344 617.042969 C 206.410156 617.257812 207.167969 617.476562 208.355469 617.800781 C 204.570312 605.886719 200.675781 594.296875 201.539062 581.734375 C 201.863281 581.734375 202.1875 581.734375 202.296875 581.84375 C 203.703125 584.660156 206.191406 585.632812 209.113281 586.175781 C 215.605469 587.257812 222.203125 587.691406 228.804688 588.015625 C 236.703125 588.449219 244.601562 588.015625 252.5 587.691406 C 261.371094 587.367188 270.242188 586.824219 279.007812 586.066406 C 285.28125 585.523438 291.554688 585.199219 297.722656 584.875 C 298.15625 584.875 298.589844 584.875 299.023438 584.875 C 302.375 584.875 304.972656 584.226562 306.488281 580.328125 C 308 576.425781 310.707031 573.070312 312.871094 569.386719 C 313.734375 567.980469 314.492188 566.570312 315.25 565.164062 C 314.386719 564.296875 313.519531 564.511719 312.652344 564.621094 C 300.105469 564.945312 287.554688 564.945312 275.003906 566.03125 C 255.851562 567.652344 236.703125 569.277344 217.769531 573.394531 C 213.765625 574.261719 209.761719 575.234375 205.976562 576.859375 C 205.003906 577.292969 204.027344 577.835938 202.730469 577.511719 C 203.269531 575.667969 204.894531 575.019531 206.410156 574.371094 C 210.628906 572.746094 215.0625 571.660156 219.5 570.796875 C 230.859375 568.414062 242.328125 567.003906 253.796875 565.597656 C 273.597656 563.105469 293.503906 562.78125 313.410156 562.347656 C 316.117188 562.347656 317.523438 561.480469 318.820312 558.988281 C 324.769531 547.726562 330.398438 536.246094 336.132812 524.765625 C 337.214844 522.597656 337.863281 520.105469 340.027344 518.699219 C 336.890625 525.738281 333.75 532.886719 330.503906 539.925781 C 327.261719 546.96875 323.796875 554.007812 320.445312 561.046875 C 320.660156 561.046875 320.875 561.265625 320.984375 561.265625 C 328.882812 547.507812 335.914062 533.210938 341.542969 517.832031 C 340.675781 518.375 340.351562 518.589844 339.917969 518.808594 Z M 283.660156 633.613281 C 286.039062 631.015625 287.660156 627.980469 289.71875 625.273438 C 290.042969 624.839844 290.148438 624.296875 290.257812 623.757812 C 290.257812 623.214844 290.257812 622.675781 289.609375 622.457031 C 289.066406 622.347656 288.742188 622.675781 288.636719 623 C 286.902344 626.464844 284.742188 629.714844 283.441406 633.398438 C 282.46875 634.15625 282.144531 635.238281 281.925781 636.320312 C 282.792969 635.5625 283.441406 634.695312 283.660156 633.503906 Z M 426.257812 635.453125 C 426.6875 642.710938 427.339844 649.75 427.664062 656.789062 C 428.203125 670.113281 428.09375 683.433594 427.769531 696.757812 C 427.664062 704.339844 427.339844 711.917969 426.90625 719.394531 C 426.6875 722.96875 425.933594 726.433594 424.742188 729.789062 C 423.769531 732.390625 422.035156 734.121094 419.441406 735.207031 C 416.734375 736.289062 413.8125 736.613281 410.894531 737.046875 C 401.15625 738.453125 391.417969 739.429688 381.898438 741.921875 C 377.351562 743.113281 374.972656 746.035156 373.457031 750.042969 C 372.699219 751.992188 373.242188 753.617188 374.757812 755.027344 C 375.839844 756 377.027344 756.652344 378.328125 757.191406 C 381.574219 758.707031 385.144531 759.359375 388.605469 760.007812 C 396.394531 761.417969 404.292969 761.632812 412.082031 762.28125 C 421.496094 763.148438 430.800781 763.472656 440.214844 763.472656 C 444.539062 763.472656 448.867188 763.257812 453.195312 763.472656 C 461.417969 763.90625 469.640625 763.472656 477.757812 762.609375 C 480.027344 762.390625 482.191406 761.847656 484.355469 760.875 C 490.957031 757.734375 491.605469 751.234375 486.085938 746.578125 C 481.542969 742.789062 476.132812 740.945312 470.617188 739.429688 C 464.554688 737.804688 458.28125 737.15625 452.113281 736.070312 C 448.21875 735.421875 444.757812 733.796875 441.402344 731.523438 C 439.78125 730.441406 438.265625 728.921875 437.941406 726.972656 C 437.507812 724.484375 436.316406 722.316406 435.886719 719.824219 C 434.15625 711.160156 434.15625 702.386719 434.15625 693.617188 C 434.15625 685.816406 434.910156 678.128906 435.128906 670.328125 C 435.238281 665.347656 435.5625 660.363281 435.992188 655.492188 C 436.210938 653.324219 435.992188 651.484375 434.261719 649.859375 C 433.503906 649.101562 432.964844 648.125 432.316406 647.261719 C 431.125 645.636719 430.910156 643.902344 431.125 641.953125 C 431.339844 640.21875 433.074219 640.003906 434.480469 638.921875 C 431.558594 637.621094 428.851562 636.429688 426.148438 635.238281 Z M 432.964844 578.160156 C 433.9375 578.375 433.9375 579.027344 434.046875 579.460938 C 434.804688 583.140625 435.5625 586.824219 436.316406 590.613281 C 436.96875 593.863281 437.832031 597.113281 439.132812 600.253906 C 439.457031 601.121094 439.886719 601.769531 440.96875 601.230469 C 444.972656 599.171875 449.191406 597.980469 453.519531 597.003906 C 454.496094 596.789062 454.820312 596.355469 454.710938 595.488281 C 454.710938 594.839844 454.601562 594.1875 454.496094 593.539062 C 454.277344 589.964844 453.519531 586.5 453.738281 582.925781 C 453.738281 582.058594 453.738281 581.191406 454.820312 580.976562 C 455.46875 585.523438 456.117188 589.964844 456.550781 594.40625 C 456.765625 596.140625 457.523438 596.246094 458.929688 595.921875 C 461.417969 595.378906 464.015625 595.054688 466.613281 594.621094 C 471.589844 593.863281 476.675781 593.539062 481.757812 593.105469 C 482.949219 593.105469 484.570312 593.324219 485.4375 592.347656 C 486.195312 591.589844 485.4375 590.289062 485.871094 589.207031 C 485.980469 588.773438 486.085938 588.339844 486.085938 587.90625 C 486.085938 587.367188 486.085938 586.714844 486.953125 586.824219 C 487.710938 586.824219 487.601562 587.582031 487.601562 588.125 C 487.601562 588.992188 487.601562 589.855469 487.601562 590.722656 C 487.492188 592.132812 487.925781 592.78125 489.441406 592.566406 C 490.632812 592.347656 491.820312 592.347656 493.011719 592.238281 C 495.285156 592.023438 495.285156 592.023438 494.417969 589.964844 C 492.144531 584.765625 489.765625 579.675781 487.601562 574.476562 C 486.953125 572.851562 485.871094 572.3125 484.140625 572.203125 C 471.589844 571.226562 458.929688 570.792969 446.378906 568.953125 C 436.859375 567.546875 427.015625 567.652344 417.601562 564.621094 C 417.382812 579.894531 419.65625 594.296875 428.09375 607.402344 C 429.070312 606.320312 429.71875 605.019531 431.664062 604.695312 C 431.234375 605.34375 431.125 605.5625 430.910156 605.886719 C 429.175781 608.269531 429.285156 608.917969 431.882812 610.003906 C 434.695312 611.195312 437.726562 611.734375 440.96875 611.84375 C 434.695312 599.496094 432.855469 586.066406 433.074219 578.050781 Z M 292.207031 588.558594 C 289.71875 589.097656 287.335938 588.882812 284.957031 588.992188 C 275.652344 589.640625 266.457031 590.507812 257.152344 590.941406 C 248.386719 591.375 239.625 591.804688 230.859375 591.375 C 223.613281 591.046875 216.46875 590.398438 209.328125 588.773438 C 207.492188 588.339844 205.757812 587.691406 203.8125 587.148438 C 204.027344 590.183594 204.570312 592.78125 205.21875 595.378906 C 206.839844 602.097656 208.03125 608.917969 210.953125 615.308594 C 213.226562 620.183594 215.0625 625.382812 218.527344 629.605469 C 220.472656 631.988281 222.203125 634.371094 224.152344 636.753906 C 226.207031 639.246094 228.265625 641.734375 231.078125 643.578125 C 233.132812 644.984375 235.1875 646.394531 237.136719 648.019531 C 239.40625 649.859375 241.679688 651.808594 244.492188 652.675781 C 247.089844 653.433594 249.578125 654.515625 251.957031 655.816406 C 256.285156 658.089844 260.9375 659.605469 265.589844 660.90625 C 267.753906 661.449219 268.296875 661.230469 268.726562 659.066406 C 269.050781 657.550781 269.269531 656.03125 269.703125 654.625 C 270.027344 653.648438 269.703125 653.109375 268.945312 652.457031 C 259.421875 644.335938 252.5 634.15625 247.523438 622.675781 C 246.871094 621.265625 246.007812 620.617188 244.382812 620.507812 C 240.597656 620.183594 236.917969 619.640625 233.132812 619.207031 C 232.375 619.207031 231.507812 618.558594 230.535156 619.207031 C 230.859375 619.859375 231.078125 620.617188 231.507812 621.265625 C 235.1875 628.089844 239.839844 634.15625 245.25 639.679688 C 249.6875 644.335938 254.878906 648.125 260.074219 651.808594 C 260.9375 652.457031 262.128906 652.890625 262.5625 654.191406 C 258.449219 653.648438 255.09375 652.351562 251.308594 649.425781 C 241.355469 641.734375 233.566406 632.3125 228.371094 620.832031 C 227.398438 618.773438 226.316406 617.800781 224.152344 617.582031 C 221.664062 617.257812 219.285156 616.5 216.902344 615.960938 C 215.605469 615.742188 214.738281 615.199219 214.738281 613.578125 C 218.417969 613.683594 221.773438 615.308594 225.667969 615.09375 C 224.910156 611.625 223.503906 608.484375 222.203125 605.453125 C 221.339844 603.179688 221.230469 603.179688 218.742188 603.828125 C 216.6875 604.371094 214.632812 605.019531 212.46875 605.5625 C 211.820312 605.777344 211.167969 605.777344 210.84375 605.019531 C 210.628906 604.152344 211.167969 603.828125 211.820312 603.613281 C 213.550781 603.070312 215.28125 602.421875 217.011719 601.878906 C 219.714844 601.011719 219.714844 601.121094 219.609375 598.304688 C 219.609375 597.980469 219.714844 597.871094 220.257812 597.871094 C 221.230469 599.496094 222.203125 600.796875 224.800781 600.144531 C 236.59375 597.546875 248.605469 597.546875 260.613281 597.003906 C 267.753906 596.679688 275.109375 596.898438 282.359375 597.003906 C 283.441406 597.003906 284.523438 597.332031 285.28125 596.246094 C 287.335938 593.429688 289.933594 591.15625 292.207031 588.558594 Z M 597.742188 598.304688 C 597.199219 598.304688 596.984375 598.089844 596.875 598.195312 C 588.761719 601.445312 580.324219 603.828125 571.882812 606.210938 C 570.152344 606.753906 569.070312 607.511719 568.421875 609.136719 C 566.90625 612.492188 565.285156 615.742188 563.121094 618.773438 C 562.144531 620.183594 561.0625 621.484375 559.441406 622.347656 C 560.957031 617.042969 564.742188 612.925781 566.796875 608.050781 C 566.367188 607.621094 565.933594 607.835938 565.5 607.835938 C 557.277344 609.351562 549.054688 610.652344 540.832031 611.410156 C 539.316406 611.519531 538.777344 612.386719 538.453125 613.578125 C 537.695312 616.824219 536.722656 620.074219 535.421875 623.105469 C 534.882812 624.40625 534.339844 625.816406 532.394531 625.707031 C 531.3125 620.722656 535.207031 616.933594 535.53125 612.386719 C 533.800781 611.734375 532.71875 612.167969 532.175781 614.007812 C 531.636719 615.632812 530.445312 617.042969 529.472656 618.449219 C 528.066406 620.398438 526.335938 621.914062 524.601562 623.757812 C 525.253906 624.625 525.902344 625.382812 526.441406 626.140625 C 527.742188 628.089844 529.363281 628.847656 531.746094 629.28125 C 545.59375 631.773438 559.441406 634.15625 572.964844 638.054688 C 581.730469 640.652344 590.601562 643.144531 599.472656 645.203125 C 601.636719 645.636719 602.503906 644.984375 602.394531 642.710938 C 602.394531 640.976562 601.636719 639.351562 600.769531 637.835938 C 598.5 633.398438 596.226562 628.957031 593.523438 624.839844 C 592.117188 622.675781 590.816406 620.507812 589.300781 618.125 C 583.570312 624.40625 579.242188 631.554688 571.992188 635.996094 C 581.621094 624.191406 590.710938 612.058594 597.742188 598.304688 Z M 488.792969 558.339844 C 489.875 561.371094 491.0625 564.078125 491.820312 566.894531 C 492.46875 569.386719 493.875 570.253906 496.363281 570.363281 C 507.292969 571.011719 518.113281 571.878906 528.929688 572.746094 C 542.886719 573.828125 556.953125 574.367188 570.910156 575.019531 C 577.726562 575.34375 584.542969 575.558594 591.359375 575.667969 C 595.363281 575.667969 599.363281 575.667969 603.367188 575.019531 C 605.316406 574.695312 605.964844 572.960938 604.773438 571.554688 C 603.585938 570.144531 602.175781 568.953125 600.230469 568.628906 C 587.355469 566.679688 574.371094 564.621094 561.390625 563.105469 C 552.734375 562.128906 543.96875 561.695312 535.316406 560.832031 C 522.222656 559.53125 509.132812 558.015625 495.933594 558.230469 C 493.660156 558.230469 491.386719 557.796875 488.898438 558.230469 Z M 605.316406 578.703125 C 568.636719 579.132812 532.285156 576.210938 495.824219 573.285156 C 495.5 573.285156 495.175781 573.503906 494.632812 573.609375 C 497.230469 579.027344 499.71875 584.441406 502.207031 589.75 C 502.640625 590.722656 503.398438 591.046875 504.480469 591.265625 C 507.292969 591.699219 509.78125 590.832031 512.484375 590.398438 C 514.433594 590.074219 515.40625 589.207031 515.625 587.148438 C 515.625 585.847656 515.625 584.117188 517.136719 583.140625 C 517.789062 584.441406 517.355469 585.632812 517.136719 586.824219 C 516.8125 589.53125 516.8125 589.53125 519.625 589.964844 C 521.574219 590.289062 523.523438 589.855469 525.46875 589.75 C 533.691406 589.316406 541.804688 588.773438 550.027344 588.339844 C 560.308594 587.691406 570.585938 587.257812 580.863281 587.367188 C 584.976562 587.367188 589.085938 587.90625 593.089844 588.992188 C 596.011719 589.75 598.605469 590.832031 599.796875 594.1875 C 601.421875 591.480469 602.394531 588.664062 603.367188 585.957031 C 604.234375 583.683594 605.097656 581.300781 605.316406 578.917969 Z M 354.199219 532.996094 C 357.230469 534.511719 360.152344 534.621094 363.070312 534.726562 C 376.269531 535.269531 389.472656 534.945312 402.5625 535.59375 C 408.621094 535.917969 414.679688 536.027344 420.628906 536.351562 C 428.746094 536.785156 436.75 537.328125 444.867188 537.652344 C 454.0625 537.976562 463.257812 537.4375 472.453125 537.21875 C 473.105469 537.21875 473.753906 537.328125 474.292969 536.679688 C 473.535156 533.863281 472.777344 530.9375 472.023438 528.011719 C 471.699219 526.929688 471.15625 526.28125 469.75 526.28125 C 460.121094 526.28125 450.492188 525.847656 440.863281 525.847656 C 426.582031 525.847656 412.300781 526.28125 398.019531 526.28125 C 386.875 526.28125 375.730469 527.253906 364.695312 528.554688 C 360.800781 528.988281 357.011719 529.746094 353.984375 532.996094 Z M 311.679688 583.792969 C 318.496094 583.140625 325.203125 582.601562 331.804688 581.84375 C 341.324219 580.867188 350.847656 579.785156 360.367188 578.59375 C 366.640625 577.835938 372.917969 576.75 379.085938 574.800781 C 380.273438 574.476562 381.355469 574.042969 382.222656 573.175781 C 383.085938 572.3125 382.980469 571.445312 382.222656 570.6875 C 381.464844 569.929688 380.382812 569.496094 379.410156 569.171875 C 377.136719 568.519531 374.757812 568.085938 372.484375 567.761719 C 362.097656 566.460938 351.601562 565.8125 341.21875 565.164062 C 335.375 564.839844 329.53125 564.730469 323.796875 564.511719 C 322.28125 564.511719 321.527344 565.054688 320.769531 566.355469 C 318.710938 570.035156 316.550781 573.609375 314.492188 577.292969 C 313.410156 579.132812 312.222656 580.976562 311.789062 583.683594 Z M 295.125 683.21875 C 293.613281 684.84375 293.394531 686.140625 293.289062 687.660156 C 293.289062 693.074219 295.882812 697.082031 299.671875 700.546875 C 301.835938 702.496094 304.324219 704.011719 306.8125 705.53125 C 309.082031 706.9375 310.273438 708.886719 310.164062 711.703125 C 310.164062 713.4375 310.164062 715.167969 310.273438 716.902344 C 310.488281 721.234375 310.816406 725.457031 311.679688 730.113281 C 316.875 727.515625 322.390625 726.109375 326.828125 722.535156 C 330.722656 719.394531 333.101562 715.277344 334.402344 710.402344 C 335.050781 707.914062 334.832031 706.070312 332.453125 704.664062 C 331.695312 704.230469 331.046875 703.253906 330.398438 702.605469 C 327.910156 699.898438 325.421875 697.191406 322.5 695.023438 C 319.46875 692.75 316.550781 690.367188 313.519531 688.09375 C 312.980469 687.660156 312.652344 686.792969 311.789062 687.226562 C 311.789062 688.308594 311.789062 689.390625 311.570312 690.476562 C 311.140625 693.617188 309.082031 694.914062 306.054688 694.15625 C 304.429688 693.722656 303.023438 693.074219 301.835938 691.882812 C 300.535156 690.691406 299.238281 689.609375 297.832031 688.632812 C 296.207031 687.441406 294.910156 686.035156 295.019531 683.433594 Z M 459.796875 612.925781 C 458.066406 611.300781 457.523438 609.675781 456.984375 608.050781 C 456.226562 605.777344 455.902344 603.394531 455.578125 601.121094 C 455.46875 599.929688 454.925781 599.28125 453.628906 599.605469 C 449.300781 600.796875 444.867188 601.664062 440.320312 602.527344 C 441.1875 605.777344 443.242188 608.160156 443.785156 611.195312 C 444 612.492188 444.757812 612.925781 445.949219 613.144531 C 448.542969 613.46875 451.03125 613.792969 453.628906 614.007812 C 458.605469 614.335938 463.582031 614.007812 468.558594 614.007812 C 473.210938 614.007812 477.863281 613.683594 482.515625 613.46875 C 483.707031 613.46875 484.464844 613.035156 484.464844 611.519531 C 484.679688 606.210938 485.113281 601.011719 485.546875 595.597656 C 482.300781 595.273438 479.054688 595.707031 475.808594 596.03125 C 470.398438 596.464844 465.097656 597.332031 459.796875 598.304688 C 457.847656 598.628906 457.308594 598.847656 457.742188 601.230469 C 458.496094 604.910156 459.6875 608.484375 459.6875 612.925781 Z M 575.128906 591.589844 C 574.804688 595.273438 572.640625 598.414062 571.882812 602.097656 C 577.183594 601.664062 594.0625 595.921875 596.226562 593.863281 C 595.46875 592.671875 594.171875 592.457031 592.875 592.023438 C 590.167969 591.265625 587.355469 590.832031 584.542969 590.613281 C 571.558594 589.75 558.574219 590.941406 545.699219 591.046875 C 544.078125 591.046875 543.429688 591.804688 543.105469 593.214844 C 542.238281 597.222656 541.265625 601.230469 540.292969 605.238281 C 540.074219 605.886719 539.75 606.644531 540.507812 607.621094 C 549.164062 606.753906 557.925781 605.5625 566.582031 603.828125 C 568.53125 603.394531 569.71875 602.527344 570.585938 600.578125 C 571.882812 597.546875 572.964844 594.296875 575.128906 591.589844 Z M 498.203125 554.65625 C 504.15625 554.546875 509.890625 554.875 515.730469 555.523438 C 516.707031 555.523438 517.03125 555.089844 517.136719 554.222656 C 517.460938 551.191406 518.003906 548.265625 518.113281 545.234375 C 518.21875 541.445312 519.085938 537.761719 518.542969 533.96875 C 518.21875 533.96875 518.003906 533.863281 517.789062 533.96875 C 509.238281 536.785156 500.367188 537.761719 491.386719 538.519531 C 489.007812 538.734375 486.628906 538.734375 484.246094 538.953125 C 482.082031 539.167969 481.867188 539.710938 482.515625 541.660156 C 483.382812 544.367188 484.570312 546.859375 485.222656 549.566406 C 486.085938 552.925781 487.492188 554.765625 491.605469 554.546875 C 496.796875 554.222656 495.933594 555.523438 496.90625 549.890625 C 497.121094 548.917969 496.472656 547.726562 497.988281 546.96875 C 498.527344 549.566406 498.3125 551.949219 498.203125 554.765625 Z M 307.675781 614.007812 C 308.652344 614.117188 309.082031 613.792969 309.515625 613.578125 C 315.25 610.21875 318.929688 605.5625 319.902344 598.847656 C 320.445312 595.054688 319.792969 592.566406 316.441406 590.613281 C 314.601562 589.53125 312.4375 588.882812 310.382812 588.449219 C 304.863281 587.367188 299.453125 588.664062 294.042969 589.75 C 291.230469 590.289062 289.71875 593.105469 289.71875 596.03125 C 289.71875 601.664062 290.800781 607.1875 291.339844 612.710938 C 291.339844 613.683594 291.773438 614.335938 292.746094 614.660156 C 296.207031 616.175781 299.777344 616.390625 303.566406 615.851562 C 304.863281 615.632812 305.296875 614.875 305.40625 613.683594 C 305.730469 611.625 305.511719 609.570312 305.511719 607.511719 C 305.511719 606.429688 305.1875 605.128906 306.59375 604.261719 C 307.675781 607.511719 307.460938 610.761719 307.675781 614.007812 Z M 485.222656 569.0625 C 484.140625 566.03125 482.949219 562.996094 481.976562 559.964844 C 481.433594 558.339844 480.570312 557.796875 478.945312 557.796875 C 474.1875 557.796875 469.425781 557.796875 464.664062 557.90625 C 455.359375 558.230469 446.054688 558.121094 436.859375 558.988281 C 431.992188 559.421875 427.230469 560.074219 422.46875 560.722656 C 421.496094 560.832031 420.304688 560.9375 419.871094 562.238281 C 425.175781 564.511719 477.105469 570.035156 485.328125 569.171875 Z M 262.019531 600.253906 C 263.859375 606.101562 265.699219 611.734375 267.429688 617.367188 C 267.863281 618.773438 268.835938 618.667969 269.917969 618.667969 C 275.4375 618.667969 280.84375 618.882812 286.363281 618.992188 C 287.445312 618.992188 288.960938 619.75 289.5 618.234375 C 289.933594 617.042969 289.066406 616.066406 288.09375 615.199219 C 287.878906 614.984375 287.554688 614.769531 287.335938 614.550781 C 284.632812 611.84375 283.007812 608.703125 282.683594 604.804688 C 282.578125 603.070312 282.902344 601.445312 283.117188 599.496094 L 262.019531 600.039062 Z M 250.226562 621.484375 C 250.226562 621.914062 250.226562 622.242188 250.226562 622.347656 C 254.769531 631.121094 260.289062 639.246094 267.429688 646.175781 C 272.621094 651.160156 271.324219 650.402344 274.570312 644.769531 C 275.003906 643.902344 275.4375 643.144531 274.785156 642.0625 C 271.109375 636.105469 268.402344 629.824219 266.132812 623.214844 C 265.699219 622.023438 265.050781 621.589844 263.75 621.589844 C 260.9375 621.589844 258.125 621.265625 255.3125 621.265625 C 253.582031 621.265625 251.851562 620.617188 250.117188 621.375 Z M 242.003906 601.011719 C 241.789062 601.664062 242.003906 602.097656 242.21875 602.636719 C 243.300781 606.535156 245.25 610.003906 246.441406 613.902344 C 247.414062 616.933594 248.710938 618.992188 252.390625 618.234375 C 252.824219 618.234375 253.257812 618.34375 253.6875 618.34375 C 257.152344 618.34375 260.722656 618.992188 264.398438 618.234375 C 262.886719 612.492188 261.371094 606.96875 259.964844 601.445312 C 259.640625 600.144531 258.664062 600.144531 257.691406 600.144531 C 252.929688 600.253906 248.171875 600.363281 243.410156 600.578125 C 242.871094 600.578125 242.328125 600.578125 242.003906 601.121094 Z M 477.972656 526.714844 C 478.839844 529.53125 479.703125 532.128906 480.351562 534.726562 C 480.785156 536.351562 481.757812 536.785156 483.164062 536.570312 C 486.953125 535.917969 490.738281 536.027344 494.417969 535.703125 C 501.558594 534.945312 508.589844 534.1875 515.40625 532.128906 C 515.949219 531.914062 516.707031 532.128906 516.8125 531.046875 C 514.433594 529.53125 511.730469 528.878906 508.914062 528.445312 C 503.289062 527.472656 497.554688 527.253906 491.820312 527.039062 C 487.277344 526.820312 482.734375 526.28125 477.757812 526.820312 Z M 245.25 617.691406 C 244.816406 616.390625 244.601562 615.632812 244.382812 614.769531 C 243.195312 610.542969 241.03125 606.535156 240.921875 601.988281 C 240.921875 600.6875 239.949219 600.796875 239.082031 600.90625 C 234.753906 600.90625 230.425781 601.554688 226.207031 602.3125 C 225.234375 602.421875 224.261719 602.421875 223.503906 603.179688 C 225.019531 606.859375 226.53125 610.652344 228.046875 614.335938 C 228.371094 615.09375 228.695312 616.066406 229.671875 616.175781 C 234.648438 616.824219 239.730469 617.691406 245.25 617.800781 Z M 500.800781 612.816406 C 502.855469 612.601562 505.667969 612.386719 508.484375 612.167969 C 509.890625 612.058594 510.863281 611.519531 511.1875 609.894531 C 511.511719 608.050781 512.160156 606.320312 512.484375 604.585938 C 513.136719 601.445312 513.785156 598.304688 514.324219 595.054688 C 514.648438 593.214844 514.324219 592.996094 512.484375 592.996094 C 508.699219 592.996094 505.238281 594.1875 502.640625 597.113281 C 500.476562 599.496094 498.636719 602.203125 497.445312 605.238281 C 496.90625 606.535156 496.582031 607.835938 496.472656 609.351562 C 496.472656 613.035156 496.367188 613.035156 500.800781 612.925781 Z M 529.796875 612.167969 C 524.171875 612.925781 518.976562 613.578125 513.675781 614.226562 C 512.59375 614.335938 512.054688 615.199219 511.730469 616.175781 C 511.1875 617.476562 510.972656 619.101562 509.671875 620.074219 C 508.914062 618.34375 509.671875 616.71875 509.566406 614.984375 C 505.453125 614.984375 501.449219 614.875 497.339844 616.066406 C 498.746094 619.964844 501.125 622.675781 504.804688 623.867188 C 514 627.007812 524.277344 624.191406 529.796875 612.167969 Z M 329.316406 618.992188 C 333.425781 619.640625 337.539062 619.316406 341.648438 619.207031 C 342.839844 619.207031 343.378906 618.558594 343.8125 617.582031 C 345.542969 614.226562 347.277344 610.867188 349.007812 607.511719 C 349.332031 606.753906 349.980469 605.996094 349.441406 604.910156 C 344.570312 604.371094 339.703125 603.828125 334.832031 603.179688 C 333.210938 602.960938 332.667969 603.613281 332.453125 605.019531 C 332.019531 607.078125 331.480469 609.242188 331.046875 611.300781 C 330.503906 613.792969 329.53125 616.175781 329.316406 618.882812 Z M 308.652344 619.101562 C 314.277344 619.535156 319.6875 619.207031 325.203125 619.316406 C 326.070312 619.316406 326.503906 618.882812 326.828125 618.015625 C 328.234375 613.578125 329.640625 609.136719 330.722656 604.695312 C 331.046875 603.289062 330.613281 602.746094 329.207031 602.636719 C 327.585938 602.636719 325.960938 602.421875 324.445312 602.097656 C 323.257812 601.878906 322.714844 602.203125 322.390625 603.394531 C 320.550781 609.675781 316.117188 613.792969 310.597656 616.933594 C 309.839844 617.367188 308.867188 617.476562 308.867188 619.101562 Z M 346.734375 619.316406 C 351.277344 619.207031 355.714844 618.992188 360.042969 618.449219 C 360.691406 618.449219 361.339844 618.234375 361.664062 617.582031 C 363.394531 614.550781 365.234375 611.519531 366.425781 608.050781 C 362.097656 606.859375 357.878906 606.535156 353.765625 605.667969 C 352.683594 605.453125 352.035156 605.886719 351.601562 607.078125 C 350.414062 610.003906 349.113281 612.816406 347.816406 615.632812 C 347.382812 616.71875 346.519531 617.691406 346.734375 619.316406 Z M 499.71875 597.4375 C 501.558594 595.488281 501.667969 595.488281 501.015625 594.1875 C 498.203125 588.558594 496.367188 582.601562 493.769531 576.859375 C 491.714844 572.3125 489.441406 567.980469 487.492188 563.320312 C 483.597656 554.007812 480.570312 544.476562 477.648438 534.835938 C 475.59375 528.339844 473.96875 521.730469 472.128906 515.234375 C 471.914062 514.367188 471.804688 513.5 471.265625 512.851562 C 470.941406 512.308594 470.289062 512.308594 469.859375 512.523438 C 469.316406 512.742188 469.316406 513.175781 469.425781 513.609375 C 469.535156 514.148438 469.75 514.691406 469.859375 515.125 C 471.371094 520.539062 472.777344 525.957031 474.511719 531.371094 C 477.757812 541.769531 481.109375 552.164062 485.113281 562.347656 C 486.410156 565.8125 487.925781 569.171875 489.332031 572.527344 C 492.6875 580.867188 496.796875 588.773438 499.828125 597.546875 Z M 287.445312 622.242188 C 283.875 622.132812 280.953125 621.914062 278.03125 622.023438 C 275.21875 622.023438 272.296875 621.375 269.160156 622.242188 C 271.324219 628.304688 273.8125 634.046875 277.382812 639.679688 C 280.84375 633.722656 283.984375 628.304688 287.445312 622.242188 Z M 486.628906 612.601562 C 488.46875 613.25 490.304688 612.492188 492.039062 612.492188 C 493.335938 612.492188 493.875 611.953125 493.984375 610.542969 C 494.203125 606.535156 495.609375 602.960938 497.988281 599.820312 C 498.636719 598.953125 498.746094 598.304688 498.203125 597.222656 C 497.230469 595.054688 495.933594 593.972656 493.550781 594.40625 C 492.039062 594.730469 490.523438 594.839844 489.117188 594.949219 C 488.035156 594.949219 487.601562 595.597656 487.492188 596.570312 C 487.492188 597.4375 487.277344 598.304688 487.277344 599.171875 C 487.0625 603.613281 486.84375 607.945312 486.519531 612.601562 Z M 223.828125 662.207031 C 230.535156 659.28125 236.8125 657.65625 243.519531 655.816406 C 239.730469 653.648438 236.160156 652.027344 232.914062 650.074219 C 229.5625 648.019531 227.074219 644.878906 223.179688 642.0625 C 225.667969 648.882812 225.34375 655.167969 223.71875 662.207031 Z M 408.40625 578.703125 C 409.378906 578.703125 410.351562 578.703125 411.324219 578.703125 C 414.355469 578.558594 415.871094 577.003906 415.871094 574.042969 C 415.871094 572.636719 415.871094 571.226562 415.871094 569.820312 C 415.871094 568.953125 415.546875 568.628906 414.789062 568.628906 C 410.242188 568.304688 405.808594 567.652344 401.265625 567.871094 C 400.183594 567.871094 399.964844 568.410156 400.074219 569.277344 C 400.613281 572.09375 401.15625 575.019531 402.019531 577.726562 C 402.347656 578.917969 403.101562 579.132812 404.183594 579.027344 C 405.589844 578.917969 406.996094 579.027344 408.40625 578.917969 Z M 519.519531 610.652344 C 522.765625 610.109375 525.902344 609.570312 529.148438 609.242188 C 530.769531 609.027344 531.09375 608.378906 530.988281 606.96875 C 530.988281 601.878906 526.117188 594.621094 521.574219 592.78125 C 518.542969 591.589844 516.164062 592.78125 515.949219 596.03125 C 515.839844 597.546875 515.300781 599.0625 515.515625 600.6875 C 516.488281 600.6875 516.707031 600.039062 517.246094 599.605469 C 519.84375 597.113281 522.871094 599.496094 523.089844 602.09375 C 523.304688 604.804688 522.871094 607.1875 520.816406 609.242188 C 520.382812 609.675781 519.734375 609.894531 519.625 610.761719 Z M 526.335938 592.347656 C 526.984375 593.863281 528.066406 594.40625 528.824219 595.273438 C 531.417969 598.523438 532.933594 602.3125 533.476562 606.429688 C 533.691406 607.945312 535.53125 608.917969 536.613281 607.835938 C 537.152344 607.402344 537.261719 606.535156 537.476562 605.777344 C 538.453125 602.527344 539.425781 599.171875 540.292969 595.8125 C 540.617188 594.515625 541.375 593.214844 540.941406 591.480469 C 536.179688 591.480469 531.417969 591.480469 526.335938 592.238281 Z M 309.839844 688.523438 C 310.058594 687.550781 309.515625 686.46875 308.757812 685.816406 C 306.59375 683.757812 304.539062 681.484375 301.941406 679.96875 C 300.105469 678.992188 298.480469 679.210938 297.398438 680.726562 C 296.316406 682.242188 296.425781 684.300781 297.941406 685.601562 C 299.023438 686.574219 300.105469 687.660156 301.1875 688.742188 C 302.59375 690.042969 304.214844 691.015625 306.164062 691.558594 C 308.976562 692.316406 309.949219 691.558594 309.839844 688.417969 Z M 475.484375 715.492188 C 473.753906 714.734375 472.023438 713.976562 470.398438 713.21875 C 468.882812 712.570312 467.585938 713.003906 466.613281 714.195312 C 465.636719 715.386719 465.964844 716.683594 466.828125 717.769531 C 469.101562 720.800781 472.023438 723.183594 475.59375 724.699219 C 476.566406 725.132812 477.757812 725.351562 478.621094 724.484375 C 479.269531 723.832031 479.378906 721.34375 478.621094 720.476562 C 478.082031 719.824219 477.429688 719.285156 476.78125 718.632812 C 476.023438 717.984375 475.269531 717.441406 474.617188 716.792969 C 473.429688 715.386719 475.375 716.144531 475.484375 715.386719 Z M 497.664062 622.890625 C 496.90625 621.589844 496.691406 621.050781 496.363281 620.507812 C 496.039062 619.859375 495.714844 619.101562 495.390625 618.449219 C 494.308594 615.960938 494.308594 615.742188 491.496094 615.960938 C 484.570312 616.609375 477.648438 616.609375 470.722656 616.933594 C 470.183594 616.933594 469.640625 616.824219 469.207031 617.800781 C 478.621094 618.992188 487.816406 620.292969 497.554688 623 Z M 364.261719 617.582031 C 366.425781 617.152344 368.15625 616.71875 369.78125 615.960938 C 371.402344 615.308594 372.808594 614.226562 373.78125 612.816406 C 374.757812 611.410156 374.539062 610.761719 373.242188 609.894531 C 371.078125 608.484375 368.375 608.160156 367.832031 609.351562 C 366.640625 611.953125 365.558594 614.660156 364.261719 617.582031 Z M 203.164062 622.242188 C 202.1875 622.675781 202.1875 623.433594 202.082031 624.191406 C 201.324219 629.929688 200.457031 635.671875 199.699219 641.519531 C 199.59375 642.496094 198.726562 643.902344 200.242188 644.226562 C 201.539062 644.445312 201.863281 643.144531 202.082031 641.953125 C 202.1875 641.304688 202.40625 640.652344 202.296875 640.003906 C 202.296875 638.160156 202.515625 636.320312 202.621094 634.480469 C 202.839844 630.363281 203.269531 626.355469 203.054688 622.132812 Z M 514.867188 605.5625 C 514.867188 607.078125 515.949219 608.8125 516.921875 608.917969 C 518.542969 609.136719 519.519531 607.945312 520.058594 606.644531 C 520.492188 605.667969 520.816406 604.585938 520.925781 603.613281 C 521.03125 602.097656 519.953125 601.011719 518.652344 601.121094 C 516.597656 601.335938 514.648438 603.503906 514.757812 605.5625 Z M 287.660156 596.246094 C 283.441406 601.878906 283.660156 607.835938 288.09375 610.867188 C 287.984375 606.101562 287.878906 601.335938 287.660156 596.246094 Z M 343.8125 666.648438 C 345.871094 663.074219 345.976562 656.25 344.460938 652.132812 C 343.8125 653.757812 342.625 655.167969 342.949219 656.789062 C 343.597656 659.824219 343.597656 662.964844 343.921875 666.648438 Z M 524.820312 627.980469 C 523.953125 626.898438 523.953125 625.273438 522.546875 625.382812 C 521.464844 625.382812 520.167969 625.921875 519.625 627.546875 C 521.359375 627.546875 522.65625 628.523438 524.820312 628.089844 Z M 513.675781 608.917969 C 513.675781 609.351562 513.460938 609.894531 513.460938 610.328125 C 513.460938 610.761719 513.460938 611.195312 514 611.300781 C 514.542969 611.300781 515.082031 611.300781 515.40625 610.867188 C 515.730469 610.433594 515.300781 610.109375 514.972656 609.785156 C 514.648438 609.460938 514.542969 608.8125 513.675781 608.8125 Z M 279.332031 641.628906 C 280.089844 640.328125 280.84375 639.679688 280.628906 638.488281 C 279.980469 639.351562 279.4375 640.003906 279.332031 641.628906 Z M 431.882812 612.816406 C 432.640625 614.007812 433.613281 613.792969 434.585938 613.359375 C 433.722656 613.359375 433.074219 612.167969 431.882812 612.816406 Z M 431.882812 612.816406 " fill-opacity="1" fill-rule="nonzero"/></g><path fill="#000000" d="M 713.507812 745.601562 C 711.667969 744.410156 710.804688 743.003906 709.722656 741.8125 C 704.3125 735.746094 699.984375 728.921875 695.441406 722.101562 C 692.519531 717.660156 689.382812 713.4375 685.917969 709.320312 C 673.042969 694.15625 661.683594 677.800781 650.863281 661.125 C 646.859375 654.949219 643.289062 648.558594 640.046875 641.953125 C 632.6875 626.789062 623.273438 612.925781 612.238281 600.253906 C 610.726562 598.523438 608.992188 597.113281 607.371094 595.488281 C 606.828125 594.949219 606.289062 594.40625 605.855469 593.863281 C 605.421875 593.324219 605.207031 592.671875 605.855469 592.132812 C 606.398438 591.804688 606.828125 592.132812 607.261719 592.457031 C 614.621094 598.523438 621.4375 605.238281 627.601562 612.386719 C 630.199219 615.308594 631.824219 619.207031 633.660156 622.675781 C 636.90625 628.632812 639.9375 634.804688 643.074219 640.761719 C 643.507812 641.519531 643.832031 642.386719 644.265625 643.035156 C 649.566406 650.941406 653.246094 659.824219 658.871094 667.511719 C 664.496094 675.203125 670.339844 682.675781 676.289062 690.042969 C 682.671875 698.054688 689.707031 705.636719 695.65625 713.976562 C 702.472656 723.398438 708.53125 733.257812 713.074219 743.980469 C 713.183594 744.304688 713.183594 744.628906 713.398438 745.496094 Z M 713.507812 745.601562 " fill-opacity="1" fill-rule="nonzero"/><path fill="#000000" d="M 357.769531 459.453125 C 357.230469 464.761719 356.90625 470.175781 354.957031 475.160156 C 354.632812 475.808594 354.089844 476.566406 354.199219 477.21875 C 354.308594 480.359375 352.359375 481.222656 349.765625 481.65625 C 346.195312 482.308594 342.730469 482.632812 339.160156 482.847656 C 337.972656 482.847656 336.78125 483.28125 335.484375 483.714844 C 336.890625 485.125 338.726562 485.125 340.242188 485.339844 C 343.054688 485.773438 345.652344 486.640625 348.359375 487.507812 C 351.710938 488.699219 353.117188 490.972656 353.335938 494.328125 C 353.550781 498.011719 353.875 501.585938 354.417969 505.378906 C 355.390625 502.234375 357.011719 499.421875 357.335938 496.0625 C 357.878906 491.839844 359.070312 490.753906 363.070312 489.78125 C 366.210938 489.023438 369.457031 488.589844 372.699219 488.265625 C 374 488.15625 375.1875 487.941406 376.488281 487.289062 C 375.945312 486.097656 374.757812 485.988281 373.78125 485.773438 C 370.96875 485.230469 368.046875 484.691406 365.234375 484.148438 C 361.988281 483.5 360.367188 481.550781 359.824219 478.191406 C 358.960938 472.019531 359.394531 465.738281 359.175781 459.453125 C 360.800781 461.296875 361.015625 463.460938 360.691406 465.628906 C 360.042969 470.070312 360.90625 474.183594 361.988281 478.410156 C 362.53125 480.574219 363.828125 481.65625 366.210938 482.199219 C 370.210938 483.066406 374.324219 483.5 378.21875 485.015625 C 379.085938 485.339844 380.273438 485.449219 380.382812 486.640625 C 380.382812 487.832031 379.300781 488.15625 378.433594 488.589844 C 376.488281 489.671875 374.433594 490.214844 372.269531 490.429688 C 369.238281 490.753906 366.210938 491.082031 363.289062 491.296875 C 361.664062 491.40625 360.800781 492.164062 360.367188 493.789062 C 358.960938 498.988281 357.230469 504.1875 356.90625 509.601562 C 356.90625 510.46875 356.6875 511.335938 356.472656 512.199219 C 356.253906 513.175781 356.148438 514.367188 354.957031 514.367188 C 353.875 514.367188 353.550781 513.285156 353.117188 512.308594 C 352.46875 510.792969 352.359375 509.167969 352.359375 507.542969 C 352.359375 502.996094 351.929688 498.445312 351.601562 493.898438 C 351.386719 491.839844 350.519531 490.429688 348.683594 489.5625 C 346.195312 488.371094 343.707031 487.507812 341 487.179688 C 339.054688 486.964844 337.105469 486.855469 335.375 485.988281 C 334.507812 485.558594 333.75 484.90625 333.859375 483.714844 C 333.859375 482.414062 334.832031 482.089844 335.808594 481.984375 C 336.890625 481.765625 337.972656 481.65625 339.054688 481.550781 C 342.515625 481.117188 345.871094 480.898438 349.332031 480.25 C 351.277344 479.925781 352.253906 479.167969 352.792969 477.542969 C 354.09375 473.644531 355.171875 469.636719 356.148438 465.738281 C 356.6875 463.570312 356.796875 461.296875 358.3125 459.347656 Z M 357.769531 459.453125 " fill-opacity="1" fill-rule="nonzero"/><path fill="#000000" d="M 270.675781 761.417969 C 269.269531 760.332031 269.050781 759.25 268.726562 758.167969 C 266.238281 751.886719 266.78125 745.386719 267.320312 738.996094 C 268.402344 727.839844 270.675781 717.011719 274.355469 706.394531 C 275.4375 703.363281 276.085938 700.113281 276.949219 696.972656 C 277.273438 695.890625 277.167969 694.589844 278.789062 693.941406 C 279.113281 696.539062 278.355469 698.707031 277.925781 700.980469 C 276.300781 708.453125 274.027344 715.820312 272.730469 723.398438 C 271.324219 732.171875 270.132812 740.945312 270.566406 749.828125 C 270.785156 753.507812 270.566406 757.082031 270.566406 761.308594 Z M 270.675781 761.417969 " fill-opacity="1" fill-rule="nonzero"/><path fill="#000000" d="M 331.695312 824.992188 C 326.070312 826.292969 320.984375 826.402344 315.792969 826.402344 C 306.269531 826.183594 296.859375 825.96875 287.335938 825.640625 C 279.546875 825.316406 271.757812 825.640625 264.074219 824.667969 C 261.480469 824.34375 258.992188 823.910156 256.609375 822.71875 C 255.636719 822.175781 254.339844 821.636719 255.3125 819.902344 C 260.179688 822.71875 265.699219 822.828125 271 822.828125 C 283.441406 822.828125 295.777344 823.152344 308.21875 823.476562 C 314.816406 823.691406 321.417969 823.257812 327.910156 824.125 C 329.097656 824.234375 330.179688 824.449219 331.695312 824.992188 Z M 331.695312 824.992188 " fill-opacity="1" fill-rule="nonzero"/><path fill="#000000" d="M 246.980469 688.957031 C 245.464844 691.992188 243.628906 693.832031 241.894531 695.78125 C 239.191406 698.707031 237.027344 701.847656 234.972656 705.203125 C 226.207031 719.71875 212.898438 727.949219 197.105469 732.929688 C 195.699219 733.363281 194.183594 733.796875 192.777344 734.121094 C 192.558594 734.121094 192.34375 734.015625 192.234375 733.90625 C 191.910156 733.039062 192.558594 732.714844 193.101562 732.496094 C 193.964844 732.171875 194.941406 731.847656 195.914062 731.523438 C 206.191406 728.164062 215.496094 722.96875 223.503906 715.601562 C 227.832031 711.59375 231.078125 706.722656 234.105469 701.738281 C 235.730469 699.03125 237.460938 696.429688 239.625 694.15625 C 241.570312 692.097656 243.84375 690.476562 247.089844 689.066406 Z M 246.980469 688.957031 " fill-opacity="1" fill-rule="nonzero"/><path fill="#000000" d="M 277.058594 684.519531 C 277.382812 685.710938 276.625 686.359375 276.191406 687.007812 C 271.214844 694.375 266.671875 701.957031 263.316406 710.1875 C 261.261719 715.058594 258.125 719.394531 254.664062 723.507812 C 250.660156 728.273438 247.304688 733.363281 246.441406 739.753906 C 246.441406 740.078125 246.222656 740.296875 245.898438 740.945312 C 245.359375 739.972656 245.359375 739.214844 245.464844 738.453125 C 245.789062 734.015625 247.199219 730.007812 249.578125 726.324219 C 250.769531 724.589844 251.851562 722.859375 253.039062 721.234375 C 256.933594 716.035156 260.179688 710.402344 262.5625 704.339844 C 264.398438 699.789062 266.671875 695.566406 269.484375 691.558594 C 271.433594 688.742188 273.921875 686.46875 276.949219 684.519531 Z M 277.058594 684.519531 " fill-opacity="1" fill-rule="nonzero"/><path fill="#000000" d="M 306.054688 501.585938 C 308.21875 502.34375 309.734375 502.234375 311.140625 502.453125 C 313.628906 502.777344 314.058594 503.101562 314.386719 505.59375 C 314.386719 506.351562 314.492188 507.109375 314.601562 507.867188 C 314.601562 508.519531 314.386719 509.277344 314.925781 510.144531 C 316.007812 509.277344 315.792969 507.976562 316.117188 506.894531 C 316.65625 505.269531 317.523438 504.292969 319.363281 504.402344 C 321.851562 504.617188 324.445312 503.644531 327.152344 505.050781 C 324.773438 506.242188 322.390625 506.460938 320.011719 506.027344 C 318.605469 505.703125 317.847656 506.136719 317.414062 507.652344 C 316.980469 509.277344 316.550781 511.007812 316.332031 512.742188 C 316.117188 514.148438 316.332031 515.773438 314.710938 516.859375 C 313.734375 515.125 313.410156 513.390625 313.304688 511.660156 C 313.304688 509.925781 313.085938 508.191406 313.195312 506.460938 C 313.195312 504.726562 312.4375 504.078125 310.816406 504.078125 C 309.082031 504.078125 307.351562 503.535156 305.730469 503.210938 C 304.863281 502.996094 303.675781 502.996094 303.78125 501.585938 C 303.890625 500.285156 305.082031 500.285156 305.945312 500.070312 C 307.675781 499.746094 309.410156 499.421875 311.03125 499.421875 C 312.652344 499.421875 313.410156 498.660156 313.84375 497.253906 C 314.386719 495.738281 314.710938 494.113281 315.140625 492.597656 C 315.359375 491.839844 315.46875 491.082031 315.898438 490.429688 C 316.550781 489.347656 317.523438 489.347656 318.171875 490.429688 C 319.144531 492.273438 319.6875 494.222656 319.363281 496.277344 C 319.363281 496.820312 319.144531 497.363281 319.144531 497.902344 C 318.929688 499.421875 319.46875 500.285156 321.203125 500.503906 C 323.363281 500.71875 325.421875 501.261719 327.585938 501.695312 C 328.015625 501.695312 328.558594 502.019531 328.773438 502.777344 C 325.636719 502.34375 322.5 502.019531 319.46875 501.476562 C 317.957031 501.261719 317.089844 500.394531 317.523438 498.769531 C 317.957031 496.820312 317.199219 494.980469 316.980469 493.03125 C 315.574219 494.328125 315.792969 495.953125 315.46875 497.363281 C 314.710938 501.476562 314.816406 501.476562 310.816406 501.261719 C 309.300781 501.261719 307.785156 501.042969 305.730469 501.804688 Z M 306.054688 501.585938 " fill-opacity="1" fill-rule="nonzero"/><path fill="#000000" d="M 479.054688 807.664062 C 479.703125 806.90625 480.351562 807.339844 480.894531 807.554688 C 488.035156 809.394531 495.285156 809.070312 502.425781 808.421875 C 510.105469 807.773438 517.679688 807.230469 525.359375 807.339844 C 525.683594 807.339844 525.902344 807.554688 526.226562 807.664062 C 526.011719 808.746094 525.144531 808.636719 524.496094 808.855469 C 519.300781 810.261719 514 811.347656 508.589844 811.347656 C 501.882812 811.347656 495.175781 812.105469 488.574219 811.238281 C 486.195312 810.914062 483.921875 810.585938 481.652344 809.722656 C 480.570312 809.289062 479.378906 809.070312 479.164062 807.664062 Z M 479.054688 807.664062 " fill-opacity="1" fill-rule="nonzero"/><path fill="#000000" d="M 518.652344 794.449219 C 517.136719 796.074219 515.300781 796.722656 513.460938 797.265625 C 505.777344 799.214844 498.097656 799.648438 490.304688 798.132812 C 489.007812 797.914062 487.816406 797.484375 486.734375 796.722656 C 486.304688 796.398438 485.980469 795.859375 486.304688 795.316406 C 486.519531 794.882812 487.0625 794.992188 487.492188 795.207031 C 493.769531 797.589844 500.042969 796.398438 506.320312 795.425781 C 509.78125 794.882812 513.027344 793.910156 516.597656 794.015625 C 517.246094 794.015625 517.894531 793.800781 518.652344 794.558594 Z M 518.652344 794.449219 " fill-opacity="1" fill-rule="nonzero"/><path fill="#000000" d="M 318.171875 456.964844 C 316.65625 453.496094 314.386719 450.683594 312.328125 447.648438 C 314.710938 446.347656 316.332031 444.507812 317.738281 442.234375 C 318.386719 441.042969 319.253906 441.042969 319.902344 442.34375 C 320.769531 444.074219 321.742188 445.699219 323.582031 446.78125 C 324.445312 447.324219 324.554688 448.082031 323.90625 448.730469 C 321.417969 451.007812 319.902344 454.039062 318.28125 457.070312 Z M 318.0625 452.632812 C 319.46875 451.007812 320.660156 449.597656 321.957031 447.972656 C 320.226562 446.78125 319.792969 444.726562 318.496094 442.882812 C 317.523438 444.726562 316.550781 446.132812 315.25 447.324219 C 314.277344 448.191406 314.492188 448.949219 315.359375 449.707031 C 316.222656 450.464844 316.980469 451.441406 317.957031 452.523438 Z M 318.0625 452.632812 " fill-opacity="1" fill-rule="nonzero"/><path fill="#000000" d="M 550.460938 706.9375 C 549.8125 701.957031 550.894531 697.296875 552.085938 692.640625 C 552.191406 692.097656 552.515625 691.558594 553.167969 691.664062 C 553.816406 691.664062 553.921875 692.207031 553.816406 692.855469 C 553.167969 695.566406 553.273438 698.382812 552.949219 701.195312 C 552.734375 703.253906 552.191406 705.3125 550.460938 706.9375 Z M 550.460938 706.9375 " fill-opacity="1" fill-rule="nonzero"/><path fill="#000000" d="M 477.863281 638.703125 C 477 639.570312 477.105469 641.734375 475.699219 641.195312 C 473.96875 640.542969 475.484375 638.921875 475.59375 637.835938 C 475.699219 636.753906 476.347656 635.5625 477 634.589844 C 477.757812 633.503906 479.488281 633.613281 479.8125 634.914062 C 480.246094 636.753906 480.894531 638.378906 482.191406 639.785156 C 482.515625 640.113281 482.625 640.542969 482.191406 640.976562 C 481.867188 641.304688 481.433594 641.304688 481 641.304688 C 479.59375 641.085938 479.164062 639.570312 477.863281 638.703125 Z M 477.863281 638.703125 " fill-opacity="1" fill-rule="nonzero"/><path fill="#000000" d="M 374 546.101562 C 374.648438 551.515625 376.378906 556.824219 376.597656 562.238281 C 375.515625 562.5625 375.1875 561.804688 374.972656 561.265625 C 373.242188 556.28125 373.457031 551.191406 374 546.101562 Z M 374 546.101562 " fill-opacity="1" fill-rule="nonzero"/><path fill="#000000" d="M 558.144531 661.125 C 559.765625 663.9375 559.441406 666.429688 558.792969 668.921875 C 558.359375 670.546875 557.492188 671.085938 556.304688 670.546875 C 555.113281 670.003906 554.679688 669.136719 555.65625 667.945312 C 556.195312 667.1875 555.980469 666.320312 555.980469 665.457031 C 555.980469 663.722656 556.738281 662.421875 558.144531 661.015625 Z M 558.144531 661.125 " fill-opacity="1" fill-rule="nonzero"/><path fill="#000000" d="M 477 673.46875 C 475.59375 673.902344 474.402344 672.0625 473.320312 673.6875 C 473.105469 674.011719 472.347656 673.6875 472.347656 673.253906 C 472.347656 671.195312 472.023438 669.136719 473.320312 667.40625 C 473.753906 666.863281 474.726562 666.214844 475.160156 667.1875 C 476.023438 669.136719 477.105469 671.195312 477 673.46875 Z M 477 673.46875 " fill-opacity="1" fill-rule="nonzero"/><path fill="#000000" d="M 500.476562 709.105469 C 498.636719 706.289062 498.636719 703.90625 498.855469 701.414062 C 498.855469 700.871094 499.179688 700.332031 499.9375 700.4375 C 500.476562 700.4375 500.910156 700.980469 501.015625 701.523438 C 501.449219 703.90625 501.34375 706.179688 500.476562 709.210938 Z M 500.476562 709.105469 " fill-opacity="1" fill-rule="nonzero"/><path fill="#000000" d="M 435.128906 550.214844 C 435.128906 551.40625 435.34375 552.492188 434.804688 553.574219 C 434.585938 553.898438 434.585938 554.441406 434.046875 554.441406 C 433.503906 554.441406 433.179688 554.117188 433.074219 553.789062 C 432.421875 551.734375 433.074219 549.78125 433.613281 547.832031 C 433.613281 547.507812 434.15625 547.507812 434.480469 547.507812 C 434.910156 547.507812 435.128906 547.832031 435.128906 548.160156 C 435.128906 548.917969 435.128906 549.675781 435.128906 550.214844 Z M 435.128906 550.214844 " fill-opacity="1" fill-rule="nonzero"/><path fill="#000000" d="M 544.945312 724.265625 C 546.242188 726 546.351562 728.382812 545.160156 729.574219 C 544.835938 729.898438 544.402344 730.113281 543.96875 729.898438 C 543.539062 729.683594 543.539062 729.25 543.539062 728.816406 C 543.644531 727.191406 544.078125 725.675781 544.945312 724.265625 Z M 544.945312 724.265625 " fill-opacity="1" fill-rule="nonzero"/><path fill="#000000" d="M 501.234375 736.722656 C 499.503906 734.773438 500.585938 732.929688 500.800781 730.980469 C 502.171875 731.992188 502.316406 733.90625 501.234375 736.722656 Z M 501.234375 736.722656 " fill-opacity="1" fill-rule="nonzero"/><path fill="#000000" d="M 470.941406 754.699219 C 467.695312 756.21875 464.554688 756.652344 461.527344 756.867188 C 450.925781 757.84375 440.214844 758.492188 429.503906 758.273438 C 419.007812 758.058594 408.621094 757.410156 398.234375 755.785156 C 395.636719 755.351562 393.148438 754.917969 390.660156 754.050781 C 389.578125 753.726562 388.605469 753.292969 387.847656 752.535156 C 387.308594 752.101562 386.875 751.558594 387.414062 750.910156 C 387.847656 750.261719 388.390625 750.261719 389.144531 750.476562 C 397.042969 753.402344 405.375 753.617188 413.707031 754.375 C 425.714844 755.566406 437.617188 755.242188 449.625 754.59375 C 455.253906 754.269531 460.769531 753.617188 466.394531 753.835938 C 467.800781 753.835938 469.207031 753.835938 471.046875 754.59375 Z M 470.941406 754.699219 " fill-opacity="1" fill-rule="nonzero"/><path fill="#000000" d="M 421.496094 739.429688 C 423.550781 739.105469 440.429688 740.835938 442.269531 741.488281 C 438.265625 743.980469 426.148438 742.894531 421.496094 739.429688 Z M 421.496094 739.429688 " fill-opacity="1" fill-rule="nonzero"/><path fill="#000000" d="M 306.378906 592.566406 C 306.378906 592.566406 307.136719 592.566406 307.785156 592.566406 C 310.058594 592.78125 312.003906 594.40625 312.222656 596.246094 C 312.328125 597.332031 310.597656 600.578125 309.300781 601.011719 C 306.054688 602.203125 302.699219 603.070312 299.453125 600.6875 C 296.964844 598.953125 296.640625 596.570312 299.128906 594.730469 C 301.078125 593.214844 303.242188 592.457031 306.378906 592.566406 Z M 304.214844 599.714844 C 305.1875 599.714844 306.164062 599.386719 307.027344 598.738281 C 308 598.089844 308.867188 597.546875 308.433594 596.03125 C 308 594.515625 307.027344 594.296875 305.835938 594.296875 C 304.429688 594.296875 303.132812 594.839844 301.835938 595.378906 C 299.777344 596.355469 299.777344 597.980469 301.617188 599.28125 C 302.375 599.820312 303.242188 599.820312 304.214844 599.820312 Z M 304.214844 599.714844 " fill-opacity="1" fill-rule="nonzero"/></svg>