<svg xmlns="http://www.w3.org/2000/svg" xmlns:xlink="http://www.w3.org/1999/xlink" zoomAndPan="magnify" preserveAspectRatio="xMidYMid meet" version="1.0" viewBox="257.43 475 296.89 432.93"><defs><clipPath id="9628901d55"><path d="M 257 475 L 554.257812 475 L 554.257812 908 L 257 908 Z M 257 475 " clip-rule="nonzero"/></clipPath></defs><g clip-path="url(#9628901d55)"><path fill="#000000" d="M 312.554688 477.972656 L 322.535156 480.167969 C 323.148438 480.257812 323.765625 480.257812 324.382812 480.167969 C 359.550781 479.027344 394.808594 477.898438 430.152344 476.785156 C 451.828125 476.125 473.5 476.167969 495.128906 475.070312 C 510.339844 474.277344 517.417969 480.082031 523.527344 494.277344 C 526.6875 502.628906 529.328125 511.140625 531.441406 519.816406 C 531.753906 521.03125 531.753906 522.246094 531.441406 523.464844 C 529.460938 532.253906 531.75 540.738281 532.277344 549.351562 C 533.332031 566.316406 534.914062 583.285156 536.234375 600.25 C 537.816406 621.082031 539.28125 641.917969 540.628906 662.75 C 541.773438 678.925781 542.828125 695.144531 544.015625 711.320312 C 545.113281 726.835938 546.386719 742.308594 547.488281 757.777344 C 548.496094 771.625 549.332031 785.46875 550.34375 799.269531 C 551.355469 813.074219 552.324219 826.566406 553.289062 840.191406 C 554.0625 845.9375 554.398438 851.710938 554.300781 857.507812 C 553.785156 862.109375 552.539062 866.507812 550.5625 870.695312 C 549.824219 872.390625 548.925781 873.996094 547.863281 875.511719 C 546.804688 877.03125 545.601562 878.425781 544.261719 879.699219 C 542.921875 880.976562 541.46875 882.105469 539.902344 883.09375 C 538.335938 884.078125 536.6875 884.898438 534.957031 885.550781 C 532.875 886.246094 530.734375 886.628906 528.539062 886.695312 L 488.972656 889.464844 C 475.523438 890.429688 462.070312 891.441406 448.574219 892.363281 C 438.683594 893.023438 428.789062 893.59375 418.898438 894.167969 C 398.808594 895.265625 378.761719 896.277344 358.714844 897.417969 C 357.65625 897.523438 356.734375 897.933594 355.945312 898.648438 C 354.882812 899.570312 353.972656 900.628906 353.21875 901.816406 C 352.851562 902.304688 352.453125 902.769531 352.027344 903.214844 C 351.605469 903.65625 351.152344 904.070312 350.679688 904.460938 C 350.203125 904.847656 349.707031 905.207031 349.191406 905.539062 C 348.671875 905.867188 348.136719 906.164062 347.582031 906.429688 C 347.027344 906.691406 346.460938 906.921875 345.878906 907.121094 C 345.296875 907.316406 344.707031 907.476562 344.105469 907.605469 C 343.507812 907.730469 342.898438 907.820312 342.289062 907.871094 C 341.675781 907.925781 341.066406 907.941406 340.453125 907.921875 C 339.839844 907.898438 339.226562 907.84375 338.621094 907.75 C 338.015625 907.65625 337.417969 907.527344 336.824219 907.363281 C 336.234375 907.195312 335.65625 906.996094 335.089844 906.761719 C 334.523438 906.527344 333.972656 906.257812 333.4375 905.957031 C 332.902344 905.65625 332.386719 905.324219 331.890625 904.960938 C 331.398438 904.597656 330.925781 904.207031 330.476562 903.789062 C 330.027344 903.371094 329.609375 902.925781 329.214844 902.457031 C 328.820312 901.984375 328.453125 901.492188 328.117188 900.980469 C 327.917969 900.625 327.671875 900.3125 327.375 900.035156 C 327.078125 899.761719 326.746094 899.535156 326.382812 899.363281 C 326.015625 899.1875 325.632812 899.074219 325.230469 899.019531 C 324.828125 898.96875 324.429688 898.976562 324.03125 899.046875 C 315.675781 899.574219 307.367188 900.410156 299.058594 900.277344 C 293.769531 900.632812 288.628906 899.929688 283.628906 898.167969 C 277.253906 895.355469 269.605469 884.542969 270 877.859375 C 271.1875 857.15625 268.988281 836.542969 268.59375 815.886719 C 268.242188 798.699219 267.449219 781.515625 266.835938 764.285156 C 266.042969 742.96875 265.164062 721.691406 264.375 700.375 C 263.757812 684.683594 263.1875 668.949219 262.613281 653.257812 C 261.765625 629.054688 260.945312 604.851562 260.152344 580.648438 C 259.667969 567.152344 259.273438 553.613281 258.921875 540.121094 C 258.613281 528.253906 258.484375 516.429688 258.261719 504.5625 C 258.261719 504.5625 258.261719 504.210938 258.261719 504.035156 C 255.757812 498.453125 259.316406 495.246094 263.1875 492.476562 C 267.480469 489.082031 272.175781 486.371094 277.265625 484.351562 C 282.351562 482.332031 287.625 481.082031 293.082031 480.609375 C 296.378906 480.609375 299.628906 479.464844 302.929688 478.980469 C 306.226562 478.5 309.566406 478.367188 312.554688 477.972656 Z M 384.300781 869.421875 C 387.992188 872.191406 392.300781 875.222656 396.390625 878.476562 C 398.753906 880.425781 400.96875 882.535156 403.027344 884.804688 C 406.238281 888.277344 410.238281 887.660156 414.28125 887.441406 L 479.433594 883.882812 C 495.390625 883.046875 511.351562 882.300781 527.265625 881.421875 C 528.789062 881.285156 530.253906 880.917969 531.660156 880.320312 C 537.070312 877.851562 541.714844 874.367188 545.597656 869.859375 C 546.386719 869.148438 547.082031 868.351562 547.683594 867.476562 C 548.285156 866.601562 548.777344 865.664062 549.160156 864.671875 C 549.542969 863.679688 549.804688 862.65625 549.945312 861.601562 C 550.085938 860.546875 550.101562 859.492188 549.992188 858.433594 C 549.246094 845.90625 548.144531 833.421875 547.136719 820.941406 C 546.210938 809.292969 545.246094 797.6875 544.320312 786.042969 C 543.136719 770.921875 541.992188 755.800781 540.804688 740.679688 C 539.617188 725.5625 538.605469 711.101562 537.464844 696.289062 C 536.144531 679.144531 534.738281 662.003906 533.417969 644.863281 C 532.101562 627.71875 530.738281 610.226562 529.507812 592.910156 C 528.101562 573.085938 526.824219 553.351562 525.507812 533.527344 C 525.53125 528.976562 525.226562 524.449219 524.582031 519.945312 C 523.042969 513.132812 520.714844 506.496094 518.648438 499.773438 C 517.714844 496.699219 516.414062 493.792969 514.738281 491.050781 C 513.0625 488.3125 511.066406 485.828125 508.757812 483.597656 C 508.097656 482.910156 507.289062 482.546875 506.339844 482.5 C 503.480469 482.5 500.667969 483.507812 497.808594 483.554688 C 473.148438 483.992188 448.484375 484.476562 423.824219 484.652344 C 387.6875 484.914062 351.503906 484.960938 315.371094 485.046875 C 314.050781 485.046875 312.777344 484.738281 311.457031 484.652344 C 309.515625 484.378906 307.566406 484.308594 305.609375 484.433594 C 301.214844 485.046875 296.816406 486.058594 292.15625 486.675781 C 286.816406 487.589844 281.710938 489.226562 276.828125 491.578125 C 271.949219 493.929688 267.492188 496.910156 263.449219 500.519531 C 263.007812 500.917969 262.660156 501.390625 262.40625 501.933594 C 262.15625 502.472656 262.019531 503.042969 262 503.640625 C 262.484375 513.003906 263.230469 522.363281 263.714844 531.726562 C 264.503906 547.679688 265.164062 563.636719 265.824219 579.589844 C 266.703125 600.074219 267.628906 620.601562 268.417969 641.125 C 269.53125 668.40625 270.601562 695.6875 271.628906 722.96875 C 272.507812 746.410156 273.414062 769.851562 274.351562 793.292969 C 274.421875 794.320312 274.832031 795.183594 275.585938 795.886719 C 284.597656 802.128906 293.652344 808.238281 302.972656 814.609375 C 303.484375 813.367188 304.125 812.191406 304.890625 811.085938 C 305.65625 809.980469 306.535156 808.972656 307.519531 808.054688 C 308.507812 807.140625 309.582031 806.34375 310.742188 805.664062 C 311.902344 804.980469 313.121094 804.433594 314.402344 804.019531 C 315.21875 803.722656 316.058594 803.507812 316.917969 803.375 C 317.777344 803.242188 318.640625 803.191406 319.511719 803.222656 C 320.378906 803.257812 321.238281 803.375 322.085938 803.574219 C 322.933594 803.773438 323.75 804.050781 324.542969 804.410156 C 325.335938 804.765625 326.089844 805.195312 326.796875 805.699219 C 327.507812 806.203125 328.164062 806.769531 328.761719 807.398438 C 329.363281 808.027344 329.898438 808.707031 330.367188 809.441406 C 330.835938 810.175781 331.226562 810.945312 331.546875 811.753906 C 332.832031 815.589844 333.523438 819.53125 333.613281 823.578125 C 333.546875 827.519531 333.183594 831.429688 332.515625 835.3125 C 341 835.796875 349.085938 837.203125 351.679688 848.105469 C 354.980469 847.226562 358.453125 846.523438 361.792969 845.335938 C 367.757812 843.296875 373.882812 842.519531 380.167969 843.003906 C 380.550781 842.972656 380.933594 842.960938 381.316406 842.976562 C 381.699219 842.992188 382.082031 843.03125 382.457031 843.09375 C 382.835938 843.160156 383.210938 843.246094 383.578125 843.355469 C 383.945312 843.464844 384.304688 843.601562 384.652344 843.757812 C 385.003906 843.914062 385.34375 844.089844 385.671875 844.289062 C 385.996094 844.488281 386.3125 844.707031 386.609375 844.949219 C 386.910156 845.1875 387.195312 845.445312 387.460938 845.71875 C 387.730469 845.996094 387.976562 846.285156 388.207031 846.59375 C 388.4375 846.898438 388.648438 847.21875 388.835938 847.550781 C 389.027344 847.886719 389.195312 848.230469 389.339844 848.585938 C 389.484375 848.9375 389.609375 849.300781 389.707031 849.671875 C 389.808594 850.042969 389.882812 850.417969 389.933594 850.796875 C 389.988281 851.175781 390.015625 851.558594 390.019531 851.941406 C 390.023438 852.324219 390 852.707031 389.957031 853.089844 C 389.910156 853.46875 389.84375 853.847656 389.75 854.21875 C 389.65625 854.589844 389.539062 854.953125 389.402344 855.3125 C 388.167969 860.101562 386.148438 864.5 384.300781 869.421875 Z M 329.304688 870.433594 C 329.4375 873.027344 329.71875 875.605469 330.140625 878.167969 C 331.019531 882.5625 332.074219 887.222656 333.347656 891.707031 C 335.589844 899.574219 340.648438 903.75 347.679688 897.769531 L 348.910156 896.761719 L 364.957031 880.277344 C 365.398438 879.839844 365.75 879.3125 366.144531 878.871094 C 369.398438 875.089844 372.476562 871.136719 375.992188 867.617188 C 377.804688 865.789062 379.355469 863.757812 380.636719 861.519531 C 381.917969 859.285156 382.890625 856.921875 383.554688 854.433594 C 384.476562 850.785156 383.554688 849.464844 379.859375 848.851562 C 379.085938 848.742188 378.308594 848.742188 377.53125 848.851562 L 350.40625 852.367188 L 350.40625 854.300781 C 350.453125 855.417969 350.34375 856.515625 350.078125 857.601562 C 349.8125 858.6875 349.398438 859.710938 348.835938 860.675781 C 348.273438 861.644531 347.589844 862.511719 346.78125 863.28125 C 345.96875 864.050781 345.070312 864.691406 344.074219 865.203125 C 341.902344 866.671875 339.578125 867.851562 337.109375 868.734375 C 334.636719 869.621094 332.09375 870.1875 329.480469 870.433594 Z M 312.027344 861.027344 C 311.65625 859.867188 311.421875 858.683594 311.320312 857.472656 C 311.222656 856.257812 311.257812 855.050781 311.433594 853.847656 C 311.609375 852.644531 311.917969 851.476562 312.359375 850.34375 C 312.800781 849.210938 313.363281 848.140625 314.050781 847.136719 C 316.691406 843.691406 319.8125 840.761719 323.414062 838.347656 C 324.085938 838.039062 324.6875 837.628906 325.222656 837.125 C 325.757812 836.617188 326.199219 836.039062 326.542969 835.386719 C 326.890625 834.738281 327.121094 834.046875 327.242188 833.320312 C 327.359375 832.59375 327.359375 831.863281 327.238281 831.136719 C 326.753906 826.082031 326.929688 820.941406 326.007812 816.015625 C 325.945312 815.351562 325.792969 814.703125 325.554688 814.078125 C 325.316406 813.449219 324.996094 812.867188 324.601562 812.328125 C 324.203125 811.789062 323.738281 811.3125 323.210938 810.898438 C 322.683594 810.484375 322.109375 810.148438 321.492188 809.890625 C 320.871094 809.632812 320.230469 809.464844 319.566406 809.382812 C 318.898438 809.296875 318.234375 809.304688 317.574219 809.40625 C 316.910156 809.503906 316.269531 809.6875 315.660156 809.960938 C 315.046875 810.230469 314.480469 810.582031 313.960938 811.007812 C 312.066406 812.203125 310.398438 813.660156 308.957031 815.378906 C 307.515625 817.097656 306.371094 818.996094 305.523438 821.070312 C 303.410156 825.949219 301.125 830.785156 298.664062 835.488281 C 294.265625 843.929688 289.871094 852.277344 285.253906 860.675781 C 284.421875 862.300781 284.726562 863.53125 286.839844 863.355469 Z M 324.6875 893.332031 L 322.929688 870.433594 L 314.136719 865.421875 C 311.363281 866.617188 308.523438 867.613281 305.609375 868.410156 C 300.773438 869.332031 295.894531 869.730469 291.015625 870.300781 C 286.132812 870.871094 280.859375 870.652344 277.824219 866.125 C 277.253906 870.125 276.683594 874.210938 276.15625 878.300781 C 276.128906 878.847656 276.273438 879.347656 276.59375 879.792969 C 279.585938 884.1875 282.484375 888.585938 285.828125 892.761719 C 286.539062 893.410156 287.339844 893.910156 288.234375 894.265625 C 289.125 894.621094 290.054688 894.808594 291.015625 894.824219 C 294.925781 895.089844 298.839844 895.089844 302.753906 894.824219 C 310.269531 894.476562 317.785156 893.859375 324.863281 893.332031 Z M 274.484375 801.03125 C 274.484375 801.734375 274.484375 802.566406 274.484375 803.402344 C 274.835938 811.929688 275.847656 820.457031 275.363281 828.894531 C 275.234375 829.65625 275.167969 830.425781 275.175781 831.199219 C 275.183594 831.96875 275.257812 832.738281 275.402344 833.496094 C 275.542969 834.253906 275.753906 834.996094 276.03125 835.71875 C 276.308594 836.441406 276.644531 837.132812 277.046875 837.792969 C 277.449219 838.453125 277.902344 839.074219 278.417969 839.652344 C 278.929688 840.230469 279.488281 840.761719 280.09375 841.238281 C 280.703125 841.71875 281.347656 842.140625 282.027344 842.503906 C 282.710938 842.863281 283.421875 843.164062 284.15625 843.402344 C 286.484375 844.410156 287.496094 844.28125 288.550781 842.082031 C 291.804688 835.621094 295.058594 829.160156 298.53125 822.785156 C 299.71875 820.632812 299.585938 819.359375 297.476562 817.863281 C 290.089844 812.371094 282.484375 806.699219 274.660156 800.984375 Z M 334.097656 840.585938 C 332.074219 840.816406 330.15625 841.390625 328.335938 842.300781 C 325.003906 844.828125 322.070312 847.757812 319.546875 851.09375 C 319.371094 851.367188 319.210938 851.65625 319.074219 851.953125 C 318.933594 852.25 318.816406 852.550781 318.714844 852.863281 C 318.613281 853.175781 318.535156 853.492188 318.476562 853.816406 C 318.414062 854.136719 318.375 854.460938 318.359375 854.789062 C 318.339844 855.117188 318.34375 855.441406 318.367188 855.769531 C 318.390625 856.09375 318.433594 856.417969 318.5 856.742188 C 318.566406 857.0625 318.648438 857.375 318.753906 857.6875 C 318.859375 857.996094 318.984375 858.300781 319.128906 858.59375 C 319.273438 858.886719 319.433594 859.171875 319.613281 859.445312 C 319.792969 859.71875 319.992188 859.980469 320.203125 860.226562 C 320.417969 860.476562 320.644531 860.710938 320.890625 860.929688 C 321.132812 861.148438 321.390625 861.351562 321.660156 861.539062 C 321.925781 861.722656 322.207031 861.894531 322.5 862.042969 C 322.789062 862.195312 323.089844 862.328125 323.394531 862.4375 C 323.703125 862.550781 324.015625 862.644531 324.335938 862.714844 C 324.65625 862.789062 324.976562 862.839844 325.304688 862.871094 C 327.757812 863.128906 330.1875 862.964844 332.585938 862.382812 C 334.984375 861.804688 337.21875 860.835938 339.285156 859.488281 C 340.121094 859.0625 340.898438 858.539062 341.609375 857.925781 C 342.324219 857.3125 342.953125 856.625 343.5 855.859375 C 344.046875 855.09375 344.496094 854.273438 344.84375 853.402344 C 345.195312 852.53125 345.4375 851.628906 345.570312 850.695312 C 345.726562 850.328125 345.84375 849.945312 345.917969 849.550781 C 345.996094 849.15625 346.027344 848.757812 346.023438 848.355469 C 346.015625 847.953125 345.964844 847.554688 345.875 847.164062 C 345.785156 846.773438 345.652344 846.394531 345.484375 846.03125 C 345.3125 845.664062 345.109375 845.324219 344.867188 845 C 344.625 844.679688 344.351562 844.386719 344.050781 844.125 C 343.746094 843.859375 343.417969 843.628906 343.070312 843.433594 C 342.71875 843.238281 342.351562 843.078125 341.964844 842.960938 C 339.457031 842.011719 336.894531 841.25 334.273438 840.675781 Z M 399.777344 888.1875 L 380.695312 872.101562 L 366.1875 890.476562 Z M 276.683594 860.191406 L 283.011719 848.984375 L 275.980469 844.234375 Z M 276.683594 860.191406 " fill-opacity="1" fill-rule="nonzero"/></g><path fill="#000000" d="M 452.355469 537.351562 C 452.792969 542.582031 452.96875 547.855469 453.761719 553.042969 C 454.039062 554.667969 454.46875 556.253906 455.042969 557.796875 C 455.621094 559.339844 456.335938 560.820312 457.191406 562.230469 C 458.042969 563.640625 459.023438 564.957031 460.125 566.183594 C 461.222656 567.410156 462.429688 568.527344 463.738281 569.527344 C 464.265625 570.050781 464.851562 570.492188 465.503906 570.847656 C 466.152344 571.203125 466.84375 571.457031 467.566406 571.617188 C 468.292969 571.773438 469.023438 571.824219 469.765625 571.773438 C 470.503906 571.71875 471.222656 571.5625 471.917969 571.304688 C 472.613281 571.042969 473.253906 570.691406 473.847656 570.246094 C 474.441406 569.800781 474.960938 569.28125 475.40625 568.6875 C 475.851562 568.09375 476.203125 567.449219 476.460938 566.757812 C 476.71875 566.0625 476.875 565.34375 476.929688 564.605469 C 477.933594 556.792969 477.65625 549.027344 476.09375 541.308594 C 474.554688 531.683594 473.234375 522.058594 471.695312 512.429688 C 471.390625 510.425781 471.464844 508.433594 471.917969 506.453125 C 472.085938 505.777344 472.402344 505.175781 472.859375 504.652344 C 473.316406 504.125 473.867188 503.730469 474.511719 503.464844 C 475.300781 503.246094 477.015625 504.695312 477.5 505.75 C 478.347656 507.875 478.90625 510.070312 479.171875 512.34375 C 480.710938 524.429688 482.511719 536.472656 483.566406 548.605469 C 484.195312 555.082031 483.960938 561.527344 482.863281 567.945312 C 482.75 568.527344 482.601562 569.101562 482.417969 569.664062 C 482.234375 570.230469 482.011719 570.78125 481.757812 571.316406 C 481.503906 571.851562 481.214844 572.371094 480.894531 572.871094 C 480.574219 573.367188 480.222656 573.847656 479.84375 574.300781 C 479.460938 574.757812 479.050781 575.1875 478.617188 575.589844 C 478.179688 575.992188 477.722656 576.367188 477.238281 576.710938 C 476.753906 577.054688 476.25 577.367188 475.726562 577.648438 C 475.203125 577.929688 474.667969 578.175781 474.113281 578.390625 C 473.558594 578.601562 472.992188 578.78125 472.414062 578.921875 C 471.839844 579.0625 471.253906 579.164062 470.664062 579.230469 C 470.074219 579.296875 469.484375 579.328125 468.890625 579.316406 C 468.296875 579.308594 467.703125 579.261719 467.117188 579.179688 C 466.527344 579.097656 465.949219 578.976562 465.375 578.820312 C 464.804688 578.660156 464.242188 578.46875 463.695312 578.238281 C 463.148438 578.011719 462.617188 577.75 462.101562 577.453125 C 461.585938 577.15625 461.089844 576.828125 460.617188 576.472656 C 459.472656 575.730469 458.375 574.921875 457.328125 574.042969 C 456.285156 573.167969 455.300781 572.226562 454.371094 571.222656 C 453.445312 570.222656 452.585938 569.164062 451.792969 568.054688 C 451 566.941406 450.28125 565.785156 449.632812 564.582031 C 448.984375 563.382812 448.417969 562.144531 447.925781 560.871094 C 447.4375 559.597656 447.027344 558.296875 446.699219 556.972656 C 446.375 555.644531 446.132812 554.304688 445.972656 552.949219 C 445.816406 551.59375 445.746094 550.234375 445.757812 548.867188 C 446.003906 541.164062 446.707031 533.5 447.871094 525.878906 C 448.03125 525.253906 448.328125 524.695312 448.765625 524.214844 C 449.199219 523.734375 449.722656 523.378906 450.332031 523.15625 C 452.132812 522.804688 452.484375 524.5625 452.484375 526.011719 C 452.484375 529.792969 452.484375 533.574219 452.484375 537.308594 Z M 452.355469 537.351562 " fill-opacity="1" fill-rule="nonzero"/><path fill="#000000" d="M 337.042969 531.769531 C 341.4375 522.714844 345.835938 513.882812 350.230469 505.003906 C 351.066406 503.332031 351.945312 501.574219 354.097656 502.191406 C 354.632812 502.257812 355.132812 502.421875 355.605469 502.675781 C 356.078125 502.929688 356.492188 503.257812 356.84375 503.664062 C 357.195312 504.066406 357.464844 504.523438 357.652344 505.023438 C 357.835938 505.527344 357.929688 506.046875 357.925781 506.585938 C 358.277344 520.695312 358.890625 534.804688 359.417969 548.914062 L 360.34375 572.03125 C 360.34375 572.910156 360.695312 573.921875 360.34375 574.625 C 359.992188 575.328125 358.890625 576.601562 358.101562 576.601562 C 357.308594 576.601562 356.515625 575.417969 355.8125 574.667969 C 355.109375 573.921875 355.8125 573.964844 355.8125 573.613281 C 355.460938 557.308594 355.066406 541 354.757812 524.695312 C 354.757812 520.078125 354.757812 515.417969 354.757812 510.761719 L 353.96875 510.761719 C 353.546875 511.230469 353.167969 511.726562 352.824219 512.253906 L 339.636719 534.671875 C 339.421875 535.050781 339.246094 535.445312 339.109375 535.859375 C 338.054688 538.582031 336.117188 539.199219 333.832031 537.394531 C 331.546875 535.59375 329.4375 533.574219 327.328125 531.59375 L 312.46875 517.617188 C 312.996094 522.011719 313.390625 526.144531 313.875 530.054688 C 315.015625 539.769531 316.203125 549.527344 317.347656 559.242188 C 317.699219 562.011719 317.964844 564.824219 318.183594 567.59375 C 318.359375 568.648438 318.359375 569.703125 318.183594 570.757812 C 318.183594 571.417969 317.171875 572.339844 316.554688 572.382812 C 316.15625 572.3125 315.800781 572.144531 315.488281 571.886719 C 315.175781 571.628906 314.945312 571.3125 314.796875 570.933594 C 314.183594 567.855469 313.609375 564.734375 313.257812 561.613281 C 311.941406 548.824219 310.753906 536.035156 309.433594 523.242188 C 309.171875 520.914062 308.511719 518.628906 308.027344 516.34375 C 307.921875 515.984375 307.882812 515.617188 307.914062 515.246094 C 307.949219 514.871094 308.046875 514.519531 308.214844 514.183594 C 308.382812 513.847656 308.605469 513.558594 308.886719 513.308594 C 309.164062 513.058594 309.480469 512.867188 309.828125 512.738281 C 310.449219 512.375 311.117188 512.128906 311.824219 512.003906 C 312.53125 511.875 313.242188 511.875 313.949219 512 C 314.65625 512.125 315.324219 512.367188 315.945312 512.726562 C 316.566406 513.089844 317.109375 513.546875 317.566406 514.101562 C 323.328125 519.507812 329.261719 524.738281 335.152344 530.011719 Z M 337.042969 531.769531 " fill-opacity="1" fill-rule="nonzero"/><path fill="#000000" d="M 415.074219 528.738281 C 414.679688 537.21875 414.328125 544.867188 413.976562 552.558594 C 413.988281 553.867188 413.84375 555.15625 413.535156 556.429688 C 413.183594 557.351562 412.171875 558.011719 411.46875 558.757812 C 410.765625 557.921875 409.535156 557.132812 409.402344 556.207031 C 409.183594 553.851562 409.183594 551.492188 409.402344 549.132812 C 409.800781 541.921875 410.28125 534.757812 410.808594 527.59375 C 410.808594 524.121094 411.292969 520.605469 411.777344 517.179688 C 411.777344 516.253906 412.832031 515.464844 413.402344 514.585938 C 414.152344 515.289062 415.25 515.859375 415.644531 516.738281 C 420.042969 526.714844 424.4375 536.78125 428.835938 546.800781 L 429.582031 546.800781 C 429.714844 545.914062 429.804688 545.019531 429.84375 544.121094 C 429.84375 533.878906 429.539062 523.640625 429.539062 513.355469 C 429.515625 509.667969 429.691406 505.988281 430.066406 502.320312 C 430.066406 500.386719 430.855469 498.277344 433.40625 498.410156 C 435.957031 498.542969 436.21875 500.433594 436.441406 502.320312 C 436.503906 502.9375 436.503906 503.550781 436.441406 504.167969 C 436.175781 512.300781 436.089844 520.472656 435.605469 528.605469 C 435.078125 537.660156 434.199219 546.757812 433.496094 555.855469 C 433.523438 555.929688 433.523438 556.003906 433.496094 556.078125 L 430.460938 560.957031 C 429.363281 559.636719 427.691406 558.40625 427.296875 556.910156 C 425.007812 547.59375 419.777344 539.550781 416.261719 530.804688 C 415.734375 530.453125 415.46875 529.878906 415.074219 528.738281 Z M 415.074219 528.738281 " fill-opacity="1" fill-rule="nonzero"/><path fill="#000000" d="M 376.300781 524.519531 L 376.300781 543.902344 C 380.695312 543.902344 384.871094 543.550781 389.09375 543.507812 C 390.34375 543.457031 391.515625 543.734375 392.609375 544.339844 C 393.683594 545.082031 394.339844 546.09375 394.589844 547.375 C 394.457031 547.984375 394.210938 548.542969 393.84375 549.050781 C 393.476562 549.554688 393.019531 549.964844 392.476562 550.273438 C 390.992188 550.867188 389.453125 551.070312 387.863281 550.890625 C 384.039062 550.625 380.210938 550.144531 376.082031 549.703125 C 376.082031 550.671875 375.859375 551.726562 375.859375 552.824219 C 375.859375 557.835938 375.859375 562.84375 375.859375 567.8125 C 375.859375 570.054688 376.738281 570.890625 378.675781 570.890625 C 383.421875 570.890625 388.125 570.890625 392.875 570.890625 C 394.445312 570.820312 395.996094 570.953125 397.535156 571.285156 C 397.730469 571.320312 397.921875 571.382812 398.105469 571.460938 C 398.292969 571.539062 398.464844 571.640625 398.628906 571.757812 C 398.792969 571.875 398.941406 572.011719 399.074219 572.160156 C 399.207031 572.3125 399.320312 572.476562 399.417969 572.652344 C 399.511719 572.828125 399.589844 573.015625 399.644531 573.207031 C 399.699219 573.402344 399.734375 573.597656 399.746094 573.800781 C 399.757812 574 399.75 574.199219 399.714844 574.398438 C 399.683594 574.597656 399.628906 574.789062 399.554688 574.976562 C 399.246094 575.558594 398.824219 576.046875 398.292969 576.441406 C 397.761719 576.832031 397.171875 577.089844 396.523438 577.21875 C 389.578125 576.867188 382.585938 576.207031 375.640625 575.636719 L 374.101562 575.636719 C 371.902344 575.636719 371.070312 574.316406 371.199219 572.164062 C 371.597656 567.109375 372.035156 562.054688 372.167969 557 C 372.476562 546.800781 372.5625 536.648438 372.828125 526.230469 C 372.828125 519.113281 374.761719 517.441406 381.925781 517.441406 C 384.925781 517.523438 387.855469 518.007812 390.71875 518.890625 C 391.949219 519.289062 393.796875 521.222656 393.578125 521.925781 C 393.09375 523.332031 391.644531 525.175781 390.324219 525.398438 C 387.277344 525.726562 384.226562 525.726562 381.179688 525.398438 C 379.535156 525.207031 377.910156 524.910156 376.300781 524.519531 Z M 376.300781 524.519531 " fill-opacity="1" fill-rule="nonzero"/><path fill="#000000" d="M 480.664062 735.273438 C 479.039062 735.890625 478.027344 736.375 476.972656 736.679688 C 469.652344 738.804688 462.222656 739.300781 454.683594 738.175781 C 450.476562 737.847656 446.273438 737.847656 442.066406 738.175781 C 437.097656 738.175781 432.132812 738.175781 427.121094 738.527344 C 419.734375 738.835938 412.304688 739.230469 404.875 739.496094 C 399.90625 739.496094 394.894531 739.496094 389.929688 739.757812 C 379.507812 739.757812 369.089844 740.109375 358.714844 740.199219 L 338.84375 740.199219 L 338.84375 739.539062 C 341.375 739.058594 343.925781 738.707031 346.492188 738.484375 C 354.1875 738 361.878906 737.5625 369.574219 737.386719 C 380.960938 737.078125 392.347656 737.121094 403.6875 736.769531 C 410.152344 736.769531 416.570312 735.539062 423.03125 735.273438 C 433.273438 734.921875 443.519531 734.835938 453.804688 734.746094 C 456.441406 734.746094 459.082031 735.320312 461.675781 735.273438 C 467.609375 735.273438 473.542969 734.921875 479.257812 734.746094 C 479.746094 734.875 480.214844 735.050781 480.664062 735.273438 Z M 480.664062 735.273438 " fill-opacity="1" fill-rule="nonzero"/><path fill="#000000" d="M 461.453125 778.394531 C 457.367188 778.746094 453.320312 779.316406 449.234375 779.40625 C 440.132812 779.40625 431.078125 779.84375 421.976562 780.898438 C 415.582031 781.125 409.191406 781.023438 402.808594 780.589844 C 395.46875 780.589844 388.125 781.425781 380.828125 781.601562 C 366.671875 781.867188 352.472656 781.953125 338.273438 782.128906 L 333.171875 782.128906 L 333.171875 781.074219 C 335.976562 780.195312 338.835938 779.550781 341.746094 779.140625 C 349.835938 778.570312 358.011719 778.261719 366.144531 778.085938 C 369.882812 778.085938 373.664062 778.480469 377.441406 778.480469 C 383.640625 778.480469 389.882812 778.085938 396.082031 778.042969 C 401.402344 778.042969 406.765625 778.570312 412.085938 778.394531 C 419.164062 778.394531 426.242188 777.515625 433.320312 777.25 C 441.539062 776.898438 449.804688 776.722656 458.023438 776.589844 C 459.324219 776.714844 460.597656 776.960938 461.847656 777.339844 Z M 461.453125 778.394531 " fill-opacity="1" fill-rule="nonzero"/><path fill="#000000" d="M 446.464844 620.25 C 443.699219 620.992188 440.902344 621.566406 438.066406 621.964844 C 428.21875 622.796875 418.328125 623.324219 408.480469 624.117188 C 404.65625 624.425781 400.875 625.304688 397.050781 625.65625 C 391.820312 626.09375 386.542969 626.136719 381.355469 626.664062 C 373.441406 627.457031 365.574219 628.644531 357.703125 629.523438 C 351.550781 630.226562 345.351562 630.664062 339.195312 631.367188 C 333.042969 632.074219 327.457031 633.039062 321.613281 633.832031 C 321.304688 633.832031 321.039062 633.832031 320.554688 633.304688 C 321.183594 632.824219 321.875 632.457031 322.621094 632.203125 C 328.335938 631.0625 334.054688 629.785156 339.8125 628.953125 C 349.921875 627.5 360.035156 626.226562 370.1875 625.039062 C 375.640625 624.378906 381.179688 624.160156 386.632812 623.632812 C 393.136719 622.972656 399.820312 622.050781 406.148438 621.433594 C 411.03125 620.996094 415.953125 620.777344 420.832031 620.511719 L 444.441406 619.414062 C 445.101562 619.414062 445.757812 619.414062 446.417969 619.414062 Z M 446.464844 620.25 " fill-opacity="1" fill-rule="nonzero"/><path fill="#000000" d="M 313.523438 677.476562 C 314.109375 677.4375 314.695312 677.4375 315.28125 677.476562 C 325.535156 677.933594 335.648438 676.9375 345.613281 674.488281 C 352.785156 673.414062 359.996094 672.742188 367.242188 672.464844 C 375.15625 671.851562 383.113281 671.148438 391.027344 670.664062 C 393.398438 670.652344 395.757812 670.8125 398.105469 671.148438 C 405.132812 671.226562 412.019531 670.289062 418.765625 668.332031 C 426.027344 666.949219 433.355469 666.304688 440.746094 666.398438 L 440.96875 667.101562 C 440.417969 667.449219 439.832031 667.710938 439.210938 667.894531 C 431.734375 669.167969 424.175781 670.046875 416.746094 671.675781 C 408.683594 673.492188 400.535156 674.050781 392.300781 673.34375 C 387.753906 673.308594 383.226562 673.601562 378.71875 674.222656 C 372.167969 674.621094 365.53125 674.664062 359.066406 675.324219 C 351.550781 676.027344 344.03125 677.125 336.515625 678.265625 C 329.203125 679.710938 321.875 679.78125 314.535156 678.488281 C 314.191406 678.445312 313.871094 678.34375 313.566406 678.179688 C 313.566406 678.179688 313.65625 677.828125 313.523438 677.476562 Z M 313.523438 677.476562 " fill-opacity="1" fill-rule="nonzero"/><path fill="#000000" d="M 475.699219 678.003906 C 470.09375 680.902344 464.144531 682.570312 457.847656 683.015625 C 446.023438 683.199219 434.296875 684.398438 422.679688 686.617188 C 417.746094 687.265625 412.792969 687.644531 407.820312 687.761719 L 407.601562 687.015625 C 409.886719 686.441406 411.996094 685.738281 414.414062 685.34375 C 422.0625 683.980469 429.667969 682.617188 437.363281 681.519531 C 442.59375 680.773438 447.957031 680.640625 453.234375 680.027344 C 457.410156 679.585938 461.496094 678.75 465.675781 678.179688 C 468.925781 677.738281 472.179688 677.433594 475.433594 677.035156 Z M 475.699219 678.003906 " fill-opacity="1" fill-rule="nonzero"/><path fill="#000000" d="M 373.53125 725.386719 C 360.34375 725.386719 348.03125 730.394531 335.0625 730.570312 L 335.0625 729.210938 C 347.59375 726.308594 360.121094 722.089844 373.53125 725.386719 Z M 373.53125 725.386719 " fill-opacity="1" fill-rule="nonzero"/><path fill="#000000" d="M 488.402344 767.492188 C 486.554688 766.65625 484.617188 766.207031 482.585938 766.15625 C 480.558594 766.101562 478.597656 766.445312 476.707031 767.183594 C 466.558594 768.929688 456.371094 769.148438 446.15625 767.84375 C 445.804688 767.84375 445.453125 767.449219 445.101562 767.273438 L 445.101562 766.394531 C 450.066406 766.394531 455.035156 766.613281 459.960938 766.394531 C 465.980469 766.042969 471.960938 765.25 477.941406 764.722656 C 480.542969 764.46875 483.148438 764.363281 485.765625 764.417969 C 487.609375 764.417969 489.019531 765.164062 488.402344 767.492188 Z M 488.402344 767.492188 " fill-opacity="1" fill-rule="nonzero"/><path fill="#000000" d="M 315.851562 667.675781 C 317.347656 663.675781 333.4375 662.136719 338.757812 664.992188 Z M 315.851562 667.675781 " fill-opacity="1" fill-rule="nonzero"/><path fill="#000000" d="M 319.632812 624.554688 C 326.632812 623.023438 333.707031 622.394531 340.867188 622.667969 C 337.460938 623.847656 333.957031 624.597656 330.367188 624.917969 C 326.773438 625.238281 323.195312 625.117188 319.632812 624.554688 Z M 319.632812 624.554688 " fill-opacity="1" fill-rule="nonzero"/><path fill="#000000" d="M 341.21875 656.203125 L 325.4375 658.53125 C 326.667969 655.5 336.558594 654.050781 341.21875 656.203125 Z M 341.21875 656.203125 " fill-opacity="1" fill-rule="nonzero"/></svg>