<svg xmlns="http://www.w3.org/2000/svg" xmlns:xlink="http://www.w3.org/1999/xlink" zoomAndPan="magnify" preserveAspectRatio="xMidYMid meet" version="1.0" viewBox="117.27 649.79 611.09 205.24"><defs><clipPath id="01544c430e"><path d="M 117 649.792969 L 728.953125 649.792969 L 728.953125 856 L 117 856 Z M 117 649.792969 " clip-rule="nonzero"/></clipPath></defs><g clip-path="url(#01544c430e)"><path fill="#000000" d="M 146.714844 761.078125 C 147.96875 756.597656 151.101562 755.878906 154.6875 756.058594 C 154.777344 755.609375 154.953125 755.429688 154.953125 755.160156 C 154.238281 750.320312 155.492188 748.792969 160.328125 748.257812 C 162.570312 748.078125 164.71875 748.703125 166.78125 749.152344 C 169.019531 743.953125 170.8125 743.144531 176.632812 744.042969 C 183.351562 745.027344 189.800781 747.359375 196.074219 749.871094 C 197.238281 750.320312 198.402344 750.855469 199.835938 751.484375 C 199.835938 749.601562 198.582031 748.972656 197.683594 748.078125 C 196.074219 746.464844 193.832031 745.386719 193.027344 742.964844 C 192.667969 741.890625 191.324219 741.890625 190.339844 741.53125 C 186.578125 740.277344 184.425781 737.765625 184.070312 733.820312 C 183.980469 732.382812 183.351562 731.488281 182.277344 730.589844 C 179.230469 728.347656 176.902344 725.570312 176.992188 721.535156 C 176.992188 720.816406 176.722656 720.277344 176.273438 719.828125 C 173.945312 717.589844 172.871094 714.628906 171.617188 711.757812 C 170.363281 708.890625 169.019531 706.109375 166.421875 704.136719 C 164.898438 702.972656 163.824219 701.179688 163.285156 699.292969 C 162.570312 696.785156 162.75 694.453125 164.71875 692.390625 C 166.332031 690.597656 166.242188 689.519531 164.183594 688.175781 C 163.195312 687.546875 162.121094 687.007812 161.226562 686.292969 C 158.984375 684.589844 159.074219 683.0625 161.316406 681.269531 C 162.925781 680.015625 164.808594 679.65625 166.78125 679.207031 C 166.691406 678.9375 166.601562 678.578125 166.421875 678.488281 C 165.257812 677.683594 163.824219 676.964844 164.09375 675.171875 C 164.359375 673.289062 165.972656 672.75 167.40625 672.300781 C 170.8125 671.226562 174.304688 670.777344 177.796875 670.417969 C 185.414062 669.523438 193.117188 668.714844 200.730469 668.175781 C 207.988281 667.730469 215.152344 668.265625 221.78125 671.585938 C 235.488281 678.3125 249.640625 683.871094 263.972656 689.160156 C 273.648438 692.660156 282.964844 697.140625 292.640625 700.820312 C 298.285156 702.972656 303.660156 705.660156 308.855469 708.710938 C 314.855469 712.207031 320.320312 716.421875 324.710938 721.980469 C 327.488281 725.480469 330.175781 728.976562 332.953125 732.382812 C 333.9375 733.550781 334.652344 734.984375 336.445312 735.882812 C 335.460938 730.230469 335.101562 724.851562 334.652344 719.472656 C 334.292969 714.449219 334.652344 709.605469 335.550781 704.675781 C 336.535156 699.652344 336.894531 694.632812 338.148438 689.609375 C 340.835938 679.027344 346.566406 670.597656 355.527344 664.410156 C 359.734375 661.542969 364.035156 658.761719 368.425781 656.25 C 376.128906 651.855469 384.371094 650.601562 392.96875 651.410156 C 400.40625 652.125 406.316406 655.445312 410.707031 661.632812 C 415.277344 668.175781 419.128906 674.992188 418.589844 683.242188 C 418.050781 690.953125 416.886719 698.488281 413.214844 705.480469 C 410.976562 709.695312 410.707031 714.539062 411.246094 719.292969 C 411.421875 721.265625 411.78125 723.148438 411.78125 725.121094 C 411.78125 727.722656 408.378906 730.679688 405.871094 730.230469 C 403.003906 729.695312 400.40625 728.527344 398.882812 725.75 C 396.285156 720.90625 393.957031 715.972656 393.777344 710.234375 C 393.777344 708.800781 393.417969 707.363281 393.148438 706.019531 C 392.703125 703.328125 391.535156 701.089844 389.027344 699.742188 C 387.863281 699.113281 386.789062 698.398438 385.714844 697.679688 C 382.488281 695.347656 382.488281 695.4375 379.53125 698.21875 C 375.234375 702.164062 373.980469 707.363281 373.621094 712.746094 C 373.171875 719.113281 373.441406 725.570312 374.605469 731.847656 C 375.5 737.046875 378.277344 741.082031 382.308594 744.132812 C 386.878906 747.628906 391 751.664062 395.390625 755.429688 C 397.988281 757.671875 400.40625 760.003906 402.824219 762.335938 C 407.929688 767.265625 411.511719 773.097656 413.035156 780.089844 C 413.753906 783.589844 415.722656 786.546875 416.082031 790.222656 C 417.335938 789.953125 417.246094 788.878906 417.425781 788.070312 C 419.21875 779.820312 423.964844 773.632812 430.503906 768.703125 C 434.085938 766.011719 437.851562 763.679688 441.433594 761.078125 C 458.902344 748.882812 470.546875 732.832031 475.027344 711.847656 C 476.457031 705.035156 475.742188 698.128906 473.234375 691.582031 C 471.621094 691.671875 471.261719 692.839844 470.726562 693.644531 C 468.039062 696.964844 464.902344 699.5625 461.140625 701.535156 C 459.4375 702.433594 457.46875 703.417969 455.585938 702.972656 C 452.988281 702.433594 452.003906 703.957031 451.199219 705.75 C 449.136719 710.59375 446 714.808594 443.226562 719.203125 C 441.34375 722.160156 439.105469 724.941406 436.417969 727.273438 C 435.519531 727.988281 434.625 728.796875 433.550781 729.246094 C 430.324219 730.769531 427.726562 729.246094 427.636719 725.75 C 427.457031 722.160156 428.355469 718.753906 429.070312 715.257812 C 430.054688 710.324219 430.503906 705.480469 429.964844 700.460938 C 429.519531 695.347656 430.773438 690.417969 431.578125 685.304688 C 433.460938 673.46875 440.089844 664.769531 448.957031 657.328125 C 454.601562 652.574219 461.140625 649.882812 468.664062 649.792969 C 470.007812 649.792969 471.261719 649.972656 472.515625 650.332031 C 484.429688 653.5625 493.925781 660.554688 501.988281 669.433594 C 507.542969 675.53125 509.871094 683.152344 510.949219 691.222656 C 512.46875 702.34375 511.574219 713.375 509.78125 724.402344 C 508.347656 733.191406 506.289062 741.800781 502.257812 749.871094 C 502.167969 750.050781 502.257812 750.320312 502.257812 750.765625 C 503.601562 750.410156 504.40625 749.332031 505.304688 748.527344 C 518.472656 735.792969 533.253906 725.390625 549.378906 716.871094 C 561.203125 710.683594 573.742188 707.007812 587 705.480469 C 596.316406 704.40625 605.632812 703.328125 615.039062 703.152344 C 628.835938 702.792969 642.363281 704.855469 655.886719 707.277344 C 664.667969 708.800781 673.445312 710.054688 682.226562 711.132812 C 684.824219 711.488281 687.421875 711.847656 689.839844 712.835938 C 691.632812 713.550781 693.0625 714.808594 692.976562 716.871094 C 692.976562 718.84375 691.632812 719.917969 689.929688 720.546875 C 687.511719 721.445312 685.089844 722.160156 682.226562 723.148438 C 685.359375 724.3125 688.226562 724.132812 691.003906 724.132812 C 693.242188 724.132812 695.484375 724.222656 697.363281 725.660156 C 699.515625 727.183594 699.605469 728.976562 697.632812 730.769531 C 696.019531 732.203125 694.140625 733.011719 692.257812 733.910156 C 690.554688 734.714844 688.855469 735.703125 686.257812 736.957031 C 690.734375 737.316406 694.230469 736.867188 697.8125 736.597656 C 698.886719 736.597656 699.871094 736.328125 700.949219 736.238281 C 701.933594 736.152344 702.828125 736.238281 703.277344 737.226562 C 703.8125 738.300781 703.457031 739.289062 702.648438 740.097656 C 701.484375 741.351562 699.960938 742.160156 698.527344 743.054688 C 697.902344 743.414062 697.007812 743.59375 696.738281 744.3125 C 699.335938 746.285156 701.753906 745.386719 704.171875 743.953125 C 705.425781 743.234375 706.949219 741.890625 708.472656 743.054688 C 710.085938 744.402344 709.1875 746.195312 708.742188 747.808594 C 708.472656 748.792969 707.933594 749.691406 707.398438 751.035156 C 708.921875 751.035156 709.457031 749.960938 710.265625 749.242188 C 714.382812 745.476562 718.238281 741.351562 723.34375 738.75 C 723.878906 738.480469 724.417969 738.035156 725.042969 737.765625 C 727.015625 737.046875 728.449219 738.035156 728.359375 740.1875 C 728.359375 742.25 727.285156 743.953125 726.210938 745.566406 C 721.820312 753.097656 715.816406 759.285156 709.546875 765.203125 C 708.652344 766.101562 707.488281 766.730469 706.679688 768.074219 C 708.113281 768.074219 708.832031 767 709.726562 766.371094 C 710.441406 765.921875 711.160156 765.652344 711.875 766.191406 C 712.773438 766.820312 712.953125 767.714844 712.503906 768.613281 C 711.964844 769.6875 711.339844 770.675781 710.710938 771.570312 C 708.113281 775.25 704.710938 778.117188 701.394531 781.078125 C 699.425781 782.871094 697.453125 784.664062 695.75 786.636719 C 697.183594 786.636719 698.082031 785.652344 699.066406 784.933594 C 702.203125 782.601562 705.425781 780.359375 708.832031 778.386719 C 709.636719 777.9375 710.441406 777.402344 711.339844 778.207031 C 712.324219 779.195312 711.785156 780.179688 711.070312 780.988281 C 709.546875 782.78125 707.933594 784.484375 706.234375 786.097656 C 691.183594 800.625 677.296875 816.320312 662.605469 831.203125 C 656.425781 837.480469 649.796875 843.042969 642.003906 847.257812 C 630.894531 853.265625 619.339844 856.042969 606.621094 854.699219 C 599.183594 853.890625 591.929688 852.546875 584.671875 851.023438 C 573.832031 848.78125 563.082031 849.589844 552.421875 851.5625 C 546.511719 852.636719 540.597656 853.714844 534.6875 854.429688 C 525.28125 855.597656 515.964844 855.058594 506.738281 852.726562 C 499.390625 850.84375 491.867188 850.035156 484.429688 848.421875 C 475.113281 846.269531 466.066406 843.402344 456.75 841.339844 C 452.539062 840.351562 448.421875 839.363281 444.121094 838.738281 C 437.402344 837.839844 431.757812 834.613281 426.652344 830.578125 C 423.695312 828.246094 421.90625 825.015625 420.5625 821.609375 C 419.394531 818.652344 418.230469 815.691406 416.707031 811.925781 C 415.722656 816.050781 415.097656 819.367188 414.109375 822.597656 C 410.257812 834.433594 402.734375 842.683594 390.550781 846.089844 C 386.699219 847.167969 382.757812 846.898438 378.90625 846.539062 C 369.859375 845.554688 360.898438 846.359375 351.941406 846.539062 C 341.371094 846.808594 330.800781 846.539062 320.230469 846.539062 C 313.960938 846.539062 307.6875 846.808594 301.507812 848.0625 C 292.101562 849.945312 282.515625 849.589844 273.023438 849.230469 C 266.125 849.050781 259.226562 849.140625 252.238281 849.589844 C 245.164062 850.125 238.175781 848.78125 231.1875 847.703125 C 223.035156 846.449219 214.882812 845.730469 206.644531 845.105469 C 204.402344 844.925781 202.253906 844.746094 200.015625 844.296875 C 196.160156 843.402344 192.308594 842.953125 188.457031 842.324219 C 179.949219 840.980469 172.691406 836.945312 167.046875 830.308594 C 160.417969 822.507812 154.863281 813.898438 149.492188 805.289062 C 145.101562 798.292969 140.53125 791.480469 135.425781 785.023438 C 129.871094 777.847656 125.035156 770.316406 120.734375 762.335938 C 119.300781 759.644531 118.046875 756.953125 117.421875 753.996094 C 116.703125 750.140625 118.585938 747.898438 122.527344 747.988281 C 124.765625 747.988281 126.828125 748.882812 128.886719 749.871094 C 135.15625 752.828125 140.980469 756.507812 146.714844 761.167969 Z M 180.933594 697.054688 C 185.859375 700.460938 191.324219 702.882812 196.429688 706.738281 C 194.550781 707.367188 193.386719 706.738281 192.21875 706.46875 C 184.425781 704.496094 177.351562 700.820312 170.898438 696.066406 C 170.183594 695.527344 169.46875 694.902344 168.75 694.453125 C 168.035156 694.003906 167.226562 694.183594 166.601562 694.722656 C 165.972656 695.167969 166.152344 695.886719 166.332031 696.515625 C 166.78125 698.667969 168.125 700.28125 169.644531 701.714844 C 174.394531 706.199219 180.214844 708.351562 186.578125 709.070312 C 192.308594 709.785156 197.863281 711.222656 203.238281 713.195312 C 205.476562 714 207.628906 715.078125 209.507812 716.871094 C 203.597656 717.050781 198.042969 714.898438 192.308594 714.359375 C 186.398438 713.730469 180.574219 712.746094 174.484375 709.785156 C 176.632812 714.71875 179.5 717.410156 183.890625 718.574219 C 186.128906 719.113281 188.457031 719.742188 190.699219 720.277344 C 196.074219 721.445312 201.445312 722.429688 206.554688 724.582031 C 207.808594 725.121094 209.152344 725.480469 210.316406 727.273438 C 199.835938 727.273438 190.160156 725.390625 180.128906 722.519531 C 181.738281 725.839844 184.246094 727.363281 186.757812 728.707031 C 191.59375 731.398438 196.96875 732.5625 202.253906 733.910156 C 203.417969 734.179688 204.851562 734 205.566406 735.613281 C 199.476562 738.035156 193.742188 735.613281 187.921875 734.265625 C 188.457031 736.597656 190.160156 737.136719 191.683594 737.765625 C 194.28125 738.75 196.96875 739.199219 199.65625 739.738281 C 202.433594 740.277344 205.300781 740.8125 208.074219 741.53125 C 209.332031 741.890625 210.761719 742.160156 211.570312 743.863281 C 207.449219 744.757812 203.597656 744.132812 199.027344 743.863281 C 202.878906 747.089844 205.476562 750.230469 208.164062 753.457031 C 209.152344 754.625 209.777344 755.96875 208.703125 757.402344 C 207.71875 758.660156 206.375 758.210938 205.121094 757.761719 C 201.984375 756.507812 198.847656 755.160156 195.714844 753.90625 C 189.265625 751.394531 182.8125 748.882812 175.917969 748.078125 C 174.664062 747.898438 173.140625 747.359375 172.242188 748.617188 C 171.167969 750.050781 172.601562 751.304688 173.230469 752.472656 C 176.007812 757.492188 179.949219 761.4375 184.964844 764.308594 C 201.714844 773.8125 215.0625 787.535156 229.484375 800 C 232.980469 802.957031 236.292969 806.097656 240.234375 808.339844 C 243.101562 809.953125 245.789062 811.835938 248.207031 814.078125 C 250.089844 815.871094 250.625 818.292969 249.640625 820.085938 C 248.925781 821.339844 247.582031 821.609375 246.953125 820.265625 C 245.878906 817.84375 243.730469 816.589844 241.847656 814.972656 C 237.277344 810.9375 231.90625 807.800781 228.679688 802.328125 C 228.320312 801.703125 227.425781 801.433594 226.796875 800.984375 C 223.304688 798.472656 219.632812 796.140625 216.226562 793.542969 C 204.402344 784.484375 193.207031 774.710938 180.304688 767.179688 C 175.917969 764.667969 172.78125 760.722656 170.542969 756.148438 C 168.839844 752.652344 165.792969 751.933594 162.570312 751.304688 C 161.226562 751.035156 159.433594 751.484375 158.808594 752.828125 C 158.179688 753.90625 159.523438 754.890625 160.152344 755.878906 C 160.417969 756.328125 160.777344 756.6875 161.136719 757.132812 C 171.257812 768.433594 181.738281 779.375 194.90625 787.355469 C 198.042969 789.238281 201.089844 791.300781 204.046875 793.453125 C 205.210938 794.257812 206.554688 794.886719 207 796.410156 C 206.195312 797.128906 205.476562 796.589844 204.761719 796.410156 C 198.3125 794.617188 192.308594 791.75 186.667969 788.160156 C 185.589844 787.445312 184.695312 786.636719 183.171875 786.546875 C 177.261719 786.1875 172.066406 783.679688 167.496094 780.089844 C 164.988281 778.207031 162.75 776.054688 160.417969 773.902344 C 155.492188 769.507812 150.476562 765.292969 144.117188 762.875 C 139.457031 761.167969 135.246094 758.570312 130.949219 756.058594 C 128.796875 754.804688 126.558594 753.636719 124.40625 752.5625 C 123.601562 752.203125 122.617188 751.664062 121.898438 752.5625 C 121.183594 753.367188 121.632812 754.265625 121.898438 755.160156 C 122.617188 757.3125 123.601562 759.285156 124.765625 761.167969 C 128.617188 767.535156 132.738281 773.722656 137.308594 779.640625 C 144.382812 788.878906 151.28125 798.203125 157.820312 807.890625 C 161.941406 813.988281 166.152344 819.90625 170.453125 825.824219 C 174.664062 831.652344 180.214844 835.507812 187.382812 836.855469 C 195.984375 838.46875 204.492188 840.351562 213.273438 840.710938 C 220.078125 840.980469 226.796875 841.515625 233.605469 842.324219 C 239.429688 842.953125 245.25 843.9375 251.164062 843.667969 C 267.828125 843.042969 284.578125 843.757812 301.238281 842.054688 C 319.15625 840.171875 337.25 840.980469 355.257812 839.992188 C 363.675781 839.542969 371.917969 840.621094 380.25 841.785156 C 388.582031 842.863281 395.390625 840.082031 401.300781 834.613281 C 408.109375 828.335938 410.257812 819.996094 410.527344 811.207031 C 410.707031 805.019531 410.886719 798.921875 412.050781 792.914062 C 412.410156 791.210938 412.589844 789.507812 412.320312 787.804688 C 410.886719 777.667969 407.660156 768.523438 399.417969 761.796875 C 397.988281 760.632812 396.734375 759.375 395.300781 758.210938 C 389.566406 753.457031 383.742188 748.792969 378.011719 744.042969 C 375.054688 741.53125 372.902344 738.480469 371.917969 734.714844 C 370.039062 727.8125 369.859375 720.726562 370.394531 713.730469 C 370.664062 709.695312 371.292969 705.660156 372.726562 701.804688 C 373.980469 698.308594 376.128906 695.4375 379.445312 694.003906 C 381.773438 693.015625 381.773438 691.941406 381.234375 689.878906 C 380.429688 686.5625 380.429688 683.152344 381.863281 679.027344 C 383.386719 681.628906 383.207031 683.871094 383.472656 685.933594 C 383.921875 689.339844 384.730469 692.660156 387.773438 694.8125 C 389.65625 696.15625 391.535156 697.5 393.328125 698.847656 C 395.746094 696.246094 397.628906 693.464844 399.0625 690.328125 C 399.6875 688.980469 399.777344 687.996094 398.523438 686.917969 C 397.539062 686.113281 396.734375 685.035156 396.015625 683.960938 C 394.941406 682.167969 395.300781 680.375 396.644531 679.386719 C 397.988281 678.402344 399.6875 678.757812 401.121094 680.464844 C 402.554688 682.257812 403.273438 684.320312 403.628906 686.5625 C 403.808594 687.636719 403.988281 688.535156 404.972656 689.25 C 407.839844 691.3125 410.167969 693.914062 412.140625 696.964844 C 412.410156 696.605469 412.679688 696.425781 412.765625 696.246094 C 415.902344 684.945312 416.082031 674.1875 408.914062 664.054688 C 405.871094 659.75 402.195312 656.699219 397.179688 655.445312 C 389.207031 653.5625 381.324219 654.007812 373.890625 657.597656 C 367.527344 660.644531 361.617188 664.5 355.972656 668.804688 C 349.433594 673.738281 345.132812 680.285156 342.535156 688.085938 C 339.492188 697.410156 338.683594 707.007812 338.148438 716.691406 C 337.789062 724.222656 338.953125 731.488281 341.460938 738.660156 C 343.523438 744.667969 346.925781 749.960938 349.613281 755.519531 C 352.839844 761.976562 357.496094 767.179688 363.050781 771.570312 C 368.605469 775.964844 373.441406 781.078125 377.292969 787.085938 C 380.160156 791.570312 383.207031 795.964844 386.160156 800.445312 C 387.503906 802.507812 388.582031 804.75 389.476562 807.082031 C 389.835938 807.980469 389.835938 808.964844 388.9375 809.59375 C 388.222656 810.132812 387.417969 809.863281 386.699219 809.503906 C 384.730469 808.429688 382.667969 807.621094 381.054688 806.007812 C 373.621094 798.742188 366.8125 791.03125 364.125 780.539062 C 363.585938 778.296875 362.332031 776.59375 360.453125 775.25 C 353.734375 770.226562 348.539062 764.039062 345.402344 756.058594 C 344.328125 753.277344 342.804688 750.679688 341.460938 747.988281 C 340.296875 745.65625 338.773438 743.503906 336.804688 741.710938 C 332.863281 738.035156 329.457031 734 326.054688 729.785156 C 321.214844 723.777344 315.929688 718.125 309.121094 714.179688 C 302.226562 710.234375 295.148438 706.558594 287.625 703.867188 C 279.472656 701 271.5 697.769531 263.882812 693.734375 C 259.855469 691.582031 255.554688 689.96875 251.164062 688.714844 C 245.878906 687.1875 240.773438 685.304688 235.9375 682.617188 C 230.648438 679.746094 225.097656 677.414062 219.722656 674.8125 C 214.078125 672.125 208.253906 671.496094 202.164062 671.855469 C 193.296875 672.390625 184.515625 673.738281 175.738281 674.8125 C 175.109375 674.8125 174.035156 674.542969 174.035156 675.980469 C 178.066406 677.59375 182.277344 679.027344 186.488281 680.285156 C 191.144531 681.539062 195.714844 683.0625 200.191406 684.945312 C 202.433594 685.933594 204.582031 687.007812 206.464844 688.890625 C 205.835938 689.160156 205.566406 689.339844 205.390625 689.339844 C 194.816406 686.917969 184.070312 685.484375 174.035156 681 C 173.140625 680.640625 172.15625 679.746094 171.167969 680.464844 C 169.824219 681.539062 168.300781 681.628906 166.78125 681.71875 C 165.972656 681.71875 165.078125 682.167969 164.898438 682.882812 C 164.628906 683.871094 165.613281 684.140625 166.332031 684.410156 C 176.632812 688.175781 186.128906 693.914062 196.878906 696.425781 C 198.847656 696.875 200.820312 697.410156 202.878906 699.382812 C 194.996094 701.355469 188.367188 698.667969 181.472656 697.054688 Z M 689.839844 784.035156 C 688.765625 783.320312 688.226562 784.035156 687.601562 784.484375 C 685.003906 785.917969 682.40625 787.625 679.539062 788.519531 C 677.65625 789.148438 676.042969 790.222656 674.519531 791.480469 C 665.832031 798.742188 656.875 805.738281 647.46875 812.105469 C 644.332031 814.257812 641.109375 816.140625 637.882812 818.113281 C 636.808594 818.742188 635.285156 819.996094 634.390625 818.742188 C 633.3125 817.214844 635.105469 816.230469 636.179688 815.332031 C 637.257812 814.347656 638.421875 813.539062 639.585938 812.730469 C 650.425781 805.289062 660.90625 797.128906 672.011719 790.132812 C 672.730469 789.6875 673.894531 789.417969 673.535156 788.160156 C 672.820312 785.828125 674.253906 784.753906 676.042969 783.945312 C 681.238281 781.4375 685.808594 777.9375 690.644531 774.890625 C 701.125 768.253906 709.546875 759.285156 717.789062 750.140625 C 719.222656 748.527344 720.386719 746.554688 721.640625 744.667969 C 722.089844 744.042969 722.804688 743.324219 722.269531 742.339844 C 720.207031 743.324219 718.683594 744.757812 717.160156 746.195312 C 714.652344 748.4375 712.234375 750.855469 709.636719 753.097656 C 704.621094 757.492188 699.335938 761.527344 693.152344 764.21875 C 691.898438 764.757812 690.289062 765.652344 689.300781 764.039062 C 688.316406 762.335938 690.019531 761.527344 691.183594 760.722656 C 694.675781 758.210938 697.722656 755.160156 700.949219 752.292969 C 702.378906 751.035156 703.722656 749.691406 704.441406 747.808594 C 704.082031 747.71875 703.992188 747.539062 703.902344 747.628906 C 693.78125 752.472656 682.761719 754.890625 672.28125 758.929688 C 670.578125 759.554688 668.789062 760.183594 666.996094 760.003906 C 665.921875 759.914062 664.9375 759.464844 664.757812 758.210938 C 664.578125 756.953125 665.203125 756.238281 666.371094 755.878906 C 666.996094 755.699219 667.625 755.609375 668.25 755.339844 C 674.433594 753.367188 680.613281 751.484375 686.882812 749.511719 C 684.734375 745.476562 684.914062 744.847656 688.765625 742.515625 C 689.480469 742.070312 690.554688 741.980469 691.003906 740.367188 C 686.703125 741.800781 682.671875 740.542969 678.640625 739.917969 C 677.476562 739.738281 676.222656 739.558594 675.148438 739.738281 C 669.144531 740.8125 663.144531 740.097656 657.230469 739.648438 C 651.679688 739.199219 646.214844 738.304688 640.570312 736.242188 C 642.09375 735.523438 643.257812 735.792969 644.332031 735.972656 C 648.183594 736.507812 652.125 736.507812 656.066406 736.777344 C 667.445312 737.496094 678.375 735.34375 689.300781 732.472656 C 692.078125 731.757812 693.421875 730.320312 693.242188 728.796875 C 693.0625 727.363281 691.632812 726.554688 688.40625 726.464844 C 685.898438 726.464844 683.480469 726.464844 680.972656 726.105469 C 675.238281 725.210938 669.59375 724.761719 663.773438 725.121094 C 660.277344 725.300781 656.695312 725.300781 653.199219 724.851562 C 650.691406 724.492188 648.09375 724.402344 645.585938 722.160156 C 651.230469 721.085938 656.425781 720.457031 661.441406 721.265625 C 667.535156 722.25 673.089844 720.90625 678.640625 719.292969 C 680.972656 718.664062 683.480469 718.484375 685.898438 716.511719 C 684.554688 716.332031 683.746094 716.152344 682.941406 716.0625 C 672.191406 715.078125 661.441406 713.464844 650.78125 711.3125 C 642.09375 709.515625 633.402344 707.902344 624.445312 707.453125 C 612.171875 706.917969 599.902344 707.992188 587.71875 709.429688 C 578.492188 710.503906 569.441406 712.296875 560.84375 715.972656 C 544.808594 722.699219 530.476562 732.117188 517.039062 743.054688 C 510.230469 748.617188 504.320312 755.070312 498.316406 761.4375 C 489.089844 771.214844 478.699219 779.820312 470.1875 790.3125 C 469.382812 791.300781 468.308594 792.195312 467.320312 792.914062 C 465.976562 793.902344 464.457031 795.066406 462.664062 793.992188 C 460.78125 792.824219 461.410156 791.03125 461.769531 789.417969 C 462.664062 785.472656 464.902344 782.332031 467.769531 779.554688 C 475.203125 772.378906 483.535156 766.191406 491.507812 759.734375 C 495.539062 756.507812 498.046875 752.382812 499.300781 747.808594 C 501.273438 740.542969 503.511719 733.28125 504.945312 725.839844 C 507.003906 715.257812 508.347656 704.675781 507.453125 693.914062 C 506.738281 685.035156 504.230469 676.605469 497.691406 670.152344 C 491.957031 664.5 485.597656 659.839844 478.699219 655.714844 C 474.21875 653.113281 469.5625 652.574219 464.722656 653.472656 C 459.796875 654.367188 455.226562 656.339844 451.195312 659.390625 C 447.613281 662.167969 444.210938 665.308594 440.984375 668.535156 C 436.328125 673.289062 434.894531 679.207031 434.265625 685.664062 C 435.25 685.574219 435.878906 685.484375 436.507812 685.484375 C 439.105469 685.484375 440.804688 684.5 441.792969 681.808594 C 442.597656 679.65625 444.300781 677.863281 445.644531 675.980469 C 446.359375 674.992188 447.34375 674.1875 448.597656 674.8125 C 449.765625 675.441406 450.121094 676.605469 449.941406 677.863281 C 449.765625 679.476562 449.046875 680.820312 448.152344 682.167969 C 447.613281 683.0625 446.898438 683.78125 446.898438 684.945312 C 446.898438 689.160156 446.898438 693.375 451.019531 696.066406 C 451.464844 696.335938 451.824219 696.785156 452.183594 697.140625 C 454.421875 699.742188 455.855469 700.191406 458.722656 698.308594 C 465.621094 693.734375 470.636719 687.816406 471.351562 679.027344 C 471.621094 676.070312 471.800781 673.019531 472.160156 670.0625 C 472.339844 668.355469 472.785156 666.472656 475.292969 665.9375 C 475.921875 672.839844 475.921875 679.386719 474.308594 685.933594 C 474.039062 687.097656 473.683594 687.996094 474.578125 689.160156 C 478.96875 695.4375 479.683594 702.792969 478.699219 709.785156 C 475.292969 733.011719 463.199219 751.035156 443.761719 764.039062 C 440.269531 766.371094 436.773438 768.613281 433.371094 771.125 C 425.757812 776.59375 421.097656 784.125 419.84375 793.273438 C 418.320312 803.855469 421.097656 813.71875 426.5625 822.953125 C 427.546875 824.570312 428.710938 825.914062 430.144531 826.992188 C 434.625 830.21875 439.371094 833 444.925781 833.894531 C 452.363281 835.242188 459.707031 837.125 466.964844 839.1875 C 481.921875 843.402344 497.242188 845.820312 512.558594 848.601562 C 524.207031 850.664062 535.761719 849.5 547.226562 847.527344 C 561.203125 845.105469 575.175781 843.9375 589.242188 846.449219 C 595.242188 847.527344 601.332031 848.601562 607.425781 849.320312 C 616.5625 850.394531 625.339844 849.140625 633.851562 845.640625 C 645.855469 840.800781 655.710938 833.089844 664.21875 823.402344 C 670.578125 816.140625 675.507812 807.710938 683.03125 801.34375 C 679.269531 798.921875 678.910156 797.578125 680.882812 794.167969 C 682.136719 792.015625 683.746094 790.132812 685.539062 788.429688 C 686.972656 786.996094 688.40625 785.5625 689.929688 784.035156 Z M 434.894531 697.859375 C 433.28125 698.308594 432.652344 699.292969 432.832031 700.820312 C 433.371094 707.007812 431.9375 713.015625 431.222656 719.113281 C 430.953125 721.265625 429.609375 723.597656 431.398438 725.75 C 433.820312 725.210938 435.339844 723.328125 436.863281 721.625 C 441.613281 716.152344 444.925781 709.785156 449.046875 703.957031 C 449.496094 703.328125 449.765625 702.703125 449.496094 701.804688 C 448.6875 699.027344 445.285156 696.15625 442.328125 695.976562 C 438.925781 695.707031 438.117188 696.695312 438.566406 700.101562 C 438.835938 701.625 439.105469 703.152344 439.195312 704.765625 C 439.195312 705.390625 438.835938 706.019531 438.117188 706.199219 C 437.3125 706.378906 436.597656 706.199219 436.058594 705.480469 C 435.609375 704.765625 435.339844 704.046875 435.699219 703.242188 C 436.417969 701.355469 435.429688 699.742188 434.894531 698.039062 Z M 407.660156 727.003906 C 408.109375 725.480469 407.839844 724.222656 407.660156 722.96875 C 406.585938 717.140625 407.660156 711.578125 409.273438 706.019531 C 410.4375 701.984375 409.722656 700.28125 405.960938 697.949219 C 405.511719 699.027344 406.316406 699.652344 406.855469 700.371094 C 407.660156 701.445312 408.199219 702.613281 408.199219 703.957031 C 408.199219 705.214844 408.46875 706.828125 406.855469 707.1875 C 405.421875 707.542969 404.792969 706.289062 404.257812 705.304688 C 403.363281 703.507812 403.09375 701.625 403.003906 699.652344 C 402.914062 698.308594 403.363281 696.785156 402.105469 695.347656 C 400.316406 697.589844 398.433594 699.742188 396.375 701.714844 C 395.566406 702.433594 394.941406 703.507812 395.300781 704.855469 C 396.820312 710.144531 397.71875 715.527344 400.046875 720.546875 C 401.660156 724.042969 403.71875 726.464844 407.839844 727.09375 Z M 175.378906 780.539062 C 175.558594 780.269531 175.738281 780.089844 175.828125 779.820312 C 169.914062 774.441406 165.167969 768.074219 159.882812 762.15625 C 158.539062 760.632812 156.835938 759.734375 155.042969 759.015625 C 153.523438 758.480469 152 758.660156 151.191406 760.003906 C 150.476562 761.347656 152 761.976562 152.804688 762.695312 C 158.894531 767.804688 165.078125 772.738281 171.257812 777.757812 C 172.511719 778.746094 173.945312 779.640625 175.289062 780.539062 Z M 481.476562 772.648438 L 480.757812 772.109375 C 475.921875 775.785156 471.261719 779.730469 467.144531 784.304688 C 466.15625 785.382812 465.261719 786.457031 464.722656 787.804688 C 464.457031 788.429688 464.277344 789.058594 464.902344 789.507812 C 465.441406 789.953125 466.15625 789.953125 466.695312 789.507812 C 467.5 788.878906 468.308594 788.160156 469.023438 787.445312 C 471.980469 784.125 474.847656 780.808594 477.714844 777.402344 C 479.058594 775.875 480.222656 774.171875 481.386719 772.558594 Z M 368.15625 783.140625 C 370.394531 790.582031 375.054688 796.320312 380.875 801.253906 C 376.933594 794.976562 373.53125 788.339844 368.15625 783.140625 Z M 368.15625 783.140625 " fill-opacity="1" fill-rule="nonzero"/></g><path fill="#000000" d="M 266.304688 807.621094 C 263.347656 808.070312 261.109375 807.351562 258.867188 806.367188 C 255.105469 804.839844 251.523438 803.046875 248.117188 800.894531 C 243.191406 797.757812 238.265625 794.527344 233.425781 791.121094 C 230.023438 788.699219 226.796875 786.007812 224.558594 782.421875 C 224.199219 781.882812 223.753906 781.257812 224.289062 780.71875 C 224.828125 780.179688 225.542969 780.449219 226.082031 780.808594 C 237.191406 789.148438 250.449219 793.8125 261.464844 802.328125 C 263.257812 803.765625 265.226562 805.019531 266.394531 807.621094 Z M 266.304688 807.621094 " fill-opacity="1" fill-rule="nonzero"/><path fill="#000000" d="M 308.675781 796.5 C 306.347656 793.09375 304.015625 789.6875 302.851562 785.742188 C 302.136719 783.320312 303.121094 781.078125 304.554688 779.105469 C 306.703125 776.324219 307.511719 773.542969 306.167969 770.046875 C 305.449219 768.164062 305.628906 765.921875 305.898438 763.859375 C 306.257812 761.347656 307.601562 759.554688 309.839844 758.300781 C 312.527344 756.777344 312.527344 756.777344 311.273438 753.726562 C 310.109375 750.855469 310.734375 747.988281 313.152344 746.015625 C 315.214844 744.3125 318.347656 744.3125 320.410156 746.015625 C 321.214844 746.640625 321.125 747.359375 320.140625 747.71875 C 319.335938 747.988281 318.347656 748.078125 317.453125 748.257812 C 314.765625 748.792969 313.960938 750.140625 314.765625 752.652344 C 314.855469 753.007812 315.125 753.367188 315.214844 753.726562 C 316.917969 758.390625 316.648438 759.105469 312.167969 761.347656 C 309.390625 762.695312 308.046875 765.117188 308.855469 767.714844 C 310.375 772.648438 309.210938 776.863281 306.613281 781.078125 C 305.539062 782.871094 306.167969 784.574219 306.882812 786.367188 C 308.226562 789.597656 309.035156 792.914062 308.675781 796.589844 Z M 308.675781 796.5 " fill-opacity="1" fill-rule="nonzero"/><path fill="#000000" d="M 193.296875 814.703125 C 190.25 815.242188 188.457031 814.167969 186.84375 812.910156 C 184.605469 811.296875 182.636719 809.414062 180.84375 807.261719 C 175.558594 800.625 169.644531 794.617188 163.015625 789.238281 C 161.851562 788.25 160.597656 787.175781 159.882812 785.828125 C 159.523438 785.203125 159.523438 784.574219 159.882812 783.945312 C 160.328125 783.410156 160.957031 783.140625 161.671875 783.410156 C 162.390625 783.679688 163.105469 783.945312 163.824219 784.304688 C 169.46875 787.625 174.484375 791.660156 178.695312 796.769531 C 183.351562 802.597656 186.757812 809.59375 193.296875 814.527344 Z M 193.296875 814.703125 " fill-opacity="1" fill-rule="nonzero"/><path fill="#000000" d="M 270.691406 718.574219 C 267.019531 719.382812 263.527344 718.394531 260.03125 717.5 C 252.238281 715.4375 244.714844 712.386719 237.191406 709.605469 C 236.5625 709.429688 236.023438 709.070312 235.398438 708.800781 C 234.949219 708.53125 234.59375 708.171875 234.679688 707.542969 C 234.769531 706.917969 235.308594 706.738281 235.847656 706.738281 C 237.28125 706.828125 238.710938 706.917969 240.054688 707.1875 C 244.175781 707.992188 248.117188 709.339844 251.96875 710.863281 C 258.242188 713.375 264.421875 715.972656 270.601562 718.574219 Z M 270.691406 718.574219 " fill-opacity="1" fill-rule="nonzero"/><path fill="#000000" d="M 287.890625 753.816406 C 284.21875 753.277344 280.90625 750.410156 280.367188 747.449219 C 280.007812 745.566406 280.90625 744.132812 282.25 742.964844 C 283.234375 742.160156 284.308594 741.441406 285.382812 740.632812 C 284.757812 738.75 283.414062 737.40625 282.964844 735.613281 C 282.429688 733.191406 283.144531 731.128906 285.117188 730.320312 C 287.445312 729.335938 289.683594 730.320312 291.027344 732.832031 C 291.027344 732.832031 290.847656 733.101562 290.757812 733.101562 C 287.773438 733.640625 286.964844 735.195312 288.339844 737.765625 C 289.863281 740.632812 289.683594 741.800781 287.265625 743.863281 C 286.90625 744.222656 286.457031 744.492188 286.011719 744.757812 C 284.578125 745.65625 284.667969 746.730469 285.5625 748.078125 C 286.726562 749.78125 287.980469 751.394531 287.980469 753.726562 Z M 287.890625 753.816406 " fill-opacity="1" fill-rule="nonzero"/><path fill="#000000" d="M 282.785156 816.945312 C 293.089844 820.535156 303.03125 824.660156 312.707031 830.21875 C 307.242188 832.28125 287.265625 823.492188 282.785156 816.945312 Z M 282.785156 816.945312 " fill-opacity="1" fill-rule="nonzero"/><path fill="#000000" d="M 260.03125 746.285156 C 254.300781 747.269531 249.28125 746.554688 244.625 743.503906 C 243.730469 742.964844 243.101562 742.070312 242.832031 740.992188 C 242.476562 739.46875 243.730469 738.035156 244.984375 738.75 C 249.460938 741.441406 254.746094 742.339844 259.226562 745.027344 C 259.496094 745.207031 259.675781 745.566406 260.121094 746.285156 Z M 260.03125 746.285156 " fill-opacity="1" fill-rule="nonzero"/><path fill="#000000" d="M 261.824219 727.722656 C 258.6875 728.4375 255.464844 728.257812 252.328125 727.8125 C 248.925781 727.363281 245.699219 726.285156 242.566406 725.03125 C 241.9375 724.761719 241.398438 724.492188 240.863281 724.132812 C 240.234375 723.777344 240.054688 723.148438 240.324219 722.429688 C 240.503906 721.804688 241.042969 721.714844 241.578125 721.714844 C 242.386719 721.714844 243.191406 721.714844 243.910156 721.890625 C 249.910156 723.507812 255.910156 725.121094 262.003906 726.734375 C 262.003906 727.09375 262.003906 727.363281 262.003906 727.722656 Z M 261.824219 727.722656 " fill-opacity="1" fill-rule="nonzero"/><path fill="#000000" d="M 269.347656 776.144531 C 265.945312 777.667969 263.167969 777.667969 260.300781 777.222656 C 259.136719 777.042969 257.972656 776.683594 257.167969 775.875 C 255.824219 774.53125 256.179688 772.558594 258.0625 772.378906 C 262.09375 772.019531 266.035156 772.738281 269.4375 776.144531 Z M 269.347656 776.144531 " fill-opacity="1" fill-rule="nonzero"/><path fill="#000000" d="M 263.167969 760.722656 C 259.046875 763.054688 254.835938 763.679688 250.269531 762.425781 C 249.820312 762.246094 249.371094 761.976562 248.925781 761.707031 C 248.117188 761.078125 247.761719 760.363281 248.117188 759.375 C 248.476562 758.480469 249.371094 758.480469 250.089844 758.660156 C 254.390625 759.734375 258.867188 759.105469 263.078125 760.8125 Z M 263.167969 760.722656 " fill-opacity="1" fill-rule="nonzero"/><path fill="#000000" d="M 645.050781 764.488281 C 642.273438 763.140625 639.765625 762.875 637.34375 762.425781 C 635.914062 762.15625 634.480469 761.796875 634.03125 760.09375 C 633.582031 758.480469 634.570312 757.3125 635.734375 756.417969 C 637.078125 755.339844 638.421875 754.625 637.167969 752.382812 C 636.359375 750.945312 637.972656 748.972656 639.675781 749.421875 C 646.929688 751.214844 654.546875 750.230469 661.710938 752.652344 C 662.160156 752.828125 662.605469 753.097656 663.144531 753.367188 C 662.160156 754.714844 660.726562 754.445312 659.5625 754.535156 C 655.53125 754.804688 651.5 755.25 647.46875 755.160156 C 643.972656 755.070312 641.464844 756.148438 639.675781 759.015625 C 641.019531 759.914062 642.628906 759.914062 644.152344 760.363281 C 645.40625 760.722656 646.660156 761.078125 647.828125 761.617188 C 650.691406 763.054688 651.050781 765.292969 648.8125 767.625 C 646.839844 769.597656 644.421875 770.855469 641.824219 771.839844 C 634.925781 774.441406 627.851562 775.875 620.503906 776.683594 C 619.339844 776.773438 618.175781 776.863281 616.652344 776.953125 C 617.90625 778.476562 619.429688 778.65625 620.773438 779.195312 C 623.910156 780.539062 624.175781 781.972656 621.847656 784.484375 C 619.25 787.265625 616.023438 788.878906 612.441406 789.867188 C 609.84375 790.582031 607.605469 791.660156 605.453125 793.183594 C 600.707031 796.5 595.78125 799.460938 590.40625 801.433594 C 583.6875 803.945312 577.328125 802.957031 571.324219 799.101562 C 569.980469 798.292969 568.816406 797.21875 568.011719 795.875 C 567.652344 795.15625 567.382812 794.347656 568.011719 793.632812 C 568.726562 792.734375 569.355469 793.363281 570.070312 793.8125 C 579.566406 799.460938 588.792969 797.128906 598.648438 792.554688 C 596.316406 792.105469 594.707031 791.929688 593.09375 791.570312 C 589.957031 790.851562 587.179688 789.597656 584.671875 787.625 C 583.957031 787.085938 583.238281 786.367188 583.597656 785.292969 C 584.046875 784.125 585.121094 784.574219 585.925781 784.664062 C 586.195312 784.664062 586.464844 784.753906 586.644531 784.933594 C 593.449219 787.804688 600.4375 786.996094 607.425781 785.742188 C 610.203125 785.203125 613.070312 784.933594 615.757812 783.765625 C 616.921875 783.320312 618.355469 783.140625 619.070312 781.703125 C 617.457031 781.078125 615.9375 780.449219 614.324219 779.910156 C 612.710938 779.285156 611.1875 778.386719 610.5625 776.683594 C 609.933594 774.980469 608.859375 774.171875 606.976562 774.53125 C 605.722656 774.710938 604.558594 774.53125 604.023438 773.1875 C 603.484375 771.660156 604.378906 770.675781 605.542969 769.957031 C 607.515625 768.703125 609.484375 767.445312 611.097656 765.652344 C 611.546875 765.203125 611.996094 764.667969 611.996094 763.769531 C 608.410156 762.066406 604.648438 761.4375 600.347656 762.695312 C 602.855469 758.480469 605.363281 757.492188 608.949219 758.570312 C 610.292969 759.015625 611.726562 759.195312 613.070312 759.734375 C 616.113281 760.902344 616.921875 762.964844 615.578125 766.011719 C 614.949219 767.445312 613.875 768.613281 612.800781 769.777344 C 612.171875 770.40625 611.457031 771.035156 612.261719 772.109375 C 612.890625 772.917969 613.335938 773.902344 614.679688 773.632812 C 615.9375 773.367188 617.28125 773.1875 618.535156 772.917969 C 624.265625 771.839844 630.089844 770.585938 635.644531 768.972656 C 638.777344 768.074219 641.824219 766.910156 644.960938 764.667969 Z M 645.050781 764.488281 " fill-opacity="1" fill-rule="nonzero"/><path fill="#000000" d="M 674.34375 771.214844 C 668.789062 770.226562 663.324219 770.765625 657.859375 767.535156 C 660.277344 766.640625 662.339844 766.640625 664.308594 766.550781 C 670.042969 766.550781 675.777344 765.921875 681.417969 765.027344 C 682.851562 764.757812 684.824219 764.039062 685.628906 765.921875 C 686.4375 767.804688 684.644531 768.703125 683.480469 769.597656 C 681.867188 770.855469 680.164062 772.109375 678.375 773.1875 C 669.863281 778.207031 660.90625 782.511719 651.859375 786.546875 C 648.632812 787.980469 645.230469 788.96875 641.644531 789.058594 C 641.109375 789.058594 640.570312 789.058594 640.121094 789.058594 C 638.777344 788.878906 636.808594 789.328125 636.628906 787.445312 C 636.449219 785.742188 638.332031 785.742188 639.496094 785.382812 C 649.886719 782.242188 659.742188 777.757812 669.683594 773.632812 C 671.296875 772.917969 672.820312 772.019531 674.34375 771.214844 Z M 674.34375 771.214844 " fill-opacity="1" fill-rule="nonzero"/><path fill="#000000" d="M 553.855469 734.265625 C 554.214844 734.265625 554.484375 734.265625 554.753906 734.265625 C 559.230469 734.445312 560.84375 736.597656 559.769531 740.902344 C 559.292969 742.875 559.976562 744.25 561.828125 745.027344 C 565.503906 746.554688 566.21875 748.703125 564.246094 752.023438 C 563.710938 752.917969 563.171875 753.816406 562.367188 754.535156 C 560.214844 756.6875 559.140625 758.480469 561.648438 761.347656 C 563.621094 763.589844 562.726562 766.640625 561.292969 769.152344 C 560.128906 771.214844 559.5 772.828125 561.203125 775.070312 C 562.457031 776.773438 561.558594 779.105469 560.484375 780.988281 C 559.410156 782.78125 558.335938 784.484375 558.785156 786.816406 C 558.960938 788.070312 558.425781 789.417969 557.351562 790.3125 C 555.917969 791.480469 554.304688 790.941406 553.765625 789.238281 C 552.601562 785.203125 552.78125 781.527344 556.007812 778.386719 C 556.992188 777.492188 558.066406 776.234375 557.53125 774.980469 C 556.363281 772.46875 557.53125 770.40625 558.515625 768.34375 C 559.859375 765.382812 560.484375 762.695312 557.707031 760.183594 C 556.363281 758.929688 556.992188 757.492188 557.707031 756.238281 C 558.875 754.355469 560.304688 752.652344 561.472656 750.765625 C 562.726562 748.703125 562.546875 748.347656 560.21875 747.539062 C 559.769531 747.359375 559.230469 747.269531 558.695312 747 C 555.738281 745.835938 555.289062 745.027344 555.738281 741.980469 C 555.828125 741.351562 556.007812 740.722656 556.097656 740.097656 C 556.453125 738.660156 555.648438 738.214844 554.394531 738.214844 C 552.421875 738.214844 550.542969 738.570312 548.75 739.46875 C 547.585938 740.097656 546.421875 740.277344 545.703125 738.929688 C 544.988281 737.496094 545.703125 736.417969 547.046875 735.703125 C 549.199219 734.625 551.4375 734 553.675781 734.089844 Z M 553.855469 734.265625 " fill-opacity="1" fill-rule="nonzero"/><path fill="#000000" d="M 669.414062 781.703125 C 669.234375 782.0625 669.148438 782.421875 668.96875 782.511719 C 657.679688 790.941406 646.574219 799.550781 634.300781 806.542969 C 631.34375 808.25 628.296875 809.59375 624.984375 810.492188 C 624.175781 810.667969 623.101562 811.207031 622.65625 810.042969 C 622.207031 808.964844 623.101562 808.429688 623.820312 807.800781 C 624.265625 807.441406 624.625 807.171875 625.164062 806.902344 C 634.03125 802.152344 642.003906 795.875 650.425781 790.582031 C 655.886719 787.175781 661.351562 784.035156 667.445312 781.792969 C 668.070312 781.617188 668.609375 781.167969 669.503906 781.617188 Z M 669.414062 781.703125 " fill-opacity="1" fill-rule="nonzero"/><path fill="#000000" d="M 580.28125 734 C 589.421875 733.460938 598.109375 730.5 607.15625 729.785156 C 610.472656 729.515625 613.515625 728.707031 616.292969 726.644531 C 616.652344 726.375 617.011719 726.375 617.367188 726.644531 C 612.441406 733.460938 590.316406 738.035156 580.28125 733.910156 Z M 580.28125 734 " fill-opacity="1" fill-rule="nonzero"/><path fill="#000000" d="M 598.46875 834.972656 C 601.15625 834.34375 603.753906 833.714844 606.351562 833.089844 C 612.171875 831.5625 617.996094 830.039062 623.101562 826.722656 C 623.820312 826.273438 624.714844 825.914062 625.609375 825.554688 C 625.96875 825.375 626.417969 825.464844 626.683594 825.734375 C 627.132812 826.273438 626.953125 826.722656 626.507812 827.078125 C 624.804688 828.515625 623.28125 830.21875 621.398438 831.292969 C 615.21875 834.703125 608.679688 836.675781 601.601562 836.226562 C 600.617188 836.226562 599.453125 836.226562 598.558594 834.972656 Z M 598.46875 834.972656 " fill-opacity="1" fill-rule="nonzero"/><path fill="#000000" d="M 617.546875 740.722656 C 617.367188 741.53125 616.921875 741.890625 616.292969 742.160156 C 608.410156 746.285156 600.167969 747.71875 591.390625 745.746094 C 590.851562 745.65625 590.40625 745.476562 589.957031 745.207031 C 589.507812 745.027344 589.0625 744.578125 589.332031 744.042969 C 589.507812 743.773438 589.957031 743.59375 590.226562 743.503906 C 590.585938 743.503906 591.03125 743.503906 591.390625 743.503906 C 599.902344 744.042969 608.230469 742.875 616.382812 740.542969 C 616.742188 740.453125 617.101562 740.542969 617.546875 740.542969 Z M 617.546875 740.722656 " fill-opacity="1" fill-rule="nonzero"/><path fill="#000000" d="M 609.308594 716.691406 C 601.960938 719.113281 594.527344 721.535156 587.179688 723.867188 C 586.734375 724.042969 586.195312 724.132812 585.65625 724.132812 C 585.210938 724.132812 584.582031 724.132812 584.492188 723.417969 C 584.492188 723.058594 584.582031 722.609375 584.851562 722.339844 C 585.210938 721.980469 585.65625 721.625 586.105469 721.445312 C 593.539062 718.304688 601.246094 716.332031 609.308594 715.882812 C 609.308594 716.152344 609.308594 716.421875 609.308594 716.691406 Z M 609.308594 716.691406 " fill-opacity="1" fill-rule="nonzero"/><path fill="#000000" d="M 546.511719 821.429688 C 548.480469 819.546875 550.003906 818.203125 551.4375 816.765625 C 552.332031 815.960938 552.78125 814.972656 551.4375 814.257812 C 549.558594 813.359375 549.019531 812.464844 550.8125 810.847656 C 552.15625 809.59375 551.707031 808.25 550.363281 807.171875 C 549.914062 806.8125 549.644531 806.277344 550.003906 805.828125 C 550.363281 805.199219 551.078125 805.109375 551.707031 805.289062 C 553.765625 805.828125 555.109375 808.070312 554.214844 810.667969 C 553.765625 812.195312 553.585938 813.179688 554.753906 814.4375 C 555.738281 815.511719 555.199219 816.945312 554.304688 818.023438 C 552.421875 820.175781 550.183594 821.609375 546.511719 821.429688 Z M 546.511719 821.429688 " fill-opacity="1" fill-rule="nonzero"/><path fill="#000000" d="M 601.15625 756.328125 C 600.167969 757.671875 598.738281 757.671875 597.394531 758.03125 C 593.898438 758.839844 590.40625 758.390625 587 757.582031 C 585.746094 757.3125 584.492188 756.867188 583.867188 755.519531 C 583.597656 754.980469 583.597656 754.535156 583.867188 754.085938 C 584.132812 753.636719 584.582031 753.457031 585.210938 753.636719 C 585.835938 753.816406 586.464844 753.90625 587.089844 754.085938 C 590.496094 755.070312 593.898438 755.789062 597.394531 755.609375 C 598.648438 755.609375 599.992188 755.519531 601.15625 756.417969 Z M 601.15625 756.328125 " fill-opacity="1" fill-rule="nonzero"/></svg>